<svg width="102" height="109" viewBox="0 0 102 109" fill="none" xmlns="http://www.w3.org/2000/svg">
<path opacity="0.56" d="M48.4771 108.999C69.1239 108.999 85.8614 107.184 85.8614 104.945C85.8614 102.707 69.1239 100.892 48.4771 100.892C27.8303 100.892 11.0928 102.707 11.0928 104.945C11.0928 107.184 27.8303 108.999 48.4771 108.999Z" fill="#37C848" fill-opacity="0.33"/>
<path d="M29.1839 0.204589L30.3278 2.65966C30.3993 2.72785 30.4708 2.79605 30.5423 2.86425L33.116 3.95538C33.402 4.09177 33.402 4.50095 33.116 4.63734L30.5423 5.72849C30.4708 5.79668 30.3993 5.86488 30.3278 5.93308L29.1839 8.38814C29.0409 8.66092 28.6119 8.66092 28.4689 8.38814L27.325 5.93308C27.2535 5.86488 27.182 5.79668 27.1105 5.72849L24.5367 4.63734C24.2508 4.50095 24.2508 4.09177 24.5367 3.95538L27.1105 2.86425C27.182 2.79605 27.2535 2.72785 27.325 2.65966L28.4689 0.204589C28.6119 -0.0681962 29.0409 -0.0681962 29.1839 0.204589Z" fill="#38BE9E"/>
<path d="M9.84062 43.4964L11.3011 46.582C11.3011 46.6962 11.4228 46.8105 11.5445 46.8105L14.8306 48.1819C15.1958 48.2962 15.1958 48.8676 14.8306 49.0961L11.5445 50.4675C11.4228 50.4675 11.3011 50.5818 11.3011 50.696L9.84062 53.7816C9.71891 54.1245 9.11031 54.1245 8.86689 53.7816L7.40645 50.696C7.40645 50.5818 7.28473 50.4675 7.16302 50.4675L3.87687 49.0961C3.51175 48.9819 3.51175 48.4104 3.87687 48.1819L7.16302 46.8105C7.28473 46.8105 7.40645 46.6962 7.40645 46.582L8.86689 43.4964C9.11031 43.1535 9.5972 43.1535 9.84062 43.4964Z" fill="#7BFFE0"/>
<path d="M83.5624 7.56704L85.6213 11.8871C85.6213 12.0471 85.7929 12.2071 85.9645 12.2071L90.5974 14.1271C91.1121 14.2871 91.1121 15.0872 90.5974 15.4072L85.9645 17.3272C85.7929 17.3272 85.6213 17.4872 85.6213 17.6472L83.5624 21.9673C83.3908 22.4473 82.5328 22.4473 82.1896 21.9673L80.1307 17.6472C80.1307 17.4872 79.9591 17.3272 79.7875 17.3272L75.1546 15.4072C74.6399 15.2472 74.6399 14.4471 75.1546 14.1271L79.7875 12.2071C79.9591 12.2071 80.1307 12.0471 80.1307 11.8871L82.1896 7.56704C82.5328 7.08703 83.2192 7.08703 83.5624 7.56704Z" fill="#96FFA3"/>
<path d="M94.374 65.1239L96.0059 68.8853C96.0059 69.0028 96.1225 69.1204 96.2391 69.1204L99.9693 70.766C100.436 71.0011 100.436 71.5889 99.9693 71.8239L96.2391 73.4696C96.1225 73.4696 96.0059 73.5871 96.0059 73.7047L94.374 77.4661C94.1409 77.9363 93.558 77.9363 93.3249 77.4661L91.6929 73.7047C91.6929 73.5871 91.5764 73.4696 91.4598 73.4696L87.7296 71.8239C87.2633 71.5889 87.2633 71.0011 87.7296 70.766L91.4598 69.1204C91.5764 69.1204 91.6929 69.0028 91.6929 68.8853L93.3249 65.1239C93.558 64.7712 94.2575 64.7712 94.374 65.1239Z" fill="#37C848"/>
<path d="M70.121 98.421L60.8384 29.6798C60.437 26.7445 58.0286 24.035 55.4696 23.6336L25.7152 19.0676L26.0163 18.1143L23.7583 19.0676C23.4824 19.1429 23.2064 19.2683 22.9555 19.4188L22.9053 19.4439C21.6509 20.2217 20.9485 21.8524 21.1492 23.8594L28.6505 95.862C28.9766 98.9478 31.4353 101.557 34.1448 101.682L65.9313 103.439C66.7341 103.489 67.4616 103.313 68.0888 102.987L69.9203 102.209L69.6945 101.281C70.0959 100.478 70.2464 99.4997 70.121 98.421Z" fill="#38BE9E"/>
<path d="M30.5831 92.124L23.3828 22.9313C23.0567 19.8454 24.8881 17.6628 27.4722 18.0642L57.6781 22.6804C59.6099 22.9814 61.4413 24.5871 62.3947 26.5941" fill="#48878C"/>
<path d="M68.139 102.51L36.3525 100.754C33.643 100.604 31.1844 97.9946 30.8583 94.9338L23.3569 22.9313C23.0308 19.8454 24.8622 17.6628 27.4463 18.0642L57.6773 22.6804C60.2614 23.0818 62.6448 25.7913 63.0462 28.7266L72.3287 97.4677C72.7301 100.403 70.8485 102.661 68.139 102.51Z" fill="#70CFB9"/>
<path d="M66.7596 91.9477L35.1738 89.8152C33.5933 89.7149 32.1382 88.1594 31.9626 86.3531L25.6906 26.9447C25.4899 25.1384 26.5937 23.8338 28.099 24.0596L58.4555 28.4751C59.9859 28.7009 61.3908 30.2814 61.6417 32.0376L69.2183 89.0124C69.4441 90.7435 68.3653 92.0732 66.7596 91.9477Z" fill="#79B29F"/>
<path d="M54.567 95.5603C54.7928 97.4419 53.6136 98.872 51.9327 98.7716C50.2518 98.6712 48.6964 97.0656 48.4706 95.184C48.2448 93.3024 49.4239 91.8724 51.1048 91.9727C52.7857 92.0982 54.3412 93.7038 54.567 95.5603Z" fill="#7BFFE0" stroke="#70CFB9" stroke-width="0.557" stroke-miterlimit="10"/>
<path d="M45.7108 25.3646L40.5427 24.612C40.2667 24.5618 39.9908 24.2608 39.9657 23.9346C39.9155 23.6085 40.1162 23.3576 40.4173 23.4078L45.5854 24.1855C45.8614 24.2357 46.1373 24.5367 46.1624 24.8629C46.1875 25.189 46.0119 25.4148 45.7108 25.3646Z" fill="#183E54" stroke="#215670" stroke-width="0.557" stroke-miterlimit="10"/>
<path d="M33.0414 88.7365C32.4643 88.1093 32.0378 87.2563 31.9626 86.3531L25.6906 26.9447C25.4899 25.1384 26.5937 23.8338 28.099 24.0596L58.4555 28.4751C59.2082 28.5754 59.9357 29.027 60.5127 29.6542" fill="#89CCB8"/>
<path d="M62.4438 58.7064L31.0978 55.952L27.9478 24.085L57.8194 28.2146L62.4438 58.7064Z" fill="#F2F2F2"/>
<path d="M67.963 92.0733L35.0977 89.9408L31.46 59.2832L63.0959 62.1432L67.963 92.0733Z" fill="#F2F2F2"/>
<path d="M56.3057 50.2575L35.1816 48.3257C34.153 48.2253 33.2498 47.3974 33.1495 46.4441L33.0993 45.9674C32.999 45.0141 33.7516 44.3367 34.7551 44.412L55.7538 46.3437C56.7573 46.4441 57.6856 47.272 57.8361 48.2253L57.9114 48.702C58.0117 49.6554 57.3092 50.3327 56.3057 50.2575Z" fill="#00F57E"/>
<path d="M55.8038 43.986L34.6797 42.0542C33.6511 41.9538 32.7479 41.1259 32.6475 40.1726L32.5974 39.6959C32.497 38.7426 33.2496 38.0652 34.2532 38.1405L55.2518 40.0722C56.2553 40.1726 57.1836 41.0005 57.3341 41.9538L57.4094 42.4305C57.5097 43.3839 56.8073 44.0612 55.8038 43.986Z" fill="#00F57E"/>
<path d="M55.3023 37.7135L34.1782 35.7817C33.1496 35.6814 32.2464 34.8535 32.1461 33.9001L32.0959 33.4235C31.9955 32.4701 32.7482 31.7927 33.7517 31.868L54.7504 33.7998C55.7539 33.9001 56.6821 34.728 56.8327 35.6814L56.9079 36.1581C57.0083 37.1114 56.3058 37.7888 55.3023 37.7135Z" fill="#00F57E"/>
<path d="M58.9813 68.5917L37.4056 66.6851C36.377 66.5847 35.4488 65.7568 35.3233 64.8035L35.2731 64.3268C35.1728 63.3734 35.9254 62.6961 36.954 62.7713L58.4043 64.678C59.4329 64.7784 60.3862 65.6063 60.5117 66.5596L60.5869 67.0363C60.7375 67.9896 60.0099 68.667 58.9813 68.5917Z" fill="#00F57E"/>
<path d="M64.1477 90.3089L40.3025 88.7397C39.1556 88.6549 38.1154 87.9551 38.0087 87.1492L35.6082 70.3118C35.5015 69.506 36.3017 68.9334 37.4219 68.997L60.4135 70.6087C61.5071 70.6935 62.5207 71.3933 62.6807 72.1991L65.9347 88.9942C66.0948 89.8 65.2946 90.3937 64.1477 90.3089Z" fill="#37C848"/>
<path d="M35.9262 79.8562L16.9346 78.3258L15.2788 66.5596L34.446 68.0899L35.9262 79.8562Z" fill="#7BFFE0"/>
<path d="M15.2788 66.5596L26.8695 73.3082L34.446 68.0899" stroke="#CCCCCC" stroke-width="0.2785" stroke-miterlimit="10"/>
<path d="M30.0554 68.3656L35.3239 68.7921C36.478 68.8925 37.3059 67.889 37.1302 66.5844L36.9797 65.3049C36.8292 64.0003 35.7504 62.8463 34.5713 62.7459L29.2777 62.3194C28.0986 62.2191 27.2957 63.2226 27.4714 64.5272L27.647 65.8067C27.8226 67.1363 28.9014 68.2653 30.0554 68.3656Z" fill="#4B9B88"/>
<path d="M31.5859 68.0145L29.5036 69.4696L29.1523 66.71L31.5859 68.0145Z" fill="#4B9B88"/>
<path d="M29.0772 64.4524L28.751 64.628L28.6758 64.3772L29.0772 64.1514L29.303 64.1765L29.604 66.4595L29.3281 66.4344L29.0772 64.4524Z" fill="#F2F2F2"/>
<path d="M31.5362 65.4799C31.6366 66.2576 31.4359 66.659 30.9843 66.634C30.5829 66.6089 30.2568 66.1573 30.1564 65.4046C30.0561 64.6269 30.3069 64.2255 30.7083 64.2757C31.1348 64.3008 31.4359 64.7524 31.5362 65.4799ZM30.4324 65.4297C30.5076 66.0318 30.7083 66.3831 30.9592 66.4082C31.2352 66.4333 31.3355 66.082 31.2603 65.4799C31.185 64.928 31.0094 64.5266 30.7334 64.5015C30.4826 64.4764 30.3571 64.8025 30.4324 65.4297Z" fill="#F2F2F2"/>
<path d="M33.1417 65.6059C33.2421 66.3836 33.0414 66.785 32.5898 66.7599C32.1884 66.7348 31.8622 66.2833 31.7619 65.5306C31.6615 64.7529 31.9124 64.3515 32.3138 64.4017C32.7403 64.4267 33.0414 64.8783 33.1417 65.6059ZM32.0378 65.5557C32.1131 66.1578 32.3138 66.5091 32.5647 66.5341C32.8407 66.5592 32.941 66.208 32.8657 65.6059C32.7905 65.0539 32.6149 64.6525 32.3389 64.6274C32.088 64.6024 31.9626 64.9285 32.0378 65.5557Z" fill="#F2F2F2"/>
<path d="M34.7477 65.7319C34.848 66.5096 34.6473 66.911 34.1957 66.8859C33.7943 66.8608 33.4682 66.4092 33.3678 65.6566C33.2675 64.8789 33.5184 64.4775 33.9198 64.5276C34.3463 64.5527 34.6473 65.0043 34.7477 65.7319ZM33.6438 65.6817C33.7191 66.2838 33.9198 66.635 34.1706 66.6601C34.4466 66.6852 34.547 66.334 34.4717 65.7319C34.3964 65.1799 34.2208 64.7785 33.9449 64.7534C33.694 64.7283 33.5685 65.0545 33.6438 65.6817Z" fill="#F2F2F2"/>
<path d="M26.9696 89.0877C26.7438 86.3531 24.4106 83.8693 21.8014 83.5934C19.1923 83.2923 17.1602 85.2994 17.2354 88.034C17.3107 90.7685 19.5937 93.2523 22.3534 93.5282C22.529 93.5533 22.7297 93.5533 22.9053 93.5533L25.389 94.9332L24.7869 93.1268C26.242 92.4244 27.1201 90.9191 26.9696 89.0877Z" fill="#37C848"/>
<path d="M25.2887 90.7178C25.3138 90.8182 25.2887 90.8935 25.2134 90.9687L24.3855 91.7464C24.3604 91.7966 24.3102 91.8217 24.235 91.8468C24.1848 91.8719 24.1095 91.8719 24.0594 91.897C24.0594 91.897 24.0343 91.897 24.0092 91.897C23.9841 91.897 23.959 91.897 23.9339 91.897C23.8587 91.897 23.7081 91.8468 23.5325 91.8217C23.3318 91.7715 23.106 91.6712 22.83 91.5457C22.5541 91.3952 22.2279 91.1945 21.8767 90.9436C21.5255 90.6927 21.1491 90.3415 20.7477 89.8899C20.4216 89.5638 20.1707 89.2376 19.9449 88.9366C19.7442 88.6355 19.5686 88.3596 19.4432 88.1087C19.3177 87.8578 19.2174 87.632 19.1421 87.4313C19.0668 87.2306 19.0167 87.055 18.9916 86.9295C18.9665 86.779 18.9414 86.6787 18.9414 86.6034C18.9414 86.5281 18.9414 86.478 18.9414 86.478C18.9414 86.4278 18.9665 86.3525 18.9916 86.3023C19.0167 86.2522 19.0418 86.202 19.0919 86.1518L19.8947 85.3741C19.9449 85.3239 20.0202 85.2988 20.0955 85.2988C20.1456 85.2988 20.1958 85.3239 20.246 85.3741C20.2962 85.4243 20.3212 85.4494 20.3714 85.4995L21.1241 86.9045C21.1742 86.9797 21.1742 87.055 21.1742 87.1302C21.1491 87.2055 21.1241 87.2808 21.0739 87.331L20.7728 87.632C20.7728 87.632 20.7477 87.6571 20.7477 87.6822C20.7477 87.7073 20.7477 87.7073 20.7477 87.7324C20.7728 87.8327 20.823 87.9331 20.8732 88.0585C20.9234 88.1589 21.0237 88.3094 21.1241 88.4599C21.2495 88.6355 21.4 88.8111 21.6007 89.0369C21.8014 89.2627 21.9771 89.4383 22.1527 89.5638C22.3032 89.6892 22.4537 89.7896 22.5541 89.8648C22.6544 89.9401 22.7297 89.9652 22.805 89.9903L22.8802 90.0154C22.8802 90.0154 22.9053 90.0154 22.9304 90.0154C22.9555 90.0154 22.9555 90.0154 22.9806 89.9903L23.3318 89.639C23.4071 89.5889 23.4823 89.5638 23.6078 89.5638C23.683 89.5638 23.7332 89.5889 23.7834 89.614L25.088 90.492C25.1883 90.5422 25.2636 90.6426 25.2887 90.7178Z" fill="#7BFFE0"/>
<path d="M25.4889 88.0603L29.6535 88.5119C30.5818 88.6123 31.2341 87.9349 31.1337 87.0066L31.0334 86.0784C30.933 85.1501 30.1051 84.2972 29.227 84.1968L25.1628 83.7452C24.2596 83.6449 23.6073 84.3222 23.6575 85.2505L23.7328 86.1787C23.7829 87.1321 24.5607 87.96 25.4889 88.0603Z" fill="#4B9B88"/>
<path d="M26.7185 87.8583L24.9874 88.8368L24.8369 86.8799L26.7185 87.8583Z" fill="#4B9B88"/>
<path d="M25.163 86.4542C25.2383 86.5044 25.3637 86.5796 25.5143 86.6047C25.7902 86.6298 25.8655 86.4542 25.8404 86.3288C25.8153 86.103 25.6146 85.9775 25.4139 85.9524L25.2885 85.9273L25.2634 85.7517L25.3888 85.7768C25.5394 85.8019 25.7401 85.7266 25.715 85.551C25.715 85.4256 25.6146 85.3001 25.4139 85.2751C25.2885 85.25 25.163 85.3002 25.1129 85.3503L25.0376 85.1747C25.1129 85.1245 25.2634 85.0744 25.439 85.0994C25.7401 85.1245 25.9157 85.3503 25.9157 85.5259C25.9408 85.7016 25.8404 85.827 25.6648 85.8772C25.8655 85.9273 26.0411 86.103 26.0411 86.3288C26.0662 86.5796 25.8906 86.8054 25.5143 86.7552C25.3387 86.7302 25.1881 86.6549 25.0878 86.6047L25.163 86.4542Z" fill="#F2F2F2"/>
<path d="M27.3711 86.1026C27.4213 86.6546 27.2457 86.9305 26.8944 86.9055C26.5934 86.8804 26.3425 86.5542 26.2923 86.0023C26.2421 85.4503 26.4429 85.1744 26.769 85.2246C27.0951 85.2747 27.3209 85.6009 27.3711 86.1026ZM26.5181 86.0525C26.5432 86.479 26.6937 86.7298 26.8944 86.7549C27.1202 86.78 27.1955 86.5291 27.1704 86.1026C27.1453 85.7012 27.0199 85.4253 26.7941 85.4002C26.5934 85.3751 26.4679 85.6009 26.5181 86.0525Z" fill="#F2F2F2"/>
<path d="M28.625 86.253C28.6752 86.805 28.4996 87.0809 28.1483 87.0559C27.8473 87.0308 27.5964 86.7046 27.5462 86.1527C27.4961 85.6007 27.6968 85.3248 28.0229 85.375C28.349 85.4 28.5748 85.7262 28.625 86.253ZM27.772 86.1778C27.8222 86.6043 27.9476 86.8551 28.1483 86.8802C28.3741 86.9053 28.4494 86.6544 28.3992 86.228C28.349 85.8265 28.2236 85.5506 28.0229 85.5255C27.8473 85.5255 27.7218 85.7513 27.772 86.1778Z" fill="#F2F2F2"/>
<path d="M73.0569 42.1242C73.5586 46.0379 70.7237 49.0485 66.7347 48.8227C62.7457 48.622 59.108 45.2853 58.6313 41.3715C58.1295 37.4578 60.9645 34.4473 64.9535 34.673C68.9174 34.8738 72.5551 38.2105 73.0569 42.1242Z" fill="white"/>
<path d="M72.0532 46.8912C73.0567 45.6619 73.5585 43.981 73.3076 42.1245C73.0567 40.1927 72.0532 38.3864 70.6483 37.0065C69.1681 35.5765 67.2112 34.5981 65.1791 34.4225H65.0285C64.9784 34.4225 64.9533 34.4225 64.9031 34.4225C64.8529 34.4225 64.8278 34.4225 64.8027 34.4225H64.6522C62.6201 34.3974 60.9141 35.1751 59.7601 36.4546C58.6813 37.709 58.1293 39.415 58.3551 41.3718C58.5809 43.2284 59.5092 44.9845 60.8639 46.3393C60.8639 46.3393 60.8639 46.3393 60.889 46.3644C62.3943 47.8696 64.4013 48.8982 66.5087 49.0739H66.6593C66.7094 49.0739 66.7345 49.0739 66.7847 49.0739C66.8349 49.0739 66.86 49.0739 66.8851 49.0739H67.0356C69.143 49.124 70.8991 48.271 72.0532 46.8912C72.0281 46.8912 72.0532 46.8912 72.0532 46.8912ZM58.9322 41.6478L62.018 41.7983C62.1936 42.8771 62.5197 43.9308 63.0215 44.9093C62.319 45.135 61.6667 45.4361 61.0646 45.8375C59.9608 44.6835 59.183 43.2033 58.9322 41.6478ZM60.0862 36.9313C60.7887 37.3828 61.4911 37.7341 62.2438 38.01C61.9427 39.0136 61.8424 40.1425 61.9678 41.2966L58.882 41.1461C58.7064 39.4902 59.183 38.0351 60.0862 36.9313ZM72.7556 41.8485L69.6698 41.698C69.4942 40.5439 69.1179 39.415 68.5409 38.3613C69.2182 38.1606 69.8705 37.8595 70.4475 37.4832C71.6267 38.6623 72.4797 40.1927 72.7556 41.8485ZM65.1289 38.1857C64.3763 38.1355 63.6487 37.985 62.8961 37.7592C63.2724 36.7306 63.8996 35.8274 64.7275 35.0748L65.1289 38.1857ZM65.2042 38.6874L65.5554 41.4722L62.4696 41.3217C62.3692 40.2178 62.4696 39.1641 62.7455 38.2108C63.5484 38.4616 64.3763 38.6122 65.2042 38.6874ZM65.7059 38.7125C66.5338 38.7376 67.3115 38.6623 68.0642 38.4616C68.6161 39.4652 68.9924 40.5439 69.143 41.6478L66.0571 41.4973L65.7059 38.7125ZM65.6557 38.2108L65.2543 35.0998C66.2829 35.9277 67.1359 36.9313 67.7882 38.01C67.1108 38.1606 66.3833 38.2108 65.6557 38.2108ZM68.2649 37.8595C67.6377 36.8058 66.8349 35.8525 65.8815 35.0246C67.4119 35.3005 68.867 36.0281 70.0211 37.0818C69.4942 37.4079 68.8921 37.6839 68.2649 37.8595ZM62.3943 37.5585C61.7169 37.3076 61.0395 36.9814 60.4123 36.58C61.3406 35.6518 62.595 35.0497 64.0752 34.9242C63.3226 35.6769 62.7455 36.58 62.3943 37.5585ZM62.5197 41.8234L65.6056 41.974L65.9317 44.5078C65.0787 44.4828 64.2759 44.5831 63.4982 44.7587C63.0215 43.8305 62.6954 42.8269 62.5197 41.8234ZM66.007 45.0347L66.4335 48.3965C65.3296 47.4933 64.4264 46.4396 63.7491 45.2605C64.4766 45.0849 65.2292 45.0096 66.007 45.0347ZM66.9352 48.4216L66.5087 45.0598C67.2865 45.11 68.0893 45.2856 68.8419 45.5365C68.4656 46.6403 67.8133 47.6188 66.9352 48.4216ZM66.4586 44.5329L66.1324 41.999L69.2182 42.1496C69.3186 43.1531 69.2433 44.1315 68.9924 45.0347C68.1645 44.7838 67.3116 44.6082 66.4586 44.5329ZM69.72 42.1997L72.8058 42.3503C72.9563 43.9057 72.5299 45.3107 71.702 46.3894C70.9995 45.9128 70.2468 45.5365 69.4691 45.2354C69.7451 44.2821 69.8454 43.2534 69.72 42.1997ZM61.466 46.2389C62.018 45.8626 62.6452 45.5866 63.2724 45.3859C63.9247 46.5149 64.7526 47.5435 65.7812 48.4467C64.1755 48.1707 62.6703 47.3679 61.466 46.2389ZM67.6126 48.547C68.4154 47.7442 69.0175 46.7658 69.3688 45.687C70.0712 45.9629 70.7737 46.3142 71.426 46.7407C70.4977 47.7693 69.1681 48.4216 67.6126 48.547Z" fill="#38BE9E"/>
<path d="M70.8492 38.3602L77.7986 38.6864C78.7519 38.7366 79.4293 38.009 79.3039 37.0557L79.1784 36.1274C79.053 35.1992 78.1749 34.3963 77.2216 34.3462L70.2722 34.02C69.3189 33.9698 68.6415 34.6974 68.7669 35.6507L68.8924 36.579C69.0178 37.5323 69.8959 38.3352 70.8492 38.3602Z" fill="#4B9B88"/>
<path d="M72.1286 38.0841L70.3976 39.188L70.1216 37.2061L72.1286 38.0841Z" fill="#4B9B88"/>
<path d="M72.3041 36.9561C72.3543 36.9561 72.4045 36.9561 72.4797 36.9561C72.6052 36.9561 72.7306 36.9059 72.8059 36.8056C72.9062 36.7052 72.9564 36.5798 72.9564 36.3791C72.8811 36.4794 72.7557 36.5547 72.5801 36.5296C72.279 36.5045 72.0532 36.2787 72.0281 36.0027C71.978 35.7017 72.1787 35.4257 72.5299 35.4508C72.8811 35.4759 73.1069 35.7519 73.1822 36.1784C73.2324 36.5296 73.132 36.7805 73.0066 36.931C72.9062 37.0564 72.7306 37.1066 72.555 37.1317C72.4797 37.1317 72.4045 37.1317 72.3543 37.1317L72.3041 36.9561ZM72.2539 36.0027C72.279 36.2034 72.4295 36.354 72.6302 36.354C72.7808 36.354 72.8811 36.3038 72.9313 36.2034C72.9313 36.1784 72.9564 36.1533 72.9313 36.1282C72.9062 35.8522 72.7557 35.6264 72.5299 35.6264C72.3292 35.6264 72.2288 35.777 72.2539 36.0027Z" fill="#F2F2F2"/>
<path d="M73.5081 37.1554L73.483 37.03L73.6336 36.8795C74.0099 36.5031 74.1604 36.3024 74.1353 36.0516C74.1103 35.8759 74.0099 35.7254 73.759 35.7254C73.6085 35.7254 73.483 35.7756 73.4329 35.8509L73.3325 35.7003C73.4329 35.6 73.5834 35.5498 73.7841 35.5498C74.1353 35.5749 74.336 35.8258 74.3611 36.0516C74.4113 36.3526 74.2106 36.5784 73.9095 36.9046L73.7841 37.03L74.5367 37.0551L74.5618 37.2307L73.5081 37.1554Z" fill="#F2F2F2"/>
<path d="M75.8161 36.4279C75.8913 36.9798 75.7157 37.2809 75.3394 37.2558C75.0133 37.2307 74.7624 36.9296 74.6871 36.3777C74.6119 35.8258 74.8126 35.5498 75.1638 35.5498C75.515 35.6 75.7408 35.9261 75.8161 36.4279ZM74.9129 36.4279C74.9631 36.8544 75.1387 37.1053 75.3394 37.1053C75.5652 37.1053 75.6405 36.8544 75.5903 36.4279C75.5401 36.0265 75.3896 35.7505 75.1638 35.7505C74.9631 35.7505 74.8627 35.9763 74.9129 36.4279Z" fill="#F2F2F2"/>
<path d="M77.1208 36.5041C77.196 37.056 77.0204 37.357 76.6441 37.332C76.3179 37.3069 76.0671 37.0058 75.9918 36.4539C75.9165 35.9019 76.1172 35.626 76.4685 35.626C76.8197 35.6511 77.0706 35.9772 77.1208 36.5041ZM76.2176 36.479C76.2678 36.9055 76.4434 37.1563 76.6441 37.1563C76.8699 37.1563 76.9451 36.9055 76.895 36.479C76.8448 36.0776 76.6943 35.8016 76.4685 35.8016C76.2929 35.8016 76.1674 36.0274 76.2176 36.479Z" fill="#F2F2F2"/>
<path d="M70.799 37.1303C71.3008 36.7791 71.5266 36.4279 71.6269 36.177C71.7273 35.8759 71.5517 35.4745 71.2255 35.324C70.8241 35.1484 70.6234 35.4996 70.6234 35.4996C70.6234 35.4996 70.3224 35.1233 69.9711 35.2738C69.6701 35.3993 69.5697 35.7756 69.7704 36.0766C69.8708 36.3526 70.1969 36.7289 70.799 37.1303Z" fill="white"/>
<path d="M72.2031 57.9035C72.4791 60.5127 70.5473 62.595 67.9131 62.5197C65.2537 62.4445 62.8955 60.2869 62.6195 57.6777C62.3435 55.0686 64.2753 52.9863 66.9096 53.0615C69.5438 53.1117 71.9272 55.2944 72.2031 57.9035Z" fill="#7BFFE0"/>
<path d="M67.4618 60.3122C67.3113 60.3122 67.1357 60.2369 67.0102 60.1115L64.9781 58.1546C64.7272 57.9038 64.7021 57.5274 64.9028 57.3267C65.1286 57.1009 65.505 57.126 65.7558 57.3769L66.8848 58.4808C67.0604 57.4271 67.5622 55.972 68.942 55.3949C69.2431 55.2695 69.5943 55.42 69.7699 55.7211C69.9205 56.0222 69.8201 56.3734 69.5441 56.4988C67.9636 57.1762 68.0138 59.7853 68.0138 59.8104C68.0138 60.0362 67.8883 60.2369 67.6625 60.3122C67.5873 60.2871 67.512 60.3122 67.4618 60.3122Z" fill="#4B9B88"/>
<path d="M64.0748 72.1541C63.4476 69.4195 65.1786 66.9358 67.9132 66.6598C70.6478 66.3587 73.3573 68.3658 73.9845 71.1004C74.6117 73.835 72.8807 76.3187 70.1461 76.5946C69.9705 76.6197 69.7698 76.6197 69.5941 76.6197L67.4617 78.0247L67.5369 76.2183C65.856 75.5158 64.5013 74.0106 64.0748 72.1541Z" fill="#4B9B88"/>
<path d="M69.3433 74.5622C70.6981 73.5336 71.3253 72.6053 71.6013 71.8777C71.9023 71.0248 71.4507 69.9711 70.5476 69.6198C69.4688 69.1933 68.8918 70.1467 68.8918 70.1467C68.8918 70.1467 68.114 69.1933 67.1356 69.5947C66.3077 69.946 66.0568 70.9746 66.5586 71.8276C66.9349 72.5551 67.7628 73.5085 69.3433 74.5622Z" fill="white"/>
</svg>
