<svg width="100" height="108" viewBox="0 0 100 108" fill="none" xmlns="http://www.w3.org/2000/svg">
<path d="M83.6441 97.585C83.6441 99.4856 65.2428 100.975 42.5755 100.975C19.9081 100.975 1.50684 99.4343 1.50684 97.585C1.50684 95.7357 19.9081 94.1946 42.5755 94.1946C65.3065 94.1432 83.6441 95.6843 83.6441 97.585Z" fill="#37C848" fill-opacity="0.21"/>
<path d="M19.376 67.0059C19.376 67.0059 20.1034 63.7962 18.5202 61.9346C18.5202 61.9346 17.75 64.3098 19.376 67.0059Z" fill="#7BFFE0"/>
<path d="M17.8997 65.4221C17.8997 65.4221 17.9853 62.4692 16.2523 61.1211C16.2523 61.1211 15.9956 63.3465 17.8997 65.4221Z" fill="#7BFFE0"/>
<path d="M16.1244 64.1169C16.1244 64.1169 15.9318 61.5919 14.3486 60.6076C14.37 60.5862 14.3272 62.512 16.1244 64.1169Z" fill="#7BFFE0"/>
<path d="M15.8241 63.9238C15.8241 63.9238 13.4065 63.1534 11.9089 64.2661C11.8875 64.2661 13.6632 65.0151 15.8241 63.9238Z" fill="#7BFFE0"/>
<path d="M17.6003 65.3365C17.6003 65.3365 14.8619 64.4806 13.1289 65.7216C13.1503 65.7216 15.14 66.5562 17.6003 65.3365Z" fill="#7BFFE0"/>
<path d="M19.2259 66.7697C19.2259 66.7697 16.2734 65.8282 14.4121 67.1976C14.4335 67.1976 16.5943 68.0964 19.2259 66.7697Z" fill="#7BFFE0"/>
<path d="M20.8738 68.9949C20.8738 68.9949 22.2002 65.4642 20.6812 63.1318C20.6812 63.1318 19.4403 65.6996 20.8738 68.9949Z" fill="#7BFFE0"/>
<path d="M20.745 68.718C20.745 68.718 17.5572 67.1987 15.2466 68.4398C15.2466 68.4398 17.5572 69.7879 20.745 68.718Z" fill="#7BFFE0"/>
<path d="M14.7763 63.3464C14.7763 63.3464 13.4712 61.3992 11.7383 61.335C11.7383 61.335 12.594 62.897 14.7763 63.3464Z" fill="#7BFFE0"/>
<path d="M14.3061 62.9397C18.4567 65.0153 21.6658 68.76 23.0351 73.168C23.0992 73.3606 22.7997 73.489 22.7355 73.2964C21.3663 68.9526 18.2427 65.2721 14.1778 63.2393C14.028 63.1323 14.135 62.8327 14.3061 62.9397Z" fill="#7BFFE0"/>
<path d="M76.0182 22.837C76.0182 22.837 76.5977 18.7728 79.255 17.3568C79.255 17.3568 79.0986 20.4421 76.0182 22.837Z" fill="#37C848"/>
<path d="M78.4189 21.659C78.4189 21.659 79.6316 18.2056 82.2365 17.4058C82.2293 17.4299 81.5654 20.1001 78.4189 21.659Z" fill="#37C848"/>
<path d="M81.0498 20.9459C81.0498 20.9459 82.3938 18.1109 84.6588 17.6569C84.6588 17.6569 83.8374 19.885 81.0498 20.9459Z" fill="#37C848"/>
<path d="M81.4936 20.8676C81.4936 20.8676 84.6152 21.0649 85.8728 23.0193C85.8728 23.0193 83.5163 23.0772 81.4936 20.8676Z" fill="#37C848"/>
<path d="M78.8018 21.6954C78.8018 21.6954 82.3625 21.9188 83.7798 24.1314C83.7798 24.1314 81.1049 24.1993 78.8018 21.6954Z" fill="#37C848"/>
<path d="M76.2659 22.6216C76.2659 22.6216 80.0822 22.869 81.6325 25.2529C81.6566 25.2601 78.7429 25.3354 76.2659 22.6216Z" fill="#37C848"/>
<path d="M73.4006 24.476C73.4006 24.476 73.4264 19.7986 76.2157 17.764C76.2085 17.7881 76.5041 21.2983 73.4006 24.476Z" fill="#37C848"/>
<path d="M73.6625 24.2113C73.6625 24.2113 78.0182 23.8835 80.145 26.3609C80.1522 26.3368 76.8872 26.8857 73.6625 24.2113Z" fill="#37C848"/>
<path d="M82.9447 20.6699C82.9447 20.6699 85.3301 19.0156 87.3601 19.7019C87.3673 19.6778 85.6835 21.0947 82.9447 20.6699Z" fill="#37C848"/>
<path d="M83.6616 20.3885C77.9494 20.9425 72.5669 23.8319 69.0207 28.3234C68.8594 28.5119 69.1469 28.7822 69.3083 28.5936C72.8087 24.1674 78.0803 21.2974 83.6815 20.7629C83.9204 20.7554 83.9317 20.3641 83.6616 20.3885Z" fill="#37C848"/>
<path d="M47.9299 0.0797787L48.3831 1.03712C48.3831 1.07258 48.4208 1.10804 48.4586 1.10804L49.4782 1.53352C49.5914 1.56898 49.5914 1.74627 49.4782 1.81718L48.4586 2.24267C48.4208 2.24267 48.3831 2.27812 48.3831 2.31358L47.9299 3.27092C47.8922 3.3773 47.7033 3.3773 47.6278 3.27092L47.1747 2.31358C47.1747 2.27812 47.1369 2.24267 47.0992 2.24267L46.0796 1.81718C45.9663 1.78172 45.9663 1.60444 46.0796 1.53352L47.0992 1.10804C47.1369 1.10804 47.1747 1.07258 47.1747 1.03712L47.6278 0.0797787C47.7033 -0.0265929 47.8544 -0.0265929 47.9299 0.0797787Z" fill="#7BFFE0"/>
<path d="M13.1376 11.4747L13.9589 13.1979C13.9589 13.2617 14.0274 13.3255 14.0958 13.3255L15.9438 14.0914C16.1491 14.1552 16.1491 14.4743 15.9438 14.602L14.0958 15.3679C14.0274 15.3679 13.9589 15.4317 13.9589 15.4955L13.1376 17.2187C13.0692 17.4102 12.7269 17.4102 12.59 17.2187L11.7688 15.4955C11.7688 15.4317 11.7003 15.3679 11.6319 15.3679L9.78388 14.602C9.57855 14.5382 9.57855 14.219 9.78388 14.0914L11.6319 13.3255C11.7003 13.3255 11.7688 13.2617 11.7688 13.1979L12.59 11.4747C12.7269 11.2832 13.0007 11.2832 13.1376 11.4747Z" fill="#96FFA3"/>
<path d="M8.20468 52.75L8.48789 53.3244C8.48789 53.3457 8.51149 53.367 8.53509 53.367L9.17233 53.6223C9.24313 53.6435 9.24313 53.7499 9.17233 53.7925L8.53509 54.0478C8.51149 54.0478 8.48789 54.069 8.48789 54.0903L8.20468 54.6647C8.18108 54.7285 8.06307 54.7285 8.01586 54.6647L7.73266 54.0903C7.73266 54.069 7.70906 54.0478 7.68545 54.0478L7.04822 53.7925C6.97742 53.7712 6.97742 53.6648 7.04822 53.6223L7.68545 53.367C7.70906 53.367 7.73266 53.3457 7.73266 53.3244L8.01586 52.75C8.06307 52.6862 8.15748 52.6862 8.20468 52.75Z" fill="#7BFFE0"/>
<path d="M90.8531 57.791L91.3595 58.9581C91.3595 58.9946 91.3956 59.031 91.4318 59.031L92.5892 59.5416C92.7338 59.6146 92.7338 59.7969 92.5892 59.8698L91.4318 60.3804C91.3956 60.3804 91.3595 60.4169 91.3595 60.4534L90.8531 61.6204C90.7808 61.7663 90.6 61.7663 90.5276 61.6204L90.0213 60.4534C90.0213 60.4169 89.9851 60.3804 89.949 60.3804L88.7916 59.8698C88.6469 59.7969 88.6469 59.6146 88.7916 59.5416L89.949 59.031C89.9851 59.031 90.0213 58.9946 90.0213 58.9581L90.5276 57.791C90.6 57.6816 90.817 57.6816 90.8531 57.791Z" fill="#37C848"/>
<path d="M17.9977 91.6748H0V93.8619H17.9977V91.6748Z" fill="url(#paint0_linear)"/>
<path d="M18.6564 89.4883H0.658691V91.6754H18.6564V89.4883Z" fill="url(#paint1_linear)"/>
<path d="M18.2878 87.2998H0.290039V89.4869H18.2878V87.2998Z" fill="url(#paint2_linear)"/>
<path d="M18.6564 85.1143H0.658691V87.3014H18.6564V85.1143Z" fill="url(#paint3_linear)"/>
<path d="M18.9728 82.9531H0.975098V85.1403H18.9728V82.9531Z" fill="url(#paint4_linear)"/>
<path d="M18.3928 80.7656H0.39502V82.9528H18.3928V80.7656Z" fill="url(#paint5_linear)"/>
<path d="M17.9977 78.5781H0V80.7653H17.9977V78.5781Z" fill="url(#paint6_linear)"/>
<path d="M18.7351 76.3916H0.737305V78.5787H18.7351V76.3916Z" fill="url(#paint7_linear)"/>
<path d="M19.4206 93.7832H1.42285V95.9703H19.4206V93.7832Z" fill="url(#paint8_linear)"/>
<path d="M20.3434 76.682L2.3457 76.2604L2.3984 74.0732L20.3961 74.5212L20.3434 76.682Z" fill="url(#paint9_linear)"/>
<path d="M25.4556 95.9165H72.6503C74.3368 95.9165 75.7334 94.5463 75.7334 92.8335V31.4356C75.7334 29.7491 74.3631 28.3525 72.6503 28.3525H25.4556C23.7692 28.3525 22.3726 29.7228 22.3726 31.4356V92.8598C22.3989 94.5463 23.7692 95.9165 25.4556 95.9165Z" fill="#37C848"/>
<path d="M72.6493 24.1631H25.4546V89.3291H72.6493V24.1631Z" fill="#E8E8E8"/>
<path d="M72.6503 17.2861V28.0637H67.9334C65.3774 31.0941 63.2166 28.0637 63.2166 28.0637H58.4998C55.9174 31.0941 53.7829 28.0637 53.7829 28.0637H49.0661C46.4837 31.0941 44.3493 28.0637 44.3493 28.0637H39.6324C37.0764 31.0941 34.9156 28.0637 34.9156 28.0637H30.1988C27.6164 31.0941 25.4819 28.0637 25.4819 28.0637V17.2861H72.6503Z" fill="#70CFB9"/>
<path d="M30.1724 28.0637C30.1724 28.0637 32.3331 31.0941 34.8892 28.0637V17.2861H30.1724V28.0637Z" fill="#7BFFE0"/>
<path d="M39.6323 28.0637C39.6323 28.0637 41.7931 31.0941 44.3492 28.0637V17.2861H39.6323V28.0637Z" fill="#7BFFE0"/>
<path d="M49.0654 28.0637C49.0654 28.0637 51.2262 31.0941 53.7823 28.0637V17.2861H49.0654V28.0637Z" fill="#7BFFE0"/>
<path opacity="0.72" d="M65.693 43.1631H32.4116V76.4708H65.693V43.1631Z" fill="white"/>
<path d="M58.499 28.0637C58.499 28.0637 60.6598 31.0941 63.2159 28.0637V17.2861H58.499V28.0637Z" fill="#7BFFE0"/>
<path d="M72.6494 17.2861V28.0637C70.0934 31.0941 67.9326 28.0637 67.9326 28.0637V17.2861H72.6494Z" fill="#7BFFE0"/>
<path d="M47.0891 83.0325H33.413C32.8596 83.0325 32.4116 82.5845 32.4116 82.0311V79.6595C32.4116 79.1062 32.8596 78.6582 33.413 78.6582H47.0891C47.6425 78.6582 48.0905 79.1062 48.0905 79.6595V82.0311C48.0905 82.5845 47.6425 83.0325 47.0891 83.0325Z" fill="white"/>
<path opacity="0.72" d="M64.718 83.0325H53.3343C52.781 83.0325 52.333 82.5845 52.333 82.0311V79.6595C52.333 79.1062 52.781 78.6582 53.3343 78.6582H64.718C65.2714 78.6582 65.7193 79.1062 65.7193 79.6595V82.0311C65.7193 82.5845 65.2714 83.0325 64.718 83.0325Z" fill="white"/>
<path d="M99.5903 105.142C99.5903 106.609 86.6883 107.759 70.7952 107.759C54.902 107.759 42 106.569 42 105.142C42 103.714 54.902 102.524 70.7952 102.524C86.733 102.485 99.5903 103.674 99.5903 105.142Z" fill="#37C848" fill-opacity="0.21"/>
<path d="M79.5881 27.1413C79.5881 27.1413 80.5492 25.0359 82.4716 25.9513C84.3939 26.8667 84.0735 29.6587 83.387 30.8029C82.6546 31.9929 80.0915 33.6864 80.9612 35.7918C81.785 37.8973 82.8377 39.545 82.8377 39.545C82.8377 39.545 77.6657 39.3161 77.0707 36.5699C76.4757 33.8695 79.5881 27.1413 79.5881 27.1413Z" fill="#223247"/>
<path d="M69.2436 51.9483C69.3809 51.1702 69.5182 51.216 69.6097 50.1175C69.7013 49.019 69.7928 43.7097 69.8386 43.0689C69.8844 42.4282 69.9759 39.3616 70.7082 38.08C71.4405 36.7527 73.729 35.9746 73.729 35.9746C73.729 35.9746 72.539 42.3824 72.539 43.7097C72.539 44.1217 72.4017 44.854 72.2186 45.6778C72.1729 45.8609 72.1729 46.044 72.2186 46.1813C72.2644 46.639 72.539 46.9594 72.4017 47.6002V47.9206C72.4017 47.9663 72.3559 48.0579 72.3559 48.1036C72.1271 49.019 71.8982 49.9802 71.8067 50.3921C71.8067 50.4837 71.7609 50.5294 71.7609 50.5752C71.6236 51.1702 71.8067 50.8498 71.5321 52.3145C71.4863 52.3603 68.969 53.413 69.2436 51.9483Z" fill="#F08D29"/>
<path d="M82.4252 56.1152C82.4252 56.1152 84.3933 58.6783 84.9425 61.7449C85.4917 64.8115 84.6221 75.1097 84.6679 76.6201C84.7137 78.1305 86.0868 81.8836 85.8121 84.7671C85.5375 87.6049 83.1575 101.977 83.1575 101.977L81.3267 101.656C81.3267 101.656 81.5555 86.7353 81.3725 85.5452C81.1894 84.3552 80.8232 79.9613 80.7774 79.5036C80.6859 79.0001 76.292 66.0472 76.292 63.8503C76.292 61.6075 77.6193 52.4993 82.4252 56.1152Z" fill="#8E4F3A"/>
<path d="M72.4479 57.1214C72.4479 57.1214 69.1982 69.5708 68.7863 71.3101C68.4201 73.0493 67.8251 74.4682 67.8251 75.2005C67.8251 76.894 67.1843 80.1894 67.1843 80.1894L63.6143 100.282H65.6739C65.6739 100.282 70.7086 87.1465 71.3036 84.1714C71.7613 81.8829 71.8071 78.9994 72.1732 78.0383C72.5394 77.0313 78.4895 66.2754 78.4895 66.2754C78.4895 66.2754 82.4715 53.5056 72.4479 57.1214Z" fill="#8E4F3A"/>
<path d="M67.8262 75.2007C67.8262 75.2007 75.3782 78.4504 86.6376 78.4504C86.6376 78.4504 86.1341 63.804 84.4864 60.1424C82.8387 56.4808 72.1743 58.1285 72.1743 58.1285C72.1743 58.1285 67.8262 72.1341 67.8262 75.2007Z" fill="#7BFFE0"/>
<path d="M71.2575 44.9937C72.1271 46.9618 71.3032 47.6025 71.7152 49.5707C72.0813 51.5388 72.0813 56.8938 72.0356 57.9923C71.944 59.0908 82.6542 61.7912 84.8969 59.8231C84.8969 59.8231 84.3019 57.7635 83.5696 55.5665C83.478 55.2919 83.3865 55.0173 83.295 54.7426C82.9288 53.6899 82.5169 52.683 82.1507 51.8591C81.9219 51.3557 81.7846 49.0672 82.0592 48.3806C82.1507 48.106 82.6542 47.1906 83.2492 46.1837C83.478 45.7718 83.7527 45.314 83.9815 44.9021C84.6681 43.7121 85.3088 42.6594 85.3088 42.6594C85.3088 42.6594 85.9496 37.6247 84.6223 36.572C84.1646 36.2058 83.3407 35.9312 82.5169 35.7481C82.1965 35.6566 81.8761 35.6108 81.5557 35.5193C80.5488 35.3362 79.6791 35.1989 79.4503 35.1074C78.901 34.9243 77.2533 34.8327 76.1549 35.0158C76.1549 35.0158 74.4156 35.8397 73.8206 35.977C73.2256 36.1143 70.8455 39.1351 70.4336 40.2793C69.9759 41.3321 70.3878 43.0256 71.2575 44.9937Z" fill="#70CFB9"/>
<path d="M75.2861 33.0004C75.2861 33.0004 75.3319 33.4124 75.3777 33.9616C75.4234 34.2362 75.4235 34.5109 75.4692 34.8312C75.5608 35.7466 75.6065 36.7536 75.5608 37.2571C75.5608 37.2571 77.3916 39.0879 79.4512 35.1516C79.4512 35.1516 78.5816 33.5497 79.2223 31.307C79.8631 29.0642 75.2861 33.0004 75.2861 33.0004Z" fill="#8E4F3A"/>
<path d="M80.8236 35.38C80.8236 35.38 78.6267 38.95 76.1551 38.8127C72.7223 38.5839 74.5531 35.7003 74.5531 35.7003C74.5531 35.7003 75.4228 35.1969 75.6516 35.1511C75.8805 35.1053 79.4505 35.0596 79.4505 35.0596L80.8236 35.38Z" fill="#8E4F3A"/>
<path d="M82.1971 36.0668C82.1971 36.0668 84.4856 35.6549 85.7214 37.7146C87.1403 40.0488 87.1403 41.1015 87.3234 42.2915C87.5522 43.39 88.193 45.175 88.2845 45.4954C88.3761 45.8158 90.0238 48.974 89.3372 50.3013C88.6507 51.6744 82.1056 52.6355 82.0598 52.9102C82.0141 53.0932 81.2817 50.6217 81.2817 50.6217C81.2817 50.6217 82.2429 50.4386 83.1583 50.1182C84.3026 49.752 85.401 49.0197 85.2637 48.4705C84.9433 47.1889 83.7533 44.3054 83.4329 43.6646C83.1583 43.0696 80.3663 36.9365 82.1971 36.0668Z" fill="#70CFB9"/>
<path d="M65.3531 100.054C65.3531 100.054 64.6207 99.4137 64.3003 99.3679C63.9342 99.2764 63.6138 99.3222 63.4765 99.4595C63.3392 99.6426 62.8815 100.283 62.6526 100.512C62.4238 100.741 60.7761 102.343 60.3641 102.435C59.9522 102.526 58.2587 102.435 58.3503 103.441C58.4418 104.448 59.8149 104.86 62.2865 104.631C64.758 104.403 64.4377 103.808 65.8565 103.533C67.2296 103.213 67.3212 102.526 67.0923 101.702C66.8635 100.878 65.8565 100.009 65.9481 99.7799C66.0396 99.551 65.3531 100.054 65.3531 100.054Z" fill="#96FFA3"/>
<path d="M82.791 101.837C82.791 101.837 82.0129 101.471 81.4637 101.517C80.9602 101.517 81.006 101.837 80.8687 102.066C80.7314 102.249 79.4956 104.126 79.1752 104.492C78.8548 104.813 77.619 105.179 77.8021 106.048C77.9852 106.872 79.4956 107.238 81.3722 106.964C83.2487 106.735 84.1641 104.996 84.4845 104.584C84.8049 104.172 83.7522 101.654 83.4776 101.471C83.1572 101.242 82.791 101.837 82.791 101.837Z" fill="#96FFA3"/>
<path d="M70.3867 42.4287C70.3867 42.4287 70.8902 44.2137 71.3021 45.0834C71.714 45.953 71.6225 47.0515 71.6225 47.738C71.5767 48.4246 71.6225 49.2027 71.8056 50.3011C71.8056 50.3011 71.7598 51.2623 71.5767 51.2165C71.5767 51.2623 70.7071 48.8823 70.3867 42.4287Z" fill="#C9B9B3"/>
<path d="M81.0544 26.1367C81.0544 26.1367 82.1071 26.686 82.0614 28.2421C82.0156 29.7983 80.4594 31.0341 79.7729 30.7137C79.1321 30.3476 81.0544 26.1367 81.0544 26.1367Z" fill="#51578C"/>
<path d="M74.2784 23.7092C74.2784 23.7092 72.1729 25.0823 72.356 27.9658C72.5391 30.8493 73.5003 33.7786 74.0953 34.0532C74.6903 34.3278 77.2534 33.3667 77.7569 33.092C78.3061 32.7716 79.313 31.6732 79.4961 31.3528C79.6792 31.0324 81.7846 26.4096 79.7707 24.6704C77.7569 22.9311 76.7042 22.8396 74.2784 23.7092Z" fill="#8E4F3A"/>
<path d="M75.9263 27.1862C75.9263 27.1862 74.1413 27.827 72.3563 27.6897C72.3563 27.6897 71.7613 22.5635 76.9333 22.5635C82.0595 22.5635 81.3272 27.6897 81.2356 28.3762C81.1441 29.0628 80.1829 31.5801 79.0845 32.1294C79.0845 32.1294 79.4964 29.4747 78.7183 29.017C77.9402 28.5593 76.2925 27.9643 75.9263 27.1862Z" fill="#223247"/>
<path d="M77.6196 28.4696C77.7111 27.8746 78.2604 27.3253 78.9011 27.9203C79.5419 28.5153 78.4434 30.0258 77.9857 29.9342C77.5738 29.8884 77.4823 29.2477 77.6196 28.4696Z" fill="#8E4F3A"/>
<path d="M75.3765 33.9602C75.4222 34.2348 75.4222 34.5094 75.468 34.8298C77.2073 34.189 77.9396 32.999 77.9396 32.999C77.4819 33.3652 75.3765 33.9602 75.3765 33.9602Z" fill="#613628"/>
<path d="M55.1917 32.3579C51.4843 40.2761 54.9171 49.7047 62.8352 53.412C70.7534 57.1194 80.1821 53.6867 83.8894 45.7685C87.5968 37.8503 84.164 28.4217 76.2458 24.7143C68.3276 21.0069 58.899 24.3939 55.1917 32.3579Z" fill="#F8BB66"/>
<path d="M77.1162 25.126L63.7056 53.7779C71.4407 56.8445 80.3201 53.4118 83.8901 45.7682C87.4602 38.1246 84.3936 29.0622 77.1162 25.126Z" fill="#F8BB66"/>
<path d="M55.1919 32.3593C52.0338 39.0874 54.0476 46.8683 59.54 51.3538L72.5387 23.5257C65.5817 22.1526 58.35 25.6311 55.1919 32.3593Z" fill="#F8BB66"/>
<path d="M58.6705 33.9581C55.8785 39.9998 58.4416 47.1399 64.4832 49.9319C70.5249 52.7238 77.665 50.1607 80.4569 44.1191C83.2489 38.0774 80.6858 30.9373 74.6442 28.1454C68.6025 25.3076 61.4624 27.9165 58.6705 33.9581Z" fill="#F89829"/>
<path d="M71.1668 32.0853C70.5718 31.948 69.931 31.9022 69.2445 31.948C68.5579 31.9937 67.8714 32.131 67.1391 32.4057L66.4068 30.8037L65.5829 31.1699L66.3152 32.7718C65.8118 33.0464 65.3541 33.4126 64.9879 33.7788C64.6217 34.1449 64.3471 34.5568 64.164 35.0145C63.981 35.4722 63.8894 35.9299 63.8894 36.4334C63.8894 36.9369 64.0267 37.4404 64.2556 37.9438C64.4844 38.4015 64.7133 38.7219 64.9879 38.9965C65.2625 39.2254 65.6287 39.4085 65.9948 39.5C66.361 39.5915 66.8187 39.6373 67.3222 39.5915C67.8256 39.5458 68.3749 39.5 69.0156 39.3627C69.1072 39.3627 69.153 39.3627 69.2445 39.3169C69.336 39.3169 69.3818 39.2711 69.4733 39.2711L71.0295 42.5666C70.6176 42.7039 70.2057 42.7954 69.8395 42.8412C69.4276 42.887 69.0614 42.9327 68.6953 42.9327C68.3291 42.9327 68.0087 42.9327 67.7341 42.887C67.4595 42.8412 67.1849 42.7954 67.0475 42.7039L66.956 44.6262C67.7341 44.8093 68.5122 44.8551 69.336 44.7635C70.1599 44.672 70.938 44.4889 71.7161 44.2143L72.4942 45.9078L73.318 45.5416L72.5399 43.8481C73.0892 43.5735 73.5469 43.2989 73.9588 42.9327C74.3707 42.5666 74.6911 42.2004 74.92 41.7427C75.1488 41.3308 75.2861 40.8273 75.2861 40.3696C75.2861 39.8662 75.1946 39.3627 74.92 38.7677C74.6911 38.2642 74.3707 37.8523 74.0503 37.5777C73.7299 37.303 73.318 37.12 72.9061 37.0284C72.4942 36.9369 71.9907 36.8911 71.4415 36.9369C70.8922 36.9826 70.2972 37.0742 69.6564 37.2115L69.336 37.303L67.7799 34.0076C68.1003 33.8703 68.4206 33.7788 68.741 33.733C69.0614 33.6872 69.3818 33.6414 69.6564 33.6414C69.931 33.6414 70.2057 33.6414 70.4803 33.6872C70.7091 33.733 70.938 33.7788 71.0753 33.8245L71.1668 32.0853ZM65.9033 35.518C66.0864 35.1061 66.4983 34.7399 67.1391 34.3738L68.6037 37.5319C67.8714 37.6692 67.3222 37.6692 66.9102 37.6234C66.4983 37.5319 66.1779 37.303 65.9491 36.8453C65.766 36.3419 65.7202 35.9299 65.9033 35.518ZM72.9976 41.285C72.723 41.697 72.2653 42.0631 71.6245 42.3835L70.1599 39.2254C70.938 39.0881 71.533 39.0881 72.0365 39.1338C72.5399 39.1796 72.8603 39.4542 73.0892 39.9119C73.2722 40.4154 73.2265 40.8731 72.9976 41.285Z" fill="#F8C681"/>
<path d="M79.2676 26.5439C84.9888 30.9836 87.0485 38.9018 83.8903 45.7216C80.6864 52.5413 73.2717 56.0198 66.2231 54.5094L79.2676 26.5439Z" fill="#F8F8F8" fill-opacity="0.15"/>
<path d="M72.5392 23.4766L59.5405 51.3047C60.5475 52.1285 61.6459 52.8151 62.836 53.3643C63.1106 53.5016 63.431 53.6389 63.7056 53.7305L77.0704 25.0785C76.7958 24.9412 76.5212 24.8039 76.2466 24.6666C75.0565 24.1173 73.8207 23.7512 72.5392 23.4766Z" fill="#F8F8F8" fill-opacity="0.15"/>
<path d="M56.566 46.7773C56.566 46.7773 55.376 47.647 55.6964 48.5166C56.0168 49.3862 56.7491 50.0728 57.161 50.3016C57.5729 50.5305 58.7172 51.0339 58.8545 50.4847C59.2206 48.7912 56.566 46.7773 56.566 46.7773Z" fill="#8E4F3A"/>
<path d="M55.9714 47.648C55.9714 47.648 55.2848 46.7784 55.651 46.5953C56.0171 46.4122 56.3833 47.1903 56.3833 47.1903L55.9714 47.648Z" fill="#8E4F3A"/>
<path d="M81.6929 50.6221C81.6929 50.6221 82.654 50.7594 82.5167 51.1713C82.3794 51.5832 82.1963 52.0409 82.1963 52.0409L81.6929 50.6221Z" fill="#8E4F3A"/>
<path d="M75.2388 53.5969L78.9919 51.8576C78.58 51.8118 77.8934 51.7203 77.9392 51.4914C77.985 51.2168 79.2665 51.2168 79.7242 51.0337C80.1362 50.8964 80.7769 50.9422 80.8685 50.9422L81.7839 50.5303L82.1958 51.9949C82.1958 51.9949 80.3192 53.1392 79.77 53.4138C78.8546 53.9172 75.5134 54.1003 75.3761 53.9172C75.1472 53.7342 75.2388 53.5969 75.2388 53.5969Z" fill="#8E4F3A"/>
<path d="M81.3267 50.6214C81.3267 50.6214 81.6928 52.498 82.2878 53.2761C82.2878 53.2761 86.224 51.8572 87.1852 51.491L84.7594 49.3398C84.7136 49.3856 83.3405 50.1637 81.3267 50.6214Z" fill="#70CFB9"/>
<path d="M27.4321 75.2773H12.8462V79.5421H27.4321V75.2773Z" fill="#253D44"/>
<path d="M28.9587 98.3052H10.7894C10.2973 98.3052 9.89355 97.9014 9.89355 97.4094V72.9818C9.89355 72.4897 10.2973 72.0859 10.7894 72.0859H28.9713C29.4634 72.0859 29.8671 72.4897 29.8671 72.9818V97.4094C29.8545 97.9014 29.4634 98.3052 28.9587 98.3052Z" fill="#38BE9E"/>
<path d="M27.2055 74.9746H12.6196V79.2393H27.2055V74.9746Z" fill="#7BFFE0"/>
<path d="M27.2055 74.9746H12.6196V75.8578H27.2055V74.9746Z" fill="#6CE2C6"/>
<path d="M15.3068 83.5546H13.3259C13.124 83.5546 12.96 83.3905 12.96 83.1887V81.2077C12.96 81.0058 13.124 80.8418 13.3259 80.8418H15.3068C15.5087 80.8418 15.6727 81.0058 15.6727 81.2077V83.1887C15.6727 83.3905 15.5087 83.5546 15.3068 83.5546Z" fill="#4B9B88"/>
<path d="M19.2058 83.5546H17.2248C17.0229 83.5546 16.8589 83.3905 16.8589 83.1887V81.2077C16.8589 81.0058 17.0229 80.8418 17.2248 80.8418H19.2058C19.4076 80.8418 19.5717 81.0058 19.5717 81.2077V83.1887C19.559 83.3905 19.395 83.5546 19.2058 83.5546Z" fill="#4B9B88"/>
<path d="M23.092 83.5546H21.111C20.9091 83.5546 20.7451 83.3905 20.7451 83.1887V81.2077C20.7451 81.0058 20.9091 80.8418 21.111 80.8418H23.092C23.2939 80.8418 23.4579 81.0058 23.4579 81.2077V83.1887C23.4579 83.3905 23.2939 83.5546 23.092 83.5546Z" fill="#4B9B88"/>
<path d="M26.9909 83.5546H25.01C24.8081 83.5546 24.644 83.3905 24.644 83.1887V81.2077C24.644 81.0058 24.8081 80.8418 25.01 80.8418H26.9909C27.1928 80.8418 27.3568 81.0058 27.3568 81.2077V83.1887C27.3568 83.3905 27.1928 83.5546 26.9909 83.5546Z" fill="#4B9B88"/>
<path d="M15.3068 87.6552H13.3259C13.124 87.6552 12.96 87.4911 12.96 87.2892V85.3083C12.96 85.1064 13.124 84.9424 13.3259 84.9424H15.3068C15.5087 84.9424 15.6727 85.1064 15.6727 85.3083V87.2892C15.6727 87.4911 15.5087 87.6552 15.3068 87.6552Z" fill="#4B9B88"/>
<path d="M19.2058 87.6552H17.2248C17.0229 87.6552 16.8589 87.4911 16.8589 87.2892V85.3083C16.8589 85.1064 17.0229 84.9424 17.2248 84.9424H19.2058C19.4076 84.9424 19.5717 85.1064 19.5717 85.3083V87.2892C19.559 87.4911 19.395 87.6552 19.2058 87.6552Z" fill="#4B9B88"/>
<path d="M23.092 87.6552H21.111C20.9091 87.6552 20.7451 87.4911 20.7451 87.2892V85.3083C20.7451 85.1064 20.9091 84.9424 21.111 84.9424H23.092C23.2939 84.9424 23.4579 85.1064 23.4579 85.3083V87.2892C23.4579 87.4911 23.2939 87.6552 23.092 87.6552Z" fill="#4B9B88"/>
<path d="M26.9909 87.6552H25.01C24.8081 87.6552 24.644 87.4911 24.644 87.2892V85.3083C24.644 85.1064 24.8081 84.9424 25.01 84.9424H26.9909C27.1928 84.9424 27.3568 85.1064 27.3568 85.3083V87.2892C27.3568 87.4911 27.1928 87.6552 26.9909 87.6552Z" fill="#4B9B88"/>
<path d="M15.3068 91.7557H13.3259C13.124 91.7557 12.96 91.5917 12.96 91.3898V89.4089C12.96 89.207 13.124 89.043 13.3259 89.043H15.3068C15.5087 89.043 15.6727 89.207 15.6727 89.4089V91.3898C15.6727 91.5917 15.5087 91.7557 15.3068 91.7557Z" fill="#4B9B88"/>
<path d="M19.2058 91.7557H17.2248C17.0229 91.7557 16.8589 91.5917 16.8589 91.3898V89.4089C16.8589 89.207 17.0229 89.043 17.2248 89.043H19.2058C19.4076 89.043 19.5717 89.207 19.5717 89.4089V91.3898C19.559 91.5917 19.395 91.7557 19.2058 91.7557Z" fill="#4B9B88"/>
<path d="M23.092 91.7557H21.111C20.9091 91.7557 20.7451 91.5917 20.7451 91.3898V89.4089C20.7451 89.207 20.9091 89.043 21.111 89.043H23.092C23.2939 89.043 23.4579 89.207 23.4579 89.4089V91.3898C23.4579 91.5917 23.2939 91.7557 23.092 91.7557Z" fill="#4B9B88"/>
<path d="M15.3068 95.8436H13.3259C13.124 95.8436 12.96 95.6796 12.96 95.4777V93.4968C12.96 93.2949 13.124 93.1309 13.3259 93.1309H15.3068C15.5087 93.1309 15.6727 93.2949 15.6727 93.4968V95.4777C15.6727 95.6796 15.5087 95.8436 15.3068 95.8436Z" fill="#4B9B88"/>
<path d="M19.2058 95.8436H17.2248C17.0229 95.8436 16.8589 95.6796 16.8589 95.4777V93.4968C16.8589 93.2949 17.0229 93.1309 17.2248 93.1309H19.2058C19.4076 93.1309 19.5717 93.2949 19.5717 93.4968V95.4777C19.559 95.6796 19.395 95.8436 19.2058 95.8436Z" fill="#4B9B88"/>
<path d="M23.092 95.8436H21.111C20.9091 95.8436 20.7451 95.6796 20.7451 95.4777V93.4968C20.7451 93.2949 20.9091 93.1309 21.111 93.1309H23.092C23.2939 93.1309 23.4579 93.2949 23.4579 93.4968V95.4777C23.4579 95.6796 23.2939 95.8436 23.092 95.8436Z" fill="#4B9B88"/>
<path d="M25.01 89.0566C24.8081 89.0566 24.644 89.2207 24.644 89.4226V93.1573V94.5074V95.4916C24.644 95.6935 24.8081 95.8575 25.01 95.8575H26.9909C27.1928 95.8575 27.3568 95.6935 27.3568 95.4916V94.5074V93.1573V89.4226C27.3568 89.2207 27.1928 89.0566 26.9909 89.0566H25.01Z" fill="#4B9B88"/>
<path d="M15.1555 83.2899H13.1745C12.9726 83.2899 12.8086 83.1259 12.8086 82.924V80.9431C12.8086 80.7412 12.9726 80.5771 13.1745 80.5771H15.1555C15.3573 80.5771 15.5214 80.7412 15.5214 80.9431V82.924C15.5087 83.1259 15.3573 83.2899 15.1555 83.2899Z" fill="#00F57E"/>
<path d="M19.0417 83.2899H17.0607C16.8589 83.2899 16.6948 83.1259 16.6948 82.924V80.9431C16.6948 80.7412 16.8589 80.5771 17.0607 80.5771H19.0417C19.2436 80.5771 19.4076 80.7412 19.4076 80.9431V82.924C19.4076 83.1259 19.2436 83.2899 19.0417 83.2899Z" fill="#00F57E"/>
<path d="M22.9406 83.2899H20.9597C20.7578 83.2899 20.5938 83.1259 20.5938 82.924V80.9431C20.5938 80.7412 20.7578 80.5771 20.9597 80.5771H22.9406C23.1425 80.5771 23.3065 80.7412 23.3065 80.9431V82.924C23.3065 83.1259 23.1425 83.2899 22.9406 83.2899Z" fill="#00F57E"/>
<path d="M26.8391 83.2899H24.8581C24.6562 83.2899 24.4922 83.1259 24.4922 82.924V80.9431C24.4922 80.7412 24.6562 80.5771 24.8581 80.5771H26.8391C27.0409 80.5771 27.205 80.7412 27.205 80.9431V82.924C27.1923 83.1259 27.0409 83.2899 26.8391 83.2899Z" fill="#7BFFE0"/>
<path d="M15.1555 87.3905H13.1745C12.9726 87.3905 12.8086 87.2265 12.8086 87.0246V85.0436C12.8086 84.8418 12.9726 84.6777 13.1745 84.6777H15.1555C15.3573 84.6777 15.5214 84.8418 15.5214 85.0436V87.0246C15.5087 87.2265 15.3573 87.3905 15.1555 87.3905Z" fill="#00F57E"/>
<path d="M19.0417 87.3905H17.0607C16.8589 87.3905 16.6948 87.2265 16.6948 87.0246V85.0436C16.6948 84.8418 16.8589 84.6777 17.0607 84.6777H19.0417C19.2436 84.6777 19.4076 84.8418 19.4076 85.0436V87.0246C19.4076 87.2265 19.2436 87.3905 19.0417 87.3905Z" fill="#00F57E"/>
<path d="M22.9406 87.3905H20.9597C20.7578 87.3905 20.5938 87.2265 20.5938 87.0246V85.0436C20.5938 84.8418 20.7578 84.6777 20.9597 84.6777H22.9406C23.1425 84.6777 23.3065 84.8418 23.3065 85.0436V87.0246C23.3065 87.2265 23.1425 87.3905 22.9406 87.3905Z" fill="#00F57E"/>
<path d="M26.8391 87.3905H24.8581C24.6562 87.3905 24.4922 87.2265 24.4922 87.0246V85.0436C24.4922 84.8418 24.6562 84.6777 24.8581 84.6777H26.8391C27.0409 84.6777 27.205 84.8418 27.205 85.0436V87.0246C27.1923 87.2265 27.0409 87.3905 26.8391 87.3905Z" fill="#7BFFE0"/>
<path d="M15.1555 91.4921H13.1745C12.9726 91.4921 12.8086 91.328 12.8086 91.1262V89.1452C12.8086 88.9433 12.9726 88.7793 13.1745 88.7793H15.1555C15.3573 88.7793 15.5214 88.9433 15.5214 89.1452V91.1262C15.5087 91.328 15.3573 91.4921 15.1555 91.4921Z" fill="#00F57E"/>
<path d="M19.0417 91.4921H17.0607C16.8589 91.4921 16.6948 91.328 16.6948 91.1262V89.1452C16.6948 88.9433 16.8589 88.7793 17.0607 88.7793H19.0417C19.2436 88.7793 19.4076 88.9433 19.4076 89.1452V91.1262C19.4076 91.328 19.2436 91.4921 19.0417 91.4921Z" fill="#00F57E"/>
<path d="M22.9406 91.4921H20.9597C20.7578 91.4921 20.5938 91.328 20.5938 91.1262V89.1452C20.5938 88.9433 20.7578 88.7793 20.9597 88.7793H22.9406C23.1425 88.7793 23.3065 88.9433 23.3065 89.1452V91.1262C23.3065 91.328 23.1425 91.4921 22.9406 91.4921Z" fill="#00F57E"/>
<path d="M15.1555 95.5791H13.1745C12.9726 95.5791 12.8086 95.415 12.8086 95.2132V93.2448C12.8086 93.0429 12.9726 92.8789 13.1745 92.8789H15.1555C15.3573 92.8789 15.5214 93.0429 15.5214 93.2448V95.2258C15.5087 95.415 15.3573 95.5791 15.1555 95.5791Z" fill="#7BFFE0"/>
<path d="M19.0417 95.5791H17.0607C16.8589 95.5791 16.6948 95.415 16.6948 95.2132V93.2448C16.6948 93.0429 16.8589 92.8789 17.0607 92.8789H19.0417C19.2436 92.8789 19.4076 93.0429 19.4076 93.2448V95.2258C19.4076 95.415 19.2436 95.5791 19.0417 95.5791Z" fill="#00F57E"/>
<path d="M22.9406 95.5791H20.9597C20.7578 95.5791 20.5938 95.415 20.5938 95.2132V93.2448C20.5938 93.0429 20.7578 92.8789 20.9597 92.8789H22.9406C23.1425 92.8789 23.3065 93.0429 23.3065 93.2448V95.2258C23.3065 95.415 23.1425 95.5791 22.9406 95.5791Z" fill="#7BFFE0"/>
<path d="M24.8581 88.791C24.6562 88.791 24.4922 88.955 24.4922 89.1569V92.8917V94.2418V95.226C24.4922 95.4278 24.6562 95.5919 24.8581 95.5919H26.8391C27.0409 95.5919 27.205 95.4278 27.205 95.226V94.2418V92.8917V89.1569C27.205 88.955 27.0409 88.791 26.8391 88.791H24.8581Z" fill="#7BFFE0"/>
<path d="M46.0078 71.3071C46.0078 71.6689 45.7119 71.9649 45.3501 71.9649C44.9884 71.9649 44.6924 71.6689 44.6924 71.3071C44.6924 70.9454 44.9884 70.6494 45.3501 70.6494C45.7119 70.6494 46.0078 70.9454 46.0078 71.3071Z" fill="#363636"/>
<path d="M53.3574 71.3071C53.3574 71.6689 53.0615 71.9649 52.6997 71.9649C52.338 71.9649 52.042 71.6689 52.042 71.3071C52.042 70.9454 52.338 70.6494 52.6997 70.6494C53.0615 70.6494 53.3574 70.9454 53.3574 71.3071Z" fill="#363636"/>
<path d="M52.1077 71.0117H45.9416C44.807 71.0117 43.8862 70.0909 43.8862 68.9563V58.071C43.8862 56.9364 44.807 56.0156 45.9416 56.0156H52.1077C53.2423 56.0156 54.1631 56.9364 54.1631 58.071V68.9399C54.1631 70.0909 53.2423 71.0117 52.1077 71.0117Z" fill="#7BFFE0"/>
<path d="M50.71 67.3612H47.3392C46.5993 67.3612 46.0073 66.7692 46.0073 66.0293V57.9393C46.0073 57.1994 46.5993 56.6074 47.3392 56.6074H50.7265C51.4664 56.6074 52.0584 57.1994 52.0584 57.9393V66.0293C52.0584 66.7528 51.45 67.3612 50.71 67.3612Z" fill="#B5FDEC"/>
<path d="M48.7369 71.0117H48.9177V56.0321H48.7369V71.0117ZM47.4872 71.0117H47.6681V56.0321H47.4872V71.0117ZM46.665 71.0117H46.8459V56.0321H46.665V71.0117ZM47.8983 71.0117H48.0791V56.0321H47.8983V71.0117ZM48.3258 71.0117H48.5066V56.0321H48.3258V71.0117ZM46.254 71.0117H46.4348V56.0321H46.254V71.0117ZM47.0761 71.0117H47.257V56.0321H47.0761V71.0117ZM45.8429 56.0156V70.9952C45.8758 70.9952 45.9086 70.9952 45.9415 70.9952H46.0073V56.0156H45.9415C45.9086 56.0156 45.8758 56.0156 45.8429 56.0156ZM45.0207 70.7815C45.0701 70.8144 45.1358 70.8308 45.2016 70.8637V56.1636C45.1358 56.1801 45.0865 56.2129 45.0207 56.2458V70.7815ZM53.6862 56.7556V70.2553C53.752 70.1731 53.8013 70.0909 53.8671 70.0086V57.0022C53.8178 56.92 53.752 56.8378 53.6862 56.7556ZM45.4318 70.9295C45.4811 70.9459 45.5469 70.9623 45.6127 70.9623V56.0321C45.5469 56.0485 45.4976 56.0485 45.4318 56.065V70.9295ZM44.5932 70.5019C44.6425 70.5513 44.7083 70.6006 44.7741 70.6335V56.3774C44.7083 56.4267 44.659 56.4596 44.5932 56.5089V70.5019ZM44.1821 70.0251C44.2315 70.1073 44.2972 70.1895 44.363 70.2717V56.7556C44.2972 56.8378 44.2479 56.92 44.1821 57.0022V70.0251ZM51.6308 71.0117H51.8117V56.0321H51.6308V71.0117ZM49.1479 71.0117H49.3288V56.0321H49.1479V71.0117ZM52.0419 56.0156V70.9952H52.1077C52.1406 70.9952 52.1734 70.9952 52.2063 70.9952V56.0156C52.1734 56.0156 52.1406 56.0156 52.1077 56.0156H52.0419ZM52.8641 70.8637C52.9298 70.8472 52.9792 70.8144 53.0449 70.7815V56.2458C52.9956 56.2129 52.9298 56.1965 52.8641 56.1636V70.8637ZM53.2751 70.6335C53.3409 70.5842 53.3902 70.5513 53.456 70.5019V56.5089C53.4067 56.4596 53.3409 56.4103 53.2751 56.3774V70.6335ZM52.453 70.9788C52.5188 70.9623 52.5681 70.9623 52.6339 70.9459V56.0978C52.5845 56.0814 52.5188 56.065 52.453 56.065V70.9788ZM51.2033 71.0117H51.3842V56.0321H51.2033V71.0117ZM49.559 71.0117H49.7399V56.0321H49.559V71.0117ZM49.9701 71.0117H50.151V56.0321H49.9701V71.0117ZM50.3812 71.0117H50.562V56.0321H50.3812V71.0117ZM50.7922 71.0117H50.9731V56.0321H50.7922V71.0117Z" fill="#38BE9E"/>
<path d="M52.0582 70.9127H45.9908C44.8726 70.9127 43.9683 70.0247 43.9683 68.9395V67.5254C43.9683 68.6106 44.8726 69.4986 45.9908 69.4986H52.0582C53.1764 69.4986 54.0807 68.6106 54.0807 67.5254V68.9395C54.0807 70.0247 53.1764 70.9127 52.0582 70.9127Z" fill="#38BE9E"/>
<path opacity="0.72" d="M54.3624 36.6279H32.1748V38.6306H54.3624V36.6279Z" fill="white"/>
<path opacity="0.72" d="M57.4454 39.8428H32.1748V41.8455H57.4454V39.8428Z" fill="white"/>
<path d="M47.1089 48.5832V56.2786H47.5364V49.0108C47.5364 48.6819 47.7995 48.4024 48.1448 48.4024H49.9371C50.2659 48.4024 50.5455 48.6655 50.5455 49.0108V56.2786H50.973V48.5832C50.973 48.0899 50.5784 47.6953 50.0851 47.6953H47.9968C47.5035 47.6953 47.1089 48.0899 47.1089 48.5832Z" fill="#38BE9E"/>
<path d="M92.7914 38.579L93.3861 39.8555C93.4233 39.8909 93.4605 39.9264 93.4976 39.9619L94.8358 40.5292C94.9845 40.6001 94.9845 40.8128 94.8358 40.8837L93.4976 41.4511C93.4605 41.4865 93.4233 41.522 93.3861 41.5574L92.7914 42.8339C92.717 42.9757 92.494 42.9757 92.4196 42.8339L91.8249 41.5574C91.7877 41.522 91.7505 41.4865 91.7134 41.4511L90.3752 40.8837C90.2265 40.8128 90.2265 40.6001 90.3752 40.5292L91.7134 39.9619C91.7505 39.9264 91.7877 39.8909 91.8249 39.8555L92.4196 38.579C92.494 38.4372 92.717 38.4372 92.7914 38.579Z" fill="#38BE9E"/>
<defs>
<linearGradient id="paint0_linear" x1="2.6351e-05" y1="92.7695" x2="17.9923" y2="92.7695" gradientUnits="userSpaceOnUse">
<stop stop-color="#FF9340"/>
<stop offset="1" stop-color="#FFCE45"/>
</linearGradient>
<linearGradient id="paint1_linear" x1="0.656135" y1="90.5858" x2="18.6487" y2="90.5858" gradientUnits="userSpaceOnUse">
<stop stop-color="#F58631"/>
<stop offset="1" stop-color="#F2C23F"/>
</linearGradient>
<linearGradient id="paint2_linear" x1="0.289565" y1="88.3999" x2="18.282" y2="88.3999" gradientUnits="userSpaceOnUse">
<stop stop-color="#FF9340"/>
<stop offset="1" stop-color="#FFCE45"/>
</linearGradient>
<linearGradient id="paint3_linear" x1="0.656135" y1="86.2172" x2="18.6487" y2="86.2172" gradientUnits="userSpaceOnUse">
<stop stop-color="#F58631"/>
<stop offset="1" stop-color="#F2C23F"/>
</linearGradient>
<linearGradient id="paint4_linear" x1="0.963846" y1="84.0325" x2="18.9563" y2="84.0325" gradientUnits="userSpaceOnUse">
<stop stop-color="#FF9340"/>
<stop offset="1" stop-color="#FFCE45"/>
</linearGradient>
<linearGradient id="paint5_linear" x1="0.399789" y1="81.8478" x2="18.3922" y2="81.8478" gradientUnits="userSpaceOnUse">
<stop stop-color="#F58631"/>
<stop offset="1" stop-color="#F2C23F"/>
</linearGradient>
<linearGradient id="paint6_linear" x1="2.6351e-05" y1="79.663" x2="17.9923" y2="79.663" gradientUnits="userSpaceOnUse">
<stop stop-color="#FF9340"/>
<stop offset="1" stop-color="#FFCE45"/>
</linearGradient>
<linearGradient id="paint7_linear" x1="0.734064" y1="77.4794" x2="18.7266" y2="77.4794" gradientUnits="userSpaceOnUse">
<stop stop-color="#F58631"/>
<stop offset="1" stop-color="#F2C23F"/>
</linearGradient>
<linearGradient id="paint8_linear" x1="1.42478" y1="94.8637" x2="19.4175" y2="94.8637" gradientUnits="userSpaceOnUse">
<stop stop-color="#F58631"/>
<stop offset="1" stop-color="#F2C23F"/>
</linearGradient>
<linearGradient id="paint9_linear" x1="2.56544" y1="73.3962" x2="20.1911" y2="77.3789" gradientUnits="userSpaceOnUse">
<stop stop-color="#FF9340"/>
<stop offset="1" stop-color="#FFCE45"/>
</linearGradient>
</defs>
</svg>
