<svg width="113" height="104" viewBox="0 0 113 104" fill="none" xmlns="http://www.w3.org/2000/svg">
<path opacity="0.56" d="M53.814 104C76.7338 104 95.314 101.985 95.314 99.5C95.314 97.0147 76.7338 95 53.814 95C30.8942 95 12.314 97.0147 12.314 99.5C12.314 101.985 30.8942 104 53.814 104Z" fill="#37C848" fill-opacity="0.2"/>
<path d="M12.2719 12.202L12.7452 13.267C12.7452 13.3064 12.7846 13.3459 12.8241 13.3459L13.889 13.8192C14.0074 13.8586 14.0074 14.0558 13.889 14.1347L12.8241 14.608C12.7846 14.608 12.7452 14.6474 12.7452 14.6869L12.2719 15.7518C12.2325 15.8701 12.0352 15.8701 11.9564 15.7518L11.4831 14.6869C11.4831 14.6474 11.4436 14.608 11.4042 14.608L10.3392 14.1347C10.2209 14.0953 10.2209 13.898 10.3392 13.8192L11.4042 13.3459C11.4436 13.3459 11.4831 13.3064 11.4831 13.267L11.9564 12.202C12.0352 12.0837 12.193 12.0837 12.2719 12.202Z" fill="#7BFFE0"/>
<path d="M59.7949 0.088745L60.2681 1.15369C60.2681 1.19313 60.3076 1.23257 60.347 1.23257L61.412 1.70587C61.5303 1.74532 61.5303 1.94253 61.412 2.02141L60.347 2.49472C60.3076 2.49472 60.2681 2.53416 60.2681 2.5736L59.7949 3.63854C59.7554 3.75687 59.5582 3.75687 59.4793 3.63854L59.006 2.5736C59.006 2.53416 58.9666 2.49472 58.9271 2.49472L57.8622 2.02141C57.7439 1.98197 57.7439 1.78476 57.8622 1.70587L58.9271 1.23257C58.9666 1.23257 59.006 1.19313 59.006 1.15369L59.4793 0.088745C59.5582 -0.0295817 59.716 -0.0295817 59.7949 0.088745Z" fill="#38BE9E"/>
<path d="M96.3359 68.0887L96.8092 69.1537C96.8092 69.1931 96.8486 69.2326 96.8881 69.2326L97.953 69.7059C98.0713 69.7453 98.0713 69.9425 97.953 70.0214L96.8881 70.4947C96.8486 70.4947 96.8092 70.5342 96.8092 70.5736L96.3359 71.6385C96.2964 71.7569 96.0992 71.7569 96.0203 71.6385L95.547 70.5736C95.547 70.5342 95.5076 70.4947 95.4681 70.4947L94.4032 70.0214C94.2849 69.982 94.2849 69.7848 94.4032 69.7059L95.4681 69.2326C95.5076 69.2326 95.547 69.1931 95.547 69.1537L96.0203 68.0887C96.0992 67.9704 96.257 67.9704 96.3359 68.0887Z" fill="#37C848"/>
<path d="M53.5086 72.8823L54.6918 75.2784C54.6918 75.3672 54.7905 75.4559 54.8891 75.4559L57.5514 76.5208C57.8472 76.6096 57.8472 77.0533 57.5514 77.2308L54.8891 78.2957C54.7905 78.2957 54.6918 78.3845 54.6918 78.4732L53.5086 80.8693C53.41 81.1356 52.917 81.1356 52.7197 80.8693L51.5365 78.4732C51.5365 78.3845 51.4379 78.2957 51.3393 78.2957L48.6769 77.2308C48.3811 77.1421 48.3811 76.6983 48.6769 76.5208L51.3393 75.4559C51.4379 75.4559 51.5365 75.3672 51.5365 75.2784L52.7197 72.8823C52.917 72.6161 53.3114 72.6161 53.5086 72.8823Z" fill="#96FFA3"/>
<path d="M91.1273 45.5005C91.1273 45.5005 92.092 38.0948 96.9218 35.3699C96.9218 35.3699 96.7019 41.0318 91.1273 45.5005Z" fill="#7BFFE0"/>
<path d="M95.5113 43.2827C95.5113 43.2827 97.6418 36.9266 102.388 35.4128C102.388 35.4128 101.192 40.3535 95.5113 43.2827Z" fill="#7BFFE0"/>
<path d="M100.316 41.8941C100.316 41.8941 102.704 36.6673 106.847 35.8109C106.818 35.7486 105.401 39.8837 100.316 41.8941Z" fill="#7BFFE0"/>
<path d="M101.105 41.718C101.105 41.718 106.857 41.9708 109.175 45.5136C109.221 45.5304 104.853 45.7347 101.105 41.718Z" fill="#7BFFE0"/>
<path d="M96.2169 43.3332C96.2169 43.3332 102.72 43.6551 105.438 47.6556C105.393 47.6388 100.502 47.8578 96.2169 43.3332Z" fill="#7BFFE0"/>
<path d="M91.6315 45.1148C91.6315 45.1148 98.6569 45.422 101.549 49.7965C101.503 49.7797 96.197 50.0014 91.6315 45.1148Z" fill="#7BFFE0"/>
<path d="M86.3798 48.5648C86.3798 48.5648 86.3201 40.0064 91.382 36.2286C91.382 36.2286 92.0136 42.6693 86.3798 48.5648Z" fill="#7BFFE0"/>
<path d="M86.8706 48.0728C86.8706 48.0728 94.8497 47.3338 98.7987 51.7867C98.7987 51.7867 92.8218 52.8481 86.8706 48.0728Z" fill="#7BFFE0"/>
<path d="M103.79 41.3107C103.79 41.3107 108.094 38.1857 111.835 39.4062C111.835 39.4062 108.789 42.0628 103.79 41.3107Z" fill="#7BFFE0"/>
<path d="M105.11 40.8119C94.6448 41.9818 84.8772 47.4436 78.5086 55.7592C78.2211 56.1191 78.7584 56.6271 79.046 56.2673C85.3643 48.0883 94.8994 42.6962 105.149 41.5505C105.552 41.4399 105.558 40.7181 105.11 40.8119Z" fill="#7BFFE0"/>
<path d="M16.7537 88.8214C16.7537 88.8214 16.9157 82.4634 13.2195 79.6092C13.2195 79.6092 12.6631 84.3621 16.7537 88.8214Z" fill="#B4F0BB"/>
<path d="M13.3873 86.3993C13.3873 86.3993 12.4241 80.8093 8.64923 78.9099C8.654 78.9486 8.98025 83.1995 13.3873 86.3993Z" fill="#B4F0BB"/>
<path d="M9.55287 84.6237C9.55287 84.6237 8.22876 79.9441 4.88372 78.6607C4.88372 78.6607 5.56539 82.2774 9.55287 84.6237Z" fill="#B4F0BB"/>
<path d="M8.89343 84.3906C8.89343 84.3906 4.0716 83.8796 1.6456 86.5373C1.6456 86.5373 5.23232 87.2389 8.89343 84.3906Z" fill="#B4F0BB"/>
<path d="M12.7917 86.355C12.7917 86.355 7.29217 85.7696 4.55561 88.7801C4.55561 88.7801 8.62636 89.5799 12.7917 86.355Z" fill="#B4F0BB"/>
<path d="M16.4303 88.4305C16.4303 88.4305 10.5338 87.815 7.54983 91.0525C7.51108 91.0573 11.9448 91.9306 16.4303 88.4305Z" fill="#B4F0BB"/>
<path d="M20.3308 92.0072C20.3308 92.0072 21.4973 84.8567 17.759 81.0234C17.7637 81.0622 16.4069 86.3463 20.3308 92.0072Z" fill="#B4F0BB"/>
<path d="M19.9983 91.5364C19.9983 91.5364 13.4258 89.9021 9.53644 93.1323C9.53167 93.0936 14.3803 94.7816 19.9983 91.5364Z" fill="#B4F0BB"/>
<path d="M6.72438 83.7097C6.72438 83.7097 3.50514 80.5623 0.225693 81.0822C0.220923 81.0434 2.42908 83.6457 6.72438 83.7097Z" fill="#B4F0BB"/>
<path d="M5.70345 83.0938C14.2909 85.4265 21.7723 91.2403 26.0341 99.023C26.232 99.353 25.7228 99.6909 25.5249 99.3609C21.3161 91.6898 13.9993 85.9345 5.57645 83.6604C5.21335 83.5868 5.29682 82.9862 5.70345 83.0938Z" fill="#B4F0BB"/>
<path d="M54.2931 11.7351C53.8407 9.72788 52.2293 8.11644 50.2221 7.66411C48.5541 7.29659 46.8296 7.66411 45.5291 8.71013C44.2286 9.75615 43.4653 11.311 43.4653 13.0073C43.4653 13.6293 43.9742 14.1381 44.5962 14.1381C45.2181 14.1381 45.727 13.6293 45.727 13.0073C45.727 12.0178 46.1793 11.0849 46.9426 10.4629C47.7342 9.84096 48.7237 9.6148 49.7415 9.84097C50.9288 10.0954 51.8335 11.0283 52.1162 12.2157C52.3707 13.3466 52.0597 14.4491 51.2964 15.2407C49.063 17.5306 47.8473 20.386 47.8473 23.2979V24.0612C47.8473 24.6832 48.3562 25.192 48.9781 25.192C49.6001 25.192 50.109 24.6832 50.109 24.0612V23.2979C50.109 20.9797 51.0985 18.6615 52.9078 16.7956C54.18 15.4951 54.7171 13.601 54.2931 11.7351ZM49.1195 26.2946C48.4693 26.2946 47.9039 26.8318 47.9039 27.5103C47.9039 28.1605 48.441 28.7259 49.1195 28.7259C49.7697 28.7259 50.3351 28.1888 50.3351 27.5103C50.3351 26.8318 49.798 26.2946 49.1195 26.2946Z" fill="#96FFA3"/>
<path d="M48.9502 25.2187C49.2329 25.2187 49.459 25.1057 49.6569 24.9643C49.0633 24.936 48.5827 24.4554 48.5827 23.8335V23.0702C48.5827 20.1583 49.7983 17.2746 52.0317 15.013C52.8233 14.2214 53.106 13.0905 52.8515 11.988C52.5971 10.8006 51.6642 9.89594 50.4768 9.61323C49.7135 9.44361 48.9502 9.52842 48.2999 9.8394C48.7523 9.75459 49.2329 9.75459 49.7135 9.86767C50.9009 10.1221 51.8055 11.055 52.0882 12.2424C52.3427 13.3733 52.0317 14.4758 51.2684 15.2674C49.035 17.5573 47.8193 20.4127 47.8193 23.3246V24.0879C47.8193 24.7099 48.3282 25.2187 48.9502 25.2187Z" fill="#F1F2F2"/>
<path d="M44.2286 12.7519C44.2286 11.0839 44.992 9.50074 46.2924 8.45472C46.6882 8.14374 47.1123 7.8893 47.5646 7.69141C46.8296 7.8893 46.1228 8.22855 45.5291 8.70916C44.2286 9.75518 43.4653 11.3101 43.4653 13.0063C43.4653 13.6283 43.9742 14.1372 44.5962 14.1372C44.8789 14.1372 45.105 14.0241 45.3029 13.8827C44.7092 13.8545 44.2286 13.3456 44.2286 12.7519Z" fill="#F1F2F2"/>
<path d="M48.6959 27.2542C48.6959 26.8584 48.8655 26.5192 49.1482 26.3213H49.1199C48.4697 26.3213 47.9043 26.8584 47.9043 27.5369C47.9043 28.1872 48.4414 28.7526 49.1199 28.7526C49.4027 28.7526 49.6571 28.6395 49.855 28.4981C49.2048 28.4416 48.6959 27.9045 48.6959 27.2542Z" fill="#F1F2F2"/>
<path d="M26.3332 98.385C26.4745 98.3002 26.6724 98.2437 26.8421 98.272L27.8881 98.1589L26.9551 96.7453L27.1248 90.7236H23.3647C23.5061 95.6993 23.5909 97.1129 23.6192 98.4416L24.8914 98.7526C25.1175 98.8091 25.372 98.7808 25.5699 98.6395L26.3332 98.385Z" fill="#A7755E"/>
<path d="M23.5908 98.4414C23.6191 99.0068 23.6191 99.5722 23.6191 100.109H28.623C28.7927 100.109 28.934 99.968 28.934 99.7984C28.934 99.7418 28.9057 99.6853 28.8775 99.6288L27.888 98.1304H26.7289C26.5593 98.1021 26.3614 98.1587 26.22 98.2435L25.5698 98.611C25.3719 98.7241 25.1174 98.7806 24.8913 98.7241L23.5908 98.4414Z" fill="#96FFA3"/>
<path d="M33.8253 98.159L36.9634 98.7527C37.5288 98.8657 38.0942 98.6396 38.4335 98.159L36.9634 96.9999C37.0482 96.0387 37.2744 91.3457 37.2744 91.3457H33.6274L33.8253 98.159Z" fill="#A7755E"/>
<path d="M33.8247 98.1602L33.853 99.7999V100.111H40.0443C40.327 100.111 40.4684 99.7433 40.2422 99.5737L38.4329 98.1602C38.0936 98.6125 37.5282 98.8669 36.9628 98.7538L33.8247 98.1602Z" fill="#96FFA3"/>
<path d="M21.442 48.0615L19.7175 49.3337C19.7175 49.3337 19.4065 49.7295 19.5479 50.408C19.6892 51.0865 20.2829 51.7367 20.2829 51.7367C20.2829 51.7367 18.9824 51.765 19.0107 52.1325C19.039 52.5 20.7635 52.9524 22.0357 52.8393C22.2336 51.3409 22.488 50.2384 22.799 49.1358L21.442 48.0615Z" fill="#A7755E"/>
<path d="M47.9884 32.5712C47.9884 32.5712 43.9174 46.5653 41.4013 46.3674C41.373 46.3674 41.3165 46.3674 41.2882 46.3392C39.1962 46.0282 37.4999 42.042 36.6235 39.4128C36.7083 38.9605 36.7932 38.5364 36.9062 38.0841C37.7826 34.8895 38.4046 33.1084 36.9062 30.1117L39.281 28.6416L41.7688 40.5436C41.7688 40.5436 46.0943 30.9598 46.6032 30.4227C47.3382 29.5745 48.469 29.9421 49.2323 29.7442C49.9957 29.5463 51.8898 28.7264 52.3139 29.2636C52.7945 29.8855 47.9884 32.5712 47.9884 32.5712Z" fill="#A7755E"/>
<path d="M39.2811 28.642L36.9064 30.1121C38.4047 33.1088 37.7828 34.8616 36.9064 38.0845C36.7933 38.5368 36.6802 38.9609 36.6237 39.4132C36.1431 42.1555 36.4823 44.6716 36.4823 44.6716H24.3258L21.5553 32.4869L19.0109 34.1831L18.813 33.8156L18.6151 33.5046L16.2404 29.4336L16.0425 29.1226C16.0425 29.1226 18.3041 26.7761 21.4705 25.0516C23.195 24.1187 25.2022 23.3554 27.2377 23.2988C27.577 24.4579 28.623 25.3061 29.8952 25.3061C31.1674 25.3061 32.2134 24.4579 32.5527 23.2988C35.3797 23.3554 37.1891 24.5145 38.2916 25.7019C39.479 26.974 39.8748 28.3028 39.8748 28.3028L39.2811 28.642Z" fill="#38BE9E"/>
<path d="M39.4508 59.2577C39.4508 66.5516 38.0372 81.5069 37.6697 91.9671H33.3725L31.5915 56.572H29.7821L27.4357 91.9671H23.1385C22.771 81.4786 21.3574 66.5516 21.3574 59.2577C21.3574 57.4766 21.4988 55.7804 21.6967 54.2255C21.9511 52.3313 22.3186 50.6633 22.7144 49.2498C23.506 46.3944 24.3259 44.6699 24.3259 44.6699H36.4823C36.4823 44.6699 39.4508 50.8047 39.4508 59.2577Z" fill="#7BFFE0"/>
<path d="M38.3767 24.8531C38.3767 25.1641 38.3201 25.4468 38.2636 25.7295C37.161 24.5421 35.38 23.383 32.5529 23.3265C32.1288 22.8176 32.1005 21.9978 32.1005 21.9978C33.7685 21.9978 34.8145 21.2627 34.8145 21.3475C37.1045 16.6263 34.8145 12.3291 34.8145 12.3291C34.8145 12.3291 34.6167 14.1385 32.3267 15.3824C31.0545 16.0609 30.6587 17.6158 30.6587 17.6158C30.6587 17.6158 30.3195 16.174 29.3583 16.2588C28.3971 16.3436 28.708 18.3226 28.708 18.3226L29.4431 19.2555C29.8106 22.3653 27.238 23.3548 27.238 23.3548C25.2025 23.4396 23.1952 24.1746 21.4707 25.1076C21.5272 24.4291 21.7251 23.6375 22.2623 22.9872C22.8842 22.2239 23.3931 22.3087 23.8172 21.6302C24.4674 20.4994 22.545 19.5947 23.0256 18.2377C23.4497 16.9938 24.0716 16.9656 24.7219 15.6934C25.5134 14.1385 24.7501 13.3752 25.259 11.8485C25.881 9.89784 29.5562 8.71046 31.9309 8.79528C34.8145 8.88009 37.5568 11.0004 37.7547 13.0359C37.8395 14.0537 37.2458 14.506 37.5286 15.8347C37.8395 17.2765 38.6877 17.3896 38.7725 18.4922C38.8573 20.0188 37.3024 20.3581 37.3589 21.913C37.3872 23.1003 38.3767 23.4396 38.3767 24.8531Z" fill="#363636"/>
<path d="M13.385 40.5148C13.1588 40.3169 13.0457 40.0625 13.0457 39.7798C13.0174 39.4971 13.1305 39.1861 13.3567 38.9599L18.5868 33.5037L16.2121 29.4609C14.431 31.2985 7.95696 38.1684 8.4093 40.1473C8.94644 42.4655 19.6328 49.7029 19.6328 49.7029L21.4422 48.0914L13.385 40.5148Z" fill="#A7755E"/>
<path d="M34.8144 21.3192C34.8144 21.3192 34.8144 21.4323 34.5034 21.5736C34.2207 21.715 33.627 21.8846 32.4962 22.026C32.4962 22.026 32.4679 23.0154 32.5527 23.3264C32.2135 24.4855 31.1674 25.3336 29.8953 25.3336C28.6231 25.3336 27.577 24.4855 27.2378 23.3264C27.2378 23.3264 29.2733 22.5348 29.4429 20.1601C29.4712 19.8774 29.4712 19.5664 29.4146 19.2271C29.4146 19.2271 28.8775 19.1706 28.7079 18.2942C28.5948 17.7571 28.3969 16.3152 29.3581 16.2304C30.3193 16.1456 30.6586 17.5874 30.6586 17.5874C30.6586 17.5874 31.0544 16.0325 32.3266 15.354C34.6165 14.1101 34.8144 12.3008 34.8144 12.3008C34.8144 12.3008 37.0761 16.5979 34.8144 21.3192Z" fill="#A7755E"/>
<path d="M30.0925 19.2266C30.0925 19.2266 29.8098 19.8203 29.414 20.1595C29.4423 19.8768 29.4423 19.5658 29.3857 19.2266C29.414 19.2266 29.8098 19.3114 30.0925 19.2266Z" fill="#8B614E"/>
<path d="M32.5239 23.3271C31.8737 23.214 31.4214 21.857 31.4214 21.857C32.6088 21.9983 33.8244 21.7439 34.4746 21.6025C34.1919 21.7439 33.5982 21.9135 32.4674 22.0549C32.4957 21.9983 32.4391 23.0161 32.5239 23.3271Z" fill="#8B614E"/>
<path d="M18.5869 33.5037L13.3568 38.9599C13.1307 39.1861 13.0458 39.4688 13.0458 39.7798C12.9045 39.5254 12.848 39.2709 12.961 39.073C13.3003 38.4511 17.7954 33.7016 17.8236 33.5037C17.8519 33.334 16.3253 29.6871 16.2405 29.4609L18.5869 33.5037Z" fill="#8B614E"/>
<path d="M41.2882 46.3392C39.1962 46.0282 37.4999 42.042 36.6235 39.4128C36.7083 38.9605 36.7932 38.5364 36.9062 38.0841C37.7826 34.8895 38.4046 33.1084 36.9062 30.1117L39.281 28.6416C39.1679 28.7264 37.5565 30.1682 37.4999 30.3096C37.4151 30.4792 37.924 31.61 38.0936 34.3523C38.2067 37.0663 38.6025 43.399 41.2882 46.3392Z" fill="#8B614E"/>
<path d="M26.2769 41.5881C26.3052 42.3514 26.3335 43.3974 26.2769 44.6696C26.1921 46.3093 25.9094 48.2883 25.2026 50.2672C23.987 53.7446 23.3368 63.498 24.0435 70.3678C24.5524 75.4 24.609 86.4257 24.5807 91.9667H23.1106C22.7431 81.4783 21.3295 66.5513 21.3295 59.2574C21.3295 57.4763 21.4709 55.7801 21.6688 54.2252C21.9232 52.331 22.2907 50.663 22.6865 49.2495C23.4781 46.3941 24.298 44.6696 24.298 44.6696L21.5274 32.4849L18.9831 34.1811L18.7852 33.8136L22.7148 30.5342C22.7148 30.5342 24.0435 34.6335 24.6938 35.6512C25.3157 36.6407 27.9732 37.7432 27.9732 37.7432C27.9732 37.7432 26.2204 39.8353 26.2769 41.5881Z" fill="#1C1C1C" fill-opacity="0.1"/>
<path d="M85.6734 34.8604L80.4433 33.2772C80.1041 33.9557 79.5952 34.9452 78.7471 34.8604C78.7188 34.8604 78.6905 34.8321 78.6623 34.8039C77.6728 34.0688 75.6656 23.9479 75.1284 21.0925C75.7221 21.3187 76.5137 21.4317 77.4749 21.1208C78.2382 20.8663 78.7471 20.414 79.0581 19.8203H82.9312C85.9844 20.0182 87.398 20.4988 88.1047 22.1102C89.1225 24.4002 88.2744 29.1497 85.6734 34.8604Z" fill="#7BFFE0"/>
<path d="M82.9307 95.8975V100.11H75.4672C74.93 100.11 74.5625 99.6575 74.5625 99.2051C74.5625 99.1769 74.5625 99.1486 74.5625 99.1203C74.5908 98.9224 74.6756 98.7245 74.8452 98.5549L77.644 95.8975H82.9307Z" fill="#96FFA3"/>
<path d="M82.9311 55.499V95.8981H77.6444C77.6444 95.8981 75.1849 64.2347 74.6195 56.9691C74.1389 56.9691 73.4604 56.9691 73.4604 56.9691V95.8981H68.1737L65.0356 55.499H82.9311Z" fill="#37C848"/>
<path d="M84.4859 35.2572V55.4992H65.0356L65.7423 31.2428L62.2085 33.8437L61.5865 33.2783L61.4734 33.1935L57.0914 29.2355L56.8936 28.9811L62.1237 23.1008C64.9225 20.6129 67.8061 20.0192 71.5379 19.8496C71.7358 20.4433 72.0185 20.9804 72.3294 21.348C73.0928 22.2244 73.0645 28.9811 73.3755 31.1862C73.9409 35.3986 75.7502 40.1481 78.2663 40.4308C78.7187 40.4873 79.171 40.4025 79.6516 40.1481C81.0369 39.4413 82.1112 36.1336 84.4859 35.2572Z" fill="#7BFFE0"/>
<path d="M84.4857 35.2559V55.4978H78.2661V40.4577C78.7184 40.5142 79.1708 40.4294 79.6514 40.175C81.0367 39.4399 82.111 36.1323 84.4857 35.2559Z" fill="#71E8CC"/>
<path d="M83.4963 8.45489C83.4963 10.4339 82.1676 14.2221 79.6797 16.4838C79.6797 15.7488 79.6514 14.9855 79.6514 14.307L80.2169 13.7981C80.6127 13.4306 80.8105 12.8651 80.6975 12.2997C80.6126 11.8757 80.4148 11.4799 80.019 11.4516C79.1426 11.3668 79.2274 13.685 78.5206 13.8546C77.8138 14.0525 78.5206 11.3103 78.5206 11.3103L77.8704 10.4339C77.8704 10.349 77.8986 10.2642 77.8986 10.1794C77.8986 9.27475 77.2484 8.48317 76.3155 8.31354C75.2977 8.11564 73.9973 7.86121 72.9795 7.55023C72.4989 7.40887 72.1031 7.23925 71.7639 7.06962C70.0394 6.16495 70.8027 3.76193 71.877 3.42268C72.9513 3.08343 74.6192 4.63833 75.7783 4.38389C76.9374 4.12945 78.0683 3.87501 78.9164 4.12945C79.7363 4.41216 79.6514 5.65608 80.6692 6.0236C81.6304 6.36285 83.4963 6.47593 83.4963 8.45489Z" fill="#FF842C"/>
<path d="M80.189 13.7986L79.6235 14.3075C79.6235 14.986 79.6518 15.7493 79.6518 16.4844C79.6518 17.7 79.7366 20.0748 79.7366 20.0748C79.7366 20.0748 78.9168 20.9229 77.7011 21.1491C77.0792 21.2621 76.4572 21.2904 75.9483 21.2339C75.6374 21.2056 75.3546 21.1491 75.1285 21.0643C75.0437 20.5836 74.9871 20.3292 74.9871 20.3292C74.9871 20.3292 75.4112 16.2299 75.4112 16.0886C75.4112 15.9755 74.9306 14.9577 73.7715 14.4489C73.7715 14.4489 73.7715 14.4489 73.7432 14.4489C73.6019 14.3923 73.4605 14.3358 73.3191 14.3075H73.2909C73.0082 14.2227 72.6972 14.1944 72.3579 14.1944C72.1883 14.1944 72.047 14.2227 71.9056 14.251C71.6512 11.1977 72.4993 8.5968 72.9234 7.55078C73.9694 7.86176 75.2416 8.14447 76.2593 8.3141C77.1923 8.48372 77.8425 9.2753 77.8425 10.18C77.8425 10.2648 77.8425 10.3496 77.8142 10.4344L78.4644 11.3108C78.4644 11.3108 77.7577 14.0531 78.4644 13.8552C79.1429 13.6573 79.0864 11.3673 79.9628 11.4522C80.3586 11.4804 80.5565 11.8762 80.6413 12.3003C80.7827 12.8374 80.613 13.4029 80.189 13.7986Z" fill="#FFC8AF"/>
<path d="M73.4883 95.8975V100.11H66.0248C65.4594 100.11 65.0919 99.6009 65.1202 99.1203C65.1484 98.9224 65.2333 98.7245 65.4029 98.5549L68.1734 95.8975H73.4883Z" fill="#96FFA3"/>
<path d="M65.4317 42.4371L65.2903 47.3845C64.0464 47.7237 62.7459 47.3279 62.6894 47.017C62.6046 46.7342 64.216 46.3667 64.1312 45.9992C64.0747 45.8013 63.3679 45.8013 62.7177 45.8861C62.1522 45.9427 61.6151 45.6882 61.3041 45.2076C61.2759 45.1793 61.2759 45.1793 61.2759 45.1511L60.9649 44.5857C60.9649 44.5857 60.4843 44.1899 59.721 43.5679C58.5901 42.635 56.8939 41.1649 55.3955 39.7231C55.4238 38.7619 55.8761 37.8855 56.6112 37.2918C57.0918 36.9243 57.6289 36.6981 58.2226 36.6133C58.8446 37.4331 60.1167 39.7796 61.5868 41.1649C61.8695 41.3911 62.1522 41.6172 62.4915 41.8434C62.4915 41.8434 63.1135 41.6172 63.792 41.6738C64.216 41.702 65.0641 42.013 65.4317 42.4371Z" fill="#FFC8AF"/>
<path d="M60.9362 32.6552L60.3143 33.2489L59.1834 34.3515C57.7416 34.2101 56.3281 34.6059 55.1973 35.5106C54.4339 36.1042 53.8685 36.8958 53.5293 37.7722C53.0204 37.2068 52.6529 36.6697 52.455 36.2456C51.5786 34.4645 56.4129 29.9129 57.0631 29.3192C57.1197 29.2627 57.1479 29.2627 57.1479 29.2627L60.9362 32.6552Z" fill="#FFC8AF"/>
<path d="M60.9365 44.5579C60.9365 44.5579 60.4559 44.1621 59.6926 43.5401C58.2508 45.5191 57.4875 47.809 57.4875 50.1272V50.8905C57.4875 51.5125 57.9964 52.0214 58.6183 52.0214C59.2403 52.0214 59.7492 51.5125 59.7492 50.8905V50.1272C59.7492 48.4027 60.2863 46.7064 61.3041 45.1798C61.2758 45.1516 61.2758 45.1516 61.2758 45.1233L60.9365 44.5579ZM63.9615 38.5362C63.5092 36.5572 61.9826 35.0023 60.0036 34.4934C59.9753 34.4934 59.9188 34.4652 59.8905 34.4652C58.2226 34.0694 56.498 34.4652 55.1976 35.5112C54.4343 36.1049 53.8688 36.8965 53.5296 37.7729C53.2752 38.4231 53.1338 39.1016 53.1338 39.8084C53.1338 40.4303 53.6427 40.9392 54.2646 40.9392C54.8866 40.9392 55.3955 40.4303 55.3955 39.8084C55.3955 39.7801 55.3955 39.7518 55.3955 39.6953C55.4237 38.7341 55.8761 37.8577 56.6111 37.264C57.0917 36.8965 57.6289 36.6703 58.2225 36.5855C58.6183 36.5289 59.0141 36.5572 59.4099 36.642C60.5973 36.9247 61.502 37.8294 61.7847 39.0168C61.9543 39.7518 61.8695 40.4869 61.5868 41.1371C61.8695 41.3633 62.1522 41.5894 62.4914 41.8156C62.4914 41.8156 63.1134 41.5894 63.7919 41.646C64.1312 40.6565 64.216 39.5822 63.9615 38.5362ZM58.788 53.0957C58.1095 53.0957 57.5723 53.6328 57.5723 54.3113C57.5723 54.9898 58.1095 55.4987 58.788 55.4987C59.4665 55.4987 59.9753 54.9615 59.9753 54.3113C59.9753 53.6611 59.4665 53.0957 58.788 53.0957Z" fill="#38BE9E"/>
<path d="M58.7878 53.0928C58.7595 53.0928 58.7312 53.0928 58.703 53.0928C58.9857 53.3189 59.1836 53.6582 59.1836 54.054C59.1836 54.7042 58.6747 55.2131 58.0527 55.2414C58.2506 55.3827 58.5051 55.4958 58.7878 55.4958C59.4663 55.4958 59.9751 54.9587 59.9751 54.3084C59.9751 53.6582 59.4663 53.0928 58.7878 53.0928Z" fill="#F1F2F2"/>
<path d="M59.1548 36.613C58.9851 36.5281 58.7872 36.4716 58.5893 36.4151C58.1936 36.3302 57.7978 36.302 57.402 36.3585C56.8083 36.4151 56.2711 36.6412 55.7905 37.037C55.0555 37.6307 54.6032 38.5071 54.5749 39.4683C54.5749 39.4966 54.5749 39.5249 54.5749 39.5814C54.5749 40.1751 54.1225 40.6557 53.5571 40.684C53.755 40.8253 53.9812 40.9384 54.2639 40.9384C54.8859 40.9384 55.3947 40.4295 55.3947 39.8076C55.3947 39.7793 55.3947 39.751 55.3947 39.6945C55.423 38.7333 55.8753 37.8569 56.6104 37.2632C57.091 36.8957 57.6281 36.6695 58.2218 36.5847C58.5328 36.5564 58.8438 36.5564 59.1548 36.613Z" fill="#F1F2F2"/>
<path d="M63.9605 38.5338C63.5082 36.5549 61.9815 35 60.0026 34.4911C59.9743 34.4911 59.9178 34.4628 59.8895 34.4628C59.8612 34.4628 59.833 34.4628 59.8047 34.4346C61.4727 35.0565 62.7449 36.5266 63.1689 38.2794C63.4234 39.3537 63.3386 40.428 62.9993 41.3892C62.6318 41.3609 62.2643 41.3892 62.0381 41.4457C62.1794 41.5588 62.3491 41.6719 62.4904 41.785C62.4904 41.785 63.1124 41.5588 63.7909 41.6154C64.1301 40.6542 64.2149 39.5799 63.9605 38.5338Z" fill="#F1F2F2"/>
<path d="M60.9356 44.5558C60.9356 44.5558 60.455 44.16 59.6917 43.5381C59.6351 43.6229 59.5786 43.7077 59.4938 43.8208C59.8895 44.1318 60.1157 44.3297 60.1157 44.3297L60.4267 44.8951C60.4267 44.9234 60.455 44.9234 60.455 44.9516C59.4372 46.4783 58.9001 48.1745 58.9001 49.899V50.6623C58.9001 51.256 58.4477 51.7366 57.8823 51.7649C58.0802 51.9063 58.3064 52.0193 58.5891 52.0193C59.2111 52.0193 59.7199 51.5105 59.7199 50.8885V50.1252C59.7199 48.4007 60.2571 46.7044 61.2748 45.1778C61.2466 45.1495 61.2466 45.1495 61.2466 45.1213L60.9356 44.5558Z" fill="#F1F2F2"/>
<path d="M75.9762 21.2625C75.6652 21.2343 75.3825 21.1777 75.1563 21.0929C75.0715 20.6123 75.015 20.3579 75.015 20.3579C75.015 20.3579 75.439 16.2586 75.439 16.1172C75.439 16.0042 74.9584 14.9864 73.7993 14.4775C74.8736 14.8733 75.6935 15.3822 76.061 15.9476C76.372 16.4 76.1175 19.6228 75.9762 21.2625Z" fill="#EDB29A"/>
<path d="M60.9366 32.6542L60.3146 33.2479C59.6927 32.4846 58.0812 30.5621 57.0635 29.2899C57.12 29.2334 57.1483 29.2334 57.1483 29.2334L60.9366 32.6542Z" fill="#EDB29A"/>
<path d="M85.0517 34.6624C84.9669 34.8037 84.8821 35.0016 84.769 35.1995C84.4015 35.878 83.8078 36.7827 82.9314 37.7156C82.1116 38.592 81.0373 39.4684 79.6803 40.1752C76.4857 41.8715 73.5455 36.5565 72.8953 31.5809C72.6125 29.3475 73.1497 22.2232 72.3581 21.3468C72.0189 20.9793 71.7361 20.4139 71.5665 19.8485C71.3121 19.0569 71.2273 18.2087 71.3969 17.6716C71.5665 17.2193 72.0471 16.3146 71.5665 16.1167C71.0859 15.9188 70.9446 17.3606 70.2661 17.191C69.9268 17.1062 70.0964 14.6184 71.8775 14.2226C72.0189 14.1943 72.1885 14.166 72.3298 14.166C74.535 14.166 75.4114 15.9471 75.4114 16.0884C75.4114 16.2298 74.9873 20.3291 74.9873 20.3291C74.9873 20.3291 75.0438 20.6118 75.1287 21.0641C75.6941 24.0043 78.7473 34.832 78.7473 34.832C78.7473 34.832 79.5389 34.1818 80.1326 33.5881C80.2457 33.475 80.3588 33.3337 80.4436 33.2206V33.2488L85.0517 34.6624Z" fill="#FFC8AF"/>
<path d="M79.8773 33.0795L80.4427 33.2492C80.1034 33.9277 79.5946 34.9171 78.7464 34.8323C78.7182 34.8323 78.6899 34.8041 78.6616 34.7758C78.8878 33.2774 79.4249 30.3373 80.0752 28.8672C80.9233 26.9165 82.1672 26.1249 82.252 26.0684L79.8773 33.0795Z" fill="#71E8CC"/>
<path d="M85.0515 34.6616C84.9666 34.8029 84.8818 35.0008 84.7688 35.1987L80.1323 33.6156C80.2454 33.5025 80.3585 33.3611 80.4433 33.248V33.2763L85.0515 34.6616Z" fill="#EDB29A"/>
<path d="M82.9311 55.499V95.8981H81.3479L80.0475 56.2341L65.0356 55.499H82.9311Z" fill="#32B641"/>
<path d="M73.4884 56.9668V95.8958H71.9618L71.6226 56.9668H73.4884Z" fill="#32B641"/>
<path d="M65.1209 99.1201H73.4891V100.11H66.0256C65.4319 100.11 65.0644 99.629 65.1209 99.1201Z" fill="#BEE1F4"/>
<path d="M82.9307 99.1201V100.11H75.4672C74.93 100.11 74.5625 99.6573 74.5625 99.2049C74.5625 99.1767 74.5625 99.1484 74.5625 99.1201H82.9307Z" fill="#BEE1F4"/>
<path d="M79.6513 14.3057C79.3969 14.5036 78.7749 14.4753 78.7749 14.4753C78.7749 14.4753 79.0293 14.758 79.199 14.7863C79.3969 14.8145 79.6513 14.3057 79.6513 14.3057Z" fill="#EDB29A"/>
<path d="M65.7696 27.3398V31.2412L62.2357 33.8421L61.6138 33.305L65.7696 27.3398Z" fill="#71E8CC"/>
</svg>
