<svg width="81" height="121" viewBox="0 0 81 121" fill="none" xmlns="http://www.w3.org/2000/svg">
<path d="M45.4665 120.746C60.6024 120.746 72.8725 119.08 72.8725 117.026C72.8725 114.971 60.6024 113.306 45.4665 113.306C30.3306 113.306 18.0605 114.971 18.0605 117.026C18.0605 119.08 30.3306 120.746 45.4665 120.746Z" fill="#00F57E" fill-opacity="0.2"/>
<path d="M36.5188 114.545C36.5188 115.052 36.0686 115.503 35.5622 115.503C35.0557 115.503 34.6055 115.052 34.6055 114.545V112.178C34.6055 111.671 35.0557 111.22 35.5622 111.22C36.0686 111.22 36.5188 111.671 36.5188 112.178V114.545Z" fill="#69E176"/>
<path d="M35.5617 114.152C35.0552 114.152 34.605 113.701 34.605 113.193V114.546C34.605 115.053 35.0552 115.504 35.5617 115.504C36.0681 115.504 36.5183 115.053 36.5183 114.546V113.193C36.5183 113.701 36.1244 114.152 35.5617 114.152Z" fill="#09320E"/>
<path d="M29.3167 114.545C29.3167 115.052 28.8665 115.503 28.36 115.503C27.8535 115.503 27.4033 115.052 27.4033 114.545V112.178C27.4033 111.671 27.8535 111.22 28.36 111.22C28.8665 111.22 29.3167 111.671 29.3167 112.178V114.545Z" fill="#69E176"/>
<path d="M28.3595 114.151C27.853 114.151 27.4028 113.7 27.4028 113.192V114.545C27.4028 115.052 27.853 115.503 28.3595 115.503C28.866 115.503 29.3162 115.052 29.3162 114.545V113.192C29.3162 113.7 28.866 114.151 28.3595 114.151Z" fill="#09320E"/>
<path d="M38.883 111.22H25.377V113.023H38.883V111.22Z" fill="#43D954"/>
<path d="M38.9941 89.7451C40.2321 89.7451 41.1325 90.7597 40.9637 91.9996L39.2754 106.767C39.1629 108.007 37.9811 109.021 36.7431 109.021H27.1763C25.9382 109.021 24.8127 108.007 24.7002 106.767L23.237 91.9996C23.1245 90.7597 24.0249 89.7451 25.2629 89.7451H38.9941Z" fill="#69E176"/>
<path d="M41.0205 91.4922H23.3501V95.3813H41.0205V91.4922Z" fill="#69E176"/>
<path d="M38.9936 93.3535C40.2316 93.3535 41.132 94.3681 40.9632 95.608L39.275 110.375C39.1624 111.615 37.9806 112.63 36.7426 112.63H27.1758C25.9378 112.63 24.8122 111.615 24.6997 110.375L23.2365 95.608C23.124 94.3681 24.0244 93.3535 25.2624 93.3535H38.9936Z" fill="#43D954"/>
<path d="M33.028 75.3729C33.4219 74.1892 33.4219 71.7656 33.4219 71.7656L29.3701 74.2456C29.3701 77.571 30.3831 78.191 30.3831 78.191C31.9025 78.6983 33.8158 78.191 33.8158 78.191C33.8158 76.951 33.028 75.3729 33.028 75.3729Z" fill="#7B4430"/>
<path d="M47.3235 110.658C47.3235 110.658 47.4361 113.081 47.6612 113.814C47.6612 113.814 48.5616 115.787 48.5616 116.407L47.9426 117.083L45.2976 116.914L42.3713 116.688C42.3713 116.688 41.9774 115.448 42.3151 113.87C42.3151 113.87 42.3713 111.841 41.8086 110.658C41.8086 110.658 45.2414 108.29 47.3235 110.658Z" fill="#43D954"/>
<path d="M50.4181 104.964L52.6691 111.615C52.6691 111.615 52.7254 112.178 52.0501 112.629C52.0501 112.629 47.323 109.417 45.4659 106.148C45.4659 106.148 45.2971 102.259 47.7169 101.413L50.4181 104.964Z" fill="#43D954"/>
<path d="M46.1416 105.416C46.1416 105.416 46.0291 103.161 47.042 101.752C45.2975 102.992 45.4664 106.092 45.4664 106.092C47.3234 109.361 52.0505 112.574 52.0505 112.574C52.4445 112.348 52.6133 112.066 52.6696 111.841C52.1068 111.503 47.8862 108.459 46.1416 105.416Z" fill="#00F57E"/>
<path d="M66.2317 66.8614V67.5941C66.2317 67.5941 68.3702 69.0032 68.6515 70.9759C68.6515 70.9759 68.8767 72.9486 66.7945 74.2449C66.7945 74.2449 64.7123 72.4413 63.6431 69.9613C63.6431 69.9613 63.6431 69.2286 63.6431 68.4395C63.6431 68.2705 63.418 66.5796 63.418 66.5796C63.418 66.5796 65.3876 66.0159 66.2317 66.8614Z" fill="#995339"/>
<path d="M58.0725 91.7176L51.1507 105.188C51.1507 105.188 47.7742 104.287 46.311 101.976L50.6442 93.2394L50.4191 90.0267L54.0207 86.5322L58.0725 91.7176Z" fill="#71E8CC"/>
<path d="M56.046 67.3129L58.0719 91.7181L56.046 93.7472L51.8254 92.8454L50.4185 90.0272L48.4489 74.1328L47.3234 72.9492L45.9165 72.2165V65.7347L49.8558 64.6074L56.046 67.3129Z" fill="#7BFFE0"/>
<path d="M49.5192 72.6674H47.3245C47.3245 72.6674 47.2682 72.7238 47.2119 72.7802L47.3245 73.062L48.3937 74.1329L48.6751 75.711L48.9564 74.5838L49.7443 73.7383L50.6447 71.7656L49.5192 72.6674Z" fill="#71E8CC"/>
<path d="M36.293 66.7492L36.3492 68.3273L39.2193 90.1962L39.782 90.7599L39.2193 91.6617L39.782 92.6199L40.1759 93.0144L39.782 93.8035L41.4703 111.671C43.3836 110.205 47.7168 110.882 47.7168 110.882L46.8727 94.3108L46.3662 93.3526L47.3229 91.8308V75.9364V65.791C39.7258 63.5928 36.293 66.7492 36.293 66.7492Z" fill="#7BFFE0"/>
<path d="M36.293 66.6931L36.3492 68.2712L37.2497 74.9221C37.7561 74.9221 38.2063 74.9221 38.2063 74.9221L38.1501 74.753V69.624L39.8383 67.7076L45.8597 67.5949C45.8597 67.5949 47.0978 67.2567 47.0415 67.0313C47.0415 66.9185 46.7039 66.0731 46.3099 65.3404C39.3881 63.8749 36.293 66.6931 36.293 66.6931Z" fill="#71E8CC"/>
<path d="M41.9753 111.276C42.1441 111.22 42.2566 111.107 42.4255 111.05L41.0749 97.3542L41.3 92.6761L40.2307 91.7743L40.5121 90.8161L40.1745 89.9706L40.5121 89.5197L39.6117 88.2797L38.7113 78.3598L38.655 76.8944L38.0923 74.978L36.7417 72.1035L39.1052 90.1397L39.668 90.7034L39.1052 91.6052L39.668 92.5633L40.0619 92.9579L39.668 93.747L41.3562 111.614C41.6376 111.501 41.7502 111.389 41.9753 111.276C41.9753 111.332 41.9753 111.332 41.9753 111.276Z" fill="#71E8CC"/>
<path d="M45.8025 67.7074C50.3608 69.1165 54.6377 70.0183 56.2134 69.5674L56.0446 67.3129L49.9106 64.6074L46.703 65.5092C43.7766 64.7765 41.5257 64.8892 39.8374 65.2274C42.8763 66.3547 45.8025 67.7074 45.8025 67.7074Z" fill="#71E8CC"/>
<path d="M41.7515 29.2135C41.7515 29.2135 47.6041 28.988 49.5737 29.2135L50.5304 30.228L49.9676 32.1444C49.9676 32.1444 46.8162 37.4989 46.8162 37.5552C46.8162 37.6116 44.115 35.2443 44.115 35.2443L41.7515 29.2135Z" fill="#29244E"/>
<path d="M66.5125 63.3674V61.3383C66.5125 61.3383 62.3481 37.5531 58.2401 34.1149L49.1235 30.2258L49.0672 26.1113H42.2579C42.2579 26.1113 42.483 29.0986 42.2579 30.0568C42.2579 30.0568 36.0114 34.284 32.6349 36.3694C32.6349 36.3694 29.2584 61.1692 29.3147 67.031C29.3147 67.031 29.5398 67.3692 30.2713 67.651L29.8774 71.4273L33.7604 71.8219L34.3231 68.891C34.3231 68.891 35.5612 68.7219 36.349 68.3273L36.2928 66.7492C36.2928 66.7492 40.5134 64.9456 47.2664 67.651C47.2664 67.651 53.3441 69.3982 57.3397 67.8201L56.0453 46.853L61.1664 63.7619C61.1664 63.7619 61.7291 64.2128 62.6858 64.3256L63.0234 67.3128L66.7376 66.8055L66.5125 63.3674Z" fill="#38BE9E"/>
<path d="M49.0676 26.1689H42.2583C42.2583 26.1689 42.4834 29.1562 42.2583 30.1144L46.5352 37.1598L49.1239 30.2835L49.0676 26.1689Z" fill="#995339"/>
<path d="M42.3709 28.7604L44.9595 29.8877C44.9595 29.8877 46.2538 30.3386 47.717 29.8877C47.717 29.8877 48.3923 28.9295 49.1239 27.9713L49.0676 26.1113H42.2583C42.3146 26.1677 42.4271 27.5768 42.3709 28.7604Z" fill="#7B4430"/>
<path d="M40.9633 19.1798C40.9633 19.1798 41.2446 25.267 42.7641 26.9015L45.2402 29.0433C45.2402 29.0433 47.0972 29.4942 48.5604 29.0433C48.5604 29.0433 49.4045 28.0288 50.0798 26.1124C50.0798 26.1124 51.0365 21.0397 50.53 17.6016C50.53 17.6016 50.1924 12.1344 43.4956 13.7689C43.5519 13.7689 40.4568 14.8398 40.9633 19.1798Z" fill="#995339"/>
<path d="M48.3379 32.4824C46.4809 32.9897 44.8489 32.7642 43.8359 32.4824L46.6497 37.1042L48.3379 32.4824Z" fill="#F1F2EB"/>
<path d="M41.7515 29.2121C41.7515 29.2121 40.3446 29.5503 39.9507 31.6357L46.8725 40.203L51.3745 31.2412C51.3745 31.2412 50.643 28.9867 49.5174 29.2121L46.5912 37.1593L41.7515 29.2121Z" fill="#7BFFE0"/>
<path d="M63.4189 63.4799L62.0683 62.7472L60.8303 58.4636C60.7177 57.1673 62.2934 56.7164 62.2934 56.7164C61.2805 56.2655 60.4363 56.7164 60.4363 56.7164C60.6614 55.9836 62.2371 55.2509 62.2371 55.2509C60.9428 54.8 59.7048 55.5328 59.7048 55.5328C59.7048 53.1091 63.4189 52.9964 63.4189 52.9964C61.3367 51.9255 59.142 53.2219 59.142 53.2219L56.0469 46.9092L61.1679 63.8181C61.1679 63.8181 61.7307 64.269 62.6873 64.3818L63.025 67.369L66.7391 66.8617L66.514 63.4236V62.7472C65.1072 62.5218 63.4189 63.4799 63.4189 63.4799Z" fill="#35AE91"/>
<path d="M44.5099 62.2973C41.9776 62.5792 38.4885 61.1701 38.4885 61.1701C37.0253 60.4937 37.5881 58.5774 37.5881 58.5774L38.2634 58.521L38.5448 55.7029C40.1205 57.3374 43.2156 59.6483 44.3974 60.5501C41.3585 55.6465 38.2071 45.7266 38.2071 45.7266C38.0946 47.0793 37.1379 48.9956 37.1379 48.9956V55.252L36.6877 60.6065L35.5622 63.9319L35.2808 67.3137L33.7051 68.0464C32.0169 67.4264 30.2724 67.7082 30.2724 67.7082L29.8784 71.4845L33.7614 71.8791L34.3241 68.9482C34.3241 68.9482 35.5622 68.7791 36.3501 68.3846L36.2938 66.8064C36.2938 66.8064 37.1942 66.4119 38.8824 66.2428C38.1509 64.9464 37.7569 63.3119 37.7569 63.3119C40.9646 65.3973 44.6788 64.2701 44.6788 64.2701C46.986 63.7628 51.263 63.9319 51.263 63.9319C48.5617 61.8464 44.5099 62.2973 44.5099 62.2973Z" fill="#35AE91"/>
<path d="M52.8367 63.7632C52.8367 63.7632 55.0877 64.3832 55.7067 65.6232C55.7067 65.6232 52.7241 67.5959 49.1788 67.3141C49.1788 67.3141 42.7072 65.1159 40.625 66.1304C42.4258 66.1868 44.6768 66.525 47.3217 67.5959C47.3217 67.5959 53.3994 69.3431 57.395 67.7649L56.1006 46.7979L55.5942 63.7068C55.4816 63.7632 53.9622 63.425 52.8367 63.7632Z" fill="#35AE91"/>
<path d="M63.5877 69.6808C63.5877 69.6808 63.4752 76.6134 65.3323 69.9626C65.3323 69.9626 64.3756 68.8917 64.4319 69.0044C64.5444 69.1735 63.5877 69.6808 63.5877 69.6808Z" fill="#995339"/>
<path d="M48.5629 116.405C48.5629 116.405 48.7317 117.42 48.1689 118.096C48.1689 118.096 46.4244 118.885 42.4289 118.378C42.4289 118.378 42.0912 117.363 42.4289 116.349C42.4289 116.405 45.7491 112.629 48.5629 116.405Z" fill="#00F57E"/>
<path d="M42.4292 118.379C46.4247 118.886 48.1693 118.097 48.1693 118.097C46.2559 113.701 42.4292 118.379 42.4292 118.379Z" fill="#09320E"/>
<path d="M36.4623 75.3174H27.5708V76.8392H36.4623V75.3174Z" fill="#00F57E"/>
<path d="M29.483 76.0498H28.7515V106.599H29.483V76.0498Z" fill="#00F57E"/>
<path d="M35.2804 76.0508H34.5488V106.6H35.2804V76.0508Z" fill="#00F57E"/>
<path d="M35.1668 75.7113C35.1668 75.7113 35.0542 77.684 34.5477 78.1913C34.5477 78.1913 32.2967 79.3749 30.3834 78.1913C29.8206 77.8531 31.0024 75.7113 31.0024 75.7113C31.0024 75.7113 34.8854 74.6404 35.1668 75.7113Z" fill="#995339"/>
<path d="M31.6237 75.5986C31.2297 75.7114 31.0046 75.7677 31.0046 75.7677C31.0046 75.7677 30.667 76.3314 30.4419 76.895C30.6107 77.1205 30.7233 77.3459 30.7233 77.3459C31.0609 78.0786 31.3423 78.4732 31.5111 78.6986C31.6799 78.755 31.905 78.755 32.0739 78.755C32.0739 78.6986 32.0739 78.6986 32.0739 78.6986C32.0739 78.6422 32.0739 78.6423 32.0739 78.5859C32.299 77.5714 31.9613 76.3877 31.6237 75.5986Z" fill="#7B4430"/>
<path d="M33.4219 71.7662L30.4393 71.4844C30.0454 72.048 29.3701 74.2462 29.3701 74.2462L29.9329 75.7116C30.3831 75.9371 31.0584 77.008 31.0584 77.008C32.2401 79.4879 32.409 78.3607 32.409 78.3607C32.409 78.3043 32.409 78.3043 32.409 78.248C32.6903 76.5571 31.396 74.2462 31.396 74.2462C32.1839 74.3025 33.4219 71.7662 33.4219 71.7662Z" fill="#995339"/>
<path d="M39.3337 110.376L40.2904 102.26C31.9616 104.345 24.0269 102.26 24.0269 102.26L24.8147 110.376C24.9273 111.616 26.0528 112.631 27.2908 112.631H36.8576C38.0393 112.574 39.1648 111.616 39.3337 110.376Z" fill="#69E176"/>
<path d="M37.1375 48.9948C37.1375 48.9948 37.7565 49.3893 37.1375 48.9948C37.1375 48.9948 36.012 44.2603 36.0682 43.4712C36.0682 43.4712 36.0682 35.8058 35.6743 34.5094C35.6743 34.5094 36.6873 32.0858 38.4881 32.6495C38.4881 32.6495 38.882 37.7785 38.2067 43.3021C38.1504 43.3021 38.6006 46.853 37.1375 48.9948Z" fill="#8EE898"/>
<path d="M57.6217 33.8339C56.2711 31.9739 54.4703 32.4812 54.4703 32.4812C54.3577 33.7211 55.0893 38.5684 55.0893 38.5684C55.7083 40.5975 56.1022 46.8538 56.1022 46.8538L55.9897 50.0665C56.5524 50.2919 57.0027 49.8974 57.0027 49.8974C58.1282 45.1629 57.6217 33.8339 57.6217 33.8339Z" fill="#8EE898"/>
<path d="M56.948 49.8971C57.3419 48.2626 57.567 45.8953 57.6233 43.4717C56.8917 43.4717 56.2727 43.3026 55.71 43.0771C55.9351 45.0499 55.9913 46.9098 55.9913 46.9098L55.8788 50.1225C56.4978 50.2353 56.948 49.8971 56.948 49.8971Z" fill="#69E176"/>
<path d="M37.1377 48.9971C37.2502 49.0534 37.3065 49.1098 37.3628 49.1098C37.2502 49.0534 37.1377 48.9971 37.1377 48.9971Z" fill="#DDAC00"/>
<path d="M37.3062 49.1094C37.3624 49.1657 37.4187 49.1657 37.3062 49.1094V49.1094Z" fill="#DDAC00"/>
<path d="M36.0689 41.8369C36.0689 42.7951 36.0689 43.4714 36.0689 43.4714C36.0127 44.2605 37.1382 48.995 37.1382 48.995C38.6576 46.9096 38.2074 43.3024 38.2074 43.3024C38.2637 42.8515 38.3199 42.4006 38.3762 41.9496C37.4758 42.1187 36.688 42.0624 36.0689 41.8369Z" fill="#69E176"/>
<path d="M44.1173 16.0229C44.1173 16.0229 47.5501 18.9538 50.7578 18.5592C50.7578 18.5592 52.9525 11.3447 44.1173 12.5847C44.1173 12.5847 42.7104 12.9793 42.3165 13.712C42.3165 13.712 38.5461 14.6138 40.2343 20.9828L41.2473 22.1101H42.2602V19.9119C42.3165 19.9119 44.1736 18.3901 44.1173 16.0229Z" fill="#241405"/>
<path d="M41.7519 21.3207C41.7519 21.3207 41.0766 19.9117 40.0073 20.5316C40.0073 20.5316 39.1632 20.7571 40.2324 22.9553C40.2324 22.9553 41.2454 24.7589 41.977 23.2934C41.977 23.2934 42.2021 21.8844 41.7519 21.3207Z" fill="#995339"/>
<path d="M1.93176 57.5137L2.38405 58.5329C2.38405 58.5707 2.42175 58.6084 2.45944 58.6084L3.47714 59.0615C3.59022 59.0992 3.59022 59.288 3.47714 59.3635L2.45944 59.8165C2.42175 59.8165 2.38405 59.8542 2.38405 59.892L1.93176 60.9113C1.89406 61.0245 1.70558 61.0245 1.6302 60.9113L1.1779 59.892C1.1779 59.8542 1.14021 59.8165 1.10251 59.8165L0.0848084 59.3635C-0.0282695 59.3257 -0.0282695 59.137 0.0848084 59.0615L1.10251 58.6084C1.14021 58.6084 1.1779 58.5707 1.1779 58.5329L1.6302 57.5137C1.70558 57.4004 1.85637 57.4004 1.93176 57.5137Z" fill="#7BFFE0"/>
<path d="M1.93176 19.2275L2.38405 20.2468C2.38405 20.2846 2.42175 20.3223 2.45944 20.3223L3.47714 20.7753C3.59022 20.8131 3.59022 21.0018 3.47714 21.0774L2.45944 21.5304C2.42175 21.5304 2.38405 21.5681 2.38405 21.6059L1.93176 22.6252C1.89406 22.7384 1.70558 22.7384 1.6302 22.6252L1.1779 21.6059C1.1779 21.5681 1.14021 21.5304 1.10251 21.5304L0.0848084 21.0774C-0.0282695 21.0396 -0.0282695 20.8508 0.0848084 20.7753L1.10251 20.3223C1.14021 20.3223 1.1779 20.2846 1.1779 20.2468L1.6302 19.2275C1.70558 19.1143 1.85637 19.1143 1.93176 19.2275Z" fill="#38BE9E"/>
<path d="M67.8712 4.87107L68.3235 5.89037C68.3235 5.92812 68.3612 5.96587 68.3989 5.96587L69.4166 6.41889C69.5297 6.45664 69.5297 6.6454 69.4166 6.7209L68.3989 7.17392C68.3612 7.17392 68.3235 7.21167 68.3235 7.24943L67.8712 8.26872C67.8335 8.38197 67.645 8.38197 67.5696 8.26872L67.1174 7.24943C67.1174 7.21167 67.0797 7.17392 67.042 7.17392L66.0243 6.7209C65.9112 6.68315 65.9112 6.49439 66.0243 6.41889L67.042 5.96587C67.0797 5.96587 67.1174 5.92812 67.1174 5.89037L67.5696 4.87107C67.645 4.75782 67.7958 4.75782 67.8712 4.87107Z" fill="#37C848"/>
<path d="M79.3385 34.542L79.7908 35.5613C79.7908 35.599 79.8285 35.6368 79.8662 35.6368L80.8839 36.0898C80.997 36.1275 80.997 36.3163 80.8839 36.3918L79.8662 36.8448C79.8285 36.8448 79.7908 36.8826 79.7908 36.9203L79.3385 37.9396C79.3008 38.0529 79.1123 38.0529 79.0369 37.9396L78.5846 36.9203C78.5846 36.8826 78.5469 36.8448 78.5093 36.8448L77.4915 36.3918C77.3785 36.3541 77.3785 36.1653 77.4915 36.0898L78.5093 35.6368C78.5469 35.6368 78.5846 35.599 78.5846 35.5613L79.0369 34.542C79.1123 34.4287 79.2631 34.4287 79.3385 34.542Z" fill="#37C848"/>
<path d="M22.8217 0.22789L23.9138 2.96258C23.9138 3.06386 24.0048 3.16514 24.0958 3.16514L26.5532 4.38055C26.8263 4.48184 26.8263 4.98826 26.5532 5.19083L24.0958 6.40624C24.0048 6.40624 23.9138 6.50753 23.9138 6.60881L22.8217 9.34349C22.7307 9.64734 22.2756 9.64734 22.0935 9.34349L21.0014 6.60881C21.0014 6.50753 20.9104 6.40624 20.8194 6.40624L18.362 5.19083C18.089 5.08955 18.089 4.58312 18.362 4.38055L20.8194 3.16514C20.9104 3.16514 21.0014 3.06386 21.0014 2.96258L22.0935 0.22789C22.2756 -0.0759634 22.6397 -0.0759634 22.8217 0.22789Z" fill="#96FFA3"/>
<path d="M18.8906 34.5595C18.8906 33.9441 18.3991 33.5749 17.9076 33.4519C17.1704 33.4519 15.9417 33.3288 15.0816 33.0827C13.8529 32.8366 12.2555 32.2212 11.5183 31.9751C11.2725 31.852 11.0268 31.852 10.7811 31.9751C10.0438 32.2212 8.56936 32.8366 7.21777 33.0827C6.23479 33.2058 5.12894 33.3288 4.3917 33.4519C3.77734 33.4519 3.40873 33.9441 3.40873 34.5595C3.28586 36.6516 3.28586 41.6972 4.63745 44.5277C6.72628 49.0811 9.92095 50.5578 10.9039 50.804C11.1497 50.927 11.2725 50.927 11.5183 50.804C12.5013 50.4348 15.6959 49.0811 17.7848 44.5277C19.0135 41.5741 19.0135 36.6516 18.8906 34.5595Z" fill="#71E8CC"/>
<path d="M11.0271 51.1742C10.9042 51.1742 10.7813 51.1742 10.6585 51.0511C9.67548 50.6819 6.35794 49.3282 4.14624 44.6517C2.79465 41.6982 2.79465 36.6526 2.91752 34.5605C2.91752 33.8221 3.53188 33.3298 4.26911 33.2068C5.00635 33.2068 6.1122 33.0837 7.09517 32.8376C8.3239 32.5914 9.92123 31.9761 10.5356 31.73C10.9042 31.6069 11.15 31.6069 11.5186 31.73C12.1329 31.9761 13.7303 32.5914 14.959 32.8376C15.942 32.9606 17.0478 33.0837 17.785 33.2068C18.5223 33.2068 19.0138 33.8221 19.1366 34.5605C19.2595 36.6526 19.2595 41.6982 17.9079 44.6517C15.6962 49.3282 12.3787 50.805 11.3957 51.0511C11.2728 51.0511 11.1499 51.1742 11.0271 51.1742ZM11.0271 32.2223C10.9042 32.2223 10.7813 32.2223 10.7813 32.2223C10.0441 32.5914 8.44677 33.0837 7.21804 33.3298C6.23507 33.576 5.12922 33.699 4.26911 33.699C3.9005 33.699 3.53188 34.0682 3.53188 34.5605C3.40901 36.5295 3.40901 41.5751 4.7606 44.4056C6.84943 48.959 10.0441 50.3127 10.9042 50.5588C11.0271 50.5588 11.15 50.5588 11.3957 50.5588C12.2558 50.3127 15.4505 48.959 17.5393 44.4056C18.8909 41.5751 18.768 36.5295 18.768 34.5605C18.768 34.0682 18.3994 33.8221 18.0308 33.699C17.2935 33.699 16.0648 33.576 15.0819 33.3298C13.8531 33.0837 12.2558 32.4684 11.5186 32.2223C11.2728 32.2223 11.1499 32.2223 11.0271 32.2223Z" fill="#7BFFE0"/>
<path d="M11.0281 31.6055C10.9052 31.6055 10.6594 31.6055 10.5366 31.7285C9.9222 31.9747 8.32487 32.59 7.09615 32.8361C6.11318 32.9592 5.00732 33.0822 4.27009 33.2053C3.53286 33.2053 3.04137 33.8206 2.9185 34.559C2.79563 36.6511 2.79563 41.6968 4.14722 44.6503C6.35892 49.3267 9.67646 50.8035 10.6594 51.0496C10.7823 51.0496 10.9052 51.1727 11.0281 51.1727V31.6055Z" fill="#7BFFE0"/>
</svg>
