<svg width="98" height="111" viewBox="0 0 98 111" fill="none" xmlns="http://www.w3.org/2000/svg">
<path opacity="0.56" d="M52.814 105C75.7338 105 94.314 102.985 94.314 100.5C94.314 98.0147 75.7338 96 52.814 96C29.8942 96 11.314 98.0147 11.314 100.5C11.314 102.985 29.8942 105 52.814 105Z" fill="#37C848" fill-opacity="0.2"/>
<path d="M11.2719 13.202L11.7452 14.267C11.7452 14.3064 11.7846 14.3459 11.8241 14.3459L12.889 14.8192C13.0074 14.8586 13.0074 15.0558 12.889 15.1347L11.8241 15.608C11.7846 15.608 11.7452 15.6474 11.7452 15.6869L11.2719 16.7518C11.2325 16.8701 11.0352 16.8701 10.9564 16.7518L10.4831 15.6869C10.4831 15.6474 10.4436 15.608 10.4042 15.608L9.33923 15.1347C9.22091 15.0953 9.22091 14.898 9.33923 14.8192L10.4042 14.3459C10.4436 14.3459 10.4831 14.3064 10.4831 14.267L10.9564 13.202C11.0352 13.0837 11.193 13.0837 11.2719 13.202Z" fill="#7BFFE0"/>
<path d="M95.3359 69.0887L95.8092 70.1537C95.8092 70.1931 95.8486 70.2326 95.8881 70.2326L96.953 70.7059C97.0713 70.7453 97.0713 70.9425 96.953 71.0214L95.8881 71.4947C95.8486 71.4947 95.8092 71.5342 95.8092 71.5736L95.3359 72.6385C95.2964 72.7569 95.0992 72.7569 95.0203 72.6385L94.547 71.5736C94.547 71.5342 94.5076 71.4947 94.4681 71.4947L93.4032 71.0214C93.2849 70.982 93.2849 70.7848 93.4032 70.7059L94.4681 70.2326C94.5076 70.2326 94.547 70.1931 94.547 70.1537L95.0203 69.0887C95.0992 68.9704 95.257 68.9704 95.3359 69.0887Z" fill="#37C848"/>
<path d="M43.2555 58.9447V50.5979C43.2567 50.3326 43.3807 50.0785 43.6006 49.8909C43.8205 49.7033 44.1184 49.5974 44.4293 49.5964H57.1476C57.4586 49.5974 57.7565 49.7033 57.9764 49.8909C58.1962 50.0785 58.3203 50.3326 58.3215 50.5979V59.0718H60.5247V50.5979C60.5247 49.8334 60.1691 49.1002 59.5359 48.5592C58.9027 48.0183 58.0437 47.7139 57.1476 47.7129H44.4293C43.5333 47.7139 42.6743 48.0183 42.0411 48.5592C41.4079 49.1002 41.0522 49.8334 41.0522 50.5979V58.9447H43.2555Z" fill="#7BFFE0"/>
<path d="M68.9837 75.2998H68.6382V88.2815H68.9837C69.3222 88.2802 69.6467 88.0218 69.8861 87.5628C70.1255 87.1038 70.2602 86.4816 70.2609 85.8325V77.7487C70.2602 77.0996 70.1255 76.4774 69.8861 76.0184C69.6467 75.5594 69.3222 75.301 68.9837 75.2998ZM69.2878 85.8325C69.2878 85.9872 69.2557 86.1355 69.1987 86.2448C69.1417 86.3542 69.0643 86.4156 68.9837 86.4156H68.6382V77.1657H68.9837C69.0643 77.1657 69.1417 77.2271 69.1987 77.3364C69.2557 77.4458 69.2878 77.5941 69.2878 77.7487V85.8325Z" fill="#37C848"/>
<path d="M37.8066 106.131H39.4293V109.714C39.4293 110.055 39.374 110.382 39.2755 110.623C39.1771 110.864 39.0435 110.999 38.9042 110.999H38.3408C38.2015 110.999 38.0679 110.864 37.9695 110.623C37.871 110.382 37.8157 110.055 37.8157 109.714V106.131H37.8066Z" fill="#37C848"/>
<path d="M62.147 106.131H63.7697V109.714C63.7697 110.055 63.7141 110.382 63.6152 110.623C63.5163 110.864 63.3822 110.999 63.2424 110.999H62.6766C62.5367 110.999 62.4026 110.864 62.3037 110.623C62.2048 110.382 62.1492 110.055 62.1492 109.714V106.131H62.147Z" fill="#37C848"/>
<path d="M65.1791 60.6953H36.3974C34.4871 60.6953 32.9385 62.2144 32.9385 64.0883V104.361C32.9385 106.235 34.4871 107.754 36.3974 107.754H65.1791C67.0894 107.754 68.638 106.235 68.638 104.361V64.0883C68.638 62.2144 67.0894 60.6953 65.1791 60.6953Z" fill="#7BFFE0"/>
<g style="mix-blend-mode:multiply" opacity="0.29">
<g style="mix-blend-mode:multiply" opacity="0.29">
<path d="M64.429 101.801V81.4155C64.429 80.6267 64.1157 79.8703 63.5579 79.3125C63.0001 78.7547 62.2437 78.4414 61.4549 78.4414H39.6318C38.843 78.4414 38.0866 78.7547 37.5288 79.3125C36.9711 79.8703 36.6577 80.6267 36.6577 81.4155V101.801C36.6577 102.17 36.7303 102.534 36.8713 102.875C37.0122 103.215 37.2189 103.524 37.4794 103.785C37.7399 104.045 38.0491 104.252 38.3895 104.393C38.7298 104.534 39.0946 104.607 39.463 104.607H61.6324C62.3749 104.604 63.0862 104.308 63.6104 103.782C64.1346 103.256 64.429 102.544 64.429 101.801Z" fill="#A62538"/>
</g>
</g>
<g style="mix-blend-mode:multiply" opacity="0.29">
<g style="mix-blend-mode:multiply" opacity="0.29">
<path d="M63.1 65.0264H37.9911C37.2547 65.0264 36.6577 65.6233 36.6577 66.3597V70.7495C36.6577 71.4859 37.2547 72.0828 37.9911 72.0828H63.1C63.8364 72.0828 64.4333 71.4859 64.4333 70.7495V66.3597C64.4333 65.6233 63.8364 65.0264 63.1 65.0264Z" fill="#A62538"/>
</g>
</g>
<path d="M60.3164 68.8092H39.6381C39.5828 68.8092 39.5298 68.7246 39.4907 68.574C39.4517 68.4234 39.4297 68.2191 39.4297 68.0061C39.4297 67.7915 39.4515 67.5855 39.4905 67.4323C39.5294 67.279 39.5825 67.1908 39.6381 67.1865H60.3164C60.3721 67.1908 60.4251 67.279 60.4641 67.4323C60.5031 67.5855 60.5249 67.7915 60.5249 68.0061C60.5249 68.2191 60.5029 68.4234 60.4638 68.574C60.4247 68.7246 60.3717 68.8092 60.3164 68.8092Z" fill="#38BE9E"/>
<path d="M40.1037 59.0732H43.5988C43.7842 59.0732 43.962 59.153 44.0931 59.295C44.2242 59.4371 44.2978 59.6297 44.2978 59.8305V60.6959H39.4297V59.8305C39.4296 59.6343 39.4998 59.4457 39.6255 59.3044C39.7513 59.1631 39.9227 59.0803 40.1037 59.0732Z" fill="#37C848"/>
<path d="M57.7287 59.0732H60.0587C60.1823 59.0732 60.3008 59.153 60.3882 59.295C60.4756 59.4371 60.5247 59.6297 60.5247 59.8305V60.6959H57.2793V59.8305C57.2792 59.6343 57.326 59.4457 57.4099 59.3044C57.4937 59.1631 57.608 59.0803 57.7287 59.0732Z" fill="#37C848"/>
<path d="M56.1061 46.0908H45.4703C44.8225 46.0908 44.2974 46.6748 44.2974 47.3952V49.6545C44.2974 50.3749 44.8225 50.9589 45.4703 50.9589H56.1061C56.7539 50.9589 57.279 50.3749 57.279 49.6545V47.3952C57.279 46.6748 56.7539 46.0908 56.1061 46.0908Z" fill="#37C848"/>
<path d="M81.3206 56.2338C83.6444 57.9168 86.6022 57.3737 91.0903 52.1288C95.3697 47.1281 93.3687 42.1933 89.1436 39.0112C84.9185 35.8292 79.2478 36.2048 75.6665 41.3612C72.0853 46.5177 72.6961 50.7348 75.3109 51.8247C77.58 52.7796 79.2173 51.9913 80.2385 48.2852C81.2597 44.5791 83.3644 41.9971 86.1294 44.2981C88.6579 46.4085 84.8677 49.6963 82.3243 51.1653C79.7896 52.6348 79.9128 55.2144 81.3206 56.2338Z" fill="#70CFB9"/>
<path opacity="0.6" d="M89.1349 39.0103C88.2796 38.368 87.3716 37.8729 86.4283 37.526C87.4873 38.3129 88.3841 39.3024 89.0028 40.5143C90.0098 42.4915 90.2324 44.7322 89.5863 46.8602C88.9419 48.9618 87.6728 50.8589 86.1488 52.4317C85.0572 53.5613 83.8268 54.6474 82.4227 55.3785C81.9667 55.6171 81.4776 55.8183 80.9848 55.9309C81.0844 56.0428 81.1937 56.1376 81.3124 56.2241C83.6362 57.9071 86.594 57.364 91.0821 52.1191C95.3698 47.1278 93.36 42.1924 89.1349 39.0103Z" fill="#38BE9E"/>
<path opacity="0.5" d="M75.5729 49.1609C74.66 49.6556 75.6324 51.7722 76.7691 51.0784C77.8965 50.393 76.7055 48.5376 75.5729 49.1609Z" fill="#38BE9E"/>
<path opacity="0.5" d="M74.9975 48.8619C73.8615 48.6363 74.255 44.478 75.5936 44.5651C76.9322 44.6522 76.5792 49.1754 74.9975 48.8619Z" fill="#38BE9E"/>
<path d="M35.5734 40.582C35.5269 41.0775 35.0934 41.4491 34.5979 41.4182L25.0596 40.6285C24.5641 40.582 24.1925 40.1485 24.2235 39.653L25.4622 24.6797C25.5087 24.1843 25.9422 23.8126 26.4377 23.8436L35.976 24.6333C36.4715 24.6797 36.8431 25.1133 36.8121 25.6088L35.5734 40.582Z" fill="#37C848"/>
<path opacity="0.1" d="M35.6045 40.2112C33.6226 38.5854 31.9348 36.6344 30.696 34.3737C29.7515 32.6395 29.0857 30.7969 28.6831 28.8613C28.4508 27.7774 28.265 26.6935 28.2341 25.5787C28.2186 25.0987 28.1876 24.5258 28.2341 23.9683L26.4379 23.8135C25.9424 23.767 25.4934 24.1387 25.4624 24.6496L24.2236 39.6229C24.1772 40.1183 24.5488 40.5674 25.0598 40.5984L34.5981 41.388C35.0935 41.4345 35.5426 41.0629 35.5736 40.5519L35.6045 40.2112Z" fill="#262849"/>
<path d="M27.3277 29.5103C27.1822 29.4983 27.0721 29.5434 26.9928 29.6291L27.0025 29.5115L26.7454 29.4902L26.6298 30.8854L26.8869 30.9067L26.9297 30.3905C26.9938 30.4881 27.095 30.5507 27.2405 30.5628C27.5076 30.5849 27.7459 30.3738 27.7705 30.0768C27.7951 29.7798 27.5948 29.5325 27.3277 29.5103ZM27.213 30.3136C27.0555 30.3006 26.9474 30.1772 26.9612 30.0098C26.9751 29.8424 27.1021 29.7385 27.2596 29.7515C27.419 29.7648 27.5272 29.8881 27.5133 30.0555C27.4995 30.223 27.3725 30.3268 27.213 30.3136ZM28.7505 29.6563L28.7407 29.7739C28.6764 29.6783 28.5734 29.6135 28.4279 29.6015C28.1628 29.5795 27.9246 29.7906 27.9 30.0876C27.8754 30.3846 28.0756 30.6319 28.3407 30.6539C28.4862 30.6659 28.5985 30.619 28.6777 30.5353L28.6679 30.6529L28.9251 30.6742L29.0076 29.6776L28.7505 29.6563ZM28.4089 30.4127C28.2514 30.3996 28.1432 30.2763 28.1571 30.1089C28.171 29.9414 28.298 29.8376 28.4554 29.8506C28.6149 29.8638 28.7231 29.9872 28.7092 30.1546C28.6953 30.322 28.5683 30.4259 28.4089 30.4127ZM29.4467 29.9989C29.4512 29.9451 29.5053 29.9215 29.5691 29.9268C29.6429 29.9329 29.6955 29.9754 29.7201 30.0417L29.9493 29.9402C29.883 29.7963 29.7495 29.711 29.5881 29.6976C29.3828 29.6806 29.2 29.7798 29.1831 29.9831C29.1541 30.3339 29.6749 30.2968 29.6629 30.4423C29.6581 30.5001 29.6 30.5234 29.5182 30.5166C29.4186 30.5084 29.3548 30.4549 29.3336 30.3709L29.1 30.478C29.159 30.6374 29.2996 30.7333 29.4989 30.7498C29.7122 30.7675 29.9081 30.6794 29.926 30.4641C29.9564 30.0973 29.4345 30.1464 29.4467 29.9989ZM30.311 30.0705C30.3154 30.0167 30.3696 29.9931 30.4333 29.9984C30.5071 30.0045 30.5598 30.047 30.5844 30.1132L30.8135 30.0118C30.7472 29.8678 30.6138 29.7825 30.4523 29.7692C30.247 29.7522 30.0642 29.8514 30.0474 30.0547C30.0183 30.4055 30.5392 30.3684 30.5271 30.5139C30.5223 30.5717 30.4642 30.595 30.3825 30.5882C30.2828 30.5799 30.219 30.5265 30.1979 30.4425L29.9642 30.5495C30.0233 30.709 30.1638 30.8049 30.3632 30.8214C30.5764 30.8391 30.7724 30.7509 30.7902 30.5357C30.8206 30.1689 30.2988 30.218 30.311 30.0705ZM31.6061 29.8647C31.4606 29.8527 31.3505 29.8977 31.2711 29.9835L31.2809 29.8659L31.0237 29.8446L30.9082 31.2398L31.1653 31.2611L31.2081 30.7449C31.2722 30.8425 31.3734 30.9051 31.5189 30.9171C31.786 30.9393 32.0242 30.7282 32.0488 30.4312C32.0734 30.1342 31.8732 29.8869 31.6061 29.8647ZM31.4914 30.668C31.3339 30.655 31.2257 30.5316 31.2396 30.3642C31.2535 30.1968 31.3805 30.0929 31.5379 30.1059C31.6974 30.1191 31.8056 30.2425 31.7917 30.4099C31.7778 30.5774 31.6508 30.6812 31.4914 30.668ZM32.661 31.0117C32.954 31.036 33.2081 30.8263 33.2327 30.5293C33.2573 30.2323 33.0411 29.9836 32.7481 29.9593C32.4551 29.9351 32.2029 30.145 32.1783 30.4419C32.1537 30.7389 32.368 30.9875 32.661 31.0117ZM32.6818 30.7606C32.5303 30.748 32.4221 30.6247 32.4355 30.4632C32.4488 30.3018 32.5759 30.1979 32.7273 30.2105C32.8808 30.2232 32.989 30.3465 32.9756 30.508C32.9623 30.6694 32.8352 30.7733 32.6818 30.7606ZM33.6978 30.2387L33.712 30.0673L33.4549 30.046L33.3724 31.0426L33.6295 31.0639L33.6689 30.5875C33.6863 30.3782 33.8606 30.3324 33.9929 30.3595L34.0166 30.0724C33.8911 30.062 33.7609 30.1074 33.6978 30.2387ZM34.7422 30.4015L34.7627 30.1543L34.5374 30.1356L34.5606 29.8566L34.297 29.913L34.2803 30.1143L34.1069 30.1L34.0864 30.3471L34.2599 30.3615L34.2255 30.7761C34.2032 31.0452 34.3161 31.1609 34.6801 31.1509L34.6994 30.9177C34.5513 30.9134 34.4737 30.905 34.4826 30.7974L34.517 30.3828L34.7422 30.4015Z" fill="#8EE898"/>
<path d="M33.2356 34.8539C33.3439 33.5687 32.5233 32.3764 31.2845 32.0203C31.1142 31.9738 30.9284 31.9429 30.7426 31.9274C29.9994 31.8654 29.3026 32.1132 28.7606 32.5622C28.2342 33.0113 27.8625 33.6616 27.8006 34.4203C27.6922 35.7055 28.5129 36.8978 29.7516 37.2539C29.8135 37.2694 29.8755 37.2849 29.9374 37.3004C30.0458 37.3314 30.1697 37.3468 30.2781 37.3468C31.7955 37.4552 33.1117 36.3558 33.2356 34.8539ZM31.811 36.9288C31.5787 37.0526 31.331 37.1455 31.0678 37.2075C31.2691 36.9442 31.8265 36.1391 32.0278 35.0861C32.26 35.0397 32.4768 34.9623 32.7091 34.8849C32.5697 36.0462 31.8884 36.8513 31.811 36.9288ZM28.3735 33.7235C28.5593 33.77 28.8226 33.8319 29.1322 33.8784C29.0548 34.25 29.0239 34.6526 29.0548 35.0707C28.7451 35.0087 28.4819 34.9468 28.2961 34.9003C28.2496 34.4513 28.2806 34.0642 28.3735 33.7235ZM29.2097 33.8939C29.5968 33.9558 30.0458 33.9868 30.5258 33.9868L30.4949 35.1945C29.9839 35.1945 29.5193 35.1481 29.1322 35.0861C29.1013 34.6681 29.1477 34.2655 29.2097 33.8939ZM29.8755 32.0822C30.1077 32.0203 30.34 31.9893 30.5878 32.0048L30.5413 33.9093C30.0613 33.9248 29.6123 33.8784 29.2406 33.8164C29.411 32.8874 29.7981 32.1906 29.8755 32.0822ZM30.6187 33.9713C31.0678 33.9558 31.5323 33.9093 31.9813 33.7855C32.0433 34.219 32.0278 34.6371 31.9658 35.0242C31.4858 35.1326 31.0213 35.1791 30.5878 35.1945L30.6187 33.9713ZM31.9349 35.1016C31.7026 36.2629 31.0368 37.0991 30.9439 37.223C30.8045 37.2384 30.6652 37.2539 30.5258 37.2539L30.5723 35.2565C31.0058 35.2565 31.4704 35.21 31.9349 35.1016ZM32.0433 34.9932C32.1052 34.6061 32.1207 34.1881 32.0588 33.7545C32.2446 33.7081 32.4304 33.6306 32.6007 33.5687C32.7246 34.0023 32.7555 34.4203 32.7246 34.7919C32.4923 34.8849 32.26 34.9468 32.0433 34.9932ZM32.5697 33.4913C32.3994 33.5687 32.2136 33.6306 32.0433 33.6771C31.9504 33.1816 31.7646 32.6551 31.4084 32.1441C31.6716 32.2371 31.9194 32.3764 32.1362 32.5313C32.3375 32.8719 32.4768 33.1816 32.5697 33.4913ZM32.6781 33.5377C32.7401 33.5068 32.802 33.4758 32.8794 33.4448C33.0652 33.801 33.1581 34.2035 33.1736 34.6216C33.0497 34.6681 32.9414 34.73 32.8175 34.7765C32.833 34.3894 32.802 33.9713 32.6781 33.5377ZM32.833 33.3674C32.771 33.3984 32.7091 33.4293 32.6472 33.4603C32.5697 33.2126 32.4613 32.9648 32.322 32.7171C32.5233 32.9029 32.6936 33.1197 32.833 33.3674ZM30.7426 32.0048C30.9129 32.0203 31.0987 32.0512 31.2536 32.0977H31.2691C31.6562 32.6396 31.8729 33.1816 31.9658 33.6926C31.5168 33.8164 31.0523 33.8629 30.6187 33.8784L30.6652 31.9893C30.6961 32.0048 30.7116 32.0048 30.7426 32.0048ZM29.7671 32.1132C29.6432 32.3454 29.3181 32.9803 29.1477 33.801C28.838 33.7545 28.5748 33.6926 28.389 33.6461C28.5438 33.0577 28.7916 32.6706 28.838 32.6087C29.1013 32.3919 29.411 32.2216 29.7671 32.1132ZM28.2961 33.6306C28.2187 33.6151 28.1413 33.5842 28.1103 33.5842C28.2342 33.3055 28.4045 33.0577 28.6058 32.8409C28.5129 33.0113 28.389 33.2745 28.2961 33.6306ZM28.0793 33.6461C28.0948 33.6461 28.1103 33.6616 28.1258 33.6616C28.1567 33.6771 28.2187 33.6926 28.2806 33.7081C28.2651 33.77 28.2496 33.8319 28.2342 33.8939C28.1877 34.1726 28.1567 34.4977 28.1877 34.8539C28.0329 34.8074 27.9245 34.7765 27.878 34.7455C27.878 34.6371 27.878 34.5132 27.878 34.3894C27.9245 34.1416 27.9864 33.8939 28.0793 33.6461ZM27.8935 34.8539C27.9554 34.8694 28.0638 34.9158 28.2032 34.9468C28.2651 35.4887 28.4664 36.0926 28.9309 36.712C28.3425 36.2784 27.9709 35.5971 27.8935 34.8539ZM29.7826 37.161C29.5503 37.0991 29.3335 37.0062 29.1477 36.8823C28.6058 36.2165 28.3735 35.5662 28.2961 34.9778C28.4974 35.0397 28.7451 35.1016 29.0548 35.1481C29.1168 35.8139 29.3335 36.5262 29.86 37.1765C29.8445 37.1765 29.8135 37.1765 29.7826 37.161ZM30.309 37.2539C30.2007 37.2384 30.1077 37.223 29.9994 37.2075C29.4419 36.5571 29.2097 35.8449 29.1477 35.1636C29.5348 35.2255 29.9994 35.272 30.5103 35.272L30.4639 37.2694C30.4019 37.2539 30.3555 37.2539 30.309 37.2539ZM32.0123 36.8049C32.2446 36.4797 32.6936 35.7829 32.7865 34.8539C32.9104 34.8074 33.0343 34.761 33.1426 34.699C33.1426 34.7455 33.1426 34.7919 33.1426 34.8384C33.0807 35.6591 32.6472 36.3713 32.0123 36.8049Z" fill="#8EE898"/>
<path d="M19.588 89.5149C19.588 89.5149 20.5601 89.8752 20.5828 89.9047C20.6128 89.9192 20.832 90.192 20.8102 90.2369C20.8106 90.2741 20.4771 90.3898 20.4471 90.3753C20.38 90.3612 19.3258 89.9796 19.3258 89.9796L19.588 89.5149Z" fill="#38BE9E"/>
<path d="M19.0709 89.8172C18.3071 89.4469 17.649 88.5915 17.5718 87.7588C17.5292 87.3127 17.624 86.5448 18.5851 86.012C18.5534 85.8486 18.5588 85.6848 18.5565 85.4987C18.6246 84.3665 19.4332 82.9274 21.5089 82.2321C21.5461 81.6212 21.7321 81.0086 22.1042 80.3936C20.598 79.5709 19.8546 78.4337 19.8469 78.4115L20.0833 78.2672C20.091 78.2894 20.804 79.3749 22.2504 80.1686C22.4841 79.801 22.7849 79.4474 23.138 79.1007C24.4621 77.8191 25.3135 78.0469 25.7111 78.2951C26.3038 78.6749 26.5675 79.5426 26.3233 80.275C26.0933 80.9403 25.517 81.2898 24.7568 81.2172C23.8179 81.1319 23.0182 80.8737 22.3516 80.5321C22.038 81.0644 21.8438 81.6176 21.8057 82.154C23.5565 81.6711 24.4437 82.3971 24.7605 82.7357C25.2057 83.229 25.3628 83.897 25.1459 84.4207C24.9725 84.8545 24.5664 85.12 24.0381 85.1414C23.086 85.1977 22.1852 84.576 21.749 83.6062C21.6033 83.2581 21.5171 82.9019 21.4976 82.5225C19.6297 83.1706 18.8864 84.4749 18.832 85.5028C18.8261 85.6294 18.8275 85.7411 18.8438 85.86C18.9623 85.8064 19.0957 85.7601 19.2441 85.7211C20.9272 85.1869 21.6057 85.8857 21.8254 86.1957C22.1512 86.6681 22.1295 87.3234 21.7923 87.7518C21.6162 87.9624 21.108 88.4003 20.15 87.9729C19.3866 87.6398 18.8507 87.0285 18.6555 86.2866C18.0792 86.636 17.8024 87.1307 17.8691 87.7179C17.9472 88.6251 18.8598 89.6039 19.7171 89.7051L19.6758 89.981C19.4748 89.976 19.2656 89.9116 19.0709 89.8172ZM18.9146 86.1717C19.0794 86.862 19.5477 87.422 20.2661 87.7332C20.8348 87.9719 21.3031 87.9215 21.5894 87.598C21.8608 87.2671 21.8622 86.7684 21.6044 86.3845C21.4224 86.1113 20.8496 85.5377 19.3444 86.0102C19.196 86.0492 19.0403 86.1032 18.9146 86.1717ZM21.8093 82.4517C21.8139 82.8238 21.8852 83.1728 22.0381 83.5059C22.4207 84.3572 23.224 84.9131 24.0422 84.8659C24.4588 84.8459 24.7615 84.6412 24.899 84.3195C25.0651 83.9006 24.9316 83.3365 24.5617 82.9168C23.9808 82.2837 22.9738 82.1099 21.8093 82.4517ZM22.5199 80.2992C23.1489 80.6042 23.9186 80.8478 24.7981 80.9413C25.4316 81.008 25.8972 80.7343 26.0692 80.1888C26.2702 79.5834 26.0528 78.8492 25.5727 78.5424C25.0099 78.1771 24.2244 78.4621 23.349 79.314C23.0177 79.6158 22.7464 79.9466 22.5199 80.2992Z" fill="#70CFB9"/>
<path d="M19.8614 78.9926C17.4965 76.7364 16.2325 74.422 15.5736 72.8817C14.8683 71.2081 14.728 70.0858 14.7198 70.0264L14.9948 69.9932C14.9953 70.0305 15.5936 74.5191 20.0525 78.7893L19.8614 78.9926Z" fill="#70CFB9"/>
<path d="M19.8364 78.7781C15.717 76.0967 11.6144 71.1299 11.584 71.0782L11.7977 70.9043C11.8281 70.9561 15.9081 75.8934 19.9825 78.553L19.8364 78.7781Z" fill="#70CFB9"/>
<path d="M14.6623 71.4412L15.599 71.3404C15.599 71.3404 15.2816 67.9128 15.2044 67.08C15.12 66.2622 15.2026 65.7104 15.7576 66.0535C16.2976 66.3893 16.8903 66.7691 17.4507 65.7276C18.0189 64.7083 17.2255 62.5295 16.2226 62.6907C14.7441 62.9172 13.9395 64.0808 14.1093 65.7908C14.2719 67.5157 14.6623 71.4412 14.6623 71.4412Z" fill="#70CFB9"/>
<path opacity="0.25" d="M14.8653 69.1539C14.75 68.2472 14.6942 67.3323 14.8543 66.4297C15.0626 65.1989 15.7509 63.6645 16.8959 62.9434C16.6926 62.7523 16.4607 62.6584 16.2079 62.6838C14.7294 62.9103 13.9248 64.0739 14.0946 65.7839C14.2644 67.4939 14.6548 71.4193 14.6548 71.4193L15.257 71.3599C15.0033 70.7005 14.9561 69.8823 14.8653 69.1539Z" fill="#38BE9E"/>
<path opacity="0.5" d="M17.3916 64.5155C17.4007 64.6493 17.3576 64.7764 17.2682 64.7701C17.1865 64.7859 17.1107 64.6752 17.1016 64.5413C17.0925 64.4075 17.1356 64.2804 17.225 64.2867C17.3067 64.2709 17.3825 64.3816 17.3916 64.5155Z" fill="#4B9B88"/>
<path opacity="0.5" d="M17.1636 65.3299C17.1726 65.4638 17.1295 65.5909 17.0401 65.5845C16.9657 65.5854 16.8827 65.4897 16.8736 65.3558C16.8645 65.2219 16.9076 65.0948 16.997 65.1012C17.0637 65.078 17.1395 65.1888 17.1636 65.3299Z" fill="#4B9B88"/>
<path opacity="0.5" d="M17.0034 63.7536C17.0125 63.8875 16.9693 64.0146 16.8799 64.0082C16.8055 64.0091 16.7225 63.9134 16.7134 63.7795C16.7043 63.6456 16.7474 63.5185 16.8368 63.5249C16.9112 63.524 16.9943 63.6197 17.0034 63.7536Z" fill="#4B9B88"/>
<path opacity="0.5" d="M14.876 69.6561L14.6772 69.6758L14.8114 71.0339L15.0102 71.0143L14.876 69.6561Z" fill="#4B9B88"/>
<path d="M11.7728 71.909L12.5252 71.349C12.5252 71.349 10.4888 68.5677 9.98188 67.8965C9.48992 67.2326 9.27525 66.7216 9.91558 66.7361C10.5559 66.7506 11.2557 66.7569 11.2116 65.5888C11.1676 64.4207 9.37812 62.9613 8.58987 63.6334C7.44766 64.5779 7.35332 65.9933 8.38263 67.3801C9.41919 68.7519 11.7728 71.909 11.7728 71.909Z" fill="#70CFB9"/>
<path opacity="0.25" d="M10.7795 69.8367C10.2199 69.1215 9.70436 68.3537 9.35898 67.5019C8.90557 66.3388 8.69902 64.6665 9.31707 63.4679C9.04841 63.4117 8.78837 63.4521 8.60413 63.6032C7.46192 64.5476 7.36758 65.9631 8.39689 67.3499C9.42619 68.7367 11.7798 71.8938 11.7798 71.8938L12.2222 71.5534C11.6586 71.1137 11.2184 70.4194 10.7795 69.8367Z" fill="#38BE9E"/>
<path opacity="0.5" d="M10.5515 64.5479C10.6273 64.6586 10.6436 64.7775 10.5773 64.8378C10.5184 64.8832 10.3913 64.8401 10.3155 64.7294C10.2397 64.6187 10.2234 64.4998 10.2896 64.4394C10.3486 64.394 10.4684 64.4521 10.5515 64.5479Z" fill="#4B9B88"/>
<path opacity="0.5" d="M10.7624 65.3706C10.8381 65.4813 10.8545 65.6002 10.7882 65.6606C10.7292 65.7059 10.6022 65.6628 10.5264 65.5521C10.4506 65.4414 10.4342 65.3225 10.5005 65.2621C10.5668 65.2018 10.6866 65.2598 10.7624 65.3706Z" fill="#4B9B88"/>
<path opacity="0.5" d="M9.82393 64.1025C9.89972 64.2133 9.91606 64.3322 9.8498 64.3925C9.79081 64.4379 9.66374 64.3948 9.58795 64.2841C9.51216 64.1734 9.49582 64.0545 9.56207 63.9941C9.62107 63.9487 9.74088 64.0068 9.82393 64.1025Z" fill="#4B9B88"/>
<path opacity="0.5" d="M11.0443 70.2692L10.8843 70.3887L11.7006 71.4824L11.8606 71.3629L11.0443 70.2692Z" fill="#4B9B88"/>
<path d="M20.8346 79.4287C20.6217 79.6769 20.2501 79.7187 19.9946 79.5208L17.626 77.5772C17.3778 77.3644 17.336 76.9927 17.5339 76.7372L17.6732 76.5643C17.886 76.3161 18.2577 76.2743 18.5132 76.4722L20.8817 78.4157C21.13 78.6286 21.1717 79.0003 20.9739 79.2558L20.8346 79.4287Z" fill="#7BFFE0"/>
<path opacity="0.25" d="M20.8503 78.3257L20.2113 77.8124C19.8024 77.8547 19.3854 77.8374 19.0046 77.7453C18.4746 77.6178 17.8165 77.3728 17.35 76.9617C17.3005 77.1781 17.3777 77.4005 17.5506 77.5398L19.9042 79.4761C20.1524 79.689 20.5391 79.6545 20.7442 79.384L20.9202 79.1734C21.1403 78.9102 21.1058 78.5235 20.8503 78.3257Z" fill="#38BE9E"/>
<path opacity="0.4" d="M19.1261 77.8734L18.9043 78.1436L20.1392 79.1574L20.361 78.8872L19.1261 77.8734Z" fill="#4B9B88"/>
<path d="M20.0501 89.5908L19.3698 89.3535C19.1829 89.2813 18.9682 89.3807 18.8961 89.5677C18.8239 89.7546 18.9233 89.9693 19.1103 90.0414L19.7906 90.2788L20.0501 89.5908Z" fill="#7BFFE0"/>
<path d="M30.8858 0.76619L31.993 3.25735C31.993 3.34961 32.0852 3.44187 32.1775 3.44187L34.6687 4.54905C34.9454 4.64131 34.9454 5.10264 34.6687 5.28717L32.1775 6.39435C32.0852 6.39435 31.993 6.48661 31.993 6.57887L30.8858 9.07002C30.7936 9.34682 30.3322 9.34682 30.1477 9.07002L29.0405 6.57887C29.0405 6.48661 28.9482 6.39435 28.856 6.39435L26.3648 5.28717C26.088 5.19491 26.088 4.73358 26.3648 4.54905L28.856 3.44187C28.9482 3.44187 29.0405 3.34961 29.0405 3.25735L30.1477 0.76619C30.3322 0.489395 30.7013 0.489395 30.8858 0.76619Z" fill="#7BFFE0"/>
<path d="M82.231 10.4306L83.3382 12.645C83.3382 12.727 83.4304 12.809 83.5227 12.809L86.0139 13.7932C86.2907 13.8752 86.2907 14.2852 86.0139 14.4493L83.5227 15.4334C83.4304 15.4334 83.3382 15.5154 83.3382 15.5975L82.231 17.8118C82.1388 18.0578 81.6774 18.0578 81.4929 17.8118L80.3857 15.5975C80.3857 15.5154 80.2935 15.4334 80.2012 15.4334L77.71 14.4493C77.4332 14.3673 77.4332 13.9572 77.71 13.7932L80.2012 12.809C80.2935 12.809 80.3857 12.727 80.3857 12.645L81.4929 10.4306C81.6774 10.1846 82.0465 10.1846 82.231 10.4306Z" fill="#96FFA3"/>
</svg>
