<svg width="20" height="21" viewBox="0 0 20 21" fill="none" xmlns="http://www.w3.org/2000/svg">
<path d="M19.7474 18.6564L14.6737 13.5933C15.8316 12.1648 16.5263 10.358 16.5263 8.38326C16.5263 3.82443 12.8211 0.126953 8.25263 0.126953C3.68421 0.126953 0 3.84544 0 8.40426C0 12.9631 3.70526 16.6606 8.27368 16.6606C10.2526 16.6606 12.0632 15.9673 13.4737 14.8118L18.5474 19.8749C18.8842 20.211 19.4105 20.211 19.7474 19.8749C20.0842 19.5177 20.0842 18.9925 19.7474 18.6564ZM8.27368 14.9589C4.65263 14.9589 1.70526 12.0177 1.70526 8.40426C1.70526 4.79082 4.65263 1.84964 8.27368 1.84964C11.8947 1.84964 14.8421 4.79082 14.8421 8.40426C14.8421 12.0177 11.8947 14.9589 8.27368 14.9589Z" fill="#919396"/>
</svg>
