<svg width="22" height="21" viewBox="0 0 22 21" fill="none" xmlns="http://www.w3.org/2000/svg">
<path d="M18.733 0.126953H3.267C2.83761 0.126953 2.41242 0.214599 2.01576 0.38488C1.6191 0.555161 1.25876 0.804735 0.955331 1.11933C0.651905 1.43392 0.411351 1.80737 0.247428 2.2183C0.083505 2.62923 -0.000571648 3.06959 6.66727e-06 3.5142V12.4254C-0.00086118 12.8702 0.0830018 13.3108 0.246795 13.722C0.410589 14.1332 0.651096 14.5069 0.954552 14.8217C1.25801 15.1365 1.61845 15.3863 2.01525 15.5567C2.41205 15.7272 2.83742 15.8149 3.267 15.8149H4.4V18.7762C4.4 19.6531 4.7168 20.127 5.1986 20.127C5.489 20.127 5.8366 19.9561 6.2128 19.5962L10.1596 15.8149H18.7396C19.1686 15.814 19.5933 15.7256 19.9893 15.5548C20.3854 15.384 20.745 15.134 21.0478 14.8193C21.3505 14.5045 21.5905 14.1311 21.7538 13.7204C21.9172 13.3096 22.0009 12.8696 22 12.4254V3.5142C22.0006 3.06959 21.9165 2.62923 21.7526 2.2183C21.5886 1.80737 21.3481 1.43392 21.0447 1.11933C20.7412 0.804735 20.3809 0.555161 19.9842 0.38488C19.5876 0.214599 19.1624 0.126953 18.733 0.126953ZM20.68 12.4276C20.6803 12.6927 20.6302 12.9552 20.5325 13.2001C20.4348 13.4451 20.2914 13.6678 20.1106 13.8554C19.9298 14.043 19.7151 14.1919 19.4788 14.2936C19.2424 14.3953 18.989 14.4478 18.733 14.4481H9.6426L9.2642 14.8126L5.72 18.193V14.4481H3.267C3.01085 14.4478 2.75726 14.3953 2.52074 14.2934C2.28422 14.1916 2.0694 14.0425 1.88858 13.8546C1.70775 13.6667 1.56446 13.4438 1.46691 13.1986C1.36935 12.9533 1.31943 12.6906 1.32001 12.4254V3.5142C1.32059 2.97972 1.5259 2.46731 1.89091 2.08937C2.25592 1.71144 2.75081 1.49885 3.267 1.49825H18.733C19.2492 1.49885 19.7441 1.71144 20.1091 2.08937C20.4741 2.46731 20.6794 2.97972 20.68 3.5142V12.4254V12.4276Z" fill="#919396"/>
</svg>
