<svg width="22" height="12" viewBox="0 0 22 12" fill="none" xmlns="http://www.w3.org/2000/svg">
<path d="M0.830189 1.79541H21.1698C21.6281 1.79541 22 1.51541 22 1.17041C22 0.82541 21.6281 0.54541 21.1698 0.54541H0.830189C0.371925 0.54541 0 0.82541 0 1.17041C0 1.51541 0.371925 1.79541 0.830189 1.79541Z" fill="#8C9298"/>
<path d="M0.830189 6.62256H21.1698C21.6281 6.62256 22 6.34256 22 5.99756C22 5.65256 21.6281 5.37256 21.1698 5.37256H0.830189C0.371925 5.37256 0 5.65256 0 5.99756C0 6.34256 0.371925 6.62256 0.830189 6.62256Z" fill="#8C9298"/>
<path d="M0.830189 11.4497H21.1698C21.6281 11.4497 22 11.1697 22 10.8247C22 10.4797 21.6281 10.1997 21.1698 10.1997H0.830189C0.371925 10.1997 0 10.4797 0 10.8247C0 11.1697 0.371925 11.4497 0.830189 11.4497Z" fill="#8C9298"/>
</svg>
