<svg width="22" height="21" viewBox="0 0 22 21" fill="none" xmlns="http://www.w3.org/2000/svg">
<path d="M15.6817 15.5137C14.4465 15.5137 13.4442 16.547 13.4442 17.8202C13.4442 19.0935 14.4465 20.1268 15.6817 20.1268C16.9168 20.1268 17.9192 19.0935 17.9192 17.8202C17.9192 16.5519 16.9168 15.5137 15.6817 15.5137ZM15.6817 18.9564C15.0784 18.9564 14.5843 18.4471 14.5843 17.8251C14.5843 17.2032 15.0784 16.6939 15.6817 16.6939C16.285 16.6939 16.7791 17.2032 16.7791 17.8251C16.7791 18.4471 16.285 18.9564 15.6817 18.9564Z" fill="#919396"/>
<path d="M21.4251 3.26114H4.41804L4.133 2.06623C3.86697 0.92519 2.87885 0.126953 1.73871 0.126953H0.570069C0.256531 0.126953 0 0.3914 0 0.714612C0 1.03782 0.256531 1.30227 0.570069 1.30227H1.74346C2.35629 1.30227 2.88835 1.72343 3.03562 2.33557L5.3729 12.1887C5.63894 13.3346 6.62706 14.1328 7.76719 14.1328H17.7624C18.9216 14.1328 19.9144 13.3101 20.171 12.1446L21.9857 3.96143C22.0237 3.78513 21.9857 3.61373 21.8764 3.47171C21.7671 3.33459 21.6009 3.26114 21.4251 3.26114ZM19.0593 11.8948C18.9216 12.5217 18.3847 12.9575 17.7624 12.9575H7.76719C7.15437 12.9575 6.62231 12.5315 6.47504 11.9144L4.70307 4.43645H20.7125L19.0593 11.8948Z" fill="#919396"/>
<path d="M9.17337 15.5137C7.93822 15.5137 6.93585 16.547 6.93585 17.8202C6.93585 19.0935 7.93822 20.1268 9.17337 20.1268C10.4085 20.1268 11.4109 19.0935 11.4109 17.8202C11.4109 16.5519 10.4038 15.5137 9.17337 15.5137ZM9.17337 18.9564C8.57005 18.9564 8.07599 18.4471 8.07599 17.8251C8.07599 17.2032 8.57005 16.6939 9.17337 16.6939C9.7767 16.6939 10.2708 17.2032 10.2708 17.8251C10.2708 18.4471 9.7767 18.9564 9.17337 18.9564Z" fill="#919396"/>
</svg>
