<svg width="23" height="21" viewBox="0 0 23 21" fill="none" xmlns="http://www.w3.org/2000/svg">
<path d="M20.8286 3.59282H18.3809H16.6027V1.76008C16.6027 0.859689 15.87 0.126953 14.9696 0.126953H7.49179C6.59139 0.126953 5.85902 0.859689 5.85902 1.76008V3.59246H4.08049H1.63277C0.732377 3.59246 0 4.32484 0 5.22523V18.4942C0 19.3946 0.732736 20.127 1.63277 20.127H4.08085H18.3812H20.829C21.7293 20.127 22.4621 19.3946 22.4621 18.4942V5.22523C22.4617 4.3252 21.729 3.59282 20.8286 3.59282ZM6.93604 1.76008C6.93604 1.45349 7.18519 1.20398 7.49179 1.20398H14.9696C15.2762 1.20398 15.5257 1.45349 15.5257 1.76008V3.59246H6.93604V1.76008ZM1.63277 19.0499C1.32618 19.0499 1.07703 18.8008 1.07703 18.4942V5.22523C1.07703 4.91864 1.32654 4.66949 1.63277 4.66949H4.08085V19.0499H1.63277ZM5.15751 19.0499V4.66985H17.3038V19.0503H5.15751V19.0499ZM21.3847 18.4945C21.3847 18.8011 21.1355 19.0503 20.8286 19.0503H18.3809V4.66985H20.8286C21.1352 4.66985 21.3847 4.919 21.3847 5.22559V18.4945Z" fill="#1A1D25" fill-opacity="0.48"/>
</svg>
