<svg width="332" height="201" viewBox="0 0 332 201" fill="none" xmlns="http://www.w3.org/2000/svg">
<path d="M34.2456 152.932C34.2456 152.932 37.5071 138.54 30.4086 130.193C30.4086 130.193 26.9553 140.843 34.2456 152.932Z" fill="#7BFFE0"/>
<path d="M27.6267 145.832C27.6267 145.832 28.0104 132.592 20.2404 126.548C20.2404 126.548 19.0893 136.526 27.6267 145.832Z" fill="#7BFFE0"/>
<path d="M19.6645 139.979C19.6645 139.979 18.8011 128.658 11.7026 124.245C11.7986 124.149 11.6068 132.784 19.6645 139.979Z" fill="#7BFFE0"/>
<path d="M18.3219 139.116C18.3219 139.116 7.48226 135.662 0.767459 140.651C0.671534 140.651 8.63336 144.009 18.3219 139.116Z" fill="#7BFFE0"/>
<path d="M26.2838 145.448C26.2838 145.448 14.0053 141.61 6.23535 147.175C6.33128 147.175 15.2523 150.917 26.2838 145.448Z" fill="#7BFFE0"/>
<path d="M33.574 151.876C33.574 151.876 20.3363 147.654 11.9907 153.795C12.0866 153.795 21.7752 157.824 33.574 151.876Z" fill="#7BFFE0"/>
<path d="M40.9602 161.855C40.9602 161.855 46.9076 146.024 40.0969 135.566C40.0969 135.566 34.5331 147.079 40.9602 161.855Z" fill="#7BFFE0"/>
<path d="M40.3849 160.607C40.3849 160.607 26.0919 153.795 15.7319 159.359C15.7319 159.359 26.0919 165.404 40.3849 160.607Z" fill="#7BFFE0"/>
<path d="M13.6214 136.525C13.6214 136.525 7.76999 127.795 0 127.507C0 127.507 3.83698 134.511 13.6214 136.525Z" fill="#7BFFE0"/>
<path d="M11.5111 134.702C30.1207 144.009 44.5095 160.799 50.6488 180.563C50.9365 181.426 49.5936 182.002 49.3058 181.139C43.1665 161.662 29.1614 145.16 10.9355 136.046C10.264 135.566 10.7436 134.223 11.5111 134.702Z" fill="#7BFFE0"/>
<path d="M164.814 86.7139C164.814 86.7139 167.412 68.4912 179.327 62.1425C179.327 62.1425 178.625 75.9762 164.814 86.7139Z" fill="#37C848"/>
<path d="M175.579 81.4333C175.579 81.4333 181.016 65.9494 192.695 62.3633C192.663 62.4717 189.686 74.4437 175.579 81.4333Z" fill="#37C848"/>
<path d="M187.374 78.2324C187.374 78.2324 193.4 65.5213 203.555 63.4858C203.555 63.4858 199.872 73.4759 187.374 78.2324Z" fill="#37C848"/>
<path d="M189.361 77.8863C189.361 77.8863 203.358 78.771 208.996 87.5342C208.996 87.5342 198.43 87.7936 189.361 77.8863Z" fill="#37C848"/>
<path d="M177.296 81.5958C177.296 81.5958 193.261 82.5977 199.616 92.5185C199.616 92.5185 187.622 92.8226 177.296 81.5958Z" fill="#37C848"/>
<path d="M165.924 85.7499C165.924 85.7499 183.036 86.8588 189.986 97.5476C190.094 97.58 177.03 97.9177 165.924 85.7499Z" fill="#37C848"/>
<path d="M153.078 94.0632C153.078 94.0632 153.194 73.091 165.7 63.9684C165.668 64.0768 166.993 79.8153 153.078 94.0632Z" fill="#37C848"/>
<path d="M154.254 92.8805C154.254 92.8805 173.783 91.4106 183.319 102.519C183.352 102.41 168.712 104.871 154.254 92.8805Z" fill="#37C848"/>
<path d="M195.873 76.997C195.873 76.997 206.569 69.5797 215.67 72.6568C215.703 72.5485 208.153 78.9015 195.873 76.997Z" fill="#37C848"/>
<path d="M199.083 75.7338C173.471 78.2176 149.338 91.1728 133.438 111.311C132.714 112.157 134.004 113.368 134.727 112.523C150.422 92.6772 174.058 79.8091 199.172 77.4124C200.243 77.3789 200.294 75.6243 199.083 75.7338Z" fill="#37C848"/>
<path d="M154 194.053C154 197.759 125.1 200.664 89.5 200.664C53.9 200.664 25 197.659 25 194.053C25 190.448 53.9 187.443 89.5 187.443C125.2 187.343 154 190.347 154 194.053Z" fill="#09320E" fill-opacity="0.18"/>
<path d="M113.4 178.329C113.4 178.329 112.7 182.435 112.6 183.938C112.6 183.938 119.3 189.046 121.4 189.947C121.4 189.947 124 191.55 123.8 194.354C123.8 194.354 109.1 194.654 104.5 193.352C104.5 193.352 106.4 182.235 107 178.229C107 178.329 111.6 177.327 113.4 178.329Z" fill="#29244E"/>
<path d="M140.2 193.052C140.2 193.052 141.1 194.955 135.7 196.758C135.6 196.758 135.6 196.758 135.5 196.858C129.8 198.661 129.5 198.461 126.7 197.459L129 194.354L133.8 190.648C133.7 190.548 139.5 190.849 140.2 193.052Z" fill="#29244E"/>
<path d="M139.4 191.149C139.4 191.149 140 191.85 140.2 193.052C140.2 193.052 138 191.85 134.8 194.054C134.8 194.054 130.2 197.86 126.7 197.359C126.7 197.359 126.3 196.457 126.9 195.656L130.3 192.451L132.7 190.548L136.7 189.947L139.4 191.149Z" fill="#D9436F"/>
<path d="M135.6 189.547C133.7 188.345 132 181.534 132 181.534H126.8C127.9 187.143 127 195.656 127 195.656C128.8 196.558 133.2 193.453 133.2 193.453C136.3 189.847 139.4 191.149 139.4 191.149C138.6 189.647 135.6 189.547 135.6 189.547Z" fill="#29244E"/>
<path d="M45.2995 181.834C47.0995 181.834 48.5995 184.238 48.5995 187.142C48.5995 190.047 47.0995 192.451 45.2995 192.451H42.9995V183.136L45.2995 181.834Z" fill="#1F1B3B"/>
<path d="M46.2997 187.142C46.2997 190.047 44.7997 192.451 42.9997 192.451C41.1997 192.451 39.6997 190.047 39.6997 187.142C39.6997 184.238 41.1997 181.834 42.9997 181.834C44.7997 181.834 46.2997 184.238 46.2997 187.142Z" fill="#29244E"/>
<path d="M69.8996 181.834C71.6996 181.834 73.1996 184.238 73.1996 187.142C73.1996 190.047 71.6996 192.451 69.8996 192.451H67.5996V183.136L69.8996 181.834Z" fill="#1F1B3B"/>
<path d="M70.8998 187.142C70.8998 190.047 69.3998 192.451 67.5998 192.451C65.7998 192.451 64.2998 190.047 64.2998 187.142C64.2998 184.238 65.7998 181.834 67.5998 181.834C69.3998 181.834 70.8998 184.238 70.8998 187.142Z" fill="#29244E"/>
<path d="M92.4998 144.576L83.5998 130.354C83.4998 130.253 83.4998 130.153 83.3998 130.053V129.953C82.9998 129.552 82.4998 129.252 81.6998 129.252H50.3998C48.6998 129.252 46.8998 130.554 46.3998 132.056L32.6998 170.116C32.4998 170.717 32.4998 171.318 32.6998 171.818V171.919C32.7998 172.019 32.7998 172.119 32.8998 172.219L41.6998 186.341L57.8998 173.02H65.7998C67.4998 173.02 69.2998 171.718 69.7998 170.216L73.3998 160.2L92.4998 144.576Z" fill="#9CFD9E"/>
<path d="M32.5998 171.918C32.6998 172.119 32.7998 172.219 32.8998 172.319L41.6998 186.441L52.5998 177.427C53.4998 166.71 55.1998 146.178 55.1998 146.178L46.3998 132.156L32.6998 170.216C32.3998 170.817 32.3998 171.418 32.5998 171.918Z" fill="#9CFD9E"/>
<path d="M86.9999 135.862H54.7999C52.9999 135.862 50.8999 137.265 50.2999 139.067L36.3999 177.828L37.0999 178.93L51.2999 139.268C51.7999 137.966 53.3999 136.764 54.7999 136.764H87.5999L86.9999 135.862Z" fill="#37C848"/>
<path d="M59.2 143.374C57.5 143.374 55.7 144.676 55.2 146.178L41.5 184.238C40.9 185.84 41.8 187.042 43.5 187.042H74.8C76.5 187.042 78.3 185.74 78.8 184.238L92.5 146.178C93.1 144.576 92.2 143.374 90.5 143.374H59.2Z" fill="#6FD771"/>
<path d="M61.4999 154.091C60.2999 154.091 59.0999 154.992 58.6999 156.094L48.9999 182.936C48.5999 184.038 49.1999 184.939 50.3999 184.939H72.3999C73.5999 184.939 74.7999 184.038 75.1999 182.936L84.8999 156.094C85.2999 154.992 84.6999 154.091 83.4999 154.091H61.4999Z" fill="#37C848"/>
<path d="M82.1998 112.025L68.7998 146.579" stroke="#29244E" stroke-width="1.5" stroke-miterlimit="10" stroke-linecap="round"/>
<path d="M81.8999 112.927L79.8999 117.935" stroke="#1F1B3B" stroke-width="3" stroke-miterlimit="10" stroke-linecap="round"/>
<path d="M93.7999 112.025L80.3999 146.579" stroke="#29244E" stroke-width="1.5" stroke-miterlimit="10" stroke-linecap="round"/>
<path d="M93.5 112.927L91.5 117.935" stroke="#1F1B3B" stroke-width="3" stroke-miterlimit="10" stroke-linecap="round"/>
<path d="M92.0997 104.914C92.0997 104.914 94.2997 107.919 92.3997 111.925L88.6997 112.125C88.6997 112.025 88.1997 108.62 88.4997 108.62C88.8997 108.52 92.0997 104.914 92.0997 104.914Z" fill="#CC704F"/>
<path d="M97.1997 110.823H77.6997V113.327H97.1997V110.823Z" fill="#1F1B3B"/>
<path d="M83.6997 149.384H64.1997V151.888H83.6997V149.384Z" fill="#1F1B3B"/>
<path d="M144.4 101.709C146.5 95.9997 146.4 84.8823 146.4 84.8823C146.3 83.2798 146.2 81.7775 146.1 80.4754C143.3 80.0748 141.3 80.6757 140.2 81.2767C140.3 81.477 140.3 81.6773 140.3 81.6773C141.5 87.1859 141.4 102.51 141.4 102.51L144.4 101.709Z" fill="#FF8C63"/>
<path d="M134.2 65.3523C135.7 66.8546 139.5 79.0737 140.2 81.3773C141.3 80.7764 143.3 80.1754 146.1 80.5761C145.4 72.864 144.3 69.0581 144.3 69.0581C144.3 66.2537 142.3 65.3523 142.3 65.3523C142.3 48.6261 137.9 37.3084 137.9 37.3084C136.3 36.9078 134.3 36.407 132.3 35.9062C132.5 39.612 134.2 47.925 134.2 47.925C137.2 55.5369 134.2 60.8452 134.2 60.8452V65.3523Z" fill="#53DABA"/>
<path d="M132.3 35.9065C132.3 35.9065 134.1 34.2039 136.9 36.3072C136.9 36.3072 139.8 67.0552 143 98.0036L138.1 97.9034C138.1 97.9034 135.9 63.1491 134.3 47.9253C133.6 42.3165 133 38.3103 132.3 35.9065Z" fill="#38BE9E"/>
<path d="M98.1996 43.1173C98.1996 43.1173 95.1996 44.4193 94.8996 51.1298C94.8996 51.1298 91.9996 55.6368 93.0996 62.147C93.0996 62.147 92.8996 68.0562 91.9996 70.2596C91.9996 70.2596 90.5996 78.2722 90.5996 82.3786C90.5996 82.3786 88.9996 84.582 89.3996 87.3864C89.3996 87.3864 94.8996 88.388 97.3996 87.9874L98.8996 85.0828L108.2 69.859C108.2 69.859 107 56.8387 106.8 57.2393C106.6 57.6399 105.2 42.9169 98.1996 43.1173Z" fill="#7BFFE0"/>
<path d="M134.8 79.2735C134.8 76.8698 134.2 65.3518 134.2 65.3518V60.8448C134.2 60.8448 137.2 55.5365 134.2 47.9246C134.2 47.9246 132.5 39.6116 132.3 35.9058L130.1 35.405C131.1 35.6053 124.8 40.1124 125.7 40.3127C121.2 39.211 125 34.2031 125 34.2031H114C102.7 38.5099 98.1997 43.1171 98.1997 43.1171C102 43.9183 103.3 52.9324 103.3 52.9324C103.6 57.3393 103.3 68.4567 103.3 68.4567C101.2 72.7634 102.2 75.7681 102.2 75.7681C95.4997 87.9872 101.5 88.3878 101.5 88.3878V90.6914C126.2 98.8041 134.7 90.6914 134.7 90.6914L134.8 86.9856C138.7 86.8854 134.8 79.2735 134.8 79.2735Z" fill="#7BFFE0"/>
<path d="M111.8 93.2956L112.2 87.9873C108.8 86.1845 101.8 85.5836 101.8 85.5836C101.3 82.9795 103.5 75.4678 103.5 75.4678C103.2 72.0625 104.9 68.2565 104.9 68.2565C106.3 50.629 101.9 47.2236 101.9 47.2236C102.9 49.9279 103.3 52.8324 103.3 52.8324C103.6 57.2393 103.3 68.3567 103.3 68.3567C101.2 72.6634 102.2 75.6681 102.2 75.6681C95.5001 87.8872 101.5 88.2878 101.5 88.2878V90.5914C105.3 91.8934 108.7 92.7948 111.8 93.2956Z" fill="#53DABA"/>
<path d="M132.3 17.7783L134 22.8863L132.2 23.3871L132.3 17.7783Z" fill="#CC704F"/>
<path d="M110.6 16.4756C110.6 16.4756 101.7 18.8793 100.6 31.8997H102.6L103.5 29.9967L103.4 37.208H109V31.9998L110.7 33.6024C110.7 33.6024 108.8 22.3848 111.9 19.5804L110.6 16.4756Z" fill="#241F44"/>
<path d="M114.8 88.2879C110 87.4867 101.4 88.2879 101.4 88.2879V90.5915C126.1 98.7042 134.6 90.5915 134.6 90.5915L134.7 86.8857C130.7 89.1893 114.8 88.2879 114.8 88.2879Z" fill="#53DABA"/>
<path d="M130.8 35.5052C127 34.6038 125 34.2031 125 34.2031H114C111.8 35.0044 109.8 35.9058 108.1 36.707C110.6 40.8135 115.4 47.1233 122.2 50.4285C122.2 50.4285 128 44.5193 130.8 35.5052Z" fill="#FF8C63"/>
<path d="M124.3 30.0971C124.3 30.0971 124.4 32.2004 125 34.2035L122.2 38.4101L113.8 35.2051C113.8 35.2051 115.3 31.1988 113.8 28.2943C113.8 28.2943 108.4 26.6918 109 15.5744C109 15.5744 109.3 6.76067 120.3 6.05957C120.3 6.05957 133 6.15971 132.3 17.7779C132.3 17.7779 132.1 28.5948 132.2 30.1973C132.2 30.1973 130.4 32.4007 124.3 30.0971Z" fill="#FF8C63"/>
<path d="M124.3 30.0976C124.3 30.0976 120.5 29.1961 120.7 25.29C120.7 25.29 118 31.0991 125 34.204L124.3 30.0976Z" fill="#CC704F"/>
<path d="M120.3 6.05957C109.3 6.76067 109 15.5744 109 15.5744C108.4 26.6918 113.8 28.2943 113.8 28.2943C115.1 26.8921 114.5 25.8905 114.5 25.8905C112.9 23.9876 113.5 21.2833 113.5 21.2833C115.3 18.0783 117.7 21.2833 117.7 21.2833L118 25.1894L119.3 25.0893L119.7 20.3819C124.7 15.3741 130 15.4743 132.3 15.2739C131 6.15971 120.3 6.05957 120.3 6.05957Z" fill="#29244E"/>
<path d="M151.2 98.8044C151.2 98.8044 138 96.6009 126.5 99.0047C126.5 99.0047 121 106.617 127.3 119.236C127.3 119.236 131.5 126.247 154.3 123.543L151.2 98.8044Z" fill="#38BE9E"/>
<path d="M144.5 112.025C144.5 112.025 132.3 114.629 125.8 111.023C125.8 111.023 125.3 110.823 124.5 110.523C124.8 113.026 125.7 115.931 127.3 119.236C127.3 119.236 131.5 126.247 154.3 123.543L151.3 98.7041C151.2 98.8043 145.9 103.712 144.5 112.025Z" fill="#1EA081"/>
<path d="M151.2 98.8047C151.2 98.8047 140.6 124.745 154.2 123.644C154.2 123.644 171.4 121.841 151.2 98.8047Z" fill="#38BE9E"/>
<path d="M134.8 109.721L125.4 135.462L119.6 161.602L113.5 178.329C113.5 178.329 108.7 178.729 107 178.329L109.2 163.205C109.2 163.205 109.9 154.191 113.1 148.582C113.1 148.582 116.6 114.228 118 106.617C117.9 106.617 124.3 100.407 134.8 109.721Z" fill="#CC704F"/>
<path d="M117.6 109.121C117.5 109.722 117.4 110.323 117.3 111.024L119.6 115.931C126.1 116.132 131.4 113.127 134.3 111.124L134.8 109.822C133.7 108.82 132.6 108.019 131.5 107.318L124.7 104.714L117.6 109.121Z" fill="#B16144"/>
<path d="M127.7 129.152L125.9 122.442C125.9 122.442 121.2 119.838 116.2 119.537C115.5 125.346 114.8 131.856 114.2 137.265C116.6 141.572 119 145.778 120.1 147.481L121.5 153.09L125.4 135.562L127.7 129.152Z" fill="#B16144"/>
<path d="M103.9 112.927C103.9 112.927 114.4 132.157 117.1 136.464L118.6 142.673C118.6 142.673 116.3 156.495 120.8 164.908C120.8 164.908 125.8 179.431 126.6 181.434C126.6 181.434 129.1 183.637 131.8 181.434C131.8 181.434 129.8 158.598 129.3 151.888C129.3 151.888 130.1 134.861 127.8 129.653L122.8 111.425C122.9 111.425 109.4 103.913 103.9 112.927Z" fill="#FF8C63"/>
<path d="M101.4 90.5918C101.4 90.5918 125.4 92.5949 134.6 90.5918V96.8015C134.6 96.8015 136.6 104.614 136.6 109.021C136.6 109.021 128.4 111.825 122.8 111.224C122.8 111.224 107.8 109.021 103.8 112.726C103.9 112.927 98.9 99.1051 101.4 90.5918Z" fill="#37C848"/>
<path d="M125.3 111.424C124.7 107.818 126.1 104.813 126.1 104.813C129 103.411 132.8 100.006 132.8 100.006C129.8 102.209 125.2 102.41 125.2 102.41C127.7 100.807 131.2 96.5005 131.2 96.5005C129.5 98.7039 124.2 99.6053 124.2 99.6053C118.5 94.898 112.2 95.9997 112.2 95.9997C115.4 95.7994 119.6 98.9042 119.6 98.9042C120.7 101.508 122.9 111.324 122.9 111.324C123.7 111.424 124.5 111.424 125.3 111.424Z" fill="#5B765E" fill-opacity="0.56"/>
<path d="M156.4 105.515C160.9 112.325 157.9 115.13 157.9 115.13C152.2 119.236 149.1 113.227 147.9 109.821C146.5 116.732 146.7 124.244 154.2 123.643C154.2 123.643 167.9 122.141 156.4 105.515Z" fill="#1EA081"/>
<path d="M156 104.813C155.9 104.713 155.8 104.513 155.7 104.413C155.8 104.613 155.9 104.713 156 104.813Z" fill="#DD464F"/>
<path d="M124.3 59.3428C124.3 59.3428 128.3 61.9468 132.8 60.745C132.8 60.8451 128.5 65.5525 124.3 59.3428Z" fill="#53DABA"/>
<path d="M108.3 59.4428C108.3 59.4428 113.3 64.651 118.9 58.6416C119 58.6416 114.3 68.6572 108.3 59.4428Z" fill="#53DABA"/>
<path d="M96.3997 88.0882L92.2997 104.614C92.2997 104.614 92.3997 109.622 89.8997 110.323L89.3997 113.728C89.3997 113.728 88.0997 114.63 87.1997 113.728L86.7997 111.124L83.6997 110.824C83.6997 110.824 84.4997 109.221 88.2997 105.515L90.3997 87.5874C90.4997 87.4872 93.7997 85.384 96.3997 88.0882Z" fill="#FF8C63"/>
<path d="M123.8 194.354C123.9 193.452 123.7 192.751 123.3 192.05C121.7 192.251 116.1 192.952 110.9 192.351L104.8 191.249C104.6 192.451 104.4 193.352 104.4 193.352C109.1 194.654 123.8 194.354 123.8 194.354Z" fill="#D9436F"/>
<path d="M209.333 0.52674L212 6.24998C212.167 6.40896 212.333 6.56794 212.5 6.72692L218.5 9.27056C219.167 9.58852 219.167 10.5424 218.5 10.8603L212.5 13.404C212.333 13.563 212.167 13.722 212 13.881L209.333 19.6042C209 20.2401 208 20.2401 207.667 19.6042L205 13.881C204.833 13.722 204.667 13.563 204.5 13.404L198.5 10.8603C197.833 10.5424 197.833 9.58852 198.5 9.27056L204.5 6.72692C204.667 6.56794 204.833 6.40896 205 6.24998L207.667 0.52674C208 -0.109174 209 -0.109174 209.333 0.52674Z" fill="#38BE9E"/>
<path d="M219.677 110.579L221.709 114.872C221.709 115.031 221.878 115.19 222.048 115.19L226.619 117.098C227.127 117.256 227.127 118.051 226.619 118.369L222.048 120.277C221.878 120.277 221.709 120.436 221.709 120.595L219.677 124.887C219.508 125.364 218.661 125.364 218.323 124.887L216.291 120.595C216.291 120.436 216.122 120.277 215.952 120.277L211.381 118.369C210.873 118.21 210.873 117.415 211.381 117.098L215.952 115.19C216.122 115.19 216.291 115.031 216.291 114.872L218.323 110.579C218.661 110.102 219.339 110.102 219.677 110.579Z" fill="#7BFFE0"/>
<path d="M283.728 48.7689L287.41 56.4952C287.41 56.7814 287.717 57.0676 288.024 57.0676L296.31 60.5015C297.23 60.7876 297.23 62.2185 296.31 62.7908L288.024 66.2247C287.717 66.2247 287.41 66.5109 287.41 66.797L283.728 74.5234C283.421 75.3819 281.886 75.3819 281.272 74.5234L277.59 66.797C277.59 66.5109 277.283 66.2247 276.976 66.2247L268.69 62.7908C267.77 62.5046 267.77 61.0738 268.69 60.5015L276.976 57.0676C277.283 57.0676 277.59 56.7814 277.59 56.4952L281.272 48.7689C281.886 47.9104 283.114 47.9104 283.728 48.7689Z" fill="#96FFA3"/>
<path d="M327.423 105.428L328.693 108.004C328.693 108.099 328.799 108.195 328.905 108.195L331.762 109.339C332.079 109.435 332.079 109.912 331.762 110.102L328.905 111.247C328.799 111.247 328.693 111.343 328.693 111.438L327.423 114.013C327.317 114.3 326.788 114.3 326.577 114.013L325.307 111.438C325.307 111.343 325.201 111.247 325.095 111.247L322.238 110.102C321.921 110.007 321.921 109.53 322.238 109.339L325.095 108.195C325.201 108.195 325.307 108.099 325.307 108.004L326.577 105.428C326.788 105.142 327.212 105.142 327.423 105.428Z" fill="#7BFFE0"/>
<path d="M38.7297 20.449L41 25.6816C41 25.8452 41.1621 26.0087 41.3243 26.0087L46.5135 28.298C47.1622 28.625 47.1622 29.4426 46.5135 29.7697L41.3243 32.059C41.1621 32.059 41 32.2225 41 32.386L38.7297 37.6187C38.4054 38.2727 37.5946 38.2727 37.2703 37.6187L34.9999 32.386C34.9999 32.2225 34.8379 32.059 34.6757 32.059L29.4865 29.7697C28.8378 29.4426 28.8378 28.625 29.4865 28.298L34.6757 26.0087C34.8379 26.0087 34.9999 25.8452 34.9999 25.6816L37.2703 20.449C37.5946 19.9584 38.5676 19.9584 38.7297 20.449Z" fill="#37C848"/>
<path d="M277.73 154.368L280 159.601C280 159.764 280.162 159.928 280.324 159.928L285.514 162.217C286.162 162.544 286.162 163.362 285.514 163.689L280.324 165.978C280.162 165.978 280 166.141 280 166.305L277.73 171.538C277.405 172.192 276.595 172.192 276.27 171.538L274 166.305C274 166.141 273.838 165.978 273.676 165.978L268.486 163.689C267.838 163.362 267.838 162.544 268.486 162.217L273.676 159.928C273.838 159.928 274 159.764 274 159.601L276.27 154.368C276.595 153.877 277.568 153.877 277.73 154.368Z" fill="#37C848"/>
</svg>
