<svg width="211" height="49" viewBox="0 0 211 49" fill="none" xmlns="http://www.w3.org/2000/svg">
<path d="M98.3037 45.9955V16.9291C98.3014 16.6317 98.3541 16.3365 98.4593 16.0582C98.5615 15.7948 98.7131 15.5532 98.906 15.3463C99.0937 15.1471 99.3186 14.9863 99.5682 14.8731C100.062 14.6613 100.619 14.6505 101.121 14.843C101.623 15.0355 102.029 15.4159 102.253 15.9031L114.1 41.0086L125.947 15.9031C126.115 15.5526 126.378 15.2555 126.705 15.0449C127.033 14.8343 127.412 14.7184 127.802 14.7101C128.077 14.7104 128.348 14.7672 128.6 14.8771C128.854 14.9881 129.083 15.149 129.274 15.3503C129.467 15.5563 129.617 15.7982 129.717 16.0622C129.823 16.3402 129.877 16.6355 129.876 16.9331V45.9995C129.883 46.2882 129.832 46.5753 129.726 46.8442C129.621 47.1131 129.463 47.3586 129.262 47.5664C129.075 47.7727 128.847 47.9377 128.592 48.0505C128.337 48.1634 128.061 48.2218 127.782 48.2218C127.503 48.2218 127.227 48.1634 126.972 48.0505C126.717 47.9377 126.489 47.7727 126.302 47.5664C126.101 47.3586 125.943 47.1131 125.838 46.8442C125.732 46.5753 125.681 46.2882 125.688 45.9995V26.3501L115.895 47.1051C115.732 47.4448 115.474 47.7303 115.152 47.9272C114.83 48.124 114.458 48.2238 114.08 48.2146C113.66 48.2207 113.249 48.0944 112.905 47.8538C112.561 47.6131 112.302 47.2704 112.165 46.8744L102.488 26.3501V45.9955C102.5 46.5777 102.281 47.141 101.878 47.5624C101.691 47.7694 101.462 47.9349 101.207 48.0482C100.952 48.1614 100.675 48.22 100.396 48.22C100.116 48.22 99.8402 48.1614 99.5849 48.0482C99.3296 47.9349 99.101 47.7694 98.914 47.5624C98.5109 47.141 98.2915 46.5777 98.3037 45.9955Z" fill="#294733"/>
<path d="M151.05 46.0352V45.6177C150.093 46.4357 149.005 47.0865 147.831 47.5424C146.647 47.9961 145.389 48.2241 144.121 48.2145C142.646 48.23 141.184 47.9315 139.834 47.339C138.484 46.7465 137.276 45.8736 136.291 44.7785C134.156 42.5491 132.993 39.5683 133.056 36.4869C132.993 33.4055 134.156 30.4245 136.291 28.1953C137.283 27.1125 138.491 26.2477 139.838 25.656C141.184 25.0644 142.64 24.7588 144.111 24.7588C145.582 24.7588 147.038 25.0644 148.384 25.656C149.731 26.2477 150.939 27.1125 151.931 28.1953C154.068 30.4239 155.232 33.4049 155.17 36.4869V46.0312C155.18 46.6033 154.964 47.1562 154.568 47.5703C154.386 47.7737 154.162 47.936 153.911 48.0464C153.661 48.1568 153.39 48.2128 153.116 48.2105C152.839 48.2141 152.565 48.1588 152.311 48.0484C152.057 47.938 151.83 47.775 151.644 47.5703C151.251 47.1568 151.037 46.6051 151.05 46.0352ZM144.113 29.1378C143.173 29.1302 142.242 29.3298 141.389 29.7224C140.559 30.1033 139.814 30.6439 139.195 31.3131C137.902 32.7257 137.191 34.5712 137.2 36.4829C137.191 38.3947 137.902 40.2402 139.195 41.6528C139.815 42.3208 140.56 42.8612 141.389 43.2435C142.241 43.6287 143.167 43.8279 144.103 43.8279C145.039 43.8279 145.965 43.6287 146.818 43.2435C147.647 42.8591 148.395 42.319 149.019 41.6528C149.65 40.9686 150.151 40.1764 150.499 39.3144C151.223 37.4915 151.223 35.4625 150.499 33.6395C150.15 32.7792 149.649 31.9885 149.019 31.3051C148.396 30.6376 147.648 30.0973 146.818 29.7144C145.969 29.3266 145.046 29.1297 144.113 29.1378Z" fill="#294733"/>
<path d="M158.13 46.0353V16.9052C158.117 16.3304 158.325 15.7723 158.712 15.3463C158.899 15.1426 159.127 14.9799 159.38 14.8685C159.633 14.7572 159.907 14.6997 160.184 14.6997C160.461 14.6997 160.735 14.7572 160.989 14.8685C161.242 14.9799 161.469 15.1426 161.656 15.3463C162.044 15.7723 162.252 16.3304 162.239 16.9052V43.8361H163.184C163.458 43.8339 163.729 43.8898 163.979 44.0002C164.23 44.1106 164.453 44.273 164.636 44.4764C165.036 44.8961 165.252 45.4567 165.238 46.0353C165.25 46.6076 165.033 47.1612 164.636 47.5743C164.453 47.7778 164.23 47.9401 163.979 48.0505C163.729 48.1609 163.458 48.2169 163.184 48.2146H160.164C159.892 48.218 159.623 48.1625 159.374 48.052C159.125 47.9415 158.904 47.7785 158.724 47.5743C158.332 47.1583 158.119 46.606 158.13 46.0353Z" fill="#294733"/>
<path d="M185.793 46.0352V45.6177C184.836 46.4349 183.748 47.0856 182.574 47.5424C181.389 47.996 180.13 48.224 178.86 48.2145C177.387 48.2301 175.927 47.9316 174.579 47.339C173.23 46.7464 172.025 45.8734 171.042 44.7785C168.907 42.5495 167.742 39.5688 167.803 36.4869C167.741 33.4049 168.906 30.4239 171.042 28.1953C172.035 27.1125 173.243 26.2477 174.589 25.656C175.936 25.0644 177.391 24.7588 178.862 24.7588C180.334 24.7588 181.789 25.0644 183.136 25.656C184.482 26.2477 185.69 27.1125 186.683 28.1953C188.818 30.4245 189.981 33.4055 189.918 36.4869V46.0312C189.93 46.6036 189.713 47.1571 189.316 47.5703C189.134 47.7736 188.911 47.9359 188.661 48.0463C188.411 48.1567 188.141 48.2127 187.868 48.2105C187.591 48.2148 187.316 48.1599 187.062 48.0495C186.808 47.939 186.581 47.7756 186.396 47.5703C185.999 47.1581 185.783 46.6062 185.793 46.0352ZM178.86 29.1378C177.92 29.1302 176.99 29.3298 176.136 29.7224C175.309 30.1044 174.564 30.6449 173.946 31.3131C172.645 32.7273 171.924 34.5762 171.924 36.4949C171.924 38.4135 172.645 40.2625 173.946 41.6766C174.566 42.3436 175.309 42.8839 176.136 43.2674C176.99 43.6526 177.916 43.8519 178.853 43.8519C179.789 43.8519 180.716 43.6526 181.569 43.2674C182.398 42.8839 183.144 42.3437 183.767 41.6766C184.4 40.9937 184.903 40.2012 185.251 39.3383C185.974 37.5154 185.974 35.4863 185.251 33.6634C184.901 32.7959 184.396 31.9994 183.759 31.3131C183.138 30.6448 182.391 30.1044 181.561 29.7224C180.714 29.3332 179.793 29.1337 178.86 29.1378Z" fill="#294733"/>
<path d="M197.106 37.0555C196.14 36.7217 195.254 36.1939 194.501 35.5045H194.529C193.701 34.6199 193.185 33.4905 193.058 32.2872C192.931 31.0838 193.201 29.8721 193.827 28.8354C194.365 27.9732 195.074 27.229 195.909 26.6482C196.793 26.0338 197.769 25.564 198.801 25.2563C199.847 24.931 200.936 24.7647 202.032 24.7632C205.324 24.7632 208.147 26.1657 210.501 28.9706C210.776 29.3547 210.917 29.819 210.9 30.2909C210.918 30.8678 210.709 31.429 210.317 31.8538C210.13 32.0551 209.902 32.2142 209.648 32.3205C209.394 32.4268 209.121 32.4778 208.845 32.4702C208.453 32.4801 208.071 32.3456 207.772 32.0924C207.471 31.8363 207.183 31.5642 206.911 31.2772C206.295 30.5941 205.539 30.0502 204.695 29.6819C203.851 29.3136 202.938 29.1294 202.016 29.1416C200.123 29.1416 198.608 29.7554 197.473 30.9829C197.25 31.2372 197.137 31.5687 197.158 31.9055C197.147 32.0756 197.191 32.2446 197.283 32.3878C197.376 32.531 197.512 32.6407 197.672 32.7009L206.911 35.9261C208.203 36.455 209.069 36.972 209.519 37.473H209.499C210.476 38.4944 211.015 39.8557 210.999 41.2669C211.016 42.2856 210.739 43.2876 210.202 44.1541C209.662 45.0152 208.954 45.7591 208.119 46.3413C207.242 46.9607 206.269 47.4323 205.239 47.7372C204.195 48.0529 203.111 48.215 202.02 48.2184C198.701 48.2184 195.877 46.8291 193.548 44.0507C193.262 43.6546 193.11 43.1784 193.113 42.6906C193.094 42.1137 193.303 41.5525 193.695 41.1277C193.883 40.9271 194.111 40.7684 194.365 40.6622C194.619 40.5559 194.892 40.5045 195.167 40.5113C195.573 40.499 195.968 40.6412 196.272 40.909C196.575 41.1794 196.851 41.4419 197.102 41.7044C197.722 42.3889 198.481 42.9335 199.33 43.3018C200.178 43.67 201.095 43.8535 202.02 43.8399C202.869 43.874 203.715 43.7229 204.499 43.3973C205.283 43.0718 205.986 42.5795 206.56 41.9549C206.76 41.7141 206.865 41.4086 206.855 41.0959C206.865 40.9214 206.819 40.7481 206.724 40.6014C206.628 40.4547 206.488 40.3423 206.324 40.2807L197.106 37.0555Z" fill="#294733"/>
<path d="M26.3826 42.9019C26.3787 43.4965 26.1443 44.0665 25.7284 44.4926C22.9879 46.9042 19.4553 48.23 15.7999 48.2189C11.428 48.2189 7.70501 46.5858 4.63085 43.3195C1.5567 40.0532 0.0143055 36.1095 0.00366832 31.4885C-0.0888516 27.0835 1.57194 22.8212 4.62287 19.6337C7.71564 16.3541 11.4387 14.7144 15.7919 14.7144C19.5309 14.7144 22.9069 16.0201 25.9199 18.6315C26.111 18.8354 26.2583 19.0759 26.353 19.3385C26.4476 19.6011 26.4876 19.8801 26.4704 20.1586C26.4744 20.4587 26.4216 20.7569 26.3148 21.0375C26.2114 21.297 26.0613 21.5355 25.872 21.7414C25.6824 21.9428 25.4529 22.1026 25.1979 22.2106C24.9461 22.3196 24.6746 22.3764 24.4001 22.3777C24.1292 22.3762 23.8615 22.3197 23.6132 22.2117C23.365 22.1036 23.1414 21.9463 22.9561 21.7493C21.9735 20.9222 20.8547 20.271 19.6493 19.8245C17.5699 19.0682 15.3119 18.9449 13.1621 19.4703C11.0123 19.9957 9.06753 21.146 7.5747 22.7753C5.33412 25.1187 4.11635 28.2518 4.18808 31.4885C4.11551 34.7219 5.32863 37.8527 7.56273 40.1977C8.5991 41.3485 9.87014 42.2653 11.2907 42.8867C12.7113 43.5081 14.2487 43.8197 15.7999 43.8007C18.0846 43.8262 20.3187 43.1301 22.1822 41.8123V35.2983H16.7453C16.4656 35.3039 16.1879 35.25 15.9306 35.1403C15.6734 35.0306 15.4425 34.8676 15.2534 34.662C14.8503 34.2316 14.6338 33.6599 14.6511 33.0713C14.6509 32.7737 14.7049 32.4786 14.8107 32.2004C14.9115 31.9372 15.0618 31.6956 15.2534 31.4885C15.442 31.2913 15.6668 31.132 15.9156 31.0192C16.1772 30.9056 16.46 30.8487 16.7453 30.8522H24.3243C24.6004 30.8506 24.8733 30.9118 25.1221 31.0312C25.3712 31.1487 25.5958 31.3119 25.7843 31.5124C25.9791 31.7192 26.1334 31.9607 26.239 32.2242C26.3432 32.4969 26.392 32.7876 26.3826 33.0792V42.9019Z" fill="white"/>
<path d="M46.4831 41.6211C46.7581 41.6138 47.0314 41.6654 47.2846 41.7725C47.5379 41.8795 47.7651 42.0394 47.9511 42.2415C48.1481 42.4523 48.3011 42.7002 48.4011 42.9705C48.501 43.2409 48.546 43.5284 48.5334 43.8163C48.5527 44.4031 48.3408 44.9741 47.9431 45.407C46.0032 47.267 43.4063 48.29 40.7151 48.2544C39.2422 48.2687 37.7831 47.97 36.435 47.3782C35.0869 46.7865 33.8808 45.9152 32.8968 44.8225C30.761 42.5919 29.5966 39.6099 29.6577 36.5268C29.5882 33.4328 30.7531 30.4378 32.8968 28.1994C33.8891 27.1167 35.0968 26.252 36.4429 25.6604C37.789 25.0687 39.244 24.7632 40.7151 24.7632C42.1862 24.7632 43.6412 25.0687 44.9873 25.6604C46.3334 26.252 47.5411 27.1167 48.5334 28.1994C49.5874 29.2865 50.4132 30.5722 50.9627 31.9814C51.5088 33.4217 51.7794 34.9513 51.7605 36.4911C51.77 36.7785 51.7215 37.0649 51.6181 37.3333C51.5146 37.6017 51.3583 37.8468 51.1582 38.0539C50.9686 38.2522 50.7401 38.4093 50.4868 38.5154C50.2335 38.6214 49.961 38.6742 49.6863 38.6703H34.0496C34.2653 39.4195 34.5992 40.1296 35.0388 40.7741C35.4586 41.3957 35.9742 41.9473 36.5666 42.4085C37.1511 42.8612 37.8042 43.2182 38.5012 43.4664C39.9902 43.9845 41.6138 43.969 43.0925 43.4226C43.8299 43.1309 44.5063 42.7048 45.087 42.1659C45.4698 41.8201 45.9665 41.6262 46.4831 41.6211ZM47.3687 34.3157C47.1536 33.5637 46.8168 32.8518 46.3714 32.208C45.9451 31.589 45.4258 31.0391 44.8317 30.5775C44.2477 30.1241 43.5945 29.767 42.8971 29.5197C42.1983 29.2623 41.46 29.1278 40.7151 29.122C39.9677 29.1284 39.2269 29.263 38.5252 29.5197C37.4471 29.8989 36.4776 30.5335 35.7001 31.3689C34.9225 32.2044 34.3602 33.2157 34.0615 34.3157H47.3687Z" fill="white"/>
<path d="M55.0913 24.7636H56.0207V16.8895C56.0107 16.3175 56.2271 15.7646 56.623 15.3505C56.8097 15.1506 57.0356 14.9911 57.2868 14.8821C57.538 14.7731 57.809 14.7168 58.083 14.7168C58.357 14.7168 58.628 14.7731 58.8792 14.8821C59.1303 14.9911 59.3563 15.1506 59.543 15.3505C59.9389 15.7646 60.1553 16.3175 60.1453 16.8895V24.7636H62.6144C62.8865 24.7607 63.1561 24.8164 63.4046 24.9269C63.6531 25.0374 63.8748 25.2001 64.0545 25.4038C64.4368 25.8297 64.6483 26.3812 64.6483 26.9528C64.6483 27.5244 64.4368 28.0759 64.0545 28.5018C63.8755 28.7063 63.6539 28.8696 63.4052 28.9802C63.1566 29.0907 62.8867 29.146 62.6144 29.142H60.1453V39.6766C60.1453 42.4524 61.4616 43.8416 64.0943 43.8443C64.3662 43.8406 64.6356 43.8956 64.8841 44.0054C65.1327 44.1153 65.3545 44.2773 65.5344 44.4806C65.9263 44.8966 66.1396 45.4489 66.1287 46.0196C66.1425 46.5979 65.9292 47.1586 65.5344 47.5825C65.3545 47.7857 65.1327 47.9478 64.8841 48.0576C64.6356 48.1674 64.3662 48.2224 64.0943 48.2188C58.7093 48.2188 56.0181 45.3714 56.0207 39.6766V29.142H55.0913C54.8205 29.1438 54.5525 29.0875 54.3055 28.977C54.0584 28.8666 53.838 28.7045 53.6593 28.5018C53.2719 28.0783 53.0571 27.5259 53.0571 26.9528C53.0571 26.3797 53.2719 25.8273 53.6593 25.4038C53.8385 25.2017 54.059 25.0401 54.306 24.9297C54.5529 24.8192 54.8206 24.7626 55.0913 24.7636Z" fill="white"/>
<path d="M91.3664 15.8315H71.29V44.0231H91.3664V15.8315Z" fill="white"/>
<path d="M90.0185 13.9189H86.0575V3.5116H88.052V1.61864C88.0525 1.40594 88.0108 1.19524 87.9294 0.998626C87.848 0.802017 87.7285 0.62338 87.5776 0.472979C87.4268 0.322577 87.2476 0.203375 87.0504 0.122221C86.8532 0.0410665 86.6418 -0.000440893 86.4285 8.36447e-05H75.774C75.3357 -0.0042863 74.9132 0.162724 74.597 0.465298C74.2809 0.767873 74.0962 1.18192 74.0827 1.61864V3.51558H76.0771V13.9189H72.2238C71.7777 13.9137 71.3351 13.999 70.9231 14.1696C70.5111 14.3402 70.1381 14.5926 69.827 14.9114C69.5158 15.2301 69.2729 15.6087 69.113 16.0239C68.9532 16.4392 68.8797 16.8825 68.897 17.327V42.6433C68.897 44.5641 70.2852 46.131 72.2238 46.131H72.6945V46.7593C72.6945 47.2065 72.8727 47.6354 73.1899 47.9516C73.5071 48.2678 73.9372 48.4455 74.3858 48.4455C74.8344 48.4455 75.2646 48.2678 75.5818 47.9516C75.8989 47.6354 76.0771 47.2065 76.0771 46.7593V46.135H86.0495V46.7593C86.0495 47.2339 86.2386 47.6891 86.5753 48.0247C86.9119 48.3603 87.3685 48.5489 87.8445 48.5489C88.3206 48.5489 88.7772 48.3603 89.1138 48.0247C89.4504 47.6891 89.6396 47.2339 89.6396 46.7593V46.135H90.0185C90.9598 46.1426 91.8664 45.7813 92.5431 45.129C93.2198 44.4766 93.6125 43.5854 93.6365 42.6473V17.327C93.6285 15.4102 91.9452 13.9189 90.0185 13.9189ZM78.0796 3.57921H84.063V13.9189H78.0796V3.57921ZM90.8442 42.19C90.829 42.4853 90.7071 42.7651 90.5011 42.9778C90.295 43.1905 90.0188 43.3217 89.7233 43.3472H72.5708C71.9964 43.3472 71.6933 42.7587 71.6933 42.19V24.1353C71.6933 23.5666 71.9964 23.0655 72.5708 23.0655H89.7233C90.0108 23.071 90.2856 23.184 90.4933 23.3822C90.701 23.5804 90.8262 23.8492 90.8442 24.1353V42.19ZM90.8442 20.6795H71.6973V17.4463C71.6868 17.3468 71.6986 17.2462 71.7319 17.1517C71.7651 17.0573 71.819 16.9714 71.8896 16.9003C71.9602 16.8291 72.0458 16.7745 72.1401 16.7403C72.2345 16.7061 72.3353 16.6933 72.4352 16.7026H89.9188C90.0287 16.69 90.14 16.6992 90.2463 16.7299C90.3526 16.7605 90.4516 16.812 90.5378 16.8812C90.6239 16.9504 90.6954 17.036 90.748 17.133C90.8006 17.2301 90.8333 17.3366 90.8442 17.4463V20.6795Z" fill="#294733"/>
</svg>
