<svg width="227" height="195" viewBox="0 0 227 195" fill="none" xmlns="http://www.w3.org/2000/svg">
<path d="M157.548 116.111L165.604 90.0846L149.274 79.2061L145.849 82.1247" stroke="#43D954" stroke-width="5.2291" stroke-miterlimit="10"/>
<path d="M141.845 85.6462C140.663 84.392 140.759 82.4382 142.062 81.3045L142.207 81.1839C143.509 80.0502 145.535 80.1467 146.717 81.401C147.899 82.6552 147.803 84.609 146.5 85.7427L146.356 85.8633C145.053 87.0211 143.027 86.9005 141.845 85.6462Z" fill="#96FFA3"/>
<path d="M144.354 91.7727L141.242 94.4742L132.414 85.0429L135.526 82.3414C137.672 80.4599 140.784 80.2187 143.172 81.5213C143.775 81.8589 144.33 82.269 144.836 82.7997C146.067 84.1022 146.621 85.7424 146.525 87.3827C146.428 88.9988 145.705 90.5907 144.354 91.7727Z" fill="#5AED6C"/>
<path d="M141.531 88.782L138.42 91.4835L132.39 85.0673L135.501 82.3658C137.648 80.4843 140.76 80.2431 143.148 81.5457C143.558 82.4623 143.751 83.4271 143.678 84.3919C143.63 86.0081 142.882 87.6 141.531 88.782Z" fill="#96FFA3"/>
<path d="M141.411 94.4502C140.47 95.2944 137.696 93.8954 135.212 91.3145C132.727 88.7335 131.473 85.9837 132.414 85.1395C133.161 84.4641 135.043 85.2118 137.021 86.828C137.551 87.2621 138.082 87.7445 138.589 88.2752C139.192 88.9024 139.722 89.5295 140.181 90.1566C141.58 92.0622 142.11 93.7989 141.411 94.4502Z" fill="#56C664"/>
<path d="M140.181 90.1568C139.457 90.9528 138.251 91.1699 137.238 90.6392C136.104 90.0121 135.694 88.6372 136.345 87.5518C136.514 87.2623 136.755 87.0211 137.021 86.8281C137.551 87.2623 138.082 87.7447 138.589 88.2754C139.216 88.9025 139.746 89.5297 140.181 90.1568Z" fill="white"/>
<path d="M149.081 81.2803C150.187 81.2803 151.083 80.4163 151.083 79.3506C151.083 78.2848 150.187 77.4209 149.081 77.4209C147.975 77.4209 147.079 78.2848 147.079 79.3506C147.079 80.4163 147.975 81.2803 149.081 81.2803Z" fill="#96FFA3"/>
<path d="M165.677 119.416H144.909C144.909 117.148 146.766 115.291 149.033 115.291H161.552C163.82 115.291 165.677 117.124 165.677 119.416Z" fill="#96FFA3"/>
<path d="M152.916 114.254H149.178V115.388H152.916V114.254Z" fill="#37C848"/>
<path d="M165.459 93.0501C167.018 93.0501 168.282 91.8405 168.282 90.3485C168.282 88.8565 167.018 87.647 165.459 87.647C163.901 87.647 162.637 88.8565 162.637 90.3485C162.637 91.8405 163.901 93.0501 165.459 93.0501Z" fill="#96FFA3"/>
<path d="M177.472 113.36H158.417V106.775H177.472C178.268 106.775 178.919 107.426 178.919 108.222V111.889C178.919 112.709 178.268 113.36 177.472 113.36Z" fill="#4B9B88"/>
<path d="M170.525 113.36H151.47V106.775H170.525C171.321 106.775 171.973 107.426 171.973 108.222V111.889C171.997 112.709 171.345 113.36 170.525 113.36Z" fill="#4B9B88"/>
<path d="M169.585 112.468H151.47V107.451H169.585C170.284 107.451 170.839 108.005 170.839 108.705V111.238C170.839 111.913 170.284 112.468 169.585 112.468Z" fill="#E8EAEC"/>
<path d="M177.762 109.38H173.42V109.862H177.762V109.38Z" fill="white"/>
<path d="M177.762 110.393H173.42V110.875H177.762V110.393Z" fill="white"/>
<path d="M178.847 119.607H159.791V113.022H178.847C179.643 113.022 180.294 113.673 180.294 114.469V118.136C180.318 118.956 179.667 119.607 178.847 119.607Z" fill="#7BFFE0"/>
<path d="M171.924 119.607H152.869V113.022H171.924C172.72 113.022 173.371 113.674 173.371 114.47V118.136C173.371 118.956 172.72 119.607 171.924 119.607Z" fill="#7BFFE0"/>
<path d="M170.983 118.714H152.869V113.938H170.983C171.683 113.938 172.238 114.493 172.238 115.193V117.484C172.214 118.16 171.659 118.714 170.983 118.714Z" fill="#E8EAEC"/>
<path d="M179.595 115.096H174.288V117.436H179.595V115.096Z" fill="#E8EAEC"/>
<path d="M179.136 115.627H174.794V116.109H179.136V115.627Z" fill="white"/>
<path d="M179.136 116.399H174.794V116.881H179.136V116.399Z" fill="white"/>
<path d="M151.47 108.391H170.549" stroke="#968EAB" stroke-width="1.4382" stroke-miterlimit="10"/>
<path d="M151.47 109.5H170.549" stroke="#968EAB" stroke-width="1.4382" stroke-miterlimit="10"/>
<path d="M151.47 110.586H170.549" stroke="#968EAB" stroke-width="1.4382" stroke-miterlimit="10"/>
<path d="M151.47 111.695H170.549" stroke="#968EAB" stroke-width="1.4382" stroke-miterlimit="10"/>
<path d="M152.917 114.711H171.997" stroke="#968EAB" stroke-width="1.4382" stroke-miterlimit="10"/>
<path d="M152.917 115.796H171.997" stroke="#968EAB" stroke-width="1.4382" stroke-miterlimit="10"/>
<path d="M152.917 116.665H171.997" stroke="#968EAB" stroke-width="1.4382" stroke-miterlimit="10"/>
<path d="M152.917 117.75H171.997" stroke="#968EAB" stroke-width="1.4382" stroke-miterlimit="10"/>
<path d="M51.0781 124.867H45.5303V185H51.0781V124.867Z" fill="#46C9B7"/>
<path d="M103.348 142.331L70.2062 144.815L61.0161 98.1652L83.2798 98.0929C89.503 98.0688 94.9061 102.435 96.2086 108.537L103.348 142.331Z" fill="#4A9999"/>
<path d="M63.4765 142.644L57.977 101.807C57.7358 99.9982 59.0142 98.3097 60.8474 98.0444C62.6564 97.8031 64.3449 99.0816 64.6102 100.915L70.1098 141.752C70.351 143.561 69.0726 145.249 67.2394 145.514C65.4303 145.731 63.7419 144.453 63.4765 142.644Z" fill="#37AEAA"/>
<path d="M86.2467 148.215H82.3633V171.106H86.2467V148.215Z" fill="#3C7366"/>
<path d="M86.2467 149.567V154.753L82.3633 153.258V149.76C83.3281 149.688 85.2095 149.616 86.2467 149.567Z" fill="#38BE9E"/>
<path d="M93.2901 150.074H75.9472C74.9823 150.074 74.2104 149.302 74.2104 148.337C74.2104 147.372 74.9823 146.6 75.9472 146.6H93.2901C94.255 146.6 95.0268 147.372 95.0268 148.337C95.0268 149.302 94.255 150.074 93.2901 150.074Z" fill="#38BE9E"/>
<path d="M101.781 147.999H81.833C79.445 147.999 77.4912 146.045 77.4912 143.657C77.4912 141.269 79.445 139.315 81.833 139.315H101.781C104.169 139.315 106.123 141.269 106.123 143.657C106.123 146.045 104.169 147.999 101.781 147.999Z" fill="#4A9999"/>
<path d="M84.2691 148.12H68.3252C65.9372 148.12 63.9834 146.166 63.9834 143.778C63.9834 141.39 65.9372 139.436 68.3252 139.436H84.2691C86.6571 139.436 88.6109 141.39 88.6109 143.778C88.6109 146.166 86.6571 148.12 84.2691 148.12Z" fill="#37AEAA"/>
<path d="M100.743 178.753H98.3071C98.3071 175.859 95.9433 173.495 93.0488 173.495H75.344C72.4495 173.495 70.0856 175.859 70.0856 178.753H67.6494C67.6494 174.508 71.0987 171.059 75.344 171.059H93.0488C97.2941 171.059 100.743 174.508 100.743 178.753Z" fill="#38BE9E"/>
<path d="M87.1152 167.416H81.4468V171.107H87.1152V167.416Z" fill="#38BE9E"/>
<path d="M70.7609 181.575C71.018 180.486 70.3437 179.395 69.2546 179.138C68.1656 178.88 67.0743 179.555 66.8172 180.644C66.56 181.733 67.2344 182.824 68.3234 183.081C69.4124 183.338 70.5037 182.664 70.7609 181.575Z" fill="#38BE9E"/>
<path d="M71.7019 180.923H66.1782V180.32C66.1782 178.848 67.3601 177.667 68.8315 177.667H69.0486C70.52 177.667 71.7019 178.848 71.7019 180.32V180.923Z" fill="#3C7366"/>
<path d="M101.613 181.577C101.87 180.488 101.196 179.397 100.107 179.14C99.0177 178.882 97.9264 179.557 97.6692 180.646C97.4121 181.735 98.0864 182.826 99.1755 183.083C100.264 183.34 101.356 182.666 101.613 181.577Z" fill="#38BE9E"/>
<path d="M102.553 180.924H97.0288V180.321C97.0288 178.849 98.2107 177.667 99.6821 177.667H99.8992C101.371 177.667 102.553 178.849 102.553 180.321V180.924Z" fill="#3C7366"/>
<path d="M85.9815 171.806H82.7734V179.091H85.9815V171.806Z" fill="#38BE9E"/>
<path d="M86.4162 181.577C86.6733 180.488 85.9989 179.396 84.9099 179.139C83.8209 178.882 82.7296 179.556 82.4724 180.645C82.2153 181.734 82.8897 182.826 83.9787 183.083C85.0677 183.34 86.159 182.666 86.4162 181.577Z" fill="#38BE9E"/>
<path d="M87.3567 180.924H81.833V180.321C81.833 178.849 83.0149 177.667 84.4863 177.667H84.7034C86.1748 177.667 87.3567 178.849 87.3567 180.321V180.924Z" fill="#3C7366"/>
<path d="M108.366 178.777L122.814 178.246C123.683 178.222 124.358 177.498 124.31 176.63C124.286 175.979 123.851 175.4 123.2 175.207L115.964 172.988L108.173 173.47L108.366 178.777Z" fill="#37C848"/>
<path d="M123.128 178.608L108.511 179.26L108.462 178.222L124.117 177.523C124.141 178.102 123.707 178.584 123.128 178.608Z" fill="#3C7366"/>
<path d="M107.594 173.663C108.438 159.576 108.197 146.551 107.111 143.898C105.978 142.258 99.2238 138.229 92.5664 135.238L96.3052 126.893C100.985 128.991 112.153 134.394 115.047 139.315C116.253 141.389 117.435 145.466 116.856 159.842C116.567 167.368 116.181 173.277 116.181 173.277L107.594 173.663Z" fill="#96FFA3"/>
<path d="M97.1495 132.465C97.1495 134.032 96.5947 135.48 95.654 136.613C94.472 138.061 92.6389 138.977 90.6127 138.977H79.6618C79.3241 138.977 79.0105 138.953 78.6969 138.905C77.901 138.784 77.1291 138.519 76.4537 138.133C76.3331 138.061 76.2125 137.988 76.0919 137.916C74.3069 136.758 73.125 134.732 73.125 132.44L73.318 128.702L96.9324 128.75L97.1495 132.465Z" fill="#96FFA3"/>
<path d="M90.3472 176.292L103.855 181.406C104.651 181.72 105.567 181.31 105.857 180.489C106.098 179.862 105.905 179.163 105.399 178.753L99.5855 173.88L92.2286 171.299L90.3472 176.292Z" fill="#37C848"/>
<path d="M103.975 181.889L90.2505 176.799L90.6123 175.81L105.302 181.261C105.133 181.816 104.53 182.082 103.975 181.889Z" fill="#3C7366"/>
<path d="M101.467 159.359C101.274 166.813 100.623 173.639 100.598 173.928L95.7501 173.446L91.4807 173.036C92.7108 160.324 92.6626 147.516 91.3842 144.79C89.8887 143.391 84.0997 140.834 78.6966 138.905C77.9488 138.639 77.1769 138.374 76.4533 138.133C76.3327 138.084 76.188 138.036 76.0674 138.012L76.0915 137.916C76.0915 137.916 80.5539 130.076 89.9852 132.778C91.9631 133.357 93.6033 135.238 95.6536 136.613C96.7149 137.313 97.6315 138.06 98.2828 138.784C100.164 140.834 101.853 144.766 101.467 159.359Z" fill="#96FFA3"/>
<path d="M95.7505 173.47L91.4811 173.06C92.7112 160.348 92.663 147.54 91.3846 144.814C89.8891 143.415 84.1 140.858 78.6969 138.929C77.901 138.808 77.1291 138.543 76.4537 138.157C76.3331 138.108 76.1884 138.06 76.0678 138.036L76.0919 137.94C74.3069 136.782 73.125 134.756 73.125 132.464L73.318 128.991L77.0808 129.497C76.9844 129.763 76.4778 132.416 77.4185 134.032C77.6839 134.49 78.0457 134.852 78.6005 135.069C80.0718 135.624 85.692 136.999 90.1544 139.001C93.0489 140.303 95.461 141.847 95.9434 143.632C97.1254 147.757 95.9434 170.045 95.7505 173.47Z" fill="#00F57E"/>
<path d="M145.512 119.126H122.79C121.294 119.126 120.329 117.582 120.957 116.231L128.868 99.3223C129.568 97.8509 131.039 96.9102 132.655 96.9102H153.568C154.654 96.9102 155.377 98.0438 154.919 99.0087L145.512 119.126Z" fill="#7BFFE0"/>
<path d="M122.886 119.173H106.677C106.026 119.173 105.495 118.643 105.495 117.991C105.495 117.34 106.026 116.81 106.677 116.81H122.862C123.513 116.81 124.044 117.34 124.044 117.991C124.068 118.643 123.538 119.173 122.886 119.173Z" fill="#7BFFE0"/>
<path d="M117.073 117.582H114.757V118.282H117.073V117.582Z" fill="#0E254A"/>
<path d="M114.058 117.582H112.37V118.282H114.058V117.582Z" fill="#0E254A"/>
<path d="M145.174 119.125H122.404C121.584 119.125 121.053 118.281 121.391 117.533L129.93 99.3462C130.629 97.8748 132.101 96.9341 133.717 96.9341H154.63C155.715 96.9341 156.439 98.0678 155.98 99.0326L147.152 117.871C146.766 118.619 146.018 119.125 145.174 119.125Z" fill="#70CFB9"/>
<path d="M140.181 109.308C139.65 110.562 138.637 111.358 137.938 111.045C137.238 110.755 137.093 109.477 137.648 108.223C138.179 106.968 139.192 106.172 139.891 106.486C140.591 106.775 140.736 108.054 140.181 109.308Z" fill="white"/>
<path d="M90.2506 88.6844L88.4898 88.8292C86.8737 88.9498 85.1128 84.9457 84.9922 83.3296L84.3651 75.032C84.2445 73.4159 85.4747 71.9927 87.0908 71.8721L88.8516 71.7274C90.4677 71.6068 91.8908 72.837 92.0114 74.4531L92.6386 82.7507C92.7592 84.3668 91.8667 88.5638 90.2506 88.6844Z" fill="#F7AC92"/>
<path d="M103.3 63.213C103.3 63.406 103.3 63.599 103.3 63.7678C103.252 64.6844 103.131 65.5769 102.914 66.4211C101.998 70.0634 99.489 73.1026 96.1603 74.7187C94.5201 75.5147 92.6627 75.973 90.6848 75.9971C87.5009 76.0213 84.8717 77.4685 82.6284 75.5388C81.9048 74.9117 81.2535 74.2363 80.6987 73.4644C80.4817 73.175 80.2646 72.8614 80.0716 72.5478C78.8897 70.6182 77.9007 65.7699 77.9007 63.3578C77.8525 56.5315 83.2073 50.9355 89.9371 50.5736C90.13 50.5736 90.323 50.5495 90.516 50.5495C94.7854 50.5254 98.5965 52.5998 100.912 55.832C101.587 56.7727 102.142 57.8341 102.552 58.9436C103.035 60.3185 103.276 61.7416 103.3 63.213Z" fill="#0C1640"/>
<path d="M86.8254 66.9525C86.8254 67.2178 86.8012 67.4832 86.7048 67.7002C86.6083 67.9897 86.4394 68.3033 86.2223 68.5204C85.8364 68.9304 85.3057 69.2199 84.7027 69.244L83.4243 69.2681L82.4353 69.2922L82.363 66.3736L82.3389 65.8429V65.4329V65.0469V64.9505L84.6062 64.9022C85.1851 64.8781 85.7158 65.0952 86.1017 65.457C86.3429 65.6741 86.5359 65.9394 86.6565 66.253C86.753 66.4218 86.8012 66.663 86.8254 66.9525Z" fill="#FFC9C0"/>
<path d="M102.263 64.5161L102.383 69.2438L102.407 69.9433C102.431 70.4016 102.407 70.884 102.335 71.3182C101.853 75.5394 98.6444 78.9887 94.4474 79.857C94.3268 79.8811 94.182 79.9053 94.0614 79.9294C93.6031 80.0018 93.1448 80.05 92.6865 80.0741C92.2282 80.0982 91.7941 80.0741 91.3358 80.0259C90.4674 79.9294 89.6473 79.7364 88.8513 79.4229C85.4503 78.1203 82.9176 75.0087 82.5075 71.27C82.4834 71.1494 82.4834 71.0529 82.4834 70.9323C82.4593 70.8117 82.4593 70.6669 82.4593 70.5222V70.4499V70.1363L82.4351 69.292L82.3628 66.3975V66.3734L82.3387 65.8427V65.4327V65.0468V64.9503C82.3145 64.2749 82.411 63.6236 82.5557 62.9965C82.6522 62.5623 82.7728 62.1281 82.9417 61.6939C82.9658 61.6216 82.9899 61.5733 83.014 61.501C83.1346 61.1633 83.2794 60.8256 83.4482 60.4879C84.0754 59.2336 84.9437 58.1482 86.0292 57.2557C86.2462 57.0868 86.4633 56.918 86.6804 56.7491C88.2724 55.6396 90.1538 54.9883 92.2282 54.9401C94.978 54.8677 97.5349 55.9049 99.3922 57.6657C100.381 58.6065 101.081 59.716 101.611 60.9944C101.828 61.4769 101.973 61.9834 102.07 62.4899C102.19 63.1171 102.238 63.7925 102.263 64.5161Z" fill="#FFCCB4"/>
<path d="M83.3519 66.3257L83.4243 69.2684L83.4725 71.2464L82.7006 71.2705C82.6524 71.2705 82.58 71.2705 82.5318 71.2705C81.2292 71.2222 80.1679 70.1127 80.1197 68.8101C80.0956 68.1348 80.3609 67.5559 80.8192 67.0976C81.2051 66.6875 81.7599 66.4463 82.3629 66.398C82.4353 66.3739 82.4835 66.3739 82.5559 66.3739L83.3519 66.3257Z" fill="#FFC9C0"/>
<path d="M92.4219 80.0498C92.4219 80.0498 90.661 80.3151 88.8761 79.4226C85.475 78.1201 82.9423 75.0085 82.5323 71.2698C81.2297 71.2215 80.1684 70.1119 80.1202 68.8094C80.096 68.134 80.3614 67.5551 80.8197 67.0968C81.2056 66.6868 81.7604 66.4456 82.3634 66.3973L82.3393 65.8667V65.4566V65.0707V64.9742C82.3152 64.2988 82.4117 63.6475 82.5564 63.0204C83.8348 62.1762 85.1856 61.9349 86.1022 63.551C86.1022 63.551 86.078 64.3229 86.1022 65.4807C86.1263 66.3491 86.1504 67.4345 86.2228 68.5923C86.3916 70.9562 86.7293 73.5854 87.4529 75.1532C89.0208 78.4096 92.4219 80.0498 92.4219 80.0498Z" fill="#F7AC92"/>
<path d="M99.7065 58.7747C99.7065 58.7747 94.9546 62.224 89.2862 63.0923C85.5957 63.6471 83.7625 69.6774 83.7866 69.3397C83.8107 68.9779 81.8811 65.818 81.9052 65.4562C81.9293 65.0944 81.0127 52.7444 91.3847 53.9023C101.757 55.0601 102.504 61.9104 102.504 61.9104L99.7065 58.7747Z" fill="#0C1640"/>
<path d="M96.1366 51.9487L105.423 56.7006C105.423 56.7006 102.939 58.9197 100.527 58.0755C94.6893 56.0252 96.1366 51.9487 96.1366 51.9487Z" fill="#0C1640"/>
<path d="M74.2589 87.9368C74.1624 89.5046 74.0418 90.8313 73.9212 92.0856C73.8488 92.9057 73.7764 93.7017 73.7041 94.4736C73.5111 96.7168 73.3664 99.0083 73.4146 102.192L73.7041 128.749L98.621 128.605C98.621 128.605 98.6693 127.712 98.7658 126.241C99.2241 118.739 100.285 96.0655 99.9959 92.4474C99.9477 91.8926 100.068 90.7107 99.9236 90.18C99.7306 89.4805 99.5617 89.1911 99.2241 88.5398C98.3075 86.6584 96.9084 85.0905 95.4853 84.0051C95.0994 83.7156 94.7375 83.4744 94.3516 83.2573C94.1828 83.1608 94.0139 83.0643 93.8451 82.992C93.821 82.992 93.8451 81.4 93.8451 81.4L91.7224 81.5447L89.1897 87.4061L85.9816 81.7136L84.8721 81.4724L83.3042 81.207L83.1595 82.0513C83.0871 82.0513 82.9424 82.0754 82.7012 82.1477C81.2539 82.5096 76.9604 83.8603 75.1031 86.0071C74.6448 86.6101 74.3071 87.2614 74.2589 87.9368Z" fill="#37C848"/>
<path d="M120.064 46.4246C120.016 46.4487 115.988 46.6658 115.915 47.4377C115.795 48.7402 115.843 50.2598 116.06 51.6106L116.518 54.8669C116.518 54.8669 119.557 55.4941 119.726 55.4941C122.283 55.3252 121.535 49.295 121.535 49.295C121.535 49.295 121.318 45.7733 120.064 46.4246Z" fill="#F7AC92"/>
<path d="M117.7 49.0299L116.832 43.072C116.759 42.6378 116.373 42.3243 115.939 42.3966C115.505 42.469 115.216 42.8791 115.288 43.3132L116.156 49.2711C116.229 49.7053 116.615 50.0189 117.049 49.9465C117.483 49.8741 117.772 49.4641 117.7 49.0299Z" fill="#F7AC92"/>
<path d="M119.365 47.4859L118.665 42.6858C118.593 42.2516 118.207 41.938 117.773 42.0104C117.339 42.0828 117.049 42.4928 117.121 42.927L117.821 47.7271C117.893 48.1612 118.279 48.4748 118.713 48.4025C119.123 48.3301 119.413 47.92 119.365 47.4859Z" fill="#F7AC92"/>
<path d="M121.536 49.5363L120.715 43.8679C120.643 43.4337 120.257 43.1202 119.823 43.1925C119.389 43.2649 119.099 43.675 119.172 44.1091L119.992 49.7776C120.064 50.2117 120.45 50.5253 120.884 50.4529C121.294 50.3806 121.584 49.9705 121.536 49.5363Z" fill="#F7AC92"/>
<path d="M117.821 52.8889L115.119 47.534C114.926 47.1481 114.444 46.9792 114.058 47.1963C113.672 47.3893 113.527 47.8717 113.72 48.2818L116.422 53.6366C116.615 54.0226 117.097 54.1914 117.483 53.9743C117.869 53.7572 118.014 53.2748 117.821 52.8889Z" fill="#F7AC92"/>
<path d="M93.4829 85.4763L97.3423 91.8925L97.5835 92.3025C97.7282 92.2302 98.5724 91.6995 99.8991 90.8311C103.927 88.1296 112.177 82.1476 116.229 75.7555C118.327 72.4268 119.63 68.3987 120.45 64.7564V64.7323C121.053 62.0548 121.367 59.5704 121.56 57.7131C121.753 55.8316 121.777 54.5773 121.801 54.4326L121.101 54.4085L116.422 54.2155L115.747 54.1914C115.747 54.2155 115.602 55.3733 115.24 57.1342C114.516 60.7523 112.949 66.9755 110.102 71.4861C108.366 74.26 104.458 77.5405 100.02 80.9415C98.2347 82.3164 96.5945 83.4501 95.4126 84.2461C94.2307 85.018 93.507 85.4522 93.4829 85.4763Z" fill="#37C848"/>
<path d="M57.543 57.6654C57.6154 57.6895 61.7159 56.9418 61.9813 57.7137C62.4154 58.9921 62.7049 60.4876 62.8014 61.8866L62.9702 64.5399C62.9702 64.5399 60.2687 65.9148 60.0757 65.9389C57.4465 66.3731 56.8194 60.1499 56.8194 60.1499C56.8194 60.1499 56.1199 57.3277 57.543 57.6654Z" fill="#F7AC92"/>
<path d="M60.5827 60.2462L59.9796 53.0581C59.9555 52.9134 60.0761 52.7687 60.245 52.7446L61.3063 52.6481C61.451 52.624 61.5957 52.7446 61.6199 52.9134L62.2229 60.1015C62.247 60.2462 62.1264 60.3909 61.9576 60.415L60.8962 60.5115C60.7274 60.5115 60.6068 60.3909 60.5827 60.2462Z" fill="#F7AC92"/>
<path d="M58.9662 59.1367L57.6878 53.2753C57.6637 53.1305 57.7601 52.9617 57.9049 52.9376L58.9421 52.7205C59.0868 52.6964 59.2556 52.7929 59.2798 52.9376L60.5582 58.799C60.5823 58.9437 60.4858 59.1125 60.3411 59.1367L59.3039 59.3538C59.135 59.402 58.9903 59.3055 58.9662 59.1367Z" fill="#F7AC92"/>
<path d="M57.3021 61.3555L55.7101 54.6498C55.686 54.5051 55.7583 54.3363 55.9272 54.3121L56.9644 54.0709C57.1091 54.0468 57.2779 54.1192 57.3021 54.288L58.8941 60.9936C58.9182 61.1384 58.8458 61.3072 58.677 61.3313L57.6398 61.5725C57.4709 61.6208 57.3262 61.5243 57.3021 61.3555Z" fill="#F7AC92"/>
<path d="M61.1853 64.0811L62.9462 57.086C62.9944 56.9413 63.1391 56.8448 63.2839 56.8689L64.3211 57.1343C64.4658 57.1825 64.5623 57.3272 64.5381 57.472L62.7773 64.467C62.7291 64.6118 62.5844 64.7082 62.4396 64.6841L61.4024 64.4188C61.2577 64.3705 61.1612 64.2258 61.1853 64.0811Z" fill="#F7AC92"/>
<path d="M54.4071 77.0343C54.3106 80.0494 54.6001 83.2334 55.6373 86.1761C57.8805 92.4476 63.7178 94.2808 68.1319 94.715C68.9762 94.7873 69.7721 94.8356 70.4716 94.8356C71.5571 94.8356 72.5943 94.7873 73.6074 94.6908C74.4034 94.6185 75.127 94.522 75.8265 94.4255C78.2868 94.0637 79.9994 93.5813 80.12 93.533L77.8768 85.6696C77.8285 85.6696 76.6949 85.9832 75.0546 86.2485C71.2435 86.8515 64.7309 87.2857 63.356 83.4264C61.5469 78.3127 62.1982 71.583 62.7771 67.8442C63.0424 66.1557 63.3077 65.0944 63.3077 65.0703L62.367 64.8532L57.6393 63.7437L57.0604 63.623C57.0122 63.7678 56.6021 64.9015 56.1197 66.6382C55.4202 69.1226 54.5518 72.9337 54.4071 77.0343Z" fill="#37C848"/>
<path d="M86.1745 81.4728L85.2097 84.8497L82.6528 82.4135L83.087 81.1592L86.1745 81.4728Z" fill="white"/>
<path d="M91.7466 81.5695L91.8672 85.0188L94.3758 83.4268L93.8692 81.4248L91.7466 81.5695Z" fill="white"/>
<path d="M63.091 67.8927L56.0718 66.6142L57.0607 63.2373L63.5975 64.6604L63.091 67.8927Z" fill="white"/>
<path d="M57.0606 65.6492C57.0365 65.9145 57.2295 66.1799 57.4707 66.204C57.736 66.2281 57.9531 66.0351 58.0014 65.7457C58.0255 65.4804 57.8325 65.215 57.5913 65.1909C57.326 65.1909 57.0848 65.3839 57.0606 65.6492Z" fill="#0C1640"/>
<path d="M114.902 57.1103L115.24 57.1345L121.56 57.7134L121.994 57.7616L121.97 54.2641L121.198 54.2158L117.411 53.9987L116.736 53.9505L116.374 53.9264L115.288 53.854L114.902 57.1103Z" fill="white"/>
<path d="M121.319 56.5795C121.27 56.8448 121.029 57.0378 120.764 56.9895C120.498 56.9413 120.33 56.676 120.378 56.4106C120.426 56.1453 120.667 55.9523 120.933 56.0006C121.198 56.0488 121.367 56.3141 121.319 56.5795Z" fill="#0C1640"/>
<path opacity="0.46" d="M54.4071 77.0347C54.3106 80.0498 54.6001 83.2338 55.6373 86.1765C57.8805 92.448 63.7178 94.2812 68.1319 94.7153C68.9762 94.7877 69.7721 94.8359 70.4717 94.8359C71.5571 94.8359 72.5943 94.7877 73.6074 94.6912C73.4144 96.9345 73.2697 99.2259 73.3179 102.41L73.5591 126.941L76.0436 127.037L75.8265 94.4259L75.8024 92.1344C75.8024 92.1344 75.0305 92.2309 73.8245 92.3032C70.8576 92.4721 65.165 92.3997 61.5951 90.0117C57.6152 87.3343 54.986 81.497 54.4071 77.0347Z" fill="#27A936"/>
<path d="M54.3105 74.9601C54.4553 73.8023 54.4794 73.3922 54.407 73.9229C54.3347 74.2606 54.3105 74.5983 54.3105 74.9601Z" fill="#2E3768"/>
<path opacity="0.46" d="M99.8994 90.8077C103.928 88.1061 112.177 82.1241 116.229 75.7321C118.328 72.4034 119.63 68.3752 120.45 64.7329C119.582 67.6033 118.255 70.9561 116.181 73.9712C112.298 79.5914 104.675 85.4046 100.744 88.0338C99.61 88.8056 100.044 91.3383 99.8994 90.8077Z" fill="#27A936"/>
<path d="M78.1421 124.867H72.5942V185H78.1421V124.867Z" fill="#70CFB9"/>
<path d="M149.154 124.867H143.606V185H149.154V124.867Z" fill="#70CFB9"/>
<path d="M176.193 124.867H170.646V185H176.193V124.867Z" fill="#70CFB9"/>
<path d="M143.606 124.867H149.154V144.694L143.606 147.468V124.867Z" fill="#46C9B7"/>
<path d="M176.217 124.867V131.283L170.646 134.033V124.867H176.217Z" fill="#46C9B7"/>
<path d="M78.19 124.746V131.235L72.5698 134.033V124.746H78.19Z" fill="#46C9B7"/>
<path d="M40.3203 126.652H164.905V121.611C164.905 120.26 163.82 119.174 162.469 119.174H42.7565C41.4058 119.174 40.3203 120.26 40.3203 121.611V126.652Z" fill="#46C9B7"/>
<path d="M51.6812 136.035H13.4736V184.976H51.6812V136.035Z" fill="#38BE9E"/>
<path d="M68.3004 136.034H27.6807V184.976H68.3004V136.034Z" fill="#38BE9E"/>
<path d="M65.9123 139.628H30.2856V152.581H65.9123V139.628Z" fill="#70CFB9"/>
<path d="M65.9123 154.825H30.2856V167.778H65.9123V154.825Z" fill="#70CFB9"/>
<path d="M65.9123 170.021H30.2856V182.974H65.9123V170.021Z" fill="#70CFB9"/>
<path d="M54.3342 146.791H45.4095C45.0235 146.791 44.71 146.478 44.71 146.092C44.71 145.706 45.0235 145.392 45.4095 145.392H54.3342C54.7202 145.392 55.0337 145.706 55.0337 146.092C55.0096 146.478 54.696 146.791 54.3342 146.791Z" fill="white"/>
<path d="M54.6719 161.891H45.7713C45.3853 161.891 45.0718 161.578 45.0718 161.192C45.0718 160.806 45.3853 160.492 45.7713 160.492H54.6719C55.0579 160.492 55.3714 160.806 55.3714 161.192C55.3714 161.578 55.0579 161.891 54.6719 161.891Z" fill="white"/>
<path d="M54.6719 176.991H45.7713C45.3853 176.991 45.0718 176.678 45.0718 176.292C45.0718 175.906 45.3853 175.592 45.7713 175.592H54.6719C55.0579 175.592 55.3714 175.906 55.3714 176.292C55.3714 176.678 55.0579 176.991 54.6719 176.991Z" fill="white"/>
<path d="M152.917 114.712H171.997" stroke="#968EAB" stroke-width="1.4382" stroke-miterlimit="10"/>
<path d="M152.917 115.797H171.997" stroke="#968EAB" stroke-width="1.4382" stroke-miterlimit="10"/>
<path d="M152.917 116.666H171.997" stroke="#968EAB" stroke-width="1.4382" stroke-miterlimit="10"/>
<path d="M152.917 117.751H171.997" stroke="#968EAB" stroke-width="1.4382" stroke-miterlimit="10"/>
<path d="M175.063 97.0407L173.923 96.8389L171.14 112.563L172.28 112.764L175.063 97.0407Z" fill="#4257A4"/>
<path d="M175.462 96.6949L173.704 96.3838L172.867 101.11L174.625 101.422L175.462 96.6949Z" fill="#4257A4"/>
<path d="M170.38 114.734L169.223 114.638L170.573 98.7421L171.273 97.729L171.731 98.8386L170.38 114.734Z" fill="#65354D"/>
<path d="M168.788 115.554L167.655 115.771L164.591 100.117L165.001 98.9351L165.725 99.8999L168.788 115.554Z" fill="#122F51"/>
<path d="M171.345 119.197H166.4L164.784 106.123H172.961L171.345 119.197Z" fill="#5AED6C"/>
<path d="M173.203 119.197H168.258L167.534 106.123H174.819L173.203 119.197Z" fill="#96FFA3"/>
<path d="M67.8418 126.65H185.504V121.609C185.504 120.258 184.418 119.173 183.068 119.173H70.278C68.9272 119.173 67.8418 120.258 67.8418 121.609V126.65Z" fill="#37AEAA"/>
<path d="M187.235 186.731C187.235 191.064 145.288 194.46 93.6173 194.46C41.9463 194.46 0 190.947 0 186.731C0 182.516 41.9463 179.003 93.6173 179.003C145.433 178.886 187.235 182.399 187.235 186.731Z" fill="#37C848" fill-opacity="0.16"/>
<path d="M13.5199 93.42L15.7599 98.46C15.8999 98.6 16.04 98.74 16.18 98.88L21.2199 101.12C21.7799 101.4 21.7799 102.24 21.2199 102.52L16.18 104.76C16.04 104.9 15.8999 105.04 15.7599 105.18L13.5199 110.22C13.2399 110.78 12.4 110.78 12.12 110.22L9.88 105.18C9.74 105.04 9.59993 104.9 9.45994 104.76L4.42 102.52C3.86 102.24 3.86 101.4 4.42 101.12L9.45994 98.88C9.59993 98.74 9.74 98.6 9.88 98.46L12.12 93.42C12.4 92.86 13.2399 92.86 13.5199 93.42Z" fill="#38BE9E"/>
<path d="M160.016 43.3095L161.667 47.0238C161.77 47.127 161.873 47.2302 161.976 47.3333L165.69 48.9841C166.103 49.1905 166.103 49.8095 165.69 50.0159L161.976 51.6667C161.873 51.7698 161.77 51.873 161.667 51.9762L160.016 55.6905C159.81 56.1032 159.19 56.1032 158.984 55.6905L157.333 51.9762C157.23 51.873 157.127 51.7698 157.024 51.6667L153.31 50.0159C152.897 49.8095 152.897 49.1905 153.31 48.9841L157.024 47.3333C157.127 47.2302 157.23 47.127 157.333 47.0238L158.984 43.3095C159.19 42.8968 159.81 42.8968 160.016 43.3095Z" fill="#38BE9E"/>
<path d="M219.653 97.336L221.445 101.368C221.445 101.517 221.595 101.667 221.744 101.667L225.776 103.459C226.224 103.608 226.224 104.355 225.776 104.653L221.744 106.445C221.595 106.445 221.445 106.595 221.445 106.744L219.653 110.776C219.504 111.224 218.757 111.224 218.459 110.776L216.667 106.744C216.667 106.595 216.517 106.445 216.368 106.445L212.336 104.653C211.888 104.504 211.888 103.757 212.336 103.459L216.368 101.667C216.517 101.667 216.667 101.517 216.667 101.368L218.459 97.336C218.757 96.888 219.355 96.888 219.653 97.336Z" fill="#7BFFE0"/>
<path d="M40.5816 0.323998L42.5839 4.93197C42.5839 5.07597 42.7269 5.21998 42.87 5.21998L47.4468 7.23596C48.0189 7.52396 48.0189 8.24395 47.4468 8.53195L42.87 10.5479C42.7269 10.5479 42.5839 10.6919 42.5839 10.8359L40.5816 15.4439C40.2955 16.0199 39.5804 16.0199 39.2943 15.4439L37.2919 10.8359C37.2919 10.6919 37.149 10.5479 37.0059 10.5479L32.4291 8.53195C31.857 8.24395 31.857 7.52396 32.4291 7.23596L37.0059 5.21998C37.149 5.21998 37.2919 5.07597 37.2919 4.93197L39.2943 0.323998C39.5804 -0.107999 40.4386 -0.107999 40.5816 0.323998Z" fill="#37C848"/>
</svg>
