<svg width="218" height="223" viewBox="0 0 218 223" fill="none" xmlns="http://www.w3.org/2000/svg">
<path d="M214.235 214.731C214.235 219.064 172.288 222.46 120.617 222.46C68.9463 222.46 27 218.947 27 214.731C27 210.516 68.9463 207.003 120.617 207.003C172.433 206.886 214.235 210.399 214.235 214.731Z" fill="#37C848" fill-opacity="0.16"/>
<g opacity="0.5">
<path d="M68.5986 102.172H108.415V120.438H68.5986V102.172Z" fill="#3C7366"/>
<path d="M43.1893 74.9653H115.342V120.438H102.158C102.182 120.199 102.182 119.983 102.182 119.743C102.182 113.655 97.2441 108.717 91.1555 108.717C85.0668 108.717 80.1288 113.655 80.1288 119.743C80.1288 119.983 80.1288 120.223 80.1527 120.438H43.2133V74.9653H43.1893Z" fill="#70CFB9"/>
<path d="M7.06491 102.172H46.8809V120.438H7.06491V102.172Z" fill="#3C7366"/>
<path d="M30.5325 120.438C30.149 114.805 25.4506 110.371 19.7216 110.371C14.9034 110.371 10.8283 113.511 9.414 117.85H1.88707V103.419C1.98296 99.6315 5.48273 98.385 5.48273 98.385L14.1123 96.5392L21.4714 74.9893H48.7266V120.438H30.5325Z" fill="#70CFB9"/>
<path d="M19.6494 94.1425L24.6834 79.4722H38.7544V94.1425H19.6494Z" fill="#A8E0FB"/>
<path d="M29.4536 100.255C29.4536 99.7513 29.909 99.3438 30.4604 99.3438H34.1519C34.7032 99.3438 35.1587 99.7513 35.1587 100.255C35.1587 100.758 34.7032 101.166 34.1519 101.166H30.4604C29.909 101.166 29.4536 100.758 29.4536 100.255Z" fill="#96FFA3"/>
<path d="M21.4237 75.0133H115.318V71.6094H26.1699C26.1939 71.6094 22.8619 72.2566 21.4237 75.0133Z" fill="#38BE9E"/>
<path d="M91.1313 130.746C85.849 130.746 81.5669 126.464 81.5669 121.182C81.5669 115.899 85.849 111.617 91.1313 111.617C96.4136 111.617 100.696 115.899 100.696 121.182C100.696 126.464 96.4136 130.746 91.1313 130.746Z" fill="#4B9B88"/>
<path d="M91.1312 107.949C98.4424 107.949 104.363 113.87 104.363 121.181C104.363 121.421 104.363 121.661 104.339 121.876H102.134C102.158 121.637 102.158 121.421 102.158 121.181C102.158 115.093 97.2199 110.155 91.1312 110.155C85.0426 110.155 80.1046 115.093 80.1046 121.181C80.1046 121.421 80.1046 121.661 80.1285 121.876H77.9232C77.8992 121.637 77.8992 121.397 77.8992 121.181C77.8992 113.87 83.8201 107.949 91.1312 107.949Z" fill="#38BE9E"/>
<path d="M91.1315 127.582C87.5967 127.582 84.7312 124.716 84.7312 121.182C84.7312 117.647 87.5967 114.781 91.1315 114.781C94.6662 114.781 97.5317 117.647 97.5317 121.182C97.5317 124.716 94.6662 127.582 91.1315 127.582Z" fill="#70CFB9"/>
<path d="M91.1314 126.815C88.0203 126.815 85.4982 124.293 85.4982 121.182C85.4982 118.07 88.0203 115.548 91.1314 115.548C94.2426 115.548 96.7646 118.07 96.7646 121.182C96.7646 124.293 94.2426 126.815 91.1314 126.815Z" fill="#7BFFE0"/>
<path d="M91.1316 124.657C89.212 124.657 87.6558 123.101 87.6558 121.181C87.6558 119.262 89.212 117.706 91.1316 117.706C93.0513 117.706 94.6074 119.262 94.6074 121.181C94.6074 123.101 93.0513 124.657 91.1316 124.657Z" fill="#37C848"/>
<path d="M91.1309 117.322C90.8529 117.322 90.6275 117.096 90.6275 116.818C90.6275 116.54 90.8529 116.315 91.1309 116.315C91.4089 116.315 91.6343 116.54 91.6343 116.818C91.6343 117.096 91.4089 117.322 91.1309 117.322Z" fill="#3C7366"/>
<path d="M91.1314 126.023C90.8534 126.023 90.628 125.798 90.628 125.52C90.628 125.242 90.8534 125.017 91.1314 125.017C91.4094 125.017 91.6348 125.242 91.6348 125.52C91.6348 125.798 91.4094 126.023 91.1314 126.023Z" fill="#3C7366"/>
<path d="M92.8809 117.154C93.0247 116.914 93.3124 116.842 93.5521 116.962C93.7918 117.106 93.8637 117.394 93.7438 117.633C93.6 117.873 93.3124 117.945 93.0727 117.825C92.8329 117.681 92.7371 117.394 92.8809 117.154Z" fill="#3C7366"/>
<path d="M88.5186 124.705C88.6624 124.465 88.9501 124.393 89.1898 124.513C89.4295 124.657 89.5014 124.944 89.3815 125.184C89.2377 125.424 88.9501 125.496 88.7103 125.376C88.4706 125.232 88.3987 124.944 88.5186 124.705Z" fill="#3C7366"/>
<path d="M94.6548 118.568C94.8945 118.424 95.1822 118.52 95.326 118.76C95.4698 119 95.3739 119.287 95.1342 119.431C94.8945 119.575 94.6068 119.479 94.463 119.239C94.3432 119 94.4151 118.712 94.6548 118.568Z" fill="#3C7366"/>
<path d="M87.104 122.931C87.3437 122.787 87.6314 122.883 87.7752 123.123C87.919 123.362 87.8231 123.65 87.5834 123.794C87.3437 123.938 87.0561 123.842 86.9122 123.602C86.7924 123.362 86.8883 123.051 87.104 122.931Z" fill="#3C7366"/>
<path d="M95.4937 121.685C95.2157 121.685 94.9903 121.46 94.9903 121.182C94.9903 120.904 95.2157 120.678 95.4937 120.678C95.7717 120.678 95.9971 120.904 95.9971 121.182C95.9971 121.46 95.7717 121.685 95.4937 121.685Z" fill="#3C7366"/>
<path d="M86.7686 121.685C86.4906 121.685 86.2652 121.459 86.2652 121.181C86.2652 120.903 86.4906 120.678 86.7686 120.678C87.0466 120.678 87.272 120.903 87.272 121.181C87.272 121.459 87.0466 121.685 86.7686 121.685Z" fill="#3C7366"/>
<path d="M95.158 122.931C95.3977 123.075 95.4697 123.362 95.3498 123.602C95.206 123.842 94.9183 123.914 94.6786 123.794C94.4389 123.65 94.367 123.362 94.4868 123.123C94.6067 122.883 94.9183 122.787 95.158 122.931Z" fill="#3C7366"/>
<path d="M87.6073 118.569C87.847 118.712 87.9189 119 87.799 119.24C87.6552 119.479 87.3675 119.551 87.1278 119.432C86.8881 119.288 86.8162 119 86.9361 118.76C87.0799 118.521 87.3675 118.425 87.6073 118.569Z" fill="#3C7366"/>
<path d="M93.7439 124.705C93.8878 124.944 93.7919 125.232 93.5522 125.376C93.3125 125.52 93.0248 125.424 92.881 125.184C92.7372 124.944 92.833 124.657 93.0728 124.513C93.2885 124.393 93.6001 124.465 93.7439 124.705Z" fill="#3C7366"/>
<path d="M89.3807 117.154C89.5245 117.394 89.4286 117.681 89.1889 117.825C88.9492 117.969 88.6615 117.873 88.5177 117.633C88.3739 117.394 88.4698 117.106 88.7095 116.962C88.9492 116.842 89.2368 116.914 89.3807 117.154Z" fill="#3C7366"/>
<path d="M19.6973 130.746C14.415 130.746 10.1328 126.464 10.1328 121.182C10.1328 115.899 14.415 111.617 19.6973 111.617C24.9796 111.617 29.2617 115.899 29.2617 121.182C29.2617 126.464 24.9796 130.746 19.6973 130.746Z" fill="#4B9B88"/>
<path d="M19.698 107.853C27.0571 107.853 33.002 113.822 33.002 121.157C33.002 121.397 33.002 121.636 32.978 121.852H30.5329C30.5569 121.612 30.5569 121.397 30.5569 121.157C30.5569 115.164 25.6908 110.298 19.698 110.298C14.8798 110.298 10.8047 113.438 9.39044 117.777H6.80157C8.28777 112.096 13.4895 107.853 19.698 107.853Z" fill="#38BE9E"/>
<path d="M19.6974 127.582C16.1626 127.582 13.2971 124.716 13.2971 121.182C13.2971 117.647 16.1626 114.781 19.6974 114.781C23.2322 114.781 26.0977 117.647 26.0977 121.182C26.0977 124.716 23.2322 127.582 19.6974 127.582Z" fill="#70CFB9"/>
<path d="M19.6974 126.815C16.5862 126.815 14.0642 124.293 14.0642 121.182C14.0642 118.07 16.5862 115.548 19.6974 115.548C22.8085 115.548 25.3306 118.07 25.3306 121.182C25.3306 124.293 22.8085 126.815 19.6974 126.815Z" fill="#7BFFE0"/>
<path d="M19.6975 124.657C17.7779 124.657 16.2217 123.101 16.2217 121.181C16.2217 119.262 17.7779 117.706 19.6975 117.706C21.6172 117.706 23.1733 119.262 23.1733 121.181C23.1733 123.101 21.6172 124.657 19.6975 124.657Z" fill="#37C848"/>
<path d="M19.6978 117.322C19.4198 117.322 19.1944 117.096 19.1944 116.818C19.1944 116.54 19.4198 116.315 19.6978 116.315C19.9758 116.315 20.2012 116.54 20.2012 116.818C20.2012 117.096 19.9758 117.322 19.6978 117.322Z" fill="#3C7366"/>
<path d="M19.6978 126.023C19.4198 126.023 19.1944 125.798 19.1944 125.52C19.1944 125.242 19.4198 125.017 19.6978 125.017C19.9758 125.017 20.2012 125.242 20.2012 125.52C20.2012 125.798 19.9758 126.023 19.6978 126.023Z" fill="#3C7366"/>
<path d="M21.4478 117.154C21.5916 116.914 21.8793 116.842 22.119 116.962C22.3587 117.106 22.4306 117.394 22.3107 117.633C22.1669 117.873 21.8793 117.945 21.6396 117.825C21.3759 117.681 21.304 117.394 21.4478 117.154Z" fill="#3C7366"/>
<path d="M17.0855 124.705C17.2293 124.465 17.517 124.393 17.7567 124.513C17.9964 124.657 18.0683 124.944 17.9484 125.184C17.8046 125.424 17.517 125.496 17.2772 125.376C17.0375 125.232 16.9417 124.944 17.0855 124.705Z" fill="#3C7366"/>
<path d="M23.2212 118.568C23.4609 118.424 23.7486 118.52 23.8924 118.76C24.0362 119 23.9403 119.287 23.7006 119.431C23.4609 119.575 23.1733 119.479 23.0294 119.239C22.9096 119 22.9815 118.712 23.2212 118.568Z" fill="#3C7366"/>
<path d="M15.6704 122.931C15.9101 122.787 16.1978 122.883 16.3416 123.123C16.4854 123.362 16.3895 123.65 16.1498 123.794C15.9101 123.938 15.6225 123.842 15.4786 123.602C15.3588 123.362 15.4307 123.051 15.6704 122.931Z" fill="#3C7366"/>
<path d="M23.8463 121.636C23.5897 121.529 23.4684 121.234 23.5753 120.977C23.6823 120.721 23.977 120.599 24.2336 120.706C24.4902 120.813 24.6115 121.108 24.5046 121.365C24.3976 121.621 24.1029 121.742 23.8463 121.636Z" fill="#3C7366"/>
<path d="M15.335 121.685C15.057 121.685 14.8316 121.46 14.8316 121.182C14.8316 120.904 15.057 120.678 15.335 120.678C15.613 120.678 15.8384 120.904 15.8384 121.182C15.8384 121.46 15.613 121.685 15.335 121.685Z" fill="#3C7366"/>
<path d="M23.701 122.931C23.9407 123.075 24.0126 123.362 23.8928 123.602C23.7489 123.842 23.4613 123.914 23.2216 123.794C22.9819 123.65 22.91 123.362 23.0298 123.123C23.1736 122.883 23.4613 122.787 23.701 122.931Z" fill="#3C7366"/>
<path d="M16.1502 118.569C16.3899 118.712 16.4618 119 16.342 119.24C16.1982 119.479 15.9105 119.551 15.6708 119.432C15.4311 119.288 15.3592 119 15.479 118.76C15.6229 118.521 15.9345 118.425 16.1502 118.569Z" fill="#3C7366"/>
<path d="M22.2864 124.705C22.4303 124.944 22.3344 125.232 22.0947 125.376C21.855 125.52 21.5673 125.424 21.4235 125.184C21.2796 124.944 21.3755 124.657 21.6152 124.513C21.855 124.393 22.1666 124.465 22.2864 124.705Z" fill="#3C7366"/>
<path d="M17.9236 117.154C18.0675 117.394 17.9716 117.681 17.7319 117.825C17.4922 117.969 17.2045 117.873 17.0607 117.633C16.9168 117.394 17.0127 117.106 17.2524 116.962C17.4922 116.842 17.8038 116.914 17.9236 117.154Z" fill="#3C7366"/>
<path d="M44.8911 120.462V74.0542" stroke="#38BE9E" stroke-width="2.8347" stroke-miterlimit="10"/>
<path d="M115.318 105.792H44.7475" stroke="#38BE9E" stroke-width="2.8347" stroke-miterlimit="10"/>
<path d="M24.6834 79.4722L38.7544 94.1425H19.6494L24.6834 79.4722Z" fill="#96FFA3"/>
<path d="M38.7544 79.4722V94.1425L24.6834 79.4722H38.7544Z" fill="#00F57E"/>
<path d="M102.853 118.065C102.853 117.73 103.141 117.442 103.525 117.442H116.181C116.541 117.442 116.853 117.706 116.853 118.065V119.791C116.853 120.127 116.565 120.414 116.181 120.414H103.525C103.165 120.414 102.853 120.151 102.853 119.791V118.065Z" fill="#38BE9E"/>
<path d="M31.6112 117.466H76.9645C78.211 117.466 79.2178 117.729 79.2178 118.089V119.815C79.2178 120.151 78.211 120.438 76.9645 120.438H31.6352V117.466H31.6112Z" fill="#38BE9E"/>
<path d="M115.174 110.275H117.547V115.788H115.174V110.275Z" fill="#38BE9E"/>
<path d="M0.329112 115.572C0.329112 115.069 0.640742 114.637 1.02428 114.637H8.67104C9.05458 114.637 9.36621 115.045 9.36621 115.572V117.514C9.36621 118.017 9.05458 118.449 8.67104 118.449H1.02428C0.640742 118.449 0.329112 118.041 0.329112 117.514V115.572Z" fill="#38BE9E"/>
</g>
<path d="M207.554 64.0736L210.345 70.3532C210.52 70.5276 210.694 70.7021 210.869 70.8765L217.148 73.6674C217.846 74.0163 217.846 75.0629 217.148 75.4117L210.869 78.2027C210.694 78.3771 210.52 78.5516 210.345 78.726L207.554 85.0056C207.205 85.7033 206.159 85.7033 205.81 85.0056L203.019 78.726C202.845 78.5516 202.67 78.3771 202.496 78.2027L196.216 75.4117C195.518 75.0629 195.518 74.0163 196.216 73.6674L202.496 70.8765C202.67 70.7021 202.845 70.5276 203.019 70.3532L205.81 64.0736C206.159 63.3759 207.205 63.3759 207.554 64.0736Z" fill="#38BE9E"/>
<path d="M9.53572 36.4186L11.7684 41.4423C11.7684 41.6284 11.9545 41.8144 12.1405 41.8144L17.1642 44.0472C17.7224 44.2332 17.7224 45.1636 17.1642 45.5357L12.1405 47.7684C11.9545 47.7684 11.7684 47.9545 11.7684 48.1405L9.53572 53.1642C9.34966 53.7224 8.41926 53.7224 8.04714 53.1642L5.81448 48.1405C5.81448 47.9545 5.6284 47.7684 5.44234 47.7684L0.41864 45.5357C-0.139546 45.3496 -0.139546 44.4193 0.41864 44.0472L5.44234 41.8144C5.6284 41.8144 5.81448 41.6284 5.81448 41.4423L8.04714 36.4186C8.41926 35.8605 9.1636 35.8605 9.53572 36.4186Z" fill="#7BFFE0"/>
<path d="M101.692 0.403688L104.187 6.14502C104.187 6.32444 104.365 6.50388 104.544 6.50388L110.246 9.0157C110.959 9.37454 110.959 10.2716 110.246 10.6304L104.544 13.1423C104.365 13.1423 104.187 13.3217 104.187 13.5011L101.692 19.2425C101.336 19.9601 100.445 19.9601 100.088 19.2425L97.5935 13.5011C97.5935 13.3217 97.4154 13.1423 97.2372 13.1423L91.5346 10.6304C90.8218 10.2716 90.8218 9.37454 91.5346 9.0157L97.2372 6.50388C97.4154 6.50388 97.5935 6.32444 97.5935 6.14502L100.088 0.403688C100.445 -0.134563 101.514 -0.134563 101.692 0.403688Z" fill="#37C848"/>
<path d="M31.8649 140.184L33 142.796C33 142.878 33.0811 142.959 33.1622 142.959L35.7568 144.102C36.0811 144.265 36.0811 144.673 35.7568 144.837L33.1622 145.98C33.0811 145.98 33 146.061 33 146.143L31.8649 148.755C31.7027 149.082 31.2973 149.082 31.1351 148.755L30 146.143C30 146.061 29.9189 145.98 29.8378 145.98L27.2432 144.837C26.9189 144.673 26.9189 144.265 27.2432 144.102L29.8378 142.959C29.9189 142.959 30 142.878 30 142.796L31.1351 140.184C31.2973 139.939 31.7838 139.939 31.8649 140.184Z" fill="#37C848"/>
<path d="M150.327 84.5332C150.327 84.5332 152.402 86.5659 153.107 86.4829C153.812 86.3999 154.932 86.8977 155.596 86.9392C156.26 86.9807 158.085 86.4414 158.748 86.6903C158.997 86.8148 160.408 88.1422 160.989 88.3496C161.569 88.5155 162.772 88.7229 162.606 89.2207C162.44 89.7185 161.32 89.8015 161.32 89.8015C161.32 89.8015 161.735 90.0504 161.735 90.5067C161.735 91.4193 161.237 91.6267 161.237 91.6267C161.237 91.6267 161.694 92.166 161.611 92.5393C161.403 93.369 160.823 93.5764 160.823 93.5764C160.823 93.5764 160.989 94.0742 160.74 94.6135C160.366 95.2772 159.62 95.2357 159.62 95.2357C159.62 95.2357 159.412 96.0654 158.873 96.1483C158.334 96.1898 157.877 96.0654 157.463 95.9824C157.048 95.8994 153.522 94.0327 151.572 91.7512C149.664 89.4696 147.258 87.9348 147.258 87.9348L150.327 84.5332Z" fill="#EEA987"/>
<path d="M169.649 73.3003L149.963 61.9341L130.985 94.8045L150.671 106.171L169.649 73.3003Z" fill="#EDDAD3"/>
<path d="M161.03 89.5559C161.03 89.5559 158.002 88.0211 156.923 88.4359C155.886 88.8922 156.965 89.5144 156.965 89.5144C156.965 89.5144 155.928 88.8922 155.347 89.6389C154.766 90.3856 156.052 91.0493 156.052 91.0493C156.052 91.0493 155.139 90.8004 154.849 91.7545C154.559 92.7086 155.762 93.0404 155.762 93.0404C155.762 93.0404 154.268 93.3723 155.015 94.4094C156.259 96.1516 158.748 96.2346 158.748 96.2346C158.748 96.2346 159.329 96.1931 159.536 95.239C159.536 95.239 161.03 95.239 160.781 93.5797C160.781 93.5797 162.191 92.6671 161.237 91.63C161.279 91.63 162.731 90.593 161.03 89.5559Z" fill="#DB9C7C"/>
<path d="M100.748 112.383L98.835 111.386L47.1822 210.49L49.0951 211.487L100.748 112.383Z" fill="#B4F0BB"/>
<path d="M100.714 103.118C100.714 103.118 98.184 105.441 96.981 106.105C95.778 106.769 93.4135 107.889 93.5794 110.087C93.7454 112.286 92.7912 117.305 94.5335 117.679C96.2758 118.052 100.59 109.714 101.544 107.889C102.498 106.022 103.618 104.612 103.618 104.612L100.714 103.118Z" fill="#EEA886"/>
<path d="M97.1861 113.739C98.2647 114.568 99.841 114.402 100.671 113.324C101.5 112.245 101.334 110.669 100.256 109.839C99.1773 109.009 97.6009 109.175 96.7713 110.254C95.9416 111.333 96.1076 112.867 97.1861 113.739Z" fill="#69E176"/>
<path d="M95.5278 191.81C95.5278 191.81 96.0255 195.502 96.3989 200.023C96.7307 204.545 100.132 208.195 100.63 209.066C101.086 209.896 103.202 213.298 101.045 213.463C98.8464 213.629 90.7158 206.826 88.6417 203.217C88.6417 203.217 87.5631 199.857 87.3557 199.65C87.1898 199.442 85.8623 200.272 85.8623 200.272L83.7882 198.488C83.7882 198.488 82.9171 197.659 82.6267 197.244C82.3363 196.787 83.3733 194.63 83.5393 194.423C83.7052 194.174 88.2268 189.196 90.8817 188.325C93.4536 187.329 95.5278 191.81 95.5278 191.81Z" fill="#B4F0BB"/>
<path d="M176.211 200.688C176.211 200.688 179.239 202.513 182.807 205.002C186.374 207.491 191.103 207.159 191.974 207.325C192.887 207.491 196.662 207.989 195.459 209.69C194.297 211.391 184.466 213.257 180.567 212.594C180.567 212.594 177.455 211.391 177.165 211.391C176.916 211.391 176.75 212.843 176.75 212.843L174.178 213.299C174.178 213.299 173.058 213.465 172.561 213.423C172.063 213.382 171.109 211.349 170.984 211.059C170.86 210.81 169.864 204.505 170.735 202.016C171.689 199.527 176.211 200.688 176.211 200.688Z" fill="#B4F0BB"/>
<path d="M98.9727 186.418C98.9727 186.418 95.6126 191.312 95.3637 192.184C95.0733 193.096 90.9251 192.681 90.5518 188.658C90.5518 188.658 94.4926 182.477 94.4097 182.269C94.2852 182.145 98.9727 186.418 98.9727 186.418Z" fill="#183145"/>
<path d="M134.151 132.945C134.151 132.945 134.109 133.069 133.985 133.318C133.736 133.899 133.197 135.185 132.533 136.844C129.878 143.274 124.776 155.594 123.987 157.088C122.909 159.162 118.346 165.135 117.723 165.426C117.101 165.716 99.5956 193.343 98.9734 194.546C98.9734 194.546 91.7139 190.44 90.8013 188.241C90.8013 188.241 105.071 158.042 109.8 153.396C114.405 148.916 118.138 120.085 122.784 111.623C127.43 103.202 137.179 125.478 134.151 132.945Z" fill="#70CFB9"/>
<path d="M174.262 194.96C174.262 194.96 175.922 200.353 176.419 201.1C176.917 201.847 174.179 204.626 170.985 202.51C170.985 202.51 168.704 195.915 168.538 195.873C168.372 195.832 174.262 194.96 174.262 194.96Z" fill="#183145"/>
<path d="M146.512 109.963C146.512 109.963 159.413 139.706 160.906 144.186C162.4 148.625 161.694 152.441 162.483 154.308C163.312 156.175 177.458 201.474 177.458 201.474C177.458 201.474 169.867 205.124 167.046 203.755C167.046 203.755 155.348 172.394 153.066 167.956C150.951 163.766 151.282 151.446 148.005 148.749C144.728 146.053 122.452 122.532 122.245 111.83C121.996 101.086 146.512 109.963 146.512 109.963Z" fill="#70CFB9"/>
<path d="M137.176 24.1371C140.412 23.8467 147.63 25.2157 149.04 33.7196C149.04 33.7196 148.875 36.0426 148.377 37.8679C147.879 39.6931 149.704 45.0029 149.289 45.2517C148.875 45.5421 147.132 45.9155 147.132 45.9155C147.132 45.9155 145.473 51.806 143.399 51.8475C141.366 51.889 133.526 50.5615 129.627 43.4265C125.727 36.3745 124.192 25.2571 137.176 24.1371Z" fill="#EEA886"/>
<path d="M149.039 33.7611C149.039 33.7611 143.937 37.536 138.752 38.4486C133.566 39.3613 130.455 44.837 130.455 44.837C130.455 44.837 122.159 35.1715 128.256 26.9165C134.354 18.6615 149.827 23.7223 149.039 33.7611Z" fill="#93692B"/>
<path d="M132.779 30.4828C130.83 33.8429 127.221 35.3363 124.732 33.8844C122.201 32.4325 121.745 28.5331 123.653 25.2145C125.603 21.8544 129.212 20.361 131.701 21.8129C134.231 23.2648 134.729 27.1642 132.779 30.4828Z" fill="#93692B"/>
<path d="M148.917 105.152C149 109.964 149.042 114.278 148.752 115.233C148.337 116.684 140.123 118.8 132.241 118.427C130.126 118.344 128.01 118.053 126.102 117.514C124.277 117.016 122.617 116.27 121.249 115.274C120.917 115.025 120.626 114.776 120.336 114.486C120.336 114.486 125.148 100.34 127.139 97.6854C128.674 95.6113 127.139 84.4939 125.687 77.9812C125.355 76.4878 125.023 75.2018 124.692 74.3722C124.609 74.1648 124.567 73.9988 124.484 73.8744C123.447 71.3854 123.696 63.5037 126.434 58.0695C127.512 55.9124 129.006 54.1287 130.997 53.2161C131.287 53.0916 131.619 52.9672 131.951 52.8427C132.117 52.8012 132.324 52.7597 132.532 52.7183C132.532 52.7183 137.053 56.5761 139.791 59.1066C140.206 59.5214 140.621 59.8947 140.911 60.1851C141.534 60.8074 142.488 61.803 143.649 63.0474L143.691 63.0889C144.769 64.2919 146.014 65.6193 147.175 66.9883C149.374 69.5602 151.323 72.0906 151.697 73.3351C152.526 75.9485 150.203 79.9308 148.586 81.8805C147.631 83.042 147.922 85.0332 148.254 86.8999C148.378 87.6051 148.503 88.2688 148.544 88.8496C148.586 89.14 148.586 89.4303 148.586 89.7207C148.503 90.9652 148.793 98.5565 148.917 105.152Z" fill="#7BFFE0"/>
<path d="M131.91 52.6768C132.242 49.9805 131.495 46.1641 131.495 46.1641C131.495 46.1641 141.492 50.0219 139.875 51.3494C139.46 51.6812 139.211 52.3035 139.045 53.0502C138.589 55.1658 138.962 58.194 138.962 58.194L142.446 61.803C143.732 63.1304 131.744 53.9628 131.91 52.6768Z" fill="#EEA886"/>
<path d="M136.596 38.2831C136.513 37.2875 135.351 35.7942 133.775 37.2461C132.157 38.6979 134.563 43.3855 135.891 42.8877C137.218 42.3484 136.679 39.3202 136.596 38.2831Z" fill="#EEA886"/>
<path d="M139.915 51.3467C139.5 51.6786 139.251 52.3008 139.085 53.0475C135.186 51.0564 133.112 47.7792 133.029 47.6548C135.227 50.1023 139.915 51.3467 139.915 51.3467Z" fill="#A77860"/>
<path d="M138.421 38.4898C138.421 38.4898 136.139 40.7714 136.761 42.0573C137.384 43.3848 136.056 45.7493 134.272 46.1226C134.272 46.1226 136.554 43.3848 135.683 42.3062C134.812 41.2277 136.761 38.6972 136.761 38.6972C136.761 38.6972 137.881 37.4528 138.421 38.4898Z" fill="#93692B"/>
<path d="M131.992 51.8872L140.164 56.7822L139.956 58.8563L143.648 62.9631C143.648 62.9631 135.518 56.6577 130.996 53.0902L131.992 51.8872Z" fill="#EDDAD3"/>
<path d="M136.265 57.6544C136.265 57.6544 137.136 61.9686 135.103 65.0383C133.071 68.108 129.088 70.3481 127.844 71.3022C126.599 72.2563 115.648 83.4151 115.482 83.9543C115.316 84.4936 112.288 92.2924 109.633 96.8554C106.978 101.419 104.199 108.388 104.199 108.388L97.3955 105.152C97.3955 105.152 104.365 85.1159 107.725 81.0506C111.292 76.7364 121.248 63.1301 121.248 63.1301C121.248 63.1301 129.752 51.4735 136.265 57.6544Z" fill="#7BFFE0"/>
<path d="M50.6041 215.536C49.4426 217.776 46.6632 218.647 44.4232 217.486C42.1831 216.324 41.3119 213.545 42.4734 211.305C43.635 209.065 46.4143 208.194 48.6544 209.355C50.8944 210.558 51.7656 213.296 50.6041 215.536Z" fill="#B4F0BB"/>
<path d="M48.7356 209.479L33.0137 201.307C31.0641 200.27 30.2759 197.864 31.313 195.914L56.9492 146.757C57.9862 144.808 60.3922 144.02 62.3419 145.057L78.0638 153.229C80.0135 154.266 80.8017 156.672 79.7646 158.621L54.1284 207.778C53.0913 209.728 50.6853 210.516 48.7356 209.479Z" fill="#43D954"/>
<path d="M70.602 149.366L69.6821 148.887L40.3979 205.147L41.3178 205.626L70.602 149.366Z" fill="#8EE898"/>
<path d="M131.742 68.521C131.742 68.521 126.599 75.4071 125.686 77.9375C125.354 76.4442 125.022 75.1582 124.69 74.3286C124.69 74.3286 129.005 69.6825 131.742 68.521Z" fill="#38BE9E"/>
<path d="M133.982 133.319C133.734 133.9 133.194 135.186 132.531 136.845C129.544 131.162 125.437 120.999 125.354 120.792C127.055 124.235 133.982 133.319 133.982 133.319Z" fill="#38BE9E"/>
</svg>
