<svg width="172" height="191" viewBox="0 0 172 191" fill="none" xmlns="http://www.w3.org/2000/svg">
<path d="M115.118 53.7699L110.592 52.9401L109.31 52.1857L110.366 40.9453L116.476 41.8506L115.118 53.7699Z" fill="#8EE898"/>
<path d="M114.44 55.5047L109.989 54.6749L108.631 53.996L109.762 42.6802L115.873 43.5854L114.44 55.5047Z" fill="#96FFA3"/>
<path d="M115.269 59.2015L109.008 58.3717L107.197 57.6927L108.706 46.377L116.627 47.4331L115.269 59.2015Z" fill="#38BE9E"/>
<path d="M108.706 46.377L109.611 46.4524L108.178 57.0138L109.988 57.6927L115.42 58.4471L115.269 59.2015L109.008 58.3717L107.197 57.6173L108.706 46.377Z" fill="#4B9B88"/>
<path d="M109.009 49.1685L107.274 52.1106L106.746 56.4106L106.444 61.0878L104.784 64.0299L105.086 67.5L109.235 64.4825L110.97 59.5035L111.875 58.6737L110.518 58.5983L109.839 58.4474C109.839 58.4474 110.668 56.5614 111.196 56.1088C111.725 55.6562 111.951 54.2983 111.423 53.9965C110.895 53.6948 108.858 57.1649 108.632 57.4667C108.405 57.7685 108.179 53.0913 108.179 53.0913C108.179 53.0913 109.16 50.8281 109.16 50.3755C109.16 49.9228 109.009 49.4702 109.009 49.1685Z" fill="#D4937C"/>
<path d="M87.9613 26.3859C90.4508 24.1982 93.8455 23.2174 96.8631 25.2543C97.3157 25.556 97.7683 26.0087 98.1455 26.3859C98.6736 26.9139 99.1263 27.442 99.5789 28.0455C100.56 29.2525 101.993 29.6297 103.124 30.535C104.181 31.3648 104.86 32.5718 105.161 33.8543C105.388 35.0613 105.237 36.2683 105.539 37.4753C105.916 38.9087 106.821 40.1911 107.575 41.4736C108.33 42.756 108.858 44.3403 108.254 45.7736C107.802 46.9806 106.595 47.8104 106.293 49.0174C106.067 50.0736 106.67 51.1297 106.444 52.1859C106.368 52.7139 106.067 53.1666 105.84 53.5438C104.332 55.8824 101.917 57.6174 99.2017 58.221C98.3719 58.4473 97.2403 58.6736 96.4105 58.4473C96.0333 58.3718 95.7315 58.1455 95.4298 58.0701C94.9017 57.9192 94.3736 58.0701 93.8455 58.1455C93.3175 58.221 92.7894 58.1455 92.3368 58.1455C91.4315 58.0701 90.6017 58.0701 89.6964 57.9946C87.8105 57.9192 85.8491 57.7683 84.2648 56.7876C82.5298 55.7315 81.4736 53.7701 81.2473 51.7332C81.021 49.6964 81.3982 48.4139 82.228 46.528C82.5298 45.849 83.3596 45.0946 83.6613 44.4157C84.5666 42.1525 85.6227 35.8911 85.4719 33.5525C85.321 30.7613 84.1894 31.5911 85.5473 29.1771C86.2262 28.1964 86.9806 27.2157 87.9613 26.3859Z" fill="#430000"/>
<path d="M89.6962 91.3389C89.2436 91.3389 84.8682 101.07 84.8682 101.07L88.5647 112.688L88.9418 129.737C88.9418 129.737 87.3576 132.227 86.905 137.206C86.4524 142.184 91.3559 171.379 91.3559 171.379L92.7138 174.623L96.4103 173.718L94.1471 160.742L94.4489 137.206C94.4489 137.206 97.391 128.379 97.2401 125.739C97.0892 123.099 96.3348 96.6196 96.3348 96.6196L89.6962 91.3389Z" fill="#D4937C"/>
<path d="M90.3756 38.0034L97.9949 42.9824C97.9949 42.9824 97.3914 47.1315 97.844 48.7157C98.2966 50.2999 105.011 86.3596 105.162 91.4894C105.312 96.6192 107.5 106.653 107.5 115.177C107.5 123.702 108.405 127.7 107.953 129.435C107.5 131.17 89.4703 159.233 88.2633 160.742C87.0563 162.326 78.6826 173.491 78.6826 173.491L76.1177 169.568C76.1177 169.568 85.7738 152.444 89.3949 143.919C92.9405 135.395 99.1264 129.661 99.1264 129.661C99.1264 129.661 83.4352 99.335 85.0194 95.7139C87.5089 89.9806 89.5457 76.7789 89.5457 76.7789L83.6615 59.5789C83.6615 59.5789 84.5668 52.2613 87.6598 50.4508C90.7528 48.5648 89.6966 48.5648 89.6966 48.5648L87.9615 40.342L90.3756 38.0034Z" fill="#E3B8A9"/>
<path d="M90.9035 42.5298C90.9035 42.5298 93.4684 44.9438 95.5052 46.7543C97.0894 48.1122 98.6736 48.7912 98.6736 50.0736C98.6736 51.3561 98.9 53.5438 100.107 54.6754C101.239 55.7315 103.728 58.0701 105.312 59.8807C106.896 61.6912 106.67 62.7473 106.368 65.0859C106.067 67.4245 105.539 68.4807 105.916 70.3666C106.293 72.2526 107.5 70.8947 106.821 73.8368C106.218 76.7789 106.368 76.7789 106.142 78.3631C105.916 79.9473 105.916 79.6456 106.746 81.3052C107.575 82.9649 107.953 82.4368 108.33 83.9456C108.632 85.4543 109.839 84.9263 108.481 86.7368C107.198 88.5473 105.765 89.2263 105.614 88.9245C105.463 88.6228 101.616 86.9631 99.6544 86.8877C97.6929 86.8122 93.1666 85.907 91.5824 86.2842C89.9982 86.6614 89.1684 87.3403 88.1877 86.435C87.207 85.5298 87.4333 75.1193 86.3772 73.2333C85.3965 71.3473 84.8684 69.4614 84.0386 66.9719C83.2087 64.4824 83.1333 61.9929 83.1333 60.7105C83.1333 59.428 83.3596 53.8456 85.2456 52.1859C87.1315 50.5263 88.1877 49.5456 89.6965 49.7719C91.0544 49.9228 90.9035 42.5298 90.9035 42.5298Z" fill="#96FFA3"/>
<path d="M108.254 77.3068L106.368 69.0085L105.689 67.4243L105.764 74.9682L106.594 77.9857L108.254 77.3068Z" fill="black"/>
<path d="M108.525 82.7173H111.844V76.0033H108.525V82.7173Z" fill="#232323"/>
<path d="M110.302 82.1899H113.621V76.6075H110.302V82.1899Z" fill="#232323"/>
<path d="M112.53 81.8125H115.019V76.909H112.53V81.8125Z" fill="#232323"/>
<path d="M112.53 79.3452H115.019V77.761H112.53V79.3452Z" fill="#717171"/>
<path d="M110.302 79.3525H113.621V77.542H110.302V79.3525Z" fill="#717171"/>
<path d="M108.525 79.3521H111.844V77.1643H108.525V79.3521Z" fill="#717171"/>
<path opacity="0.5" d="M108.495 82.7173H110.532V76.0033H108.495V82.7173Z" fill="black"/>
<path opacity="0.5" d="M111.781 82.1138H112.309V76.6067H111.781V82.1138Z" fill="black"/>
<path opacity="0.5" d="M114.138 76.9292H113.61V81.8327H114.138V76.9292Z" fill="black"/>
<path d="M107.198 83.8695H109.159C109.612 83.8695 109.989 83.4923 109.989 83.0397V75.6467C109.989 75.1941 109.612 74.8169 109.159 74.8169H107.198C106.745 74.8169 106.368 75.1941 106.368 75.6467V83.0397C106.368 83.4923 106.745 83.8695 107.198 83.8695Z" fill="#232323"/>
<path d="M94.6001 112.763C94.6001 112.763 96.4861 112.009 98.2212 112.99C99.9563 113.97 100.183 114.272 99.9563 115.027C99.73 115.781 81.1721 146.484 81.1721 146.484L80.2668 145.277L97.844 116.46C97.844 116.46 98.2966 115.706 97.165 115.328C96.1089 114.876 94.5247 115.102 94.5247 115.102L77.0984 143.316L76.1177 142.562L93.544 114.046L94.6001 112.763Z" fill="#38BE9E"/>
<path d="M51.3738 183.374L50.4686 187.222L52.3546 188.579L56.8809 185.411L51.3738 183.374ZM43.0002 178.471L41.6423 182.167L43.3019 183.751L48.2054 181.186L43.0002 178.471ZM35.9844 175.076L37.644 176.66L42.5475 174.095L37.3423 171.379L35.9844 175.076Z" fill="#96FFA3"/>
<path d="M57.484 135.772L36.1349 166.928C34.777 168.89 35.0788 171.605 36.8893 173.19L43.7542 180.055C45.7156 182.016 48.1296 183.525 50.6945 184.505L53.2595 185.486C56.3524 186.844 59.9735 185.788 61.8595 182.921L81.3981 153.576C83.4349 150.483 82.756 146.334 79.8138 144.146L76.1174 141.355L63.8963 134.339C61.7086 133.056 58.9174 133.735 57.484 135.772Z" fill="#70CFB9"/>
<path d="M47.3757 182.544L49.9406 183.524C53.0336 184.882 56.6547 183.826 58.5406 180.959L78.0792 151.614C80.1161 148.521 79.4371 144.372 76.495 142.184L73.2512 139.77L76.1178 141.43L79.8143 144.221C82.7564 146.484 83.4354 150.558 81.3985 153.651L61.8599 182.996C59.974 185.788 56.3529 186.919 53.2599 185.561L50.695 184.581C48.9599 183.902 47.4512 183.072 45.9424 181.94C46.4705 182.167 46.9231 182.393 47.3757 182.544Z" fill="#4B9B88"/>
<path d="M48.96 188.202C48.96 189.56 50.0915 190.691 51.4494 190.691C52.8073 190.691 53.9389 189.56 53.9389 188.202C53.9389 186.844 52.8073 185.712 51.4494 185.712C50.0915 185.712 48.96 186.844 48.96 188.202Z" fill="#96FFA3"/>
<path d="M51.449 189.787C52.3239 189.787 53.0332 189.077 53.0332 188.202C53.0332 187.327 52.3239 186.618 51.449 186.618C50.574 186.618 49.8647 187.327 49.8647 188.202C49.8647 189.077 50.574 189.787 51.449 189.787Z" fill="#38BE9E"/>
<path d="M39.605 183.449C39.605 184.807 40.7366 185.939 42.0945 185.939C43.4524 185.939 44.5839 184.807 44.5839 183.449C44.5839 182.092 43.4524 180.96 42.0945 180.96C40.6611 181.035 39.605 182.092 39.605 183.449Z" fill="#96FFA3"/>
<path d="M41.9436 185.034C42.8185 185.034 43.5278 184.325 43.5278 183.45C43.5278 182.575 42.8185 181.866 41.9436 181.866C41.0686 181.866 40.3594 182.575 40.3594 183.45C40.3594 184.325 41.0686 185.034 41.9436 185.034Z" fill="#38BE9E"/>
<path d="M36.3613 178.923C37.6945 178.923 38.7753 177.842 38.7753 176.509C38.7753 175.176 37.6945 174.095 36.3613 174.095C35.0281 174.095 33.9473 175.176 33.9473 176.509C33.9473 177.842 35.0281 178.923 36.3613 178.923Z" fill="#96FFA3"/>
<path d="M36.3611 178.018C37.236 178.018 37.9453 177.308 37.9453 176.433C37.9453 175.558 37.236 174.849 36.3611 174.849C35.4861 174.849 34.7769 175.558 34.7769 176.433C34.7769 177.308 35.4861 178.018 36.3611 178.018Z" fill="#38BE9E"/>
<path d="M78.3056 143.015H77.4758L71.9688 139.016L72.1951 138.187C72.1951 138.187 74.9863 138.337 76.8723 139.771C77.7021 140.374 78.4565 141.053 78.9845 141.657C79.4372 142.109 78.9845 143.015 78.3056 143.015Z" fill="#96FFA3"/>
<path d="M74.4577 140.676V141.732C74.4577 143.09 74.0805 144.372 73.4015 145.504L51.6752 179.904C51.6752 179.904 50.0156 182.695 48.884 182.997C47.8279 183.299 46.2437 182.092 46.2437 182.092C46.2437 182.092 47.677 183.676 48.7331 183.902C49.7893 184.128 50.4682 184.128 51.5998 182.846C52.5805 181.714 70.384 153.349 74.9103 146.183C75.5893 145.127 75.9665 143.92 75.9665 142.637V141.732L74.4577 140.676Z" fill="#7BFFE0"/>
<path d="M72.5715 139.318V140.374C72.5715 141.732 72.1943 143.014 71.5153 144.146L49.789 178.546C49.789 178.546 48.1294 181.337 46.9978 181.639C45.9416 181.941 44.3574 180.734 44.3574 180.734C44.3574 180.734 45.7908 182.318 46.8469 182.544C47.903 182.771 48.582 182.771 49.7136 181.488C50.6943 180.356 68.4978 151.992 73.0241 144.825C73.703 143.769 74.0802 142.562 74.0802 141.279V140.374L72.5715 139.318Z" fill="#7BFFE0"/>
<path d="M81.775 56.5613C81.775 56.5613 87.3575 73.3841 88.3382 77.6087C89.3189 81.9087 88.1873 86.5859 86.4522 88.0946C84.7171 89.6034 81.0961 91.5648 78.682 90.5087C76.268 89.4525 75.8908 88.321 75.8908 88.321C75.8908 88.321 74.2312 89.3771 72.7978 88.2455C71.2891 87.1139 69.6294 83.6438 69.0259 83.0403C68.4224 82.4367 67.4417 81.6824 67.4417 80.7771C67.4417 79.9473 69.2522 78.2122 69.4031 77.5332C69.554 76.8543 69.3277 76.7034 69.0259 75.949C68.7241 75.2701 67.5171 72.4789 67.3663 70.8946C67.2154 69.3104 66.9891 69.3104 67.2154 67.8017C67.4417 66.2174 67.4417 63.9543 68.1961 63.4262C68.9505 62.9736 77.0224 58.1455 78.3803 57.4666C79.7382 56.8631 80.9452 55.5806 81.775 56.5613Z" fill="#4B9B88"/>
<path d="M80.4929 59.2767C80.4929 59.2767 81.5491 56.2592 83.2841 54.6749C85.0192 53.0907 86.2263 50.6013 87.2824 50.2241C88.3385 49.9223 90.5263 48.5644 92.035 50.9785C93.5438 53.3925 93.9964 60.4837 93.5438 63.5767C93.0912 66.6697 93.1666 76.5521 93.1666 76.5521C93.1666 76.5521 94.5245 65.9907 95.6561 62.6714C96.7122 59.3521 96.1087 52.11 95.2034 50.903C94.2982 49.696 92.7894 48.6399 91.4315 48.3381C90.0736 48.0363 86.6034 49.3188 86.1508 50.0732C85.6982 50.7521 80.2666 57.3907 80.2666 57.3907L80.4929 59.2767Z" fill="#38BE9E"/>
<path d="M83.2086 61.5401L82.5296 62.5208C82.5296 62.5208 80.0402 58.5979 78.4559 57.5418C77.3244 56.8629 74.7595 56.033 73.1752 55.6558C72.4209 55.4295 71.6665 55.8067 71.3647 56.4857C70.6858 57.919 69.7051 60.333 69.5542 62.1436C69.3279 64.8594 68.8752 68.4804 68.8752 68.4804L67.5173 67.5751C67.5173 67.5751 67.1402 63.9541 68.4981 60.4085C69.8559 56.9383 70.9875 54.0716 71.5156 53.619C72.0437 53.1664 76.7209 55.1278 78.4559 55.6558C80.2665 56.1839 81.8507 57.1646 82.3788 58.1453C82.9068 59.126 83.2086 61.5401 83.2086 61.5401Z" fill="#38BE9E"/>
<path opacity="0.5" d="M93.9966 108.538L88.8668 108.462C86.2265 102.427 84.2651 97.0709 84.8686 95.6376C85.9247 93.2236 86.83 89.6025 87.5844 86.1323C89.1686 86.4341 92.7142 87.1885 94.5247 87.1885C96.8633 87.1885 102.898 87.8674 103.653 88.0937C103.653 88.0937 104.935 88.5464 104.558 90.206C104.181 91.8657 104.332 92.8464 104.86 93.6762C105.011 93.9779 105.162 94.2797 105.237 94.5815C105.312 95.1095 105.388 95.6376 105.463 96.2411C105.463 96.92 105.463 97.6744 105.614 98.2779C106.142 100.843 106.218 103.634 106.444 106.274C105.312 106.802 104.105 107.481 102.974 107.934C102.219 108.311 93.9966 108.538 93.9966 108.538Z" fill="#D18B72"/>
<path d="M104.784 87.1887C104.784 87.1887 106.067 87.6413 105.69 89.301C105.313 90.9606 105.463 91.9413 105.992 92.7712C106.821 94.129 106.369 95.8641 106.67 97.3729C107.199 99.9378 107.274 102.729 107.5 105.369C106.369 105.897 105.162 106.576 104.03 107.029C103.276 107.331 95.0529 107.557 95.0529 107.557L89.7722 107.482C89.7722 107.482 86.6038 107.029 85.9248 107.029C85.2459 107.029 84.2652 106.426 84.2652 106.426C84.2652 106.426 84.6424 102.654 84.2652 101.069C83.888 99.4852 83.3599 95.7133 85.1705 92.4694C87.0564 89.2255 87.8862 85.001 87.8862 85.001C87.8862 85.001 93.2424 86.208 95.581 86.208C97.9196 86.208 104.03 86.9624 104.784 87.1887Z" fill="#7BFFE0"/>
<path d="M105.69 97.5241C105.388 95.789 105.841 93.6767 105.011 92.0925C104.483 91.1118 104.332 89.9048 104.709 88.0188C104.784 87.717 104.784 87.4153 104.784 87.189H104.86C104.86 87.189 106.142 87.6416 105.765 89.3012C105.388 90.9609 105.539 91.9416 106.067 92.7714C106.897 94.1293 106.444 95.8644 106.746 97.3732C107.274 99.9381 107.349 102.729 107.576 105.37C107.199 105.521 106.821 105.747 106.444 105.898C106.218 103.107 106.142 100.24 105.69 97.5241Z" fill="#7BFFE0"/>
<path d="M85.2463 92.4694C87.1323 89.2255 87.9621 85.001 87.9621 85.001C87.9621 85.001 93.3182 86.208 95.6568 86.208C97.9954 86.208 104.031 86.8869 104.785 87.1133C104.785 87.1133 105.766 87.4905 105.766 88.622C105.464 88.2448 105.087 88.1694 105.087 88.1694C104.332 88.0185 98.2217 87.7922 95.8832 87.9431C93.5446 88.094 88.113 87.3396 88.113 87.3396C88.113 87.3396 87.5849 91.5641 86.0007 94.9589C84.4165 98.3536 85.2463 102.126 85.7744 103.634C86.0007 104.389 86.1516 105.822 86.1516 106.954C86.0761 106.954 86.0007 106.954 85.9253 106.954C85.2463 106.954 84.2656 106.35 84.2656 106.35C84.2656 106.35 84.6428 102.578 84.2656 100.994C83.8884 99.5606 83.3603 95.7133 85.2463 92.4694Z" fill="#70CFB9"/>
<path opacity="0.5" d="M95.2793 91.1872C96.1845 91.2627 97.0898 91.4135 97.9951 91.4135C100.258 91.489 102.446 91.1118 104.709 90.7346C101.918 90.3574 99.0512 90.4328 96.26 90.2819C94.9021 90.2065 93.6196 89.9802 92.2617 89.7539C91.6582 89.6784 91.281 89.3767 90.8284 89.8293C90.5266 90.1311 90.3003 90.6591 90.9038 90.7346C92.2617 90.81 93.7705 90.9609 95.2793 91.1872ZM86.6038 101.371L89.3951 104.012L95.5056 103.333L97.3161 92.5451L88.1126 91.4135C88.1126 91.4135 87.0565 92.3188 86.3775 95.2609C85.6231 98.1276 86.6038 101.371 86.6038 101.371ZM101.465 97.9012C101.314 96.4679 101.239 95.11 101.163 93.6767C101.163 93.2995 101.314 90.1311 100.334 90.81C99.9565 91.1118 100.334 94.5065 100.334 95.0346C100.334 96.3925 100.409 97.6749 100.56 99.0328C100.786 101.824 101.314 104.691 102.295 107.331C102.672 107.331 102.672 106.803 102.597 106.501C102.069 103.71 101.692 100.843 101.465 97.9012ZM100.635 87.717C100.56 87.5662 100.334 87.6416 100.258 87.7925C100.183 87.9434 100.183 88.0942 100.183 88.2451C100.183 88.7732 100.183 89.3012 100.183 89.8293C100.334 89.9048 100.56 89.9048 100.711 89.8293C100.711 89.0749 100.786 88.3205 100.711 87.4907L100.635 87.717ZM95.8828 87.4153C95.9582 87.4153 96.1091 87.4153 96.1845 87.4153C95.9582 87.2644 95.581 87.189 95.2793 87.189C95.2793 88.0188 95.2793 88.8486 95.2793 89.6784C95.2793 89.9048 95.2793 90.1311 95.5056 90.2819C95.7319 90.4328 96.1091 90.3574 96.26 90.5837C96.26 89.5276 96.26 88.396 96.26 87.3398L95.8828 87.4153ZM103.955 88.0188C103.578 87.8679 103.2 87.8679 102.823 87.9434C102.672 88.9241 102.672 89.8293 102.748 90.81C103.049 90.81 103.351 90.81 103.653 90.81C103.578 89.9048 103.653 88.9241 103.804 88.0188H103.955ZM106.067 94.4311C104.785 95.1855 102.446 95.11 100.937 95.1855C100.937 94.8837 101.013 94.5819 101.013 94.2048C101.013 94.6574 105.765 94.1293 106.067 94.4311Z" fill="#44E8C1"/>
<path d="M87.283 87.4902C86.8303 90.206 86.2268 93.299 85.8496 94.4306C85.0953 96.6183 85.4725 99.5604 86.3023 101.899C86.6795 102.955 87.0567 104.69 88.1882 106.878L88.3391 107.406C88.3391 107.406 86.604 107.104 85.8496 107.104C85.1707 107.104 84.19 106.501 84.19 106.501C84.19 106.501 84.5672 102.729 84.19 101.145C83.8128 99.5604 83.2847 95.7885 85.0953 92.5446C86.1514 90.8095 86.8303 88.9236 87.283 87.4902Z" fill="#70CFB9"/>
<path d="M93.4679 90.4333C93.4679 90.4333 94.3732 101.372 94.5241 102.503C94.675 103.635 96.1837 106.351 96.5609 107.105C96.9381 107.784 98.975 112.839 98.7486 113.065C98.5223 113.291 97.2399 112.839 96.8627 112.009C96.4855 111.179 94.675 108.689 94.5995 109.293C94.5241 109.896 95.4293 112.989 95.5802 113.895C95.7311 114.724 96.2592 114.875 96.7118 115.177C97.1644 115.479 97.4662 115.253 97.3907 115.554C97.3153 115.856 97.089 116.309 96.7118 116.309C96.3346 116.309 94.2978 116.007 93.7697 115.932C93.2416 115.856 92.8644 115.63 91.8083 113.97C90.8276 112.31 90.5258 111.103 90.5258 110.123C90.5258 109.142 91.1293 106.502 91.1293 106.351C91.1293 106.2 89.1679 96.3175 88.3381 92.9982C87.5083 89.6789 86.603 86.0578 86.603 86.0578L92.1855 82.3613L93.4679 90.4333Z" fill="#E3B8A9"/>
<path d="M88.4143 92.9982C89.2441 96.3175 91.2055 106.2 91.2055 106.351C91.2055 106.502 90.602 109.142 90.602 110.123C90.602 111.103 90.9038 112.386 91.8845 113.97C92.8652 115.63 93.2424 115.856 93.8459 115.932C94.3739 116.007 96.4108 116.309 96.788 116.309C97.0143 116.309 97.2406 116.158 97.316 115.932C96.7125 115.856 96.109 115.781 95.8073 115.705C95.2792 115.63 94.902 115.403 93.8459 113.744C92.8652 112.084 92.5634 110.877 92.5634 109.896C92.5634 108.916 93.1669 106.275 93.1669 106.124C93.1669 105.974 91.2055 96.0912 90.3757 92.7719C89.5459 89.4526 88.6406 85.8315 88.6406 85.8315L92.4125 83.342L92.2617 82.3613L86.6792 86.0578C86.6792 86.0578 87.5845 89.6789 88.4143 92.9982Z" fill="#D18B72"/>
<path d="M90.375 80.1739C90.5259 81.6827 90.6768 83.2669 91.5066 84.5494C92.3365 85.8318 94.147 86.5862 95.4294 85.7564L95.5803 84.7757C96.6365 84.9266 97.6926 85.0774 98.7487 85.2283C98.0698 84.6248 96.8628 85.0774 95.9575 84.7757C95.1277 84.5494 94.5996 83.7196 94.2224 82.9652C95.1277 82.9652 96.033 82.9652 96.9382 83.0406C98.7487 83.1915 100.484 83.6441 102.294 84.0213C101.766 82.0599 96.4856 81.8336 93.7698 81.8336C93.7698 81.7581 93.7698 81.6073 93.7698 81.5318C93.8452 81.0792 94.2979 80.702 94.7505 80.9283C94.5996 80.702 94.3733 80.4757 94.2224 80.2494C94.5242 80.4003 94.9014 80.0231 94.8259 79.6459C94.7505 79.3441 94.5242 79.1178 94.3733 78.8915C96.1084 78.8915 97.8435 79.1932 99.5031 79.6459C100.936 80.0231 102.596 80.6266 103.879 79.7967L101.465 79.0424C99.5031 78.4389 97.4663 77.8353 95.6558 76.8546C94.9014 76.4774 94.2224 75.8739 93.5435 75.3459C93.6189 74.8178 93.6944 74.2143 93.8452 73.6862C94.2979 73.6862 94.7505 73.6862 95.2031 73.6108C95.2786 72.6301 96.1838 71.7248 97.1645 71.6494C96.1838 70.9704 95.6558 69.7634 95.5803 68.5564C95.5803 67.4248 96.0329 66.2932 96.3347 65.2371C97.1645 62.0687 96.4101 58.5231 94.3733 55.8827C93.3172 54.5248 92.1101 53.2424 91.1294 55.3546C90.375 56.9389 90.4505 58.7494 90.6014 60.409C90.8277 62.3704 91.3558 64.2564 91.3558 66.2178C91.3558 68.9336 90.4505 71.5739 90.2242 74.2143C90.1487 76.402 90.2996 78.288 90.375 80.1739ZM104.633 83.2669C104.331 83.6441 104.105 84.0213 104.029 84.5494C103.954 85.002 104.18 85.5301 104.633 85.7564C105.01 85.9073 105.463 85.8318 105.915 85.6055C106.293 85.3792 106.67 85.1529 107.047 85.002C107.575 84.8511 108.103 84.9266 108.556 85.1529C108.028 84.4739 107.65 83.6441 107.273 82.8897C106.972 82.2108 106.67 81.5318 106.594 80.7774C106.519 80.0985 106.519 79.4196 106.519 78.7406C106.443 77.7599 106.066 76.8546 105.538 76.0248C105.236 76.5529 105.84 77.2318 105.538 77.7599C105.387 78.0617 104.935 78.2125 105.01 78.5897C105.01 78.7406 105.161 78.816 105.236 78.9669C105.387 79.2687 105.387 79.5704 105.387 79.9476C105.312 80.7774 105.236 81.5318 105.161 82.3617C105.161 82.5125 105.161 82.7389 105.086 82.8897C104.859 82.9652 104.784 83.116 104.633 83.2669ZM97.0136 54.8266C97.6172 54.6003 98.2961 54.3739 98.8996 54.1476C98.5979 54.2231 95.354 51.2055 94.9014 50.8283C94.675 50.6774 93.468 49.4704 93.1663 49.8476C92.7137 50.3757 93.7698 51.3564 94.0715 51.6581C94.5242 52.1108 94.9014 52.7143 95.1277 53.3178C95.2786 53.695 95.354 54.0722 95.5803 54.3739C95.8066 54.6757 96.1084 54.9774 96.4856 54.9774C96.561 54.9774 96.7873 54.902 97.0136 54.8266ZM95.0523 49.6213C95.2786 49.395 95.354 49.0932 95.354 48.7915C95.354 47.9617 94.9768 46.981 94.147 46.8301L94.2224 46.981C94.147 46.981 94.0715 46.981 93.9961 47.0564C93.6943 47.3582 93.6189 47.8108 93.6189 48.2634C93.6189 48.716 93.6944 49.1687 93.9207 49.4704C94.2224 49.7722 94.7505 49.9231 95.0523 49.6213Z" fill="#96FFA3"/>
<path d="M104.708 61.7666L105.311 63.9543L104.255 69.3105L102.068 70.8192L99.5781 69.3105L98.2956 64.8596L97.7676 62.7473L100.408 68.6315L102.143 69.8385L103.803 68.4806L104.708 63.9543V61.7666Z" fill="#96FFA3"/>
<path d="M103.275 59.3526C103.275 59.3526 101.917 59.1263 99.9555 59.8807C97.9941 60.6351 96.6362 61.4649 96.6362 61.4649L97.9187 65.5386L105.312 63.3509C105.387 63.4263 104.18 59.8807 103.275 59.3526Z" fill="#96FFA3"/>
<path d="M97.7682 44.5666C95.6559 45.3964 91.8085 45.321 88.5647 43.7368L87.8857 40.342L90.3752 38.0034L97.9945 42.9824C97.9191 42.9069 97.8436 43.6613 97.7682 44.5666Z" fill="#D18B72"/>
<path d="M91.4316 50.3757C91.4316 50.3757 94.9772 54.374 94.6754 58.3722C94.3737 62.295 93.6947 72.4792 93.393 75.1196C93.0912 77.7599 92.5632 78.5898 92.6386 79.8722C92.714 81.0792 93.1667 81.7582 93.1667 81.7582L93.3176 83.3424C93.3176 83.3424 94.5246 83.5687 94.6 84.474C94.6754 85.3792 94.9772 86.4354 95.1281 86.9634C95.279 87.4915 95.4298 87.7933 95.4298 87.7933C95.4298 87.7933 92.2614 87.4161 90.9035 88.1705C89.6211 88.9249 88.7158 89.8301 88.0369 90.0564C87.3579 90.2827 86.8298 90.4336 86.8298 90.4336L85.1702 87.567L84.2649 85.5301L85.0193 84.2477C85.0193 84.2477 85.3965 78.2126 85.6228 76.1003C85.8491 73.988 85.4719 73.2336 85.2456 72.1775C85.0193 71.1213 85.5474 69.3862 85.0193 67.274C84.4912 65.1617 83.0579 59.8056 83.3597 58.0705C83.6614 56.2599 84.3404 53.6196 86.3772 51.8091C88.4895 49.8477 88.6404 48.9424 91.4316 50.3757Z" fill="#96FFA3"/>
<path d="M93.9213 86.586C93.8459 85.6807 92.2616 85.4544 92.2616 85.4544L92.0353 83.8702C92.0353 83.8702 91.4318 83.2667 91.3564 81.9842C91.2809 80.7772 91.9599 79.872 92.3371 77.2316C92.7143 74.5912 93.6195 64.407 93.9967 60.4842C94.3739 56.5614 89.9985 52.4877 89.9985 52.4877C87.6599 51.507 86.8301 51.5825 85.7739 52.3369C86.0002 52.1105 86.2266 51.8088 86.4529 51.5825C88.4897 49.6965 88.6406 48.7913 91.4318 50.3C91.4318 50.3 94.9774 54.2983 94.6757 58.2965C94.3739 62.2193 93.695 72.4035 93.3932 75.0439C93.0915 77.6842 92.5634 78.5141 92.6388 79.7965C92.7143 81.0035 93.1669 81.6825 93.1669 81.6825L93.3178 83.2667C93.3178 83.2667 94.5248 83.493 94.6002 84.3983C94.6757 85.3035 94.9774 86.3597 95.1283 86.8877C95.2792 87.4158 95.4301 87.7176 95.4301 87.7176C95.4301 87.7176 94.902 87.6421 94.1476 87.6421C94.0722 87.3404 93.9967 86.9632 93.9213 86.586Z" fill="#00F57E"/>
<path d="M87.9613 69.2349C87.5841 69.6875 86.528 70.4419 86.3771 71.0454C86.3017 71.2718 86.3017 71.5735 86.3017 71.7998C87.6596 70.3665 88.942 68.7823 89.621 66.9718C89.0929 67.7261 88.5648 68.4805 87.9613 69.2349ZM95.128 86.8875C95.0526 86.7367 95.0526 86.5858 94.9771 86.3595C93.921 86.3595 92.6385 86.4349 91.8841 86.8121C90.6017 87.5665 89.6964 88.4718 89.0175 88.6981C88.3385 88.9244 87.8105 89.0753 87.8105 89.0753L86.7543 87.1893C88.0368 86.5104 89.4701 86.2086 90.9034 85.9823V85.9068C89.3947 85.9068 87.8105 86.1332 86.3771 86.5858L86.2262 86.284C85.4719 84.6998 85.1701 84.3226 86.9806 83.6437C88.7912 82.9647 90.6771 82.5875 92.6385 82.5875C92.2613 82.2104 92.1105 81.6823 92.1105 81.1542C92.1105 81.0033 92.1105 80.9279 92.035 80.8525C91.9596 80.7016 91.7333 80.777 91.5824 80.777C89.3947 81.2297 87.3578 82.1349 85.6227 83.4174C85.6982 82.8139 86.0754 82.2104 86.1508 81.6068C86.2262 80.8525 86.2262 80.0226 86.3017 79.2682C86.3771 77.7595 86.528 76.3261 86.6789 74.8174C86.7543 73.9875 86.3771 72.7805 86.3771 71.8753C86.2262 72.0261 86.1508 72.1016 85.9999 72.2525C86.1508 72.0261 86.2262 70.2156 86.2262 69.6875C86.3017 68.7823 86.3017 67.8016 86.2262 66.8963C86.8298 66.3682 87.4333 65.8402 88.1122 65.3875C87.4333 64.784 86.3017 65.0858 85.6982 64.5577C85.6227 64.3314 85.6227 64.1805 85.5473 63.9542L85.3964 64.1051C85.2455 63.577 85.321 62.8981 85.2455 62.5209C84.9438 60.7104 84.114 58.5981 84.4912 56.7121C84.7175 55.4296 85.0947 53.8454 85.9999 52.2612C84.4157 54.0718 83.8122 56.3349 83.5105 57.9946C83.2087 59.8051 84.5666 65.1612 85.1701 67.1981C85.6982 69.3104 85.1701 70.97 85.3964 72.1016C85.6227 73.1577 85.9999 73.9875 85.7736 76.0244C85.5473 78.1367 85.1701 84.1718 85.1701 84.1718L84.4157 85.4542L85.321 87.4911L86.9806 90.3577C86.9806 90.3577 87.5087 90.2068 88.1876 89.9805C88.8666 89.7542 89.7719 88.9244 91.0543 88.0946C92.3368 87.3402 95.5806 87.7174 95.5806 87.7174C95.5806 87.7174 95.2789 87.4156 95.128 86.8875Z" fill="#00F57E"/>
<path d="M88.4894 37.324C90.7526 42.2275 96.9385 44.6415 99.1262 43.7363C101.691 42.6801 101.993 36.9468 99.8806 31.9679C97.1648 25.7064 93.1666 24.3486 90.0736 25.7819C86.8298 27.2907 86.1508 32.4205 88.4894 37.324Z" fill="#E3B8A9"/>
<path d="M97.9944 28.4225C97.9944 28.4225 93.3926 30.5348 91.6575 31.9681C89.9224 33.4015 89.3944 36.3436 93.0909 41.7751C96.7874 47.2067 95.2032 46.9804 93.9207 49.8471C92.6382 52.7892 84.4154 53.5436 86.6031 56.6365C88.7154 59.7295 84.1137 59.0506 84.4909 55.1278C84.8681 51.205 87.2821 51.5067 88.0365 49.4699C88.7909 47.3576 88.2628 46.8295 87.0558 45.0944C85.7733 43.3593 86.226 42.0769 85.8488 39.4365C85.4716 36.7962 85.2453 29.5541 86.5277 27.7436C87.8856 26.0085 92.94 23.9716 94.6751 24.726C97.3154 25.8576 97.9944 28.4225 97.9944 28.4225Z" fill="#430000"/>
<path d="M77.1735 165.344L77.777 166.098L77.6261 168.663C77.6261 168.663 78.6823 169.87 79.5121 169.946C80.3419 170.021 81.0209 169.493 81.0209 169.493L81.9261 169.267L82.756 170.323C82.756 170.323 82.4542 172.209 82.3788 173.114C82.3033 174.019 82.1525 177.565 82.1525 177.565C82.1525 177.565 84.2647 179.602 84.4911 180.13C84.7174 180.582 84.6419 181.412 84.1893 181.94C83.7367 182.468 82.6805 182.393 82.077 182.167C81.4735 181.94 78.0033 178.847 75.8911 175.981C73.8542 173.189 71.063 169.568 71.063 169.568C71.063 169.568 73.3261 167.456 74.5332 167.003C75.7402 166.475 77.1735 165.344 77.1735 165.344Z" fill="#37C848"/>
<path d="M71.8171 168.964C72.2698 169.568 74.6838 172.661 76.5698 175.226C78.6066 178.017 82.0768 181.11 82.7557 181.412C83.2838 181.638 84.0382 181.638 84.5662 181.412C84.4908 181.563 84.4154 181.713 84.2645 181.864C83.8119 182.392 82.7557 182.317 82.1522 182.091C81.5487 181.864 78.0785 178.771 75.9663 175.905C73.9294 173.113 71.1382 169.492 71.1382 169.492C71.1382 169.492 71.4399 169.266 71.8171 168.964Z" fill="#09320E"/>
<path d="M81.9258 177.414C81.4731 175.83 81.3977 174.17 80.8696 172.661C80.5679 171.756 80.0398 170.926 79.9644 169.945V169.87C80.5679 169.794 81.0959 169.417 81.0959 169.417L82.0012 169.191L82.831 170.247C82.831 170.247 82.5293 172.133 82.4538 173.038C82.3784 173.944 82.2275 177.489 82.2275 177.489C82.2275 177.489 82.303 177.565 82.4538 177.715C82.303 177.791 82.2275 177.791 82.1521 177.715C82.0012 177.64 81.9258 177.565 81.9258 177.414Z" fill="#4B9B88"/>
<path d="M91.6582 171.53L93.1669 173.114C93.1669 173.114 94.9775 173.189 95.581 172.133C96.1845 171.077 96.2599 169.417 96.2599 169.417L97.9196 171.832L100.862 173.642L102.974 173.34C102.974 173.34 104.181 173.793 103.804 174.924C103.427 175.981 101.767 177.263 100.786 177.263C99.8055 177.263 96.2599 177.942 96.2599 177.942L92.1108 179.224L89.395 178.47L88.9424 175.075L90.5266 171.379L91.6582 171.53Z" fill="#37C848"/>
<path d="M92.0356 178.394L96.1847 177.112C96.1847 177.112 99.7304 176.433 100.711 176.433C101.692 176.433 103.427 175.151 103.729 174.094C103.729 174.019 103.729 173.944 103.729 173.868C103.879 174.094 103.955 174.396 103.804 174.773C103.427 175.83 101.767 177.112 100.786 177.112C99.8058 177.112 96.2602 177.791 96.2602 177.791L92.1111 179.073L89.3953 178.319L89.3198 177.64L92.0356 178.394Z" fill="#09320E"/>
<path d="M95.6567 171.756C96.1094 170.7 96.2602 169.267 96.2602 169.267L97.9199 171.681L100.862 173.491C100.56 174.095 99.2778 173.567 98.5989 173.189C97.6936 172.737 96.7129 172.36 95.6567 172.209C95.6567 172.058 95.6567 171.907 95.6567 171.756Z" fill="#4B9B88"/>
<path d="M144.92 51.1381L146.963 55.6806C147.041 55.853 147.15 56.0096 147.284 56.1425C147.418 56.2742 147.574 56.3804 147.746 56.4557L152.349 58.4766C152.889 58.7434 152.889 59.544 152.349 59.8109L147.746 61.8317C147.574 61.9071 147.418 62.0133 147.284 62.145C147.15 62.2778 147.041 62.4344 146.963 62.6069L144.92 67.1494C144.649 67.6831 143.839 67.6831 143.569 67.1494L141.525 62.6069C141.447 62.4344 141.339 62.2778 141.204 62.145C141.071 62.0133 140.914 61.9071 140.743 61.8317L136.14 59.8109C135.599 59.544 135.599 58.7434 136.14 58.4766L140.743 56.4557C140.914 56.3804 141.071 56.2742 141.204 56.1425C141.339 56.0096 141.447 55.853 141.525 55.6806L143.569 51.1381C143.839 50.6044 144.649 50.6044 144.92 51.1381Z" fill="#38BE9E"/>
<path d="M3.39474 53.5615C3.6234 53.5615 3.72883 53.8282 3.82169 54.0372L4.49907 55.5614C4.52886 55.6284 4.53729 55.7099 4.58917 55.7618C4.64105 55.8137 4.7226 55.8221 4.78964 55.8519L6.62782 56.6689C6.65706 56.6786 6.68234 56.6937 6.70365 56.7127C7.00492 56.9824 6.44208 57.3262 6.0726 57.4904L4.78964 58.0606C4.7226 58.0904 4.64105 58.0988 4.58917 58.1507C4.53729 58.2026 4.52886 58.2841 4.49907 58.3512L3.68214 60.1893C3.67239 60.2186 3.65736 60.2439 3.63829 60.2652C3.36861 60.5665 3.02478 60.0036 2.86056 59.6341L2.2904 58.3512C2.26061 58.2841 2.25218 58.2026 2.20031 58.1507C2.14843 58.0988 2.06687 58.0904 1.99983 58.0606L0.161654 57.2436C0.13241 57.2339 0.107134 57.2189 0.0858258 57.1998C-0.215446 56.9301 0.347396 56.5863 0.716877 56.4221L1.99983 55.8519C2.06687 55.8221 2.14843 55.8137 2.20031 55.7618C2.25218 55.7099 2.26061 55.6284 2.2904 55.5614L2.96778 54.0372C3.06065 53.8282 3.16607 53.5615 3.39474 53.5615Z" fill="#38BE9E"/>
<path d="M44.5088 83.7368C44.712 83.7368 44.8057 83.9739 44.8883 84.1596L45.4904 85.5144C45.5169 85.574 45.5244 85.6465 45.5705 85.6926C45.6166 85.7387 45.6891 85.7462 45.7487 85.7727L47.3826 86.4989C47.4086 86.5076 47.4311 86.5209 47.45 86.5379C47.7178 86.7776 47.2175 87.0832 46.8891 87.2292L45.7487 87.736C45.6891 87.7625 45.6166 87.77 45.5705 87.8161C45.5244 87.8622 45.5169 87.9347 45.4904 87.9943L44.7642 89.6282C44.7556 89.6542 44.7422 89.6767 44.7252 89.6956C44.4855 89.9634 44.1799 89.4631 44.0339 89.1346L43.5271 87.9943C43.5006 87.9347 43.4932 87.8622 43.447 87.8161C43.4009 87.77 43.3284 87.7625 43.2688 87.736L41.6349 87.0098C41.6089 87.0012 41.5864 86.9878 41.5675 86.9708C41.2997 86.7311 41.8 86.4255 42.1284 86.2796L43.2688 85.7727C43.3284 85.7462 43.4009 85.7387 43.447 85.6926C43.4932 85.6465 43.5006 85.574 43.5271 85.5144L44.1292 84.1596C44.2118 83.9739 44.3055 83.7368 44.5088 83.7368Z" fill="#96FFA3"/>
<path d="M168.982 28.6665C169.186 28.6665 169.279 28.9036 169.362 29.0893L169.964 30.4441C169.991 30.5037 169.998 30.5762 170.044 30.6223C170.09 30.6684 170.163 30.6759 170.222 30.7024L171.856 31.4286C171.882 31.4373 171.905 31.4506 171.924 31.4676C172.191 31.7073 171.691 32.0129 171.363 32.1589L170.222 32.6657C170.163 32.6922 170.09 32.6997 170.044 32.7458C169.998 32.7919 169.991 32.8644 169.964 32.924L169.238 34.5579C169.229 34.5839 169.216 34.6064 169.199 34.6253C168.959 34.8931 168.654 34.3928 168.508 34.0643L168.001 32.924C167.974 32.8644 167.967 32.7919 167.921 32.7458C167.875 32.6997 167.802 32.6922 167.742 32.6657L166.109 31.9395C166.083 31.9308 166.06 31.9175 166.041 31.9005C165.773 31.6608 166.274 31.3552 166.602 31.2092L167.742 30.7024C167.802 30.6759 167.875 30.6684 167.921 30.6223C167.967 30.5762 167.974 30.5037 168.001 30.4441L168.603 29.0893C168.685 28.9036 168.779 28.6665 168.982 28.6665Z" fill="#00F57E"/>
<path d="M116.93 0C117.133 -8.47998e-08 117.227 0.237068 117.309 0.42281L117.911 1.77763C117.938 1.83722 117.945 1.90971 117.991 1.95582C118.037 2.00193 118.11 2.00942 118.17 2.0359L119.804 2.76209C119.829 2.77076 119.852 2.78412 119.871 2.80108C120.139 3.04078 119.638 3.34638 119.31 3.49235L118.17 3.99919C118.11 4.02567 118.037 4.03316 117.991 4.07927C117.945 4.12538 117.938 4.19788 117.911 4.25747L117.185 5.89139C117.176 5.91739 117.163 5.93985 117.146 5.95879C116.906 6.22661 116.601 5.72628 116.455 5.39783L115.948 4.25747C115.922 4.19788 115.914 4.12538 115.868 4.07927C115.822 4.03316 115.749 4.02567 115.69 3.99919L114.056 3.273C114.03 3.26434 114.007 3.25097 113.988 3.23402C113.721 2.99432 114.221 2.68871 114.549 2.54275L115.69 2.0359C115.749 2.00942 115.822 2.00193 115.868 1.95582C115.914 1.90971 115.922 1.83722 115.948 1.77763L116.55 0.42281C116.633 0.237067 116.726 8.47998e-08 116.93 0Z" fill="#7BFFE0"/>
<path d="M6.78952 126.737C6.99278 126.737 7.08648 126.974 7.16903 127.16L7.77115 128.514C7.79763 128.574 7.80512 128.647 7.85123 128.693C7.89735 128.739 7.96984 128.746 8.02943 128.773L9.66337 129.499C9.68936 129.508 9.71183 129.521 9.73077 129.538C9.99857 129.778 9.49826 130.083 9.16984 130.229L8.02943 130.736C7.96984 130.762 7.89735 130.77 7.85123 130.816C7.80512 130.862 7.79763 130.935 7.77115 130.994L7.04499 132.628C7.03632 132.654 7.02296 132.677 7.006 132.696C6.7663 132.963 6.46067 132.463 6.31469 132.135L5.80789 130.994C5.7814 130.935 5.77391 130.862 5.7278 130.816C5.68169 130.77 5.60919 130.762 5.5496 130.736L3.91567 130.01C3.88967 130.001 3.8672 129.988 3.84826 129.971C3.58046 129.731 4.08077 129.426 4.4092 129.28L5.5496 128.773C5.60919 128.746 5.68169 128.739 5.7278 128.693C5.77391 128.647 5.7814 128.574 5.80789 128.514L6.41 127.16C6.49255 126.974 6.58626 126.737 6.78952 126.737Z" fill="#37C848"/>
<path d="M138.807 107.877C139.01 107.877 139.104 108.114 139.187 108.3L139.789 109.655C139.815 109.714 139.823 109.787 139.869 109.833C139.915 109.879 139.987 109.886 140.047 109.913L141.681 110.639C141.707 110.648 141.729 110.661 141.748 110.678C142.016 110.918 141.516 111.223 141.187 111.369L140.047 111.876C139.987 111.903 139.915 111.91 139.869 111.956C139.823 112.002 139.815 112.075 139.789 112.134L139.063 113.768C139.054 113.794 139.041 113.817 139.024 113.836C138.784 114.104 138.478 113.603 138.332 113.275L137.825 112.134C137.799 112.075 137.791 112.002 137.745 111.956C137.699 111.91 137.627 111.903 137.567 111.876L135.933 111.15C135.907 111.141 135.885 111.128 135.866 111.111C135.598 110.871 136.098 110.566 136.427 110.42L137.567 109.913C137.627 109.886 137.699 109.879 137.745 109.833C137.791 109.787 137.799 109.714 137.825 109.655L138.428 108.3C138.51 108.114 138.604 107.877 138.807 107.877Z" fill="#7BFFE0"/>
<path d="M45.2999 12.3791L47.1455 16.5747C47.2024 16.704 47.2183 16.861 47.3188 16.9603C47.4183 17.0586 47.574 17.0741 47.7022 17.1299L51.9237 18.9666C52.4757 19.2411 52.4757 19.9273 51.9237 20.2018L47.7022 22.0385C47.574 22.0943 47.4183 22.1098 47.3188 22.2081C47.2183 22.3074 47.2024 22.4644 47.1455 22.5937L45.2999 26.7893C45.0239 27.3382 44.3338 27.3382 44.0579 26.7893L42.2121 22.5937C42.1552 22.4644 42.1393 22.3074 42.0389 22.2081C41.9394 22.1098 41.7838 22.0943 41.6555 22.0385L37.434 20.2018C36.882 19.9273 36.882 19.2411 37.434 18.9666L41.6555 17.1299C41.7838 17.0741 41.9394 17.0586 42.0389 16.9603C42.1393 16.861 42.1552 16.704 42.2121 16.5747L43.7024 13.1872C43.9389 12.6495 44.2611 12.0059 44.8442 12.0771C45.0573 12.1031 45.2411 12.2038 45.2999 12.3791Z" fill="#37C848"/>
</svg>
