<svg width="213" height="222" viewBox="0 0 213 222" fill="none" xmlns="http://www.w3.org/2000/svg">
<path d="M187.235 194.218C187.235 198.551 145.288 201.947 93.6173 201.947C41.9463 201.947 0 198.434 0 194.218C0 190.003 41.9463 186.49 93.6173 186.49C145.433 186.373 187.235 189.885 187.235 194.218Z" fill="#37C848" fill-opacity="0.21"/>
<path d="M208.505 217.736C208.505 219.662 191.572 221.171 170.714 221.171C149.856 221.171 132.924 219.61 132.924 217.736C132.924 215.863 149.856 214.302 170.714 214.302C191.631 214.25 208.505 215.811 208.505 217.736Z" fill="#37C848" fill-opacity="0.21"/>
<path d="M208.085 59.7107L209.441 62.6205C209.526 62.7013 209.61 62.7821 209.695 62.8629L212.746 64.1562C213.085 64.3178 213.085 64.8028 212.746 64.9644L209.695 66.2576C209.61 66.3385 209.526 66.4193 209.441 66.5001L208.085 69.4098C207.916 69.7331 207.407 69.7331 207.238 69.4098L205.882 66.5001C205.797 66.4193 205.713 66.3385 205.628 66.2576L202.577 64.9644C202.239 64.8028 202.239 64.3178 202.577 64.1562L205.628 62.8629C205.713 62.7821 205.797 62.7013 205.882 62.6205L207.238 59.7107C207.407 59.3874 207.916 59.3874 208.085 59.7107Z" fill="#38BE9E"/>
<path d="M39.3309 150.564C39.3309 150.564 41.6034 139.843 36.6574 133.625C36.6574 133.625 34.2512 141.559 39.3309 150.564Z" fill="#7BFFE0"/>
<path d="M34.2034 144.918C34.2034 144.918 34.4945 135.873 28.599 131.744C28.599 131.744 27.7256 138.56 34.2034 144.918Z" fill="#7BFFE0"/>
<path d="M28.5597 141.154C28.5597 141.154 27.9475 133.03 22.9136 129.862C22.9816 129.794 22.8456 135.99 28.5597 141.154Z" fill="#7BFFE0"/>
<path d="M28.5596 140.418C28.5596 140.418 20.425 137.018 15.3859 141.93C15.3139 141.93 21.2889 145.236 28.5596 140.418Z" fill="#7BFFE0"/>
<path d="M34.2058 145.487C34.2058 145.487 24.9847 143.794 19.1494 146.249C19.2215 146.249 25.9212 147.9 34.2058 145.487Z" fill="#7BFFE0"/>
<path d="M37.97 149.823C37.97 149.823 28.7354 146.419 22.9136 151.371C22.9805 151.371 29.7392 154.62 37.97 149.823Z" fill="#7BFFE0"/>
<path d="M43.8532 156.21C43.8532 156.21 47.9207 144.877 43.2628 137.39C43.2628 137.39 39.4577 145.632 43.8532 156.21Z" fill="#7BFFE0"/>
<path d="M43.6162 156.774C43.6162 156.774 33.7958 151.922 26.6777 155.886C26.6777 155.886 33.7959 160.191 43.6162 156.774Z" fill="#7BFFE0"/>
<path d="M24.7955 139.272C24.7955 139.272 20.7531 131.984 15.3853 131.744C15.3853 131.744 18.036 137.59 24.7955 139.272Z" fill="#7BFFE0"/>
<path d="M23.5443 137.463C36.6544 144.176 46.7911 156.287 51.1161 170.543C51.3188 171.166 50.3727 171.581 50.17 170.959C45.845 156.91 35.9786 145.007 23.1388 138.432C22.6658 138.086 23.0037 137.117 23.5443 137.463Z" fill="#7BFFE0"/>
<path d="M180.242 55.3818C180.242 55.3818 181.563 46.1172 187.62 42.8895C187.62 42.8895 187.264 49.9226 180.242 55.3818Z" fill="#37C848"/>
<path d="M185.714 52.6978C185.714 52.6978 188.478 44.8257 194.416 43.0025C194.4 43.0576 192.886 49.1442 185.714 52.6978Z" fill="#37C848"/>
<path d="M191.711 51.0711C191.711 51.0711 194.775 44.6087 199.938 43.5738C199.938 43.5738 198.066 48.6529 191.711 51.0711Z" fill="#37C848"/>
<path d="M192.723 50.8934C192.723 50.8934 199.838 51.3432 202.705 55.7985C202.705 55.7985 197.333 55.9304 192.723 50.8934Z" fill="#37C848"/>
<path d="M186.587 52.7789C186.587 52.7789 194.703 53.2882 197.934 58.332C197.934 58.332 191.836 58.4866 186.587 52.7789Z" fill="#37C848"/>
<path d="M180.806 54.8914C180.806 54.8914 189.506 55.4552 193.04 60.8895C193.095 60.9059 186.453 61.0776 180.806 54.8914Z" fill="#37C848"/>
<path d="M174.275 59.1182C174.275 59.1182 174.333 48.4558 180.692 43.8178C180.675 43.8729 181.349 51.8745 174.275 59.1182Z" fill="#37C848"/>
<path d="M174.871 58.5155C174.871 58.5155 184.8 57.7683 189.648 63.4156C189.664 63.3606 182.222 64.6117 174.871 58.5155Z" fill="#37C848"/>
<path d="M196.031 50.442C196.031 50.442 201.469 46.671 206.096 48.2355C206.113 48.1804 202.274 51.4103 196.031 50.442Z" fill="#37C848"/>
<path d="M197.664 49.8005C184.643 51.0633 172.373 57.6498 164.29 67.8883C163.922 68.3181 164.578 68.9342 164.945 68.5043C172.925 58.4146 184.941 51.8724 197.71 50.6539C198.254 50.6369 198.28 49.7448 197.664 49.8005Z" fill="#37C848"/>
<path d="M112.018 13.3562L113.05 15.5385C113.05 15.6193 113.137 15.7001 113.223 15.7001L115.547 16.67C115.805 16.7509 115.805 17.155 115.547 17.3166L113.223 18.2865C113.137 18.2865 113.05 18.3674 113.05 18.4482L112.018 20.6305C111.931 20.873 111.501 20.873 111.329 20.6305L110.296 18.4482C110.296 18.3674 110.21 18.2865 110.124 18.2865L107.8 17.3166C107.541 17.2358 107.541 16.8317 107.8 16.67L110.124 15.7001C110.21 15.7001 110.296 15.6193 110.296 15.5385L111.329 13.3562C111.501 13.1137 111.845 13.1137 112.018 13.3562Z" fill="#7BFFE0"/>
<path d="M42.2021 0.327344L44.0742 4.25548C44.0742 4.40097 44.2303 4.54645 44.3863 4.54645L48.5988 6.29228C49.0669 6.43777 49.0669 7.16521 48.5988 7.45618L44.3863 9.20201C44.2303 9.20201 44.0742 9.34749 44.0742 9.49298L42.2021 13.4211C42.046 13.8576 41.2659 13.8576 40.9538 13.4211L39.0817 9.49298C39.0817 9.34749 38.9256 9.20201 38.7696 9.20201L34.5571 7.45618C34.089 7.31069 34.089 6.58326 34.5571 6.29228L38.7696 4.54645C38.9256 4.54645 39.0817 4.40097 39.0817 4.25548L40.9538 0.327344C41.2659 -0.109115 41.89 -0.109115 42.2021 0.327344Z" fill="#96FFA3"/>
<path d="M15.268 92.0154L15.9136 93.3247C15.9136 93.3732 15.9674 93.4217 16.0212 93.4217L17.4738 94.0037C17.6352 94.0522 17.6352 94.2947 17.4738 94.3916L16.0212 94.9736C15.9674 94.9736 15.9136 95.0221 15.9136 95.0706L15.268 96.38C15.2142 96.5254 14.9452 96.5254 14.8376 96.38L14.192 95.0706C14.192 95.0221 14.1382 94.9736 14.0844 94.9736L12.6318 94.3916C12.4704 94.3432 12.4704 94.1007 12.6318 94.0037L14.0844 93.4217C14.1382 93.4217 14.192 93.3732 14.192 93.3247L14.8376 92.0154C14.9452 91.8699 15.1604 91.8699 15.268 92.0154Z" fill="#7BFFE0"/>
<path d="M203.667 103.505L204.821 106.165C204.821 106.248 204.904 106.332 204.986 106.332L207.624 107.495C207.954 107.662 207.954 108.077 207.624 108.244L204.986 109.408C204.904 109.408 204.821 109.491 204.821 109.574L203.667 112.234C203.502 112.567 203.09 112.567 202.925 112.234L201.771 109.574C201.771 109.491 201.688 109.408 201.606 109.408L198.968 108.244C198.638 108.077 198.638 107.662 198.968 107.495L201.606 106.332C201.688 106.332 201.771 106.248 201.771 106.165L202.925 103.505C203.09 103.256 203.584 103.256 203.667 103.505Z" fill="#37C848"/>
<path d="M54.5919 190.415H162.174C166.018 190.415 169.202 187.291 169.202 183.387V43.4283C169.202 39.584 166.078 36.4004 162.174 36.4004H54.5919C50.7476 36.4004 47.564 39.5239 47.564 43.4283V183.447C47.624 187.291 50.7476 190.415 54.5919 190.415Z" fill="#70CFB9"/>
<path d="M162.186 45.1694H54.9087V175.031H162.186V45.1694Z" fill="#E8E8E8"/>
<path opacity="0.72" d="M146.314 70.1597H70.4482V146.086H146.314V70.1597Z" fill="white"/>
<path d="M103.906 161.045H72.7308C71.4694 161.045 70.4482 160.024 70.4482 158.762V153.356C70.4482 152.095 71.4694 151.074 72.7308 151.074H103.906C105.168 151.074 106.189 152.095 106.189 153.356V158.762C106.189 160.024 105.168 161.045 103.906 161.045Z" fill="white"/>
<path opacity="0.72" d="M144.091 161.045H118.142C116.881 161.045 115.859 160.024 115.859 158.762V153.356C115.859 152.095 116.881 151.074 118.142 151.074H144.091C145.353 151.074 146.374 152.095 146.374 153.356V158.762C146.374 160.024 145.353 161.045 144.091 161.045Z" fill="#38BE9E"/>
<path d="M101.44 134.316C101.44 135.141 100.766 135.815 99.9412 135.815C99.1166 135.815 98.4419 135.141 98.4419 134.316C98.4419 133.492 99.1166 132.817 99.9412 132.817C100.766 132.817 101.44 133.492 101.44 134.316Z" fill="#363636"/>
<path d="M118.195 134.316C118.195 135.141 117.521 135.815 116.696 135.815C115.871 135.815 115.197 135.141 115.197 134.316C115.197 133.492 115.871 132.817 116.696 132.817C117.521 132.817 118.195 133.492 118.195 134.316Z" fill="#363636"/>
<path d="M103.95 82.5167V100.058H104.925V83.4913C104.925 82.7416 105.524 82.1044 106.312 82.1044H110.397C111.147 82.1044 111.784 82.7041 111.784 83.4913V100.058H112.759V82.5167C112.759 81.3923 111.859 80.4927 110.735 80.4927H105.974C104.85 80.4927 103.95 81.3923 103.95 82.5167Z" fill="#7BFFE0"/>
<path d="M115.346 133.642H101.29C98.704 133.642 96.605 131.543 96.605 128.957V104.144C96.605 101.558 98.704 99.4585 101.29 99.4585H115.346C117.932 99.4585 120.031 101.558 120.031 104.144V128.92C120.031 131.543 117.932 133.642 115.346 133.642Z" fill="#4B9B88"/>
<path d="M112.159 125.321H104.476C102.789 125.321 101.439 123.971 101.439 122.285V103.843C101.439 102.156 102.789 100.807 104.476 100.807H112.197C113.884 100.807 115.233 102.156 115.233 103.843V122.285C115.233 123.934 113.846 125.321 112.159 125.321Z" fill="#70CFB9"/>
<path d="M107.662 133.642H108.074V99.496H107.662V133.642ZM104.813 133.642H105.226V99.496H104.813V133.642ZM102.939 133.642H103.351V99.496H102.939V133.642ZM105.75 133.642H106.163V99.496H105.75V133.642ZM106.725 133.642H107.137V99.496H106.725V133.642ZM102.002 133.642H102.414V99.496H102.002V133.642ZM103.876 133.642H104.289V99.496H103.876V133.642ZM101.065 99.4585V133.605C101.14 133.605 101.215 133.605 101.29 133.605H101.44V99.4585H101.29C101.215 99.4585 101.14 99.4585 101.065 99.4585ZM99.1909 133.118C99.3033 133.193 99.4533 133.23 99.6032 133.305V99.7958C99.4533 99.8333 99.3408 99.9083 99.1909 99.9832V133.118ZM118.944 101.145V131.918C119.094 131.731 119.207 131.543 119.356 131.356C119.356 119.778 119.356 113.286 119.356 101.707C119.244 101.52 119.094 101.333 118.944 101.145ZM100.128 133.455C100.24 133.493 100.39 133.53 100.54 133.53V99.496C100.39 99.5335 100.278 99.5335 100.128 99.5709V133.455ZM98.2164 132.48C98.3288 132.593 98.4787 132.705 98.6287 132.78V100.283C98.4787 100.396 98.3663 100.471 98.2164 100.583V132.48ZM97.2793 131.394C97.3917 131.581 97.5417 131.768 97.6916 131.956V101.145C97.5417 101.333 97.4292 101.52 97.2793 101.707V131.394ZM114.259 133.642H114.671V99.496H114.259V133.642ZM108.599 133.642H109.011V99.496H108.599V133.642ZM115.196 99.4585V133.605H115.346C115.421 133.605 115.496 133.605 115.571 133.605V99.4585C115.496 99.4585 115.421 99.4585 115.346 99.4585H115.196ZM117.07 133.305C117.22 133.268 117.332 133.193 117.482 133.118V99.9832C117.37 99.9083 117.22 99.8708 117.07 99.7958V133.305ZM118.007 132.78C118.157 132.668 118.269 132.593 118.419 132.48V100.583C118.307 100.471 118.157 100.358 118.007 100.283V132.78ZM116.133 133.567C116.283 133.53 116.395 133.53 116.545 133.493V99.6459C116.433 99.6084 116.283 99.5709 116.133 99.5709V133.567ZM113.284 133.642H113.697V99.496H113.284V133.642ZM109.536 133.642H109.948V99.496H109.536V133.642ZM110.473 133.642H110.885V99.496H110.473V133.642ZM111.41 133.642H111.822V99.496H111.41V133.642ZM112.347 133.642H112.76V99.496H112.347V133.642Z" fill="#38BE9E"/>
<path d="M115.233 133.417H101.402C98.853 133.417 96.7915 131.393 96.7915 128.919V125.695C96.7915 128.169 98.853 130.193 101.402 130.193H115.233C117.782 130.193 119.843 128.169 119.843 125.695V128.919C119.843 131.393 117.782 133.417 115.233 133.417Z" fill="#38BE9E"/>
<path opacity="0.72" d="M120.485 55.2632H69.9082V59.8283H120.485V55.2632Z" fill="white"/>
<path opacity="0.72" d="M127.513 62.5908H69.9082V67.156H127.513V62.5908Z" fill="white"/>
<path d="M139.136 121.88C140.997 122.799 141.629 118.989 141.205 116.958C141.099 116.446 140.994 116.021 140.909 115.825C140.576 115.057 139.385 114.791 139.078 114.012C138.534 112.634 137.673 110.784 137.059 111.071C136.891 111.15 136.807 111.327 136.785 111.565C136.57 113.842 136.224 116.072 135.843 118.327C135.691 119.578 138.376 121.58 139.136 121.88Z" fill="#FCC897"/>
<path d="M164.822 141.147C166.342 143.449 166.393 147.202 163.252 147.502C160.111 147.802 149.421 137.543 147.546 135.992C145.672 134.441 138.883 124.031 138.275 122.48C137.667 120.929 141.416 119.227 142.531 119.678C143.645 120.128 149.776 129.286 151.194 130.537C152.562 131.838 162.948 138.344 164.822 141.147Z" fill="#37C848"/>
<path d="M141.076 122.955C140.359 121.541 137.632 121.084 138.274 122.534C138.882 124.085 145.671 134.495 147.545 136.046C148.761 137.032 153.657 141.654 157.807 144.721C158.979 145.587 160.629 145.531 161.523 144.38C162.66 142.917 161.644 140.998 159.909 140.346C156.334 139.004 152.882 137.36 149.977 134.995C146.067 131.762 143.369 127.473 141.076 122.955Z" fill="#2FB13E"/>
<path d="M165.48 122.33C168.976 128.535 159.958 135.541 155.753 133.239C152.46 131.488 152.308 126.533 154.233 122.079C156.209 117.626 162.947 117.826 165.48 122.33Z" fill="#FCC897"/>
<path d="M147.86 172.389C146.909 171.748 145.651 171.755 144.779 172.499C143.972 173.188 143.18 173.988 143.391 174.326C143.601 174.663 144.203 175.598 143.945 175.899C143.283 176.671 142.767 177.548 143.087 178.18C143.746 179.581 145.468 179.681 146.735 178.93C147.44 178.512 148.256 176.898 148.84 175.551C149.338 174.403 148.898 173.088 147.86 172.389Z" fill="#FCC897"/>
<path d="M163.664 213.946C164.853 213.732 166.22 214.005 166.544 215.169C166.698 215.723 166.696 216.335 166.442 216.812C165.936 217.863 159.147 218.664 158.488 217.863C157.323 216.362 161.528 214.711 162.541 214.26C162.856 214.12 163.258 214.019 163.664 213.946Z" fill="#373A46"/>
<path d="M163.693 206.559C164.581 206.585 165.294 207.3 165.318 208.188C165.37 210.126 165.462 213.219 165.531 213.762C165.632 214.562 163.504 214.763 162.896 214.613C162.476 214.509 162.152 210.67 161.992 208.312C161.927 207.339 162.718 206.53 163.693 206.559Z" fill="#FCC897"/>
<path d="M181.943 213.528C182.985 212.985 184.319 212.806 184.988 213.771C185.329 214.263 185.536 214.871 185.441 215.412C185.289 216.563 179.058 219.365 178.196 218.815C176.626 217.764 180.121 214.911 180.932 214.161C181.206 213.938 181.571 213.721 181.943 213.528Z" fill="#373A46"/>
<path d="M180.376 209.181C181.163 208.966 181.989 209.354 182.326 210.097C182.778 211.094 183.36 212.375 183.566 212.811C183.921 213.561 181.945 214.362 181.337 214.412C180.983 214.412 180.063 212.819 179.356 211.487C178.869 210.57 179.374 209.455 180.376 209.181Z" fill="#FCC897"/>
<path d="M164.455 179.649C162.164 177.338 158.223 178.913 158.16 182.166C158.093 185.579 158.034 188.918 158.034 189.894C158.034 192.096 160.617 210.863 161.175 212.164C161.783 213.465 164.873 212.614 165.937 212.014C166.95 211.413 165.278 193.848 165.177 191.646C165.067 190.055 165.354 185.119 165.522 182.503C165.59 181.443 165.204 180.403 164.455 179.649Z" fill="#73EDD0"/>
<path d="M160.433 167.03C165.495 166.132 170.086 169.883 170.923 174.955C171.713 179.741 172.547 184.895 172.675 186.089C172.979 188.441 183.061 208.509 183.061 209.66C183.061 210.811 180.224 212.012 179.059 212.012C177.894 212.012 161.58 184.788 159.959 182.586C158.338 180.384 157.578 169.574 157.274 168.223C157.188 167.763 158.571 167.36 160.433 167.03Z" fill="#7BFFE0"/>
<path d="M166.808 167.584C166.798 166.81 167.976 166.114 168.749 166.064C169.505 166.014 169.576 166.576 169.702 167.323C170.396 171.457 172.514 184.125 172.725 186.089C173.029 188.441 183.111 208.509 183.111 209.66C183.111 210.766 181.408 210.336 180.868 209.371C176.692 201.893 168.511 186.849 167.811 184.037C167.099 181.137 166.856 171.677 166.808 167.584Z" fill="#73EDD0"/>
<path d="M167.202 135.941C167.912 138.593 170.293 165.267 169.888 166.117C169.432 167.018 158.488 169.17 157.273 168.219C156.107 167.218 153.321 148.001 153.22 144.148C153.118 140.295 156.462 136.892 157.222 135.69C157.982 134.489 166.544 133.388 167.202 135.941Z" fill="#37C848"/>
<path d="M157.83 141.048C159.502 138.596 163.302 137.044 164.872 140.047C166.443 142.999 160.414 157.662 159.603 160.115C158.793 162.617 151.041 173.426 149.724 174.677C148.407 175.929 145.164 172.876 145.215 171.625C145.266 170.374 152.004 160.615 152.713 158.763C153.372 156.862 155.753 144.05 157.83 141.048Z" fill="#37C848"/>
<path d="M164.872 140.046C164.67 139.665 164.432 139.358 164.166 139.119C162.137 137.294 161.012 141.377 161.174 144.1C161.275 146.002 160.921 147.903 160.414 149.755C158.033 158.713 153.169 167.02 146.482 173.526C146.426 173.581 146.427 173.67 146.485 173.723C147.539 174.677 148.938 175.403 149.673 174.677C150.991 173.426 158.742 162.616 159.553 160.114C160.414 157.662 166.443 142.999 164.872 140.046Z" fill="#2FB13E"/>
<path d="M159.296 132.949C160.819 132.57 162.815 133.035 163.251 134.544C163.352 134.894 160.414 136.345 159.046 136.495C157.678 136.645 157.475 135.644 157.627 135.444C157.779 135.244 157.881 134.193 157.931 133.593C157.951 133.354 158.564 133.131 159.296 132.949Z" fill="#FCC897"/>
<path d="M166.927 122.882C166.794 122.229 167.557 121.548 167.557 120.881C167.557 120.731 167.465 120.611 167.325 120.514C166.671 120.064 166.216 118.933 165.429 118.83C164.976 118.8 164.113 119.143 163.736 118.891C162.385 117.989 159.827 116.673 157.222 117.428C153.422 118.479 150.889 122.783 153.321 123.534C154.029 123.738 154.876 123.768 155.719 123.708C158.136 123.536 161.029 124.338 161.376 126.737C161.528 127.687 162.187 127.337 162.389 126.186C162.592 125.135 164.922 125.936 164.061 128.238C163.605 129.489 161.781 129.389 161.376 129.989C160.971 130.59 161.275 132.392 161.832 132.542C163.424 133.189 168.001 128.153 166.927 122.882Z" fill="#662F1B"/>
</svg>
