<svg width="221" height="223" viewBox="0 0 221 223" fill="none" xmlns="http://www.w3.org/2000/svg">
<path fill-rule="evenodd" clip-rule="evenodd" d="M213.835 142.819H211.106V110.587H208.686V102.246H196.38V110.587H193.96V123.51H189.584V127.784H188.348V140.296H184.023V99.8259H181.603V91.4849H169.298V99.8259H166.878V140.296H162.45V127.784H161.214V123.51H159.618V117.332H157.867V115.839H156.477V114.346H151.174H147.827V106.005H145.15V104.099H132.998V106.005H130.321V141.119H127.541V122.944H126.511V120.215H125.224L121.362 110.432H120.435H119.509L115.647 120.215H114.36V122.944H113.33V141.119H110.138V144.312L109.262 143.539V139.266H108.645V135.971H107.769V133.139L106.534 134.323L105.658 132.521H105.298V130.873C105.298 130.77 105.143 130.667 104.989 130.667C104.834 130.667 104.68 130.77 104.68 130.873V132.521H104.32L103.444 134.323L102.209 133.139V135.971H101.333V139.266H100.715V143.539L99.8916 144.26V114.5H81.7163V156.823H98.0895H99.8916H100.715H108.336H109.314H110.189H111.888H113.433H115.287H117.14H120.487H123.834H125.687H127.541H130.321H130.836H132.69H136.036H137.272H138.559H139.949H141.185H142.163H142.215V169.644H200.808V156.823H204.155H213.886H216.461V144.775H213.886V142.819H213.835Z" fill="#3FC4C1" fill-opacity="0.24"/>
<path d="M119.818 142.458H114.72V138.648L101.179 138.596L101.23 127.217H102.415L101.436 107.086H102.363L103.187 106.004V103.069L105.658 99.8772H106.379L106.946 98.9504H107.512V98.178H108.233V97.4057H109.108V96.4275L108.645 95.9641L109.469 94.9858L109.211 94.0075L110.138 93.7501L109.881 92.9777L103.239 88.4468L103.033 89.7855L102.312 89.2706L100.613 91.4331H99.7888L97.4719 85.5635L95.2579 84.6367V83.7614H94.537V80.9295H95.0519V80.2602L94.0222 77.5313H94.537V76.6045L94.2281 76.2956L94.0737 75.0599L94.4856 74.648L99.9948 74.3391L94.6915 73.8242L94.537 72.7944L99.0165 70.7864L94.1766 71.9191L93.4043 70.9923L97.4719 66.6158L92.529 70.5289L90.8814 70.1685L90.4695 63.784L89.6457 70.1685L88.0495 70.3745L83.0552 66.6673L87.0198 70.8894L86.2475 71.5587L82.3344 71.3528L85.6296 72.537L85.4237 73.6697L83.3126 74.0301V73.4638L82.0769 73.3093L82.0254 70.7349L80.1204 61.5185V59.562L81.0472 57.348V52.9715L80.4808 52.4051V51.5298H81.7165V50.2426H80.9442V48.9554H81.7165V47.6682H79.9659L80.8927 46.2266L80.8412 45.5057L81.3561 44.167L81.8195 42.6739L81.2016 43.0343L82.0769 39.7905L81.3561 40.2539L81.768 38.9667L80.3263 38.4519L80.7897 39.3272L80.1719 40.2025L79.2451 41.9016V40.048V38.3489L78.0094 37.3706L78.4728 39.1212L77.443 42.5709L76.5677 43.3432L76.1043 46.278L76.8251 47.7712H74.8171V49.0584H75.5894V50.3456H74.8171V51.6328H76.0528V52.4051L75.3835 53.0745V57.451L76.9796 59.3045V59.8709L76.7222 60.1283V60.9007L77.1856 61.3641V63.2176L77.9064 63.887L77.443 72.0736L78.2153 73.4638V75.4203L76.8766 77.1709L76.9796 78.2007L76.0013 79.4364L76.7736 82.7831L78.0094 83.0406L77.443 84.7911L77.3915 85.7179L79.1421 86.3873L78.4728 89.7855L78.5242 90.9697L80.5838 93.6471L80.0689 94.7284V95.7581L80.4293 96.3245L77.9064 101.731L78.2668 103.275L79.3995 103.533L80.1204 104.563V105.489L78.9876 107.188V108.682L79.9659 111.205L79.2451 119.134L78.5242 119.803V120.987L78.7817 121.554L77.8549 129.534L77.3915 129.998L77.4945 130.719L78.1123 130.976V132.315L77.0826 133.756L76.2073 138.648H69.5138V142.561H64.468L64.4165 151.674L119.921 151.88L119.818 142.458ZM84.5998 78.3551H84.2394L83.7245 76.8105L83.5186 75.3173L83.3126 75.1629V74.3391L85.1662 74.4935V75.1114L85.7326 75.4718L85.0632 76.1411L85.1662 77.0679H85.6296L84.5998 78.3551Z" fill="#A6E3D5"/>
<path d="M203.228 156.411L204.104 150.335C204.104 150.283 204.155 150.232 204.155 150.181L204.515 147.606C204.515 147.555 204.515 147.503 204.515 147.452L205.391 141.531C205.391 141.479 205.442 141.428 205.442 141.376L205.803 138.802C205.803 138.75 205.803 138.699 205.803 138.647L206.678 132.726C206.678 132.675 206.729 132.623 206.729 132.572L207.09 129.997C207.09 129.946 207.09 129.894 207.09 129.843L209.252 114.963V114.86L211.981 96.3239L212.187 94.7793L213.114 88.6007L213.217 87.9829L214.813 77.2219C214.865 76.9129 214.659 76.604 214.298 76.5525L211.621 76.1406L212.29 71.4037L212.651 68.8293C212.702 68.5204 212.496 68.2115 212.187 68.16L199.161 66.2549C198.852 66.2034 198.543 66.4094 198.491 66.7698L197.41 74.0811L194.733 73.6692C194.424 73.6177 194.115 73.8237 194.063 74.1841L193.703 76.7585L192.776 82.937L192.467 85.2025L191.386 92.4623L191.129 94.3159L190.202 100.597L189.841 103.12L188.915 109.299L188.554 111.873L187.627 118.052L187.267 120.626L182.479 153.218C182.427 153.527 182.633 153.836 182.993 153.888L184.538 154.094L186.237 154.351L188.76 154.711L192.776 155.278L196.792 155.844L199.315 156.205L202.559 156.668C202.868 156.925 203.177 156.719 203.228 156.411Z" fill="#A6E3D5"/>
<path fill-rule="evenodd" clip-rule="evenodd" d="M71.8308 137.155V93.4415H72.8091V88.6016H71.213V86.3361H72.8091V81.4962H70.0802C69.9258 75.3177 65.1889 76.9138 63.4898 73.5156C61.7906 76.9138 57.0537 75.3177 56.8993 81.4962H54.1704V86.3361H55.7665V88.6016H54.1704V93.4415H55.1487V94.7802C53.3466 92.3087 51.5445 89.9918 51.2871 87.4689C50.7207 92.9781 42.7401 96.1189 43.1005 104.923V137.206H38.415V116.148H36.5615V92.2573V91.3305V91.176V62.1367H35.1713C35.1713 67.44 35.9951 73.2581 30.2284 76.0385C26.1094 77.9951 22.9171 81.6507 22.9171 86.5936C22.9171 89.1165 22.9171 90.5582 22.9171 91.3305H19.8278V116.199H17.9743V137.258H7.4707V206.2H76.3618V137.155H71.8308Z" fill="#D1F1F0"/>
<path fill-rule="evenodd" clip-rule="evenodd" d="M59.8292 144.054H58.7994V117.486H57.9241V112.337H56.7399V104.82H55.4527V103.018H54.4744V101.215H50.6128H48.1414V91.0723H46.1848V88.7554H37.3289V91.0723H35.3723V133.653H33.3643V111.565H32.6435V108.269H31.7167L28.8848 96.4271H28.2155H27.5461L24.7658 108.269H23.839V111.565H23.1182V133.653H20.6982V137.515L20.0289 136.588V131.439H19.617V127.423H18.9476V123.973L18.0723 125.415L17.403 123.252H17.1455V121.244C17.1455 121.141 17.0426 121.038 16.9396 121.038C16.8366 121.038 16.7336 121.141 16.7336 121.244V123.252H16.4762L15.8068 125.415L14.9315 123.973V127.423H14.2622V131.439H13.8503V136.588L13.2324 137.463V101.37H0V152.704H11.8938H13.181H13.7988H19.3595H20.0804H20.7497H21.9854H23.1182H24.4568H25.7955H28.2155H30.6354H31.9741H33.3128H35.3208H35.6813H37.1229H39.5429H40.4182H41.3449H42.3747H43.3015H44.0223H44.4857H45.0521H45.9789H47.8839H48.1929H48.8107H50.6643H52.5179H53.3932H55.2982H56.225H56.7914H57.9756H58.8509H59.8807H60.8074V145.238H59.8807V144.054H59.8292Z" fill="#C0EAE0"/>
<path fill-rule="evenodd" clip-rule="evenodd" d="M90.8462 145.237V144.053H89.8679V117.485H88.9411V112.336H84.3587V117.485H83.4834V152.703H84.3587H86.2638H87.242H88.9411H89.8679H90.8462H91.8245V145.237H90.8462Z" fill="#C0EAE0"/>
<path fill-rule="evenodd" clip-rule="evenodd" d="M78.9011 112.336H74.3187V117.485H73.4434V144.053H72.4136V145.237H71.4868V152.703H72.4136H73.4434H74.3187H76.0178H76.996H78.9011H79.7764V117.485H78.9011V112.336Z" fill="#C0EAE0"/>
<path d="M187.988 113.676C187.885 113.522 187.73 113.419 187.576 113.419H142.472C142.318 113.419 142.163 113.522 142.06 113.676C141.957 113.831 141.957 113.985 142.06 114.14L143.193 116.251C143.296 116.405 143.45 116.508 143.605 116.508H145.304L146.282 118.362C146.385 118.516 146.54 118.619 146.694 118.619H149.423V119.649C149.423 119.906 149.629 120.164 149.938 120.164H151.946V121.194C151.946 121.451 152.152 121.709 152.461 121.709H153.182V125.982H149.938C149.68 125.982 149.423 126.188 149.423 126.497V128.814C149.423 129.071 149.629 129.329 149.938 129.329H153.182V158.471C153.182 158.728 153.388 158.986 153.696 158.986H158.227C158.485 158.986 158.742 158.78 158.742 158.471V129.329H171.254V150.336V158.471C171.254 158.728 171.46 158.986 171.769 158.986H176.3C176.557 158.986 176.815 158.78 176.815 158.471V150.336V129.329H180.058C180.316 129.329 180.573 129.123 180.573 128.814V126.497C180.573 126.239 180.367 125.982 180.058 125.982H176.815V121.709H177.535C177.793 121.709 178.05 121.503 178.05 121.194V120.164H180.058C180.316 120.164 180.573 119.958 180.573 119.649V118.619H183.302C183.508 118.619 183.663 118.516 183.714 118.362L184.692 116.508H186.391C186.546 116.508 186.752 116.405 186.803 116.251L187.936 114.14C188.091 113.985 188.091 113.831 187.988 113.676ZM171.305 125.879H158.794V121.606H159.515C159.772 121.606 160.029 121.4 160.029 121.091V120.061H170.121V121.091C170.121 121.348 170.327 121.606 170.636 121.606H171.357L171.305 125.879Z" fill="#A6E3D5"/>
<rect y="149.482" width="220.72" height="63.0629" fill="white"/>
<path d="M124.239 222.667C145.705 222.667 163.107 218.8 163.107 214.03C163.107 209.26 145.705 205.393 124.239 205.393C102.773 205.393 85.3716 209.26 85.3716 214.03C85.3716 218.8 102.773 222.667 124.239 222.667Z" fill="#D9F7DD"/>
<path d="M132.409 166.408C132.409 166.408 132.37 166.953 132.409 167.264C132.409 167.264 132.643 167.42 132.643 167.653C132.643 167.886 132.526 167.964 132.409 168.042C132.409 168.042 132.331 168.704 132.409 168.937C132.409 168.937 133.693 169.248 135.016 168.937C135.016 168.937 135.016 168.237 134.938 168.003C134.938 168.003 134.705 167.848 134.705 167.614C134.705 167.381 134.821 167.303 134.938 167.303C134.938 167.303 134.977 166.836 134.821 166.447C134.782 166.408 133.148 166.175 132.409 166.408Z" fill="#27A935"/>
<path d="M125.367 208.116C125.367 208.116 125.173 212.745 125.367 214.924H137.078C137.078 214.924 137.428 213.135 136.767 212.512C136.066 211.89 131.787 209.827 130.269 207.96L125.367 208.116Z" fill="#96FFA3"/>
<path d="M129.841 208.155L125.367 208.116C125.367 208.116 125.173 212.746 125.367 214.924H132.293C129.18 212.862 129.841 208.155 129.841 208.155Z" fill="#00F57E"/>
<path d="M130.542 213.252C128.986 213.019 126.301 213.019 125.25 213.174C125.25 213.836 125.289 214.458 125.328 214.964H137.078C137.078 214.964 137.195 214.419 137.156 213.797H131.242C130.97 213.408 130.542 213.252 130.542 213.252Z" fill="white"/>
<path d="M115.446 208.116C115.446 208.116 114.979 211.228 115.446 214.924H124.433C124.433 214.924 124.628 213.329 124.083 212.707C123.538 212.084 121.593 211.072 120.231 207.96L115.446 208.116Z" fill="#96FFA3"/>
<path d="M120.62 208.739C120.504 208.505 120.387 208.272 120.27 208L115.485 208.155C115.485 208.155 115.018 211.268 115.485 214.964H121.399C120.115 212.746 120.387 209.906 120.62 208.739Z" fill="#00F57E"/>
<path d="M120.66 213.252C117.625 212.746 115.291 213.174 115.291 213.174C115.329 213.719 115.368 214.302 115.446 214.925H124.434C124.434 214.925 124.511 214.38 124.434 213.758H121.204C120.893 213.446 120.66 213.252 120.66 213.252Z" fill="white"/>
<path d="M129.88 157.927C129.88 157.927 131.32 180.571 131.32 186.212C131.32 191.853 131.048 208.194 131.048 208.194C131.048 208.194 127.935 209.711 125.017 208.194C125.017 208.194 124.667 189.869 124.55 186.368C124.433 182.827 121.593 166.175 121.593 166.175C121.593 166.175 121.827 181.31 121.593 186.484C121.36 191.659 121.126 207.766 121.126 207.766C121.126 207.766 118.014 209.283 114.785 208.233C114.785 208.233 114.512 189.714 114.435 186.834C114.357 183.955 112.8 165.397 111.945 158.511C111.906 158.511 118.247 153.258 129.88 157.927Z" fill="#70CFB9"/>
<path d="M126.573 196.016C126.573 184.889 124.745 174.618 124.356 167.031C124.044 161.389 127.974 160.339 129.997 160.183C129.919 158.783 129.841 157.966 129.841 157.966C118.247 153.297 111.867 158.549 111.867 158.549C112.723 165.436 114.24 184.033 114.357 186.873C114.473 189.713 114.707 208.272 114.707 208.272C117.936 209.361 121.049 207.805 121.049 207.805C121.049 207.805 121.282 191.697 121.515 186.523C121.749 181.348 121.515 166.214 121.515 166.214C121.515 166.214 124.356 182.866 124.472 186.406C124.589 189.947 124.939 208.233 124.939 208.233C127.313 209.478 129.841 208.7 130.697 208.349C128.168 206.015 126.573 201.93 126.573 196.016Z" fill="#70CFB9"/>
<path d="M124.355 137.346L115.835 138.124L119.726 123.845L120.971 114.041H138.323L156.57 110.5L146.454 123.534L143.147 140.069L124.355 137.346Z" fill="#B8F2ED"/>
<path d="M124.355 137.346L115.835 138.124L119.726 123.845L120.971 114.041H138.323L156.57 110.5L146.454 123.534L143.147 140.069L124.355 137.346Z" fill="#8AD0DB"/>
<path d="M155.325 111.24L145.754 123.729L142.758 139.486L125.211 136.763L116.496 137.541L120.192 124.001V123.923V123.846L121.399 114.508H137.467L155.325 111.24ZM157.776 109.723L138.245 113.535H120.504L119.181 123.768L115.096 138.747L124.317 137.891L143.536 140.692L146.921 123.807L157.776 109.723Z" fill="white"/>
<path opacity="0.14" d="M119.22 123.767L115.135 138.707L124.356 137.851L133.11 123.922L119.22 123.767Z" fill="#383838"/>
<path opacity="0.14" d="M138.323 113.535L133.109 123.923L146.921 123.806V123.728L157.776 109.722L138.323 113.535Z" fill="#383838"/>
<path d="M125.99 109.877C125.99 109.877 126.729 111.473 127.196 112.329C127.274 112.484 127.235 112.679 127.118 112.834C126.846 113.107 126.34 113.496 125.951 113.535C125.951 113.535 125.601 111.317 125.99 109.877Z" fill="#F4CB9A"/>
<path d="M125.951 113.534C126.34 113.495 126.846 113.106 127.118 112.834C127.235 112.756 127.274 112.601 127.235 112.484C126.885 112.678 126.379 112.951 125.873 112.99C125.912 113.301 125.951 113.534 125.951 113.534Z" fill="#E5AE89"/>
<path d="M125.095 103.575C125.095 103.575 126.106 106.065 126.301 107.271C126.456 108.477 126.184 113.068 126.028 114.157C125.873 115.247 125.25 117.97 124.706 118.126C124.2 118.281 122.021 118.281 121.243 118.126C121.243 118.126 120.737 119.721 120.659 120.732C120.659 120.732 116.808 121.977 113.5 120.46C113.5 120.46 113.89 116.725 114.006 115.908C114.123 115.13 114.24 107.193 115.874 105.792C117.508 104.392 124.161 103.38 125.095 103.575Z" fill="#F4CB9A"/>
<path d="M123.772 107.777C123.889 107.582 124.823 106.337 125.834 105.598C125.484 104.586 125.095 103.575 125.095 103.575C124.862 103.536 124.278 103.575 123.461 103.653L123.772 107.777Z" fill="#E5AE89"/>
<path d="M132.915 153.375C132.915 153.375 133.771 154.114 134.16 155.592C134.549 157.032 134.666 165.591 134.666 165.591C134.666 165.591 133.265 165.902 132.487 165.591C132.487 165.591 132.565 158.471 132.292 155.942L132.915 153.375Z" fill="#27A935"/>
<path d="M132.487 165.553C132.487 165.553 132.332 165.942 132.409 166.409C132.409 166.409 133.11 166.642 134.783 166.409C134.783 166.409 134.783 165.942 134.666 165.553C134.666 165.553 133.654 165.32 132.487 165.553Z" fill="#96FFA3"/>
<path d="M121.282 117.465C120.348 117.815 119.57 118.282 119.57 118.282C118.13 118.437 115.173 118.126 115.173 118.126L113.734 118.399C113.617 119.449 113.5 120.422 113.5 120.422C116.808 121.939 120.659 120.694 120.659 120.694C120.698 119.682 121.243 118.087 121.243 118.087C122.021 118.243 124.2 118.243 124.706 118.087C123.033 117.893 121.865 117.231 121.282 117.465Z" fill="#E5AE89"/>
<path d="M134.666 165.513C133.148 165.007 132.993 163.334 132.876 159.988C132.798 157.46 133.615 156.409 134.238 155.981C134.199 155.825 134.199 155.67 134.16 155.553C133.771 154.114 132.915 153.335 132.915 153.335L132.292 155.864C132.604 158.393 132.487 165.513 132.487 165.513C133.265 165.824 134.666 165.513 134.666 165.513Z" fill="#37C848"/>
<path d="M123.966 109.994C123.966 109.994 124.2 109.45 124.316 108.788C124.316 108.788 124.239 106.493 125.523 104.664C125.523 104.664 127.312 103.264 127.779 102.524C128.246 101.785 128.635 99.9176 128.635 99.9176C128.635 99.9176 126.962 100.307 126.34 100.307C126.34 100.307 127.001 99.4896 127.546 98.478C127.546 98.478 124.161 98.7893 122.293 98.7893C120.426 98.7893 111.905 99.9176 111.477 100.774C111.049 101.629 109.843 104.197 109.843 107.232C109.843 110.267 112.178 114.585 113.967 116.375C113.967 116.375 116.38 116.336 118.792 116.803C118.792 116.803 119.725 116.142 120.465 115.636C120.97 115.286 121.437 114.819 121.788 114.274C122.177 113.729 122.488 113.107 122.76 112.64L123.966 109.994Z" fill="#B77441"/>
<path d="M127.741 102.525C127.857 102.33 127.974 102.097 128.052 101.824C127.313 102.68 125.756 104.042 123.111 104.664C119.181 105.559 117.119 106.726 117.742 107.66C118.714 109.178 119.415 115.558 112.762 115.013C113.151 115.558 113.54 116.025 113.89 116.375C113.89 116.375 116.302 116.336 118.714 116.803C118.714 116.803 119.648 116.142 120.387 115.636C120.893 115.286 121.36 114.819 121.71 114.274C122.099 113.73 122.411 113.107 122.683 112.64L123.928 109.995C123.928 109.995 124.161 109.45 124.278 108.788C124.278 108.788 124.2 106.493 125.484 104.664C125.523 104.664 127.313 103.264 127.741 102.525Z" fill="#995B42"/>
<path d="M124.083 110.539C124.083 110.539 123.616 108.088 122.76 107.933C121.904 107.777 120.815 108.283 120.893 109.45C120.97 110.617 122.021 112.679 123.655 113.068L124.083 110.539Z" fill="#F4CB9A"/>
<path d="M110.233 120.382C110.349 119.721 119.882 119.448 125.484 121.238C125.484 121.238 126.846 136.061 127.157 139.407C127.468 142.753 129.414 155.359 129.88 157.888C129.88 157.888 119.804 156.682 111.906 158.471C111.906 158.471 110.388 145.01 110.155 140.458C109.883 135.906 109.532 124.312 110.233 120.382Z" fill="#8EE898"/>
<path d="M125.795 157.616C126.534 155.904 126.729 153.531 126.34 151.391C125.639 147.617 126.379 140.964 126.962 137.462C126.846 136.295 126.729 134.778 126.573 133.222L123.5 126.685C123.11 126.646 112.256 131.821 109.999 137.774C110.038 138.824 110.077 139.758 110.116 140.497C110.194 141.742 110.349 143.61 110.544 145.711C112.178 149.757 115.524 153.725 119.025 157.655C121.554 157.499 123.928 157.538 125.795 157.616Z" fill="#96FFA3"/>
<path d="M128.791 139.135C128.791 139.135 129.686 145.982 129.763 147.383H128.129V140.574L128.791 139.135Z" fill="#37C848"/>
<path d="M128.791 139.135L128.091 140.574V143.765C128.597 143.337 128.947 142.792 129.18 142.286C128.986 140.574 128.791 139.135 128.791 139.135Z" fill="#27A935"/>
<path d="M126.34 133.766C126.34 133.766 126.262 138.862 125.406 140.224C124.55 141.586 126.456 145.048 127.857 142.792C129.258 140.535 128.791 136.917 128.168 135.322C127.546 133.727 126.379 132.91 126.34 133.766Z" fill="#70CFB9"/>
<path d="M128.908 136.412C128.908 136.412 131.515 139.68 134.316 141.547C134.744 141.82 135.328 141.742 135.678 141.392C137.001 140.03 140.269 136.684 142.253 133.766C144.86 130.031 145.288 129.214 145.91 128.553C146.533 127.891 147.933 126.646 148.439 125.751C148.945 124.856 149.568 124.156 149.49 123.611C149.412 123.067 149.023 120.966 149.023 120.966C149.023 120.966 146.533 123.884 145.755 124.584C144.665 125.596 142.409 126.841 142.136 127.424C141.864 128.008 139.102 130.809 138.09 131.665C137.079 132.521 135.678 133.805 135.017 134.505L133.149 132.093C133.227 132.093 129.803 133.494 128.908 136.412Z" fill="#F4CB9A"/>
<path d="M128.246 142.092C127.935 141.742 127.702 141.353 127.507 140.964C126.34 138.591 128.246 135.361 128.246 135.361C127.663 133.766 126.418 132.91 126.379 133.766C126.379 133.766 126.301 138.863 125.445 140.225C124.589 141.586 126.496 145.049 127.896 142.793C128.013 142.598 128.13 142.365 128.246 142.092Z" fill="#38BE9E"/>
<path d="M133.226 132.093C133.226 132.093 129.764 133.494 128.869 136.412C128.869 136.412 129.764 137.54 131.086 138.863C130.775 138.085 131.203 137.229 131.203 137.229C132.993 136.49 133.888 134.272 134.199 133.377L133.226 132.093Z" fill="#E5AE89"/>
<path d="M135.833 140.069C134.432 140.964 132.954 139.602 132.37 139.019C131.553 138.24 131.242 137.19 131.242 137.19L129.646 137.268C130.619 138.357 132.409 140.264 134.354 141.547C134.782 141.82 135.366 141.742 135.716 141.392C135.988 141.119 136.299 140.808 136.65 140.419C136.416 140.302 136.066 139.913 135.833 140.069Z" fill="#E5AE89"/>
<path d="M142.37 127.153C142.37 127.153 142.759 124.507 143.07 123.846C143.381 123.184 144.159 122.095 144.159 122.095C144.159 122.095 145.404 121.122 145.949 120.578C146.105 120.422 146.299 120.344 146.533 120.344C146.766 120.344 146.999 120.461 147.077 120.772C147.077 120.772 147.116 121.784 145.871 122.756C145.871 122.756 145.988 124.274 146.027 124.663C145.988 124.702 143.926 126.958 142.37 127.153Z" fill="#F4CB9A"/>
<path d="M125.484 121.277C125.484 121.277 123.266 121.666 122.644 125.323C122.021 128.98 126.535 134.933 128.363 137.112C128.363 137.112 130.425 137.656 132.02 136.256C133.654 134.855 134.16 132.132 134.16 132.132C134.16 132.132 129.997 126.529 128.869 124.778C127.741 123.028 126.418 121.549 125.484 121.277Z" fill="#96FFA3"/>
<path d="M126.34 140.963C126.184 140.963 124.745 142.714 122.955 143.181L123.655 145.049C123.655 145.049 126.418 144.621 127.468 142.87L126.34 140.963Z" fill="#37C848"/>
<path d="M123.305 144.154L123.655 145.088C123.655 145.088 126.417 144.66 127.468 142.909L126.339 141.003C126.339 140.964 127.04 143.999 123.305 144.154Z" fill="#27A935"/>
<path d="M123.85 148.434C123.85 148.434 128.324 149.913 130.386 149.99C132.448 150.068 133.732 153.57 133.187 155.437C132.642 157.305 130.23 158.783 124.472 158.2L123.85 148.434Z" fill="#70CFB9"/>
<path d="M133.11 153.064C132.409 154.62 131.281 155.943 129.608 155.126C126.962 153.881 126.262 150.613 126.107 149.134C124.823 148.784 123.811 148.434 123.811 148.434L124.472 158.161C130.231 158.744 132.643 157.266 133.187 155.398C133.382 154.776 133.343 153.881 133.11 153.064Z" fill="#38BE9E"/>
<path d="M149.1 120.966C149.1 120.966 146.61 123.884 145.832 124.584C145.793 124.623 145.793 124.623 145.754 124.662C145.871 125.051 145.91 124.973 145.91 125.207C145.987 125.751 147.66 122.055 149.255 121.9C149.178 121.355 149.1 120.966 149.1 120.966Z" fill="#E5AE89"/>
<path d="M130.659 152.48C130.659 152.48 130.464 153.336 131.048 154.542C131.048 154.542 132.254 154.736 133.343 154.347C133.343 154.347 133.654 153.063 132.993 152.519C132.954 152.48 131.437 152.246 130.659 152.48Z" fill="#37C848"/>
<path d="M129.725 147.383C129.725 147.228 129.725 147.033 129.686 146.8L128.091 146.839V147.383H129.725Z" fill="#27A935"/>
<path d="M142.214 127.425C142.214 127.425 143.731 128.164 145.093 129.681C145.093 129.681 145.093 130.226 144.12 131.121C144.12 131.121 143.264 130.226 141.125 128.787C141.125 128.748 141.708 127.58 142.214 127.425Z" fill="#333232"/>
<path d="M126.107 127.891C124.317 125.362 124.55 122.794 124.784 121.549C124.083 121.977 123.033 122.989 122.644 125.284C122.021 128.942 126.535 134.894 128.363 137.073C128.363 137.073 130.425 137.618 132.02 136.217C132.993 135.361 133.577 134.038 133.888 133.105C130.775 134.7 128.246 130.965 126.107 127.891Z" fill="#8EE898"/>
<path d="M146.688 127.424C146.105 127.969 144.743 129.797 143.77 131.081C140.93 134.972 136.222 140.497 133.616 141.08C133.849 141.236 134.044 141.391 134.277 141.547C134.705 141.819 135.289 141.742 135.639 141.391C136.962 140.03 140.23 136.684 142.214 133.766C144.821 130.031 145.249 129.214 145.871 128.552C146.494 127.891 147.894 126.646 148.4 125.751C148.478 125.751 147.505 126.646 146.688 127.424Z" fill="#E5AE89"/>
<path d="M144.12 131.082C145.093 130.187 145.093 129.642 145.093 129.642C144.431 128.903 143.731 128.319 143.147 127.969C142.68 128.203 142.213 128.592 141.863 129.253C143.458 130.381 144.12 131.082 144.12 131.082Z" fill="#232323"/>
<path d="M144.491 130.257C144.95 129.661 144.867 128.827 144.306 128.394C143.744 127.961 142.917 128.093 142.457 128.689C141.998 129.284 142.081 130.118 142.643 130.551C143.204 130.984 144.032 130.852 144.491 130.257Z" fill="#D8DFEA"/>
<path d="M144.47 130.264C144.859 129.758 144.859 129.136 144.548 128.708C144.314 130.186 143.225 130.42 142.408 130.42C142.447 130.498 142.524 130.537 142.602 130.614C143.186 131.003 144.003 130.887 144.47 130.264Z" fill="#B2C1CC"/>
<path d="M144.453 130.231C144.834 129.737 144.77 129.05 144.31 128.696C143.851 128.341 143.17 128.454 142.79 128.948C142.409 129.441 142.473 130.128 142.932 130.483C143.392 130.837 144.073 130.724 144.453 130.231Z" fill="#EBFEFF"/>
<path d="M111.011 117.854C113.734 117.698 116.38 118.009 117.858 118.71C119.337 119.41 121.399 122.678 122.527 125.674C123.655 128.67 123.149 138.591 124.278 144.154C125.406 149.718 127.39 155.865 125.484 158.083C123.539 160.301 120.037 163.141 113.617 162.752C107.198 162.363 104.358 156.994 104.008 155.515C103.657 154.037 103.152 135.712 103.035 130.498C102.918 125.285 104.397 120.85 104.863 120.344C105.369 119.838 107.081 118.087 111.011 117.854Z" fill="#7BFFE0"/>
<path d="M122.411 129.642C122.411 129.642 122.761 129.759 123.266 130.148C123.15 128.241 122.955 126.607 122.566 125.673C122.177 124.662 121.671 123.573 121.127 122.6C119.882 122.016 118.676 121.588 117.82 121.472C115.368 121.121 107.937 121.005 104.553 120.966C103.93 122.444 102.957 126.218 103.074 130.498C103.074 130.615 103.074 130.692 103.074 130.809C104.942 130.109 108.443 129.097 111.244 130.109C115.174 131.626 119.298 132.249 122.411 129.642Z" fill="#63DABE"/>
<path d="M104.202 150.729C104.241 150.924 111.633 151.002 112.1 151.508C112.567 152.013 116.224 152.753 117.274 153.492C118.13 154.075 122.254 143.182 123.694 138.435C123.616 137.501 123.577 136.529 123.538 135.595C121.865 134.272 117.352 132.482 116.38 134.544C115.212 137.034 117.119 147.734 115.524 147.773C113.929 147.811 112.956 147.461 111.789 143.026C110.621 138.591 109.921 132.288 109.843 132.093C109.843 132.093 107.898 147.422 107.82 147.578C107.742 147.734 106.692 148.59 105.797 147.422C104.941 146.255 103.774 132.521 103.774 132.521C103.774 132.521 104.163 150.535 104.202 150.729Z" fill="#63DABE"/>
<path d="M123.655 136.334C123.655 136.334 124.044 137.54 124.161 138.513C124.239 139.524 125.523 144.932 124.667 145.749C124.667 145.749 122.177 147.695 118.17 147.15L117.586 136.762L123.655 136.334Z" fill="#38BE9E"/>
<path d="M116.808 129.214C116.808 129.214 117.858 133.26 118.13 135.128C118.403 136.84 122.255 135.789 123.5 135.284C123.305 131.237 123.188 127.347 122.566 125.674C122.41 125.246 122.216 124.857 122.06 124.429L116.808 129.214Z" fill="#38BE9E"/>
<path d="M117.508 133.766C117.508 133.766 120.037 134.31 123.46 133.182C123.46 133.182 124.55 134.738 124.083 135.944C123.616 137.151 118.753 137.501 117.624 136.8C116.496 136.061 117.508 133.766 117.508 133.766Z" fill="#37C848"/>
<path d="M124.044 135.906C124.511 134.7 123.422 133.144 123.422 133.144C123.266 133.183 123.111 133.261 122.955 133.3C124.161 133.922 124.472 135.906 121.671 135.867C119.414 135.829 119.064 134.389 118.014 133.844C117.664 133.805 117.469 133.767 117.469 133.767C117.469 133.767 116.458 136.062 117.586 136.762C118.714 137.502 123.616 137.113 124.044 135.906Z" fill="#27A935"/>
<path d="M118.441 130.459C118.441 130.459 118.325 143.999 118.83 148.862C118.83 148.862 117.352 148.823 116.457 148.706C116.457 148.706 116.262 132.56 115.718 130.187L118.441 130.459Z" fill="#37C848"/>
<path d="M116.458 148.706C117.391 148.862 118.831 148.862 118.831 148.862C118.792 148.317 118.714 147.695 118.675 146.955C117.547 146.489 116.847 145.827 116.38 145.205C116.419 147.306 116.458 148.706 116.458 148.706Z" fill="#27A935"/>
<path d="M110.466 127.891C110.466 127.891 110.466 143.181 112.1 149.679L108.637 149.484C108.637 149.484 107.976 146.099 107.548 127.891H110.466Z" fill="#37C848"/>
<path d="M108.404 147.461C108.559 149.017 108.637 149.484 108.637 149.484L112.1 149.679C111.905 148.901 111.711 148.006 111.594 146.994C110.544 147.033 109.338 147.266 108.404 147.461Z" fill="#27A935"/>
<path d="M110.466 127.891H107.548C107.548 128.669 107.587 129.408 107.587 130.109C108.248 130.031 109.221 130.031 110.466 130.342C110.466 128.864 110.466 127.891 110.466 127.891Z" fill="#27A935"/>
<path d="M118.131 120.227C118.131 120.227 121.671 125.557 122.449 126.685C122.449 126.685 123.267 125.479 124.045 123.495C124.823 121.51 126.068 121.588 126.068 121.588C126.068 121.588 126.029 120.538 125.212 120.11C124.395 119.682 122.605 118.826 120.815 118.982C119.104 119.176 118.131 120.227 118.131 120.227Z" fill="#70CFB9"/>
<path d="M109.027 128.747C110.505 128.747 115.407 131.587 117.236 131.003C118.753 130.497 121.477 128.863 122.955 127.229C122.838 126.646 122.722 126.101 122.605 125.712C121.477 122.716 119.415 119.409 117.936 118.748C116.458 118.047 113.812 117.736 111.089 117.892C107.159 118.125 105.408 119.876 104.98 120.382C104.552 120.888 103.113 125.128 103.152 130.186C103.424 130.147 103.774 130.108 104.241 129.914C106.07 129.136 107.548 128.747 109.027 128.747Z" fill="#7BFFE0"/>
<path d="M125.522 158.082C127.04 156.331 126.145 152.129 125.095 147.694C117.586 150.301 114.59 147.733 110.077 147.849C108.17 147.888 105.602 148.861 103.618 149.639C103.735 152.713 103.891 155.047 104.007 155.514C104.357 156.992 107.198 162.323 113.617 162.751C120.076 163.179 123.616 160.3 125.522 158.082Z" fill="#70CFB9"/>
<path d="M125.522 158.082C127.04 156.331 126.145 152.129 125.095 147.694C120.737 149.211 117.897 148.978 115.407 148.55C116.924 150.223 117.469 152.246 117.235 153.491C116.885 155.475 111.789 157.109 107.587 155.242C104.318 153.802 105.563 150.223 106.497 148.589C105.486 148.9 104.474 149.289 103.618 149.639C103.735 152.713 103.891 155.047 104.007 155.514C104.357 156.992 107.198 162.323 113.617 162.751C120.076 163.179 123.616 160.3 125.522 158.082Z" fill="#38BE9E"/>
<path d="M118.17 147.151C118.17 147.151 121.438 147.034 124.862 145.361C124.862 145.361 125.329 145.555 125.368 146.061C125.406 146.528 126.224 148.318 123.15 148.94C120.076 149.563 118.753 149.563 118.014 149.368C118.014 149.368 117.547 147.89 118.17 147.151Z" fill="#37C848"/>
<path d="M125.406 146.061C125.406 145.983 124.706 147.812 122.177 148.045C119.415 148.318 118.909 147.539 118.831 147.073C118.442 147.111 118.209 147.111 118.209 147.111C117.547 147.851 118.053 149.329 118.053 149.329C118.792 149.524 120.115 149.524 123.189 148.901C126.262 148.318 125.445 146.567 125.406 146.061Z" fill="#27A935"/>
<path d="M116.419 147.189C116.419 147.189 117.469 146.994 118.676 147.189C118.676 147.189 119.181 148.511 118.792 149.484C118.792 149.484 117.392 149.912 116.38 149.484C116.419 149.484 116.03 148.317 116.419 147.189Z" fill="#27A935"/>
<path d="M108.209 124.156C108.209 124.156 108.443 125.79 109.104 125.868C109.96 125.946 110.544 124 110.544 124L108.209 124.156Z" fill="#ADADAD"/>
<path d="M103.073 130.148C103.346 130.109 103.696 130.071 104.163 129.876C104.98 129.565 105.758 129.292 106.458 129.098C104.669 127.931 104.046 125.09 103.852 123.301C103.424 125.129 103.035 127.503 103.073 130.148Z" fill="#63DABE"/>
<path d="M122.954 127.19C122.838 126.607 122.721 126.062 122.604 125.673C121.748 123.417 120.348 120.965 119.102 119.643C116.963 125.128 113.656 128.124 110.815 129.214C112.916 129.992 115.951 131.431 117.274 131.003C118.791 130.497 121.476 128.824 122.954 127.19Z" fill="#63DABE"/>
<path d="M106.031 119.565C107.315 119.682 114.707 123.495 114.513 125.557C114.396 126.918 112.879 127.774 109.688 127.813C106.342 127.891 105.525 127.113 105.175 126.374C104.553 125.051 104.786 121.549 116.886 118.398" stroke="#ADADAD" stroke-width="0.9202" stroke-miterlimit="10" stroke-linecap="round"/>
<path d="M116.808 125.557C116.808 125.557 115.368 125.324 114.123 124.974C114.123 124.974 113.618 125.635 113.462 126.374C113.462 126.374 115.135 127.23 115.991 127.152L116.808 125.557Z" fill="#37C848"/>
<path d="M105.72 119.41C107.004 119.527 115.018 123.106 114.513 125.324C114.201 126.647 112.878 127.541 109.688 127.58C106.342 127.658 105.525 126.88 105.175 126.141C104.552 124.818 104.825 121.161 117.119 118.282" stroke="#37C848" stroke-width="0.9202" stroke-miterlimit="10" stroke-linecap="round"/>
<path d="M119.298 119.448C118.559 119.798 118.169 120.265 118.169 120.265C118.169 120.265 121.71 125.595 122.488 126.724C122.488 126.724 123.305 125.518 124.083 123.533C124.861 121.549 126.106 121.627 126.106 121.627C126.106 121.627 126.067 120.888 125.601 120.421C124.2 121.355 123.344 122.133 122.566 122.366C121.243 122.677 120.426 120.46 119.298 119.448Z" fill="#38BE9E"/>
<path d="M104.046 127.58C104.046 127.58 105.33 127.114 105.836 126.53C105.836 126.53 105.719 125.907 105.175 125.479C105.175 125.479 104.202 125.907 103.774 126.063L104.046 127.58Z" fill="#37C848"/>
<path d="M105.797 126.569C105.019 126.375 104.552 126.103 104.241 125.869C104.046 125.947 103.891 126.025 103.774 126.064L104.046 127.62C104.046 127.581 105.213 127.153 105.797 126.569Z" fill="#27A935"/>
<path d="M109.26 123.339C109.843 123.339 110.427 123.417 110.622 123.573C110.816 123.728 109.921 125.674 109.338 125.674C108.754 125.674 108.17 124.079 108.17 123.767C108.132 123.534 108.676 123.339 109.26 123.339Z" fill="#5B5B5B"/>
<path d="M104.786 129.642C104.591 129.719 104.358 129.797 104.163 129.875C103.696 130.031 103.346 130.108 103.074 130.147C102.529 129.797 102.996 149.717 103.657 149.678C104.085 149.523 104.552 149.328 105.019 149.173C104.825 145.01 104.513 132.132 104.786 129.642Z" fill="#37C848"/>
<path d="M103.151 145.439C103.307 147.929 103.463 149.68 103.657 149.641C104.085 149.485 104.552 149.291 105.019 149.135C104.98 148.551 104.941 147.851 104.941 146.995C104.046 146.606 103.502 146.023 103.151 145.439Z" fill="#27A935"/>
<path d="M103.307 147.579C103.346 147.345 104.008 147.189 104.513 147.189C104.825 147.189 105.097 147.384 105.136 147.695C105.214 148.162 105.253 148.901 105.136 149.679C105.136 149.679 104.358 150.146 103.619 150.03C103.58 150.03 103.074 149.057 103.307 147.579Z" fill="#27A935"/>
<path d="M104.047 155.554C104.358 156.838 106.537 161.04 111.322 162.362C109.688 159.561 108.248 158.705 106.148 157.227C105.175 156.526 104.475 155.748 103.969 155.087C104.008 155.32 104.008 155.437 104.047 155.554Z" fill="#63DABE"/>
<path d="M125.523 158.083C126.69 156.721 126.417 153.959 125.795 150.729C124.783 152.013 122.488 154.776 120.309 156.371C118.675 157.577 117.002 160.184 116.302 162.713C121.087 162.324 123.889 159.989 125.523 158.083Z" fill="#63DABE"/>
<path d="M125.523 158.083C126.69 156.721 126.418 153.959 125.795 150.729C125.795 150.729 124.939 157.694 122.333 160.806C123.733 159.989 124.745 158.978 125.523 158.083Z" fill="#7BFFE0"/>
<path d="M107.548 160.418C109.066 161.624 111.05 162.596 113.657 162.752C117.82 163.024 120.738 161.896 122.838 160.495C112.373 154.387 107.47 155.788 107.548 160.418Z" fill="#37C848"/>
<path d="M116.03 127.152L116.808 125.557C116.808 125.557 116.691 125.518 116.458 125.479C115.096 126.53 114.123 126.258 113.579 125.985C113.54 126.102 113.501 126.219 113.462 126.335C113.501 126.335 115.174 127.191 116.03 127.152Z" fill="#27A935"/>
<path d="M116.029 133.727C116.574 132.21 117.702 131.354 118.441 130.926C118.441 130.654 118.441 130.498 118.441 130.498L115.718 130.226C115.834 130.731 115.951 132.054 116.029 133.727Z" fill="#27A935"/>
<path d="M118.131 118.826C118.17 121.277 117.236 126.218 112.606 129.915C114.357 130.615 116.263 131.315 117.275 131.004C118.792 130.498 121.516 128.864 122.994 127.23C122.877 126.646 122.761 126.102 122.644 125.713C121.477 122.834 119.609 119.721 118.131 118.826Z" fill="#70CFB9"/>
<path d="M103.891 123.184C103.463 124.973 103.035 127.463 103.074 130.148C103.346 130.109 103.696 130.07 104.163 129.876C104.591 129.72 104.98 129.564 105.33 129.448C104.202 127.697 103.891 125.207 103.891 123.184Z" fill="#38BE9E"/>
<path d="M122.877 108.788C122.955 108.788 122.255 108.282 121.749 108.672C121.243 109.061 121.049 110.461 122.099 111.512C122.099 111.512 121.438 110.189 121.632 109.489C121.788 109.022 122.021 108.672 122.877 108.788Z" fill="#E5AE89"/>
<path d="M122.76 107.932C122.138 107.816 121.359 108.088 121.009 108.672C121.009 108.672 121.787 107.854 122.566 108.166C122.994 108.321 123.46 108.944 123.811 109.527C123.616 108.866 123.227 108.01 122.76 107.932Z" fill="#E5AE89"/>
<path d="M122.683 109.567C122.683 109.567 123.266 110.073 123.383 110.578C123.5 111.084 122.955 111.512 122.683 111.396C122.41 111.279 122.449 110.812 122.566 110.734C122.683 110.617 122.994 110.578 122.994 110.578C122.994 110.578 123.072 110.267 122.683 109.567Z" fill="#E5AE89"/>
<path d="M147.038 120.81C146.999 120.499 146.804 120.421 146.61 120.382C146.727 120.46 146.804 120.577 146.804 120.771C146.882 121.472 145.365 122.678 145.287 122.95C145.209 123.145 145.598 124.078 145.832 124.895C145.909 124.779 145.987 124.74 145.987 124.74C145.948 124.351 145.832 122.833 145.832 122.833C147.077 121.822 147.038 120.81 147.038 120.81Z" fill="#E5AE89"/>
<path d="M146.104 120.383C146.571 120.072 147.038 120.694 146.26 121.239C145.793 121.589 145.482 120.85 146.104 120.383Z" fill="#FFE5CC"/>
<path d="M143.77 128.28C143.575 128.242 142.486 128.164 142.292 129.448C142.292 129.448 142.369 129.564 142.447 129.331C142.525 129.098 142.681 128.592 143.186 128.475C143.848 128.319 144.003 128.358 143.77 128.28Z" fill="#EBF2FC"/>
<path d="M143.147 130.615C143.225 130.654 143.342 130.693 143.459 130.693C143.498 129.954 143.575 129.137 143.614 128.475C143.498 128.475 143.42 128.514 143.303 128.553C143.264 129.137 143.186 129.915 143.147 130.615Z" fill="white"/>
<path d="M143.614 130.692C143.809 130.692 143.964 130.614 144.12 130.536C144.159 129.914 144.159 129.213 144.198 128.63C144.081 128.552 143.964 128.513 143.848 128.513C143.77 129.097 143.692 129.914 143.614 130.692Z" fill="white"/>
<path d="M133.382 153.842C132.098 154.037 131.203 153.686 130.62 153.297C130.659 153.648 130.775 154.075 131.009 154.581C131.009 154.581 132.215 154.776 133.304 154.387C133.304 154.348 133.382 154.114 133.382 153.842Z" fill="#37C848"/>
<path d="M132.371 166.137C132.371 166.215 132.371 166.332 132.371 166.41C132.371 166.41 133.071 166.643 134.744 166.41C134.744 166.41 134.744 166.332 134.744 166.215C133.616 166.41 132.799 166.254 132.371 166.137Z" fill="#96FFA3"/>
<path d="M122.955 127.191C122.877 126.647 122.761 126.18 122.644 125.791C121.749 127.464 120.543 128.826 119.103 128.242C117.314 127.503 117.002 125.635 117.041 124.157C116.224 126.102 114.824 128.164 112.606 129.915C114.357 130.615 116.263 131.316 117.275 131.004C118.792 130.498 121.477 128.826 122.955 127.191Z" fill="#38BE9E"/>
<path d="M119.842 138.279C119.881 138.007 121.009 137.306 122.605 137.812C124.2 138.318 124.939 145.01 123.811 145.36C120.62 146.333 118.947 146.177 119.842 138.279Z" fill="#70CFB9"/>
<path d="M103.074 130.147C102.84 129.992 102.801 133.299 102.879 137.189C102.996 135.516 103.113 133.999 103.268 133.182C103.502 131.665 104.241 130.77 104.786 130.264C104.786 130.031 104.825 129.797 104.825 129.642C104.63 129.719 104.397 129.797 104.202 129.875C103.696 130.031 103.346 130.108 103.074 130.147Z" fill="#27A935"/>
<path d="M103.58 150.029C104.358 150.146 105.097 149.679 105.097 149.679C105.136 149.407 105.175 149.135 105.175 148.901C104.941 149.29 104.591 149.563 104.202 149.485C103.113 149.29 103.307 147.617 103.307 147.617C103.074 149.057 103.58 150.029 103.58 150.029Z" fill="#37C848"/>
<path d="M110.582 123.573C110.466 123.456 110.154 123.378 109.804 123.339C110.738 123.495 109.726 125.362 109.26 125.324C109.026 125.324 108.793 125.168 108.598 125.012C108.793 125.362 109.065 125.674 109.298 125.674C109.882 125.674 110.816 123.728 110.582 123.573Z" fill="#444444"/>
<path d="M108.754 123.573C108.521 123.65 108.326 124.039 108.482 124.351C108.637 124.662 108.56 123.884 108.793 123.728C109.104 123.612 108.949 123.534 108.754 123.573Z" fill="#898989"/>
<path d="M118.831 149.484C118.909 149.329 118.909 149.134 118.948 148.978C117.236 149.251 116.613 148.084 116.38 147.383C116.069 148.473 116.419 149.523 116.419 149.523C117.43 149.912 118.831 149.484 118.831 149.484Z" fill="#37C848"/>
<path d="M119.842 179.247C119.959 186.367 116.263 207.61 121.087 207.766C121.087 207.766 121.321 191.658 121.554 186.484C121.788 181.309 121.554 166.175 121.554 166.175C121.554 166.175 119.609 164.93 119.842 179.247Z" fill="#70CFB9"/>
<path d="M120.66 213.252C117.625 212.746 115.291 213.174 115.291 213.174C115.291 213.446 115.329 213.68 115.329 213.952C115.329 213.991 115.329 214.03 115.329 214.069C115.368 214.341 115.368 214.614 115.407 214.925H121.321C121.049 214.419 120.854 213.874 120.66 213.252C120.699 213.291 120.66 213.252 120.66 213.252Z" fill="#D8D8D8"/>
<path d="M130.814 213.407C130.658 213.33 130.58 213.291 130.58 213.291C129.024 213.057 126.34 213.057 125.289 213.213C125.289 213.369 125.289 213.524 125.289 213.68V213.719C125.289 213.874 125.289 213.991 125.289 214.147V214.186C125.289 214.302 125.289 214.458 125.328 214.575V214.614C125.328 214.73 125.328 214.847 125.367 214.964H132.292C131.631 214.497 131.164 213.991 130.814 213.407Z" fill="#D8D8D8"/>
<path d="M13.0234 156.909L15.2633 161.949C15.4033 162.089 15.5434 162.229 15.6834 162.369L20.7233 164.609C21.2833 164.889 21.2833 165.729 20.7233 166.009L15.6834 168.249C15.5434 168.389 15.4033 168.529 15.2633 168.669L13.0234 173.709C12.7434 174.269 11.9034 174.269 11.6234 173.709L9.38342 168.669C9.24342 168.529 9.10335 168.389 8.96335 168.249L3.92342 166.009C3.36342 165.729 3.36342 164.889 3.92342 164.609L8.96335 162.369C9.10335 162.229 9.24342 162.089 9.38342 161.949L11.6234 156.909C11.9034 156.349 12.7434 156.349 13.0234 156.909Z" fill="#38BE9E"/>
<path d="M34.0444 0.419998L36.2843 5.45998C36.4243 5.59998 36.5644 5.73998 36.7044 5.87998L41.7443 8.11996C42.3043 8.39995 42.3043 9.23995 41.7443 9.51995L36.7044 11.7599C36.5644 11.8999 36.4243 12.0399 36.2843 12.1799L34.0444 17.2199C33.7644 17.7799 32.9244 17.7799 32.6444 17.2199L30.4044 12.1799C30.2644 12.0399 30.1243 11.8999 29.9843 11.7599L24.9444 9.51995C24.3844 9.23995 24.3844 8.39995 24.9444 8.11996L29.9843 5.87998C30.1243 5.73998 30.2644 5.59998 30.4044 5.45998L32.6444 0.419998C32.9244 -0.139999 33.7644 -0.139999 34.0444 0.419998Z" fill="#38BE9E"/>
<path d="M203.849 182.518L205.641 186.55C205.641 186.699 205.79 186.848 205.94 186.848L209.972 188.64C210.42 188.79 210.42 189.536 209.972 189.835L205.94 191.627C205.79 191.627 205.641 191.776 205.641 191.926L203.849 195.958C203.7 196.406 202.953 196.406 202.654 195.958L200.862 191.926C200.862 191.776 200.713 191.627 200.564 191.627L196.532 189.835C196.084 189.686 196.084 188.939 196.532 188.64L200.564 186.848C200.713 186.848 200.862 186.699 200.862 186.55L202.654 182.518C202.953 182.07 203.55 182.07 203.849 182.518Z" fill="#7BFFE0"/>
<path d="M149.889 21.345L151.892 25.953C151.892 26.097 152.035 26.241 152.178 26.241L156.754 28.257C157.327 28.545 157.327 29.2649 156.754 29.5529L152.178 31.5689C152.035 31.5689 151.892 31.7129 151.892 31.8569L149.889 36.4649C149.603 37.0409 148.888 37.0409 148.602 36.4649L146.6 31.8569C146.6 31.7129 146.457 31.5689 146.314 31.5689L141.737 29.5529C141.165 29.2649 141.165 28.545 141.737 28.257L146.314 26.241C146.457 26.241 146.6 26.097 146.6 25.953L148.602 21.345C148.888 20.913 149.746 20.913 149.889 21.345Z" fill="#37C848"/>
</svg>
